<svg id="レイヤー_1" data-name="レイヤー 1" xmlns="http://www.w3.org/2000/svg" viewBox="0 0 268.24 33.13"><defs><style>.cls-1{fill:#333;}</style></defs><path class="cls-1" d="M28.79.64a.7.7,0,0,1,1,0,.78.78,0,0,1,.21.54V31.84a.72.72,0,0,1-.72.72l-.19,0-.19,0H26.23l-.19,0-.19,0a.72.72,0,0,1-.72-.72V4.21L14,32.07a.67.67,0,0,1-.68.45h-.19a.68.68,0,0,1-.68-.45L1.44,4.93V31.84a.76.76,0,0,1-.21.53.68.68,0,0,1-1,0A.76.76,0,0,1,0,31.84V1.18A.46.46,0,0,1,0,1,.66.66,0,0,1,.72.42.67.67,0,0,1,1.4.87L13.23,30.06,24.87.91A.68.68,0,0,1,25.7.45l.15,0a.73.73,0,0,1,.53.22.76.76,0,0,1,.23.54V31.12h2V1.18A.78.78,0,0,1,28.79.64Z"/><path class="cls-1" d="M58,31.76a.75.75,0,0,1,0,.59.56.56,0,0,1-.41.36.5.5,0,0,1-.27.08.69.69,0,0,1-.68-.5L45.41,3.22l-11,29.07a.65.65,0,0,1-.68.5.4.4,0,0,1-.23-.08.64.64,0,0,1-.44-.36.66.66,0,0,1,0-.55L44.73.91v0l.11-.11q0-.12.06-.12s0,0,.09-.07a.54.54,0,0,1,.15-.08l.08,0h0l.15,0,.15,0h.11a0,0,0,0,0,0,0s.06,0,.12.08l0,0,.08,0a.9.9,0,0,1,.15.23v0Zm-7.69-5.49,2.31,5.49a.74.74,0,0,1-.38.95.7.7,0,0,1-1-.38l-2.12-5H39.57a.7.7,0,0,1-.53-.23.72.72,0,0,1-.23-.53A.68.68,0,0,1,39,26a.76.76,0,0,1,.53-.21h10a1,1,0,0,1,.26,0L50,26s0,0,0,0,0,0,0,0A.55.55,0,0,1,50.26,26.27Z"/><path class="cls-1" d="M85.7.42a.59.59,0,0,1,.36.11,1,1,0,0,1,.27.28.81.81,0,0,1,.09.37V31.8a.72.72,0,1,1-1.44,0V1.9H82.71v30a.72.72,0,0,1-.31.6.73.73,0,0,1-.41.12.66.66,0,0,1-.61-.34L62.43,3.56V32a.74.74,0,0,1-.21.53.64.64,0,0,1-.51.23.62.62,0,0,1-.51-.23A.74.74,0,0,1,61,32V1.29A.76.76,0,0,1,61.2.76a.65.65,0,0,1,.51-.23.09.09,0,0,0,.07,0,.64.64,0,0,1,.65.3L81.27,29.41V1.18a.77.77,0,0,1,.2-.54A.67.67,0,0,1,82,.42a.38.38,0,0,1,.22.07.6.6,0,0,1,.27-.07Z"/><path class="cls-1" d="M114.36,31.76a.85.85,0,0,1,0,.59.59.59,0,0,1-.42.36.5.5,0,0,1-.27.08.69.69,0,0,1-.68-.5L101.81,3.22l-11,29.07a.65.65,0,0,1-.68.5.43.43,0,0,1-.23-.08.64.64,0,0,1-.44-.36.66.66,0,0,1,0-.55L101.13.91v0l.11-.11c0-.08,0-.12.06-.12s0,0,.09-.07a.54.54,0,0,1,.15-.08l.08,0h0l.15,0,.15,0h.11a0,0,0,0,0,0,0s.07,0,.12.08l0,0,.08,0a.9.9,0,0,1,.15.23v0Zm-7.7-5.49L109,31.76a.74.74,0,0,1-.38.95.7.7,0,0,1-1-.38l-2.12-5H96a.7.7,0,0,1-.53-.23.72.72,0,0,1-.23-.53.68.68,0,0,1,.23-.51.76.76,0,0,1,.53-.21h10a1,1,0,0,1,.26,0l.19.11s0,0,0,0,0,0,0,0A.55.55,0,0,1,106.66,26.27Z"/><path class="cls-1" d="M153,.61a.75.75,0,0,1,.57-.08.72.72,0,0,1,.45.32.7.7,0,0,1,.08.55L146.42,32l0,0a1,1,0,0,1-.22.38h0a.29.29,0,0,1-.19.11.62.62,0,0,1-.23,0,2.11,2.11,0,0,1-.41-.11,0,0,0,0,0,0,0,.76.76,0,0,1-.23-.3s0,0,0,0L135.81,3.56,126.56,31.8v0a.65.65,0,0,1-.57.64.36.36,0,0,1-.19,0,.63.63,0,0,1-.68-.57L117.39,1.4a.67.67,0,0,1,.09-.55.82.82,0,0,1,.44-.32,1.54,1.54,0,0,1,.3,0h2.58l0,0a.7.7,0,0,1,.55.08.72.72,0,0,1,.32.45l2.73,10.88a.7.7,0,0,1-.08.55.72.72,0,0,1-.45.32.38.38,0,0,1-.19,0,.68.68,0,0,1-.72-.57L120.42,2h-1.36l6.86,27.14L135.13,1V.91A.52.52,0,0,0,135.2.8a.34.34,0,0,1,.12-.12l.22-.15,0,0H136l0,0,.16.08c.05.05.08.07.11.07a.62.62,0,0,1,.08.12l.07.15a0,0,0,0,0,0,0l9.1,28.16,7.08-28.09A.59.59,0,0,1,153,.61Z"/><path class="cls-1" d="M173,5a8.28,8.28,0,0,0-6.65,3.4,12.56,12.56,0,0,0-2.75,8.16,12.4,12.4,0,0,0,2.77,8.15A8.32,8.32,0,0,0,173,28.09a.67.67,0,0,1,.51.22.78.78,0,0,1,.21.54.72.72,0,0,1-.72.72,9.38,9.38,0,0,1-5.46-1.75,12.18,12.18,0,0,1-4-4.74,14.7,14.7,0,0,1-1.46-6.52,13.9,13.9,0,0,1,3-9,9.88,9.88,0,0,1,7.39-4l.11,0a.22.22,0,0,0,.15-.08.8.8,0,0,0,.15-.27,1.17,1.17,0,0,0,.08-.45,1.13,1.13,0,0,0-.11-.51.57.57,0,0,0-.23-.25,11.48,11.48,0,0,0-6.27,2.1,14,14,0,0,0-4.55,5.35,16,16,0,0,0-1.69,7.3,16.16,16.16,0,0,0,1.73,7.41,13.73,13.73,0,0,0,4.68,5.36,11.33,11.33,0,0,0,6.4,2,.68.68,0,0,1,.51.23.76.76,0,0,1,.21.53.72.72,0,0,1-.72.72,12.49,12.49,0,0,1-5.53-1.29,14.32,14.32,0,0,1-4.57-3.47,16.33,16.33,0,0,1-3-5.17,17.78,17.78,0,0,1-1.12-6.29,17.55,17.55,0,0,1,1.84-8,15.19,15.19,0,0,1,5-5.86A13,13,0,0,1,172.54.53l.13,0,.06,0,.13,0,.13,0a.65.65,0,0,1,.61.38,2.18,2.18,0,0,1,.91,1.88,2.16,2.16,0,0,1-.91,1.87A.63.63,0,0,1,173,5ZM175.72.49a12.21,12.21,0,0,1,7,2.14,14.79,14.79,0,0,1,5,5.88,18.51,18.51,0,0,1,1.82,8.21,17.75,17.75,0,0,1-1.89,8.13,15.17,15.17,0,0,1-5.2,5.91,12.75,12.75,0,0,1-7.16,2.18.72.72,0,0,1-.72-.72.76.76,0,0,1,.21-.53.68.68,0,0,1,.51-.23,11.1,11.1,0,0,0,5-1.16,12.68,12.68,0,0,0,4.08-3.14A15.93,15.93,0,0,0,187,22.44a16.22,16.22,0,0,0,1-5.72,16.91,16.91,0,0,0-1.63-7.45A13.44,13.44,0,0,0,182,3.92,10.75,10.75,0,0,0,175.72,2a.69.69,0,0,1-.51-.21.69.69,0,0,1-.21-.51.76.76,0,0,1,.21-.53A.68.68,0,0,1,175.72.49Z"/><path class="cls-1" d="M194.31.68a.69.69,0,0,1,1,0,.75.75,0,0,1,.2.53V31.84a.69.69,0,0,1-.2.51.73.73,0,0,1-1.24-.51V1.21A.76.76,0,0,1,194.31.68ZM214,10.27a7,7,0,0,0-2.73-5.61,8.3,8.3,0,0,0-1.38-1,15.78,15.78,0,0,0-2.06-1A12.2,12.2,0,0,0,205,1.8a31.43,31.43,0,0,0-3.58-.34,20.29,20.29,0,0,0-4.44.32.64.64,0,0,1-.55-.11.71.71,0,0,1-.28-.49.75.75,0,0,1,.13-.55.66.66,0,0,1,.48-.29A31.39,31.39,0,0,1,200.3,0a24.48,24.48,0,0,1,3,.06,17.4,17.4,0,0,1,2.58.39,16,16,0,0,1,2.16.65,16.71,16.71,0,0,1,1.76.79,13.89,13.89,0,0,1,1.39.82,10.22,10.22,0,0,1,1,.83,8.35,8.35,0,0,1,3.18,6.75.73.73,0,0,1-.2.51.7.7,0,0,1-.52.21.73.73,0,0,1-.55-.23A.68.68,0,0,1,214,10.27ZM197.12,5.55a.69.69,0,0,1,.51-.21.76.76,0,0,1,.53.21.68.68,0,0,1,.23.51V31.84a.68.68,0,0,1-.23.51.76.76,0,0,1-.53.21.72.72,0,0,1-.72-.72V6.06A.69.69,0,0,1,197.12,5.55ZM208.05,21l5.73,11a.91.91,0,0,1,0,.57.55.55,0,0,1-.37.41.75.75,0,0,1-1-.3l-5.69-11a.63.63,0,0,1,0-.55.75.75,0,0,1,.38-.44.66.66,0,0,1,.56-.05A.6.6,0,0,1,208.05,21Zm8.87,10.65a.7.7,0,0,1,.06.57.6.6,0,0,1-.36.41.54.54,0,0,1-.34.12.72.72,0,0,1-.65-.42L209.3,20.51a.63.63,0,0,1-.05-.55.75.75,0,0,1,.36-.44l.22-.08a.55.55,0,0,1,.16-.15,9.7,9.7,0,0,0,2.92-3.12A8.25,8.25,0,0,0,214,12.36a.7.7,0,0,1,.21-.52.73.73,0,0,1,.51-.2h0a.67.67,0,0,1,.51.22.63.63,0,0,1,.17.53,9.08,9.08,0,0,1-1.21,4.42,11.39,11.39,0,0,1-3.33,3.62Z"/><path class="cls-1" d="M239.48,28.09a.63.63,0,0,1,.36.11.86.86,0,0,1,.26.28.82.82,0,0,1,.1.37v3a.72.72,0,0,1-.72.72H222.34a.72.72,0,0,1-.72-.72V1.18a.78.78,0,0,1,.21-.54.67.67,0,0,1,.51-.22.65.65,0,0,1,.51.22.78.78,0,0,1,.21.54v29.9h15.66V29.57H225.3a.76.76,0,0,1-.53-.21.68.68,0,0,1-.23-.51.76.76,0,0,1,.23-.54.73.73,0,0,1,.53-.22Z"/><path class="cls-1" d="M253.58,1a.72.72,0,0,1,.72.72.74.74,0,0,1-.21.53.64.64,0,0,1-.51.23h-7.32V32a.74.74,0,0,1-.21.55.72.72,0,0,1-1,0,.74.74,0,0,1-.21-.55V1.82a.69.69,0,0,1,.3-.57.74.74,0,0,1,.53-.23Zm0,30.21a.68.68,0,0,1,.51.23.76.76,0,0,1,.21.53.72.72,0,0,1-.72.72h-5.31a.84.84,0,0,1-.23,0,.76.76,0,0,1-.53-.21.68.68,0,0,1-.23-.51V16.34a.72.72,0,0,1,.23-.53.7.7,0,0,1,.53-.23.64.64,0,0,1,.51.23.74.74,0,0,1,.21.53V31.23Zm2-30.13a10.54,10.54,0,0,1,6.35,2.12A14.74,14.74,0,0,1,266.54,9a18.46,18.46,0,0,1,1.7,7.94,18.48,18.48,0,0,1-1.7,8,14.74,14.74,0,0,1-4.61,5.76,10.54,10.54,0,0,1-6.35,2.12.69.69,0,0,1-.51-.21.71.71,0,0,1-.21-.53.72.72,0,0,1,.21-.53.69.69,0,0,1,.51-.21,9.21,9.21,0,0,0,5.61-1.91,13.07,13.07,0,0,0,4.08-5.23,17.34,17.34,0,0,0,1.5-7.21,17.26,17.26,0,0,0-1.5-7.2,13.07,13.07,0,0,0-4.08-5.23,9.21,9.21,0,0,0-5.61-1.91.68.68,0,0,1-.51-.23.76.76,0,0,1-.21-.53.72.72,0,0,1,.72-.72Z"/></svg>