<svg id="レイヤー_1" data-name="レイヤー 1" xmlns="http://www.w3.org/2000/svg" viewBox="0 0 24.3 24.3" aria-label="Instagramのアイコン" role="img"><path d="M17.29,0H7A7,7,0,0,0,0,7V17.29a7,7,0,0,0,7,7H17.29a7,7,0,0,0,7-7V7a7,7,0,0,0-7-7m4.77,17.47a4.65,4.65,0,0,1-4.65,4.65H6.89a4.65,4.65,0,0,1-4.65-4.65V7A4.65,4.65,0,0,1,6.89,2.3H17.41A4.65,4.65,0,0,1,22.06,7ZM12.15,5.91a6.31,6.31,0,1,0,6.31,6.3,6.3,6.3,0,0,0-6.31-6.3m0,10.39a4.09,4.09,0,1,1,4.09-4.09,4.09,4.09,0,0,1-4.09,4.09M18.67,4.2A1.47,1.47,0,1,1,17.2,5.67,1.47,1.47,0,0,1,18.67,4.2"/></svg>