<svg xmlns="http://www.w3.org/2000/svg" viewBox="0 0 25 25" aria-label="Twitterのアイコン" role="img"><g id="レイヤー_2" data-name="レイヤー 2"><g id="sns"><path d="M12.5,0A12.5,12.5,0,1,0,25,12.5,12.5,12.5,0,0,0,12.5,0Zm6.28,10.13c0,.13,0,.26,0,.39a8.58,8.58,0,0,1-13.2,7.22,5.79,5.79,0,0,0,.72,0,6.08,6.08,0,0,0,3.75-1.29A3,3,0,0,1,7.24,14.4a3.45,3.45,0,0,0,.57,0,3,3,0,0,0,.79-.1,3,3,0,0,1-2.42-3v0a2.9,2.9,0,0,0,1.37.38A3,3,0,0,1,6.21,9.22a3,3,0,0,1,.41-1.51,8.56,8.56,0,0,0,6.21,3.15,3.1,3.1,0,0,1-.08-.69A3,3,0,0,1,18,8.11a6.36,6.36,0,0,0,1.92-.73A3,3,0,0,1,18.55,9a5.91,5.91,0,0,0,1.73-.47A6.18,6.18,0,0,1,18.78,10.13Z"/></g></g></svg>