<svg id="レイヤー_1" data-name="レイヤー 1" xmlns="http://www.w3.org/2000/svg" viewBox="0 0 374.84 166.78"><defs><style>.content_heading-1{fill:#efff2e;}.content_heading-2{fill:#fff;}</style></defs><path class="content_heading-1" d="M63.63,64.65a11.92,11.92,0,0,0-5.73,1.47,15.17,15.17,0,0,0-4.7,4,19.69,19.69,0,0,0-3.15,6,23,23,0,0,0,.8,16.55,17.09,17.09,0,0,0,5.38,6.8,12.19,12.19,0,0,0,7.4,2.5,1,1,0,0,1,.7.27.9.9,0,0,1,.3.68.86.86,0,0,1-.3.67,1,1,0,0,1-.7.28,14.08,14.08,0,0,1-8.35-2.75,18.76,18.76,0,0,1-6.08-7.48A25.05,25.05,0,0,1,49.2,73a18.68,18.68,0,0,1,6.08-7.5,14.08,14.08,0,0,1,8.35-2.75,1,1,0,0,1,.7.27.9.9,0,0,1,.3.68,1,1,0,0,1-.3.7A1,1,0,0,1,63.63,64.65ZM76,76.1a10.31,10.31,0,0,0-3.33-5.68c-1.48-1.11-3.81-1.8-7-2.07a.94.94,0,0,1-.65-.35.84.84,0,0,1-.2-.7.85.85,0,0,1,.32-.68.94.94,0,0,1,.73-.22,23.6,23.6,0,0,1,3.72.62,15.06,15.06,0,0,1,2.95,1.1,8.43,8.43,0,0,1,2.28,1.68,10.88,10.88,0,0,1,1.67,2.35,16.15,16.15,0,0,1,1.23,3.1,4.17,4.17,0,0,0,1.65-.4,18.7,18.7,0,0,0-3.28-5.4A14.84,14.84,0,0,0,71.6,65.9a11.77,11.77,0,0,0-5.27-1.25,1,1,0,0,1-1-1,.9.9,0,0,1,.3-.68,1,1,0,0,1,.7-.27,14.17,14.17,0,0,1,9,3.25,19.3,19.3,0,0,1,6.13,8.7h0v.15s0,0,0,0,0,0,0,.05v.15a1,1,0,0,1,0,.3A2.19,2.19,0,0,1,80,76.72a6.31,6.31,0,0,1-2.2.48,2.85,2.85,0,0,1-1-.15,1.44,1.44,0,0,1-.65-.85.1.1,0,0,1-.08,0S76,76.13,76,76.1ZM80.9,87.75a1,1,0,0,1,.73-.13,1,1,0,0,1,.75,1.18,20.72,20.72,0,0,1-6,10.8,14.34,14.34,0,0,1-10.07,4.2,1,1,0,0,1-.7-.28.86.86,0,0,1-.3-.67.9.9,0,0,1,.3-.68,1,1,0,0,1,.7-.27,12.52,12.52,0,0,0,8.85-3.78,18.86,18.86,0,0,0,5.3-9.77A.89.89,0,0,1,80.9,87.75Z"/><path class="content_heading-1" d="M105.18,67.85a11,11,0,0,0-8.78,4.47A16.58,16.58,0,0,0,92.78,83.1a16.37,16.37,0,0,0,3.65,10.75,11,11,0,0,0,8.75,4.45.87.87,0,0,1,.67.3,1,1,0,0,1,.28.7.91.91,0,0,1-.28.67.89.89,0,0,1-.67.28A12.35,12.35,0,0,1,98,98a15.94,15.94,0,0,1-5.23-6.25,19.4,19.4,0,0,1-1.92-8.6,18.37,18.37,0,0,1,4-11.88A13,13,0,0,1,104.58,66l.15,0a.29.29,0,0,0,.2-.1,1.29,1.29,0,0,0,.2-.35,1.79,1.79,0,0,0,.1-.6,1.42,1.42,0,0,0-.15-.68c-.1-.18-.2-.29-.3-.32a15.12,15.12,0,0,0-8.28,2.77,18.49,18.49,0,0,0-6,7,22.08,22.08,0,0,0,0,19.4,18.23,18.23,0,0,0,6.18,7.08,15,15,0,0,0,8.45,2.6.87.87,0,0,1,.67.3,1,1,0,0,1,.28.7.91.91,0,0,1-.28.67.89.89,0,0,1-.67.28,16.52,16.52,0,0,1-7.3-1.7,18.78,18.78,0,0,1-6-4.58,21.69,21.69,0,0,1-4-6.82,23.59,23.59,0,0,1-1.47-8.3A23.2,23.2,0,0,1,88.8,72.75,20.09,20.09,0,0,1,95.43,65,17.16,17.16,0,0,1,104.58,62l.17-.05s0,0,.08.05l.17,0,.18,0a.85.85,0,0,1,.8.5,3.15,3.15,0,0,1,0,4.95A.85.85,0,0,1,105.18,67.85Zm3.6-5.95a16,16,0,0,1,9.2,2.82,19.57,19.57,0,0,1,6.55,7.75,24.43,24.43,0,0,1,2.4,10.83A23.4,23.4,0,0,1,124.43,94a19.92,19.92,0,0,1-6.85,7.8,16.78,16.78,0,0,1-9.45,2.88.94.94,0,0,1-.95-1,1,1,0,0,1,.27-.7.88.88,0,0,1,.68-.3,14.73,14.73,0,0,0,6.57-1.53,16.54,16.54,0,0,0,5.38-4.15,20.52,20.52,0,0,0,3.6-6.22A21.34,21.34,0,0,0,125,83.3a22.47,22.47,0,0,0-2.15-9.83,17.79,17.79,0,0,0-5.88-7,14.17,14.17,0,0,0-8.22-2.57.94.94,0,0,1-1-1,1,1,0,0,1,.27-.7A.88.88,0,0,1,108.78,61.9Z"/><path class="content_heading-1" d="M165.63,61.8a.84.84,0,0,1,.47.15,1,1,0,0,1,.35.37,1,1,0,0,1,.13.48v40.4a.91.91,0,0,1-.28.67,1,1,0,0,1-1.35,0,.9.9,0,0,1-.27-.67V63.75h-3V103.3a1,1,0,0,1-.4.8,1.06,1.06,0,0,1-.55.15.84.84,0,0,1-.8-.45L134.93,66V103.4a1,1,0,0,1-.28.7.91.91,0,0,1-1.35,0,1,1,0,0,1-.27-.7V63a1,1,0,0,1,.27-.7A.88.88,0,0,1,134,62a.14.14,0,0,0,.1,0,.87.87,0,0,1,.85.4l24.85,37.65V62.8a1,1,0,0,1,.27-.7.88.88,0,0,1,.68-.3.51.51,0,0,1,.3.1.75.75,0,0,1,.35-.1Z"/><path class="content_heading-1" d="M205.08,61.8a1,1,0,0,1,.47.12.91.91,0,0,1,.35.35,1,1,0,0,1-.15,1.18.87.87,0,0,1-.67.3h-30.5v3h14.95a.92.92,0,0,1,.67.27,1,1,0,0,1,.28.68v35.55a.91.91,0,0,1-.28.67,1,1,0,0,1-1.4,0,.9.9,0,0,1-.27-.67V68.65h-14.9a.94.94,0,0,1-.95-1v-5a.94.94,0,0,1,.27-.68.93.93,0,0,1,.68-.27ZM192.5,85.62a1,1,0,0,1,1.35,0,1,1,0,0,1,.28.68v17a.91.91,0,0,1-.28.67,1,1,0,0,1-1.35,0,.9.9,0,0,1-.27-.67v-17A.94.94,0,0,1,192.5,85.62Z"/><path class="content_heading-1" d="M212.4,62.1a.91.91,0,0,1,1.35,0,1,1,0,0,1,.28.7v40.45a1,1,0,0,1-.28.7.91.91,0,0,1-1.35,0,1,1,0,0,1-.28-.7V62.8A1,1,0,0,1,212.4,62.1Zm3.43,1.65a.88.88,0,0,1-.68-.3,1,1,0,0,1-.28-.7,1,1,0,0,1,.28-.68.93.93,0,0,1,.68-.27H240a.92.92,0,0,1,.67.27,1,1,0,0,1,.28.68,1,1,0,0,1-.28.7.87.87,0,0,1-.67.3Zm24.2,27h-22.1V98H240a.92.92,0,0,1,.67.27,1,1,0,0,1,.28.68v4.4a.91.91,0,0,1-.28.67.89.89,0,0,1-.67.28h-24.2a.9.9,0,0,1-.68-.28.91.91,0,0,1-.28-.67,1,1,0,0,1,.28-.7.88.88,0,0,1,.68-.3h23.25V99.9h-21.8l-.1-.05h-.06a.39.39,0,0,1-.14.05.88.88,0,0,1-.68-.3,1,1,0,0,1-.27-.7V89.75a1,1,0,0,1,.27-.7.88.88,0,0,1,.68-.3H240a.87.87,0,0,1,.67.3,1,1,0,0,1,.28.7.91.91,0,0,1-.28.67A.89.89,0,0,1,240,90.7Z"/><path class="content_heading-1" d="M279.68,61.8a.84.84,0,0,1,.47.15,1,1,0,0,1,.35.37,1,1,0,0,1,.12.48v40.4a.9.9,0,0,1-.27.67,1,1,0,0,1-1.35,0,.9.9,0,0,1-.27-.67V63.75h-3V103.3a1,1,0,0,1-.4.8,1.06,1.06,0,0,1-.55.15.84.84,0,0,1-.8-.45L249,66V103.4a1,1,0,0,1-.28.7.91.91,0,0,1-1.35,0,1,1,0,0,1-.27-.7V63a1,1,0,0,1,.27-.7A.88.88,0,0,1,248,62a.14.14,0,0,0,.09,0,.88.88,0,0,1,.86.4l24.85,37.65V62.8a1,1,0,0,1,.27-.7.88.88,0,0,1,.68-.3.54.54,0,0,1,.3.1.75.75,0,0,1,.35-.1Z"/><path class="content_heading-1" d="M319.12,61.8a1,1,0,0,1,.48.12.91.91,0,0,1,.35.35,1,1,0,0,1-.15,1.18.88.88,0,0,1-.68.3h-30.5v3h15a.92.92,0,0,1,.67.27,1,1,0,0,1,.28.68v35.55a.91.91,0,0,1-.28.67,1,1,0,0,1-1.4,0,.9.9,0,0,1-.27-.67V68.65h-14.9a.9.9,0,0,1-.68-.28.91.91,0,0,1-.28-.67v-5a1,1,0,0,1,.28-.68.93.93,0,0,1,.68-.27ZM306.55,85.62a1,1,0,0,1,1.35,0,1,1,0,0,1,.28.68v17a.91.91,0,0,1-.28.67.95.95,0,0,1-1.62-.67v-17A.94.94,0,0,1,306.55,85.62Z"/><path class="content_heading-2" d="M145.78,11a123.9,123.9,0,0,0,3.65,18.51,1.13,1.13,0,0,0,2.17-.6A118.77,118.77,0,0,1,148,11c-.17-1.42-2.43-1.43-2.25,0Z"/><path class="content_heading-2" d="M144.25.33l-.82.82a.77.77,0,0,0-.23.36,1,1,0,0,0-.1.44.91.91,0,0,0,.1.43.77.77,0,0,0,.23.36l.23.18a1.1,1.1,0,0,0,.57.15l.3,0a1.07,1.07,0,0,0,.49-.29l.82-.82a.88.88,0,0,0,.24-.36.83.83,0,0,0,.09-.44.82.82,0,0,0-.09-.43.88.88,0,0,0-.24-.36l-.22-.18a1.16,1.16,0,0,0-.57-.15l-.3,0a1.1,1.1,0,0,0-.5.29Z"/><path class="content_heading-2" d="M269.42,29.66l2.47-4.11a1.14,1.14,0,0,0-.41-1.54,1.16,1.16,0,0,0-1.54.4l-2.46,4.12a1.13,1.13,0,0,0,.4,1.54,1.16,1.16,0,0,0,1.54-.41Z"/><path class="content_heading-2" d="M277.55,17.62l4.11-4.94a1.12,1.12,0,1,0-1.59-1.59L276,16a1.16,1.16,0,0,0,0,1.59,1.14,1.14,0,0,0,1.59,0Z"/><path class="content_heading-2" d="M337.28,50.61l14.86-9A1.13,1.13,0,0,0,351,39.7l-14.85,9a1.12,1.12,0,0,0,1.13,1.94Z"/><path class="content_heading-2" d="M360.59,37.62h.82a.8.8,0,0,0,.43-.09,1.1,1.1,0,0,0,.6-.6.8.8,0,0,0,.09-.43l0-.3a1.1,1.1,0,0,0-.29-.5l-.22-.17a1.29,1.29,0,0,0-.57-.16h-.82a1,1,0,0,0-.44.1,1,1,0,0,0-.59.6.88.88,0,0,0-.1.43l0,.3a1.07,1.07,0,0,0,.29.49l.23.18a1.1,1.1,0,0,0,.57.15Z"/><path class="content_heading-2" d="M347.42,96.86h4.12a1.13,1.13,0,0,0,0-2.25h-4.12a1.12,1.12,0,0,0-1.12,1.12,1.15,1.15,0,0,0,1.12,1.13Z"/><path class="content_heading-2" d="M365.52,98.5h8.23a1.13,1.13,0,0,0,0-2.25h-8.23a1.13,1.13,0,0,0,0,2.25Z"/><path class="content_heading-2" d="M313.78,138l9.93,10.65c1,1.06,2.57-.54,1.59-1.6l-9.93-10.64c-1-1.06-2.57.53-1.59,1.59Z"/><path class="content_heading-2" d="M308.08,130.5l.82.82a.77.77,0,0,0,.36.23.8.8,0,0,0,.43.1.84.84,0,0,0,.44-.1.77.77,0,0,0,.36-.23l.18-.23a1.1,1.1,0,0,0,.15-.57l0-.29a1.05,1.05,0,0,0-.29-.5l-.82-.82a1,1,0,0,0-.36-.24.83.83,0,0,0-.44-.09.8.8,0,0,0-.43.09.88.88,0,0,0-.36.24l-.18.22a1.16,1.16,0,0,0-.15.57l0,.3a1.1,1.1,0,0,0,.29.5Z"/><path class="content_heading-2" d="M259.26,137.14l2.4,10.7c.32,1.42,2.49.82,2.17-.59l-2.4-10.71c-.32-1.41-2.49-.82-2.17.6Z"/><path class="content_heading-2" d="M196.22,143.4a117.82,117.82,0,0,1,.28,17.32c-.08,1.44,2.17,1.44,2.25,0a117.82,117.82,0,0,0-.28-17.32c-.13-1.43-2.38-1.44-2.25,0Z"/><path class="content_heading-2" d="M196.88,136.34a1.13,1.13,0,0,0,0-2.25,1.13,1.13,0,0,0,0,2.25Z"/><path class="content_heading-2" d="M138.88,141.46l-4,13.2a1.13,1.13,0,0,0,2.17.6l4-13.21a1.12,1.12,0,0,0-2.17-.59Z"/><path class="content_heading-2" d="M132.71,166.78a1.13,1.13,0,0,0,0-2.25,1.13,1.13,0,0,0,0,2.25Z"/><path class="content_heading-2" d="M95.8,135.66a147.35,147.35,0,0,1-12.48,15.16c-1,1.05.59,2.65,1.59,1.59A152.33,152.33,0,0,0,97.75,136.8c.84-1.18-1.11-2.3-2-1.14Z"/><path class="content_heading-2" d="M26.33,139.48l8.18-5.83a1.16,1.16,0,0,0,.4-1.54,1.13,1.13,0,0,0-1.54-.4l-8.17,5.83a1.16,1.16,0,0,0-.41,1.54,1.13,1.13,0,0,0,1.54.4Z"/><path class="content_heading-2" d="M39.75,128.94a1.13,1.13,0,0,0,0-2.25,1.13,1.13,0,0,0,0,2.25Z"/><path class="content_heading-2" d="M1.09,90.06l16.45.28a1.13,1.13,0,0,0,0-2.25L1.09,87.81a1.13,1.13,0,0,0,0,2.25Z"/><path class="content_heading-2" d="M21.38,41.61a37.48,37.48,0,0,1,9.56,4.11,1.12,1.12,0,0,0,1.13-1.94A39.47,39.47,0,0,0,22,39.44a1.12,1.12,0,0,0-.59,2.17Z"/><path class="content_heading-2" d="M66.92,18.37l8.23,8.23A1.12,1.12,0,0,0,76.74,25l-8.23-8.23a1.13,1.13,0,0,0-1.59,1.59Z"/><path class="content_heading-2" d="M59.49,11.3a1.13,1.13,0,0,0,0-2.25,1.13,1.13,0,0,0,0,2.25Z"/><path class="content_heading-2" d="M217.27,8.25l-1.73,7.39a1.12,1.12,0,0,0,2.17.59l1.73-7.38a1.13,1.13,0,0,0-2.17-.6Z"/><path class="content_heading-2" d="M329.35,154.94l.82.82a.85.85,0,0,0,.37.23.91.91,0,0,0,.43.1.88.88,0,0,0,.43-.1.85.85,0,0,0,.37-.23l.17-.23a1.22,1.22,0,0,0,.16-.57l-.05-.3a1.05,1.05,0,0,0-.28-.49l-.83-.83a.86.86,0,0,0-.36-.23.8.8,0,0,0-.43-.09.83.83,0,0,0-.44.09.86.86,0,0,0-.36.23l-.17.23a1.07,1.07,0,0,0-.16.57l0,.3a1.2,1.2,0,0,0,.29.5Z"/></svg>