<svg id="レイヤー_1" data-name="レイヤー 1" xmlns="http://www.w3.org/2000/svg" viewBox="0 0 154 64"><defs><style>.content_genre-1{fill:#ff7bac;}.content_genre-2{fill:#fff;}</style></defs><rect class="content_genre-1" x="14" width="126" height="27"/><path class="content_genre-2" d="M29.11,20.2,28.78,20a1.35,1.35,0,0,1-.41-1.23,86.55,86.55,0,0,1,.32-9.46A.84.84,0,0,1,29.46,9a1,1,0,0,1,.52.59l-.09,9,2.53-.1a8.36,8.36,0,0,1,2.57.2,1.08,1.08,0,0,1,0,.93,1.93,1.93,0,0,1-.77.27,37.08,37.08,0,0,0-4,.17A6.16,6.16,0,0,1,29.11,20.2Z"/><path class="content_genre-2" d="M38,20l-.6-.47a.78.78,0,0,1,0-.68,2.82,2.82,0,0,1,1.79-.3,54.07,54.07,0,0,1-.06-8l-1.14-.1-.44-.24a.67.67,0,0,1-.28-.66.48.48,0,0,1,.29-.3c.28-.17,2-.21,5.23-.12a.81.81,0,0,1,.7.41c.28.45.08.76-.6.92l-2.15.09a9.77,9.77,0,0,0-.18,1.72c0,.68,0,1.58,0,2.7s.07,2,.13,2.52.09.92.09,1.07l2.68.13a1.06,1.06,0,0,1,.69.31,1.08,1.08,0,0,1,0,.9Q43.56,20.26,38,20Z"/><path class="content_genre-2" d="M49.71,20.66a1.13,1.13,0,0,1-.84-.71l-.37-.83-.66-1.95c-.32-1.19-.65-2.35-1-3.49a22.61,22.61,0,0,1-.77-3.47c.21-.52.53-.71,1-.54l.31.31c.33,1.15.65,2.29,1,3.4s.68,2.36,1.16,3.7c.52-1.34,1-2.62,1.29-3.81A36.53,36.53,0,0,1,52,9.67a.9.9,0,0,1,1-.1.91.91,0,0,1,.35.82c-.38,1.27-.8,2.53-1.25,3.78l-1.34,3.75c-.24.69-.39,1.14-.46,1.35A2.86,2.86,0,0,1,49.71,20.66Z"/><path class="content_genre-2" d="M56,20.29l-.56-.48-.07-1c0-2.31,0-3.76,0-4.33V13l0-2.61a.44.44,0,0,1-.16-.4l.13-.44a2,2,0,0,1,1-.39l.32.07.4-.07h4a.85.85,0,0,1,.72.79.55.55,0,0,1-.72.44L57,10.46l-.08,2.9,4.27,0c.56.24.63.68.2,1.32l-4.47.19,0,3.91,4,0h.49a1,1,0,0,1,.85.28c.19.68-.06,1-.75,1l-.32.07Z"/><path class="content_genre-2" d="M76.25,20.41a6.22,6.22,0,0,1-1.52-.56,4,4,0,0,1-1.16-1.27,1.64,1.64,0,0,1-.25-.93.56.56,0,0,1,.4-.7.81.81,0,0,1,1,.51,2.6,2.6,0,0,0,.28.72,2,2,0,0,0,1.71,1.06,2,2,0,0,0,1.76-1.39,2.42,2.42,0,0,0,.06-.87,1.81,1.81,0,0,0-.65-1,8,8,0,0,0-1.53-.87,7.36,7.36,0,0,1-1.66-1.06,2.72,2.72,0,0,1-.89-1.1,3,3,0,0,1-.24-.79,5.13,5.13,0,0,1,.17-1.3,2.46,2.46,0,0,1,.68-1L75,9.39A6.1,6.1,0,0,1,76.14,9a7.31,7.31,0,0,1,1.39,0,4,4,0,0,1,2.34,1.16,2.23,2.23,0,0,0,.16.56.57.57,0,0,1-.83.46c-.29-.16-.59-.35-.9-.55a2,2,0,0,0-1.13-.31,2.22,2.22,0,0,0-1.17.16,1.5,1.5,0,0,0-1,1,1.27,1.27,0,0,0,0,.68,1.36,1.36,0,0,0,.64.83c.38.3.76.57,1.13.81a5,5,0,0,1,1,.52c.31.21.63.41,1,.6a3.35,3.35,0,0,1,1,1.35A3.47,3.47,0,0,1,79.9,18a3.26,3.26,0,0,1-.73,1.4,3.74,3.74,0,0,1-1.16.83A4.4,4.4,0,0,1,76.25,20.41Z"/><path class="content_genre-2" d="M85.57,20.36c-.36,0-.59-.09-.7-.27a1.46,1.46,0,0,1-.25-.87q0-2-.17-8.55l-1,.07a3.67,3.67,0,0,1-.77,0l-.4-.23a.89.89,0,0,1-.1-.69l.21-.28a7.78,7.78,0,0,1,1.86-.26c.74,0,1.43,0,2.06,0l2,0,.56.06.31.16.28.31v.41c-.09.33-.39.52-.9.55l-1.68-.14a2.71,2.71,0,0,0-.79.12q0,7.18.13,9C86,20.17,85.82,20.37,85.57,20.36Z"/><path class="content_genre-2" d="M92.16,20.39a.82.82,0,0,1-.56-.54,81.56,81.56,0,0,1-.29-9.18,1,1,0,0,1-.22-.55l.26-.58a.87.87,0,0,1,.76-.26l.22.07a5.41,5.41,0,0,1,2.14-.27,3.06,3.06,0,0,1,1,.22c.3.12.59.26.89.41l.29.25a3.69,3.69,0,0,1,1,1.29A6.5,6.5,0,0,1,98,12.62a3.41,3.41,0,0,1-.21,1.23,3,3,0,0,1-.72,1.07l-.52.49a3.49,3.49,0,0,1-1.51.76,14.28,14.28,0,0,0,3,3l0,.32-.1.22a3.21,3.21,0,0,1-.67.4,3.61,3.61,0,0,1-1.13-.7l-1-.93c-.29-.33-.6-.66-.94-1s-.66-.63-1-.92l-.44-.1c0,.47,0,1,.08,1.54a13.36,13.36,0,0,0,.23,1.65A.78.78,0,0,1,92.16,20.39Zm1.37-5.24.68,0a2.86,2.86,0,0,0,1.42-.73l.51-.69a1.75,1.75,0,0,0,.34-1.31,2.46,2.46,0,0,0-2.24-2,4.58,4.58,0,0,0-1.56.28l0,4.12A5,5,0,0,0,93.53,15.15Z"/><path class="content_genre-2" d="M101,20.29l-.56-.48-.07-1c0-2.31,0-3.76,0-4.33V13l0-2.61a.44.44,0,0,1-.16-.4l.13-.44a2,2,0,0,1,1-.39l.32.07.4-.07h4a.85.85,0,0,1,.72.79.55.55,0,0,1-.72.44l-4.17.06-.08,2.9,4.27,0c.56.24.63.68.2,1.32l-4.47.19,0,3.91,4,0h.49a1,1,0,0,1,.85.28c.19.68-.06,1-.75,1l-.32.07Z"/><path class="content_genre-2" d="M115.72,20.42a.65.65,0,0,1-.74-.33,15,15,0,0,1-.54-1.64c-.16-.59-.35-1.2-.56-1.84a15.48,15.48,0,0,0-2.74-.07c-.17.77-.3,1.42-.4,1.95a4.64,4.64,0,0,1-.58,1.52l-.37.09a.78.78,0,0,1-.42-.22l-.22-.51a14.05,14.05,0,0,1,.33-1.79c.14-.59.26-1.2.37-1.82q.38-1.42.69-2.7c.2-.84.43-1.69.67-2.54.17-.42.34-.86.53-1.32A1,1,0,0,1,112.4,9a.78.78,0,0,1,.54.51l.45,1.07c.4,1.29.8,2.53,1.18,3.73s.81,2.48,1.27,3.83a7.71,7.71,0,0,1,.35,1.68C116.14,20.26,116,20.45,115.72,20.42Zm-2.37-5.21q-.27-.81-.48-1.68a15.6,15.6,0,0,0-.55-1.72c-.16.57-.32,1.11-.46,1.63s-.27,1.09-.4,1.71a3.43,3.43,0,0,0,.91.09Z"/><path class="content_genre-2" d="M124.58,20a.78.78,0,0,1-.78-.45,44.33,44.33,0,0,1,0-5.6c-.41,1.29-.66,2.07-.76,2.35s-.32.89-.65,1.86l-.41.41-.42,0-.31-.19-.38-.56c-.09-.24-.2-.54-.32-.89a12,12,0,0,1-.52-1.52c-.13-.45-.28-1-.48-1.57,0,.64,0,1.39,0,2.23s0,1.92-.08,3.2a.79.79,0,0,1-.72.69l-.41-.3a2.28,2.28,0,0,1-.16-.8c0-1.54,0-3.21,0-5a22.5,22.5,0,0,1,.24-4,.73.73,0,0,1,.88-.49,2,2,0,0,1,.67.81,10,10,0,0,1,.51,1.44c.16.54.34,1.14.54,1.78s.42,1.33.67,2c.23-.63.56-1.6,1-2.91a14.44,14.44,0,0,1,1.07-2.67.78.78,0,0,1,.61-.32.91.91,0,0,1,.53.2,2.07,2.07,0,0,1,.14.82q.25,7.61-.1,9.17C124.81,19.91,124.68,20,124.58,20Z"/><rect class="content_genre-1" y="37" width="72" height="27"/><path class="content_genre-2" d="M21.58,57a.78.78,0,0,1-.78-.45,44.33,44.33,0,0,1,0-5.6c-.41,1.29-.66,2.07-.76,2.35s-.32.89-.65,1.86l-.41.41-.42,0-.31-.19-.38-.56c-.09-.24-.2-.54-.32-.89a12,12,0,0,1-.52-1.52c-.13-.45-.28-1-.48-1.57,0,.64,0,1.39,0,2.23s0,1.92-.08,3.2a.79.79,0,0,1-.72.69l-.41-.3a2.28,2.28,0,0,1-.16-.8c0-1.54,0-3.21,0-5a22.5,22.5,0,0,1,.24-4,.73.73,0,0,1,.88-.49,2,2,0,0,1,.67.81,10,10,0,0,1,.51,1.44c.16.54.34,1.14.54,1.78s.42,1.33.67,2c.23-.63.56-1.6,1-2.91a14.44,14.44,0,0,1,1.07-2.67.78.78,0,0,1,.61-.32.91.91,0,0,1,.53.2,2.07,2.07,0,0,1,.14.82q.26,7.6-.1,9.17C21.81,56.91,21.68,57,21.58,57Z"/><path class="content_genre-2" d="M27.51,56.87a2.17,2.17,0,0,1-1.12-.37,3.49,3.49,0,0,1-1.64-1.8,4.07,4.07,0,0,1-.47-1.58q-.06-.84-.06-1.59a9.5,9.5,0,0,1,.53-3.28A4.27,4.27,0,0,1,26,46.76a2.38,2.38,0,0,1,.89-.44,2.06,2.06,0,0,1,1.06,0,3.42,3.42,0,0,1,1.4.47,3.59,3.59,0,0,1,1.06,1.31,2.56,2.56,0,0,1,.48,1.14,6.38,6.38,0,0,1,.22,1.7A19.61,19.61,0,0,1,31,53a7.65,7.65,0,0,1-.62,2.23,3.32,3.32,0,0,1-.75.88,4.46,4.46,0,0,1-1.09.63A3.76,3.76,0,0,1,27.51,56.87Zm1.41-2.22a5.63,5.63,0,0,0,.53-1.09,6,6,0,0,0,.22-1.5,6.38,6.38,0,0,0-.06-1.69A9.49,9.49,0,0,0,29.23,49a2.14,2.14,0,0,0-1.06-1,2.3,2.3,0,0,0-1.08,0,1.65,1.65,0,0,0-.81.74,5.43,5.43,0,0,0-.64,3.4,6.93,6.93,0,0,0,.16,1.14,3.26,3.26,0,0,0,.48,1.1,2.23,2.23,0,0,0,.52.62,1.94,1.94,0,0,0,1.14.18A2,2,0,0,0,28.92,54.65Z"/><path class="content_genre-2" d="M36.71,57.66a1.13,1.13,0,0,1-.84-.71l-.37-.83-.66-1.95c-.32-1.19-.65-2.35-1-3.49a22.61,22.61,0,0,1-.77-3.47c.21-.52.53-.71,1-.54l.31.31c.33,1.15.65,2.29,1,3.4s.68,2.36,1.16,3.7c.52-1.34,1-2.62,1.29-3.81A36.53,36.53,0,0,1,39,46.67a.9.9,0,0,1,1-.1.91.91,0,0,1,.35.82c-.38,1.27-.8,2.53-1.25,3.78l-1.34,3.75c-.24.69-.39,1.14-.46,1.35A2.86,2.86,0,0,1,36.71,57.66Z"/><path class="content_genre-2" d="M43,57l-.6-.47a.78.78,0,0,1,0-.68,2.82,2.82,0,0,1,1.79-.3,54.07,54.07,0,0,1-.06-8l-1.14-.1-.44-.24a.67.67,0,0,1-.28-.66.48.48,0,0,1,.29-.3c.28-.17,2-.21,5.23-.12a.81.81,0,0,1,.7.41c.28.45.08.76-.6.92l-2.15.09a9.77,9.77,0,0,0-.18,1.72c0,.68,0,1.58,0,2.7s.07,2,.13,2.52.09.92.09,1.07l2.68.13a1.06,1.06,0,0,1,.69.31,1.08,1.08,0,0,1,0,.9Q48.56,57.26,43,57Z"/><path class="content_genre-2" d="M52,57.29l-.56-.48-.07-1c0-2.31,0-3.76,0-4.33V50l0-2.61a.44.44,0,0,1-.16-.4l.13-.44a2,2,0,0,1,1-.39l.32.07.4-.07h4a.85.85,0,0,1,.72.79.55.55,0,0,1-.72.44L53,47.46l-.08,2.9,4.27,0c.56.24.63.68.2,1.32l-4.47.19,0,3.91,4,0h.49a1,1,0,0,1,.85.28c.19.68-.06,1-.75,1l-.32.07Z"/><rect class="content_genre-1" x="82" y="37" width="72" height="27"/><path class="content_genre-2" d="M111.24,57.58a9.22,9.22,0,0,1-.67-1.64,4.11,4.11,0,0,1-1,.15l-.69-.06a3.24,3.24,0,0,1-1.55-.94,4.65,4.65,0,0,1-.8-1.49,8.43,8.43,0,0,1-.36-1.85,13.34,13.34,0,0,1,.11-2.24,5.34,5.34,0,0,1,.58-1.77,5.58,5.58,0,0,1,1-1.3,2.59,2.59,0,0,1,1.88-.69,7,7,0,0,1,.94.1,2.65,2.65,0,0,1,1.18.62,4.07,4.07,0,0,1,1.08,1.76,9,9,0,0,1,.37,2.19,10,10,0,0,1-.11,2,10.69,10.69,0,0,1-.59,1.88,2.43,2.43,0,0,1-.93,1c.16.46.26.78.32,1s.14.49.27.9-.17.81-.5.84A.53.53,0,0,1,111.24,57.58Zm-1.45-2.79c-.16-.58-.31-1-.43-1.37a3.78,3.78,0,0,1-.2-1.18c.11-.46.37-.66.79-.6a1.19,1.19,0,0,1,.49.76c.19.54.4,1.11.61,1.73a3.91,3.91,0,0,0,.63-1.12,8,8,0,0,0,.3-1.29,7.06,7.06,0,0,0,0-1.39,7.68,7.68,0,0,0-.3-1.57,3.59,3.59,0,0,0-.66-1.22,1.33,1.33,0,0,0-1.32-.47,1.74,1.74,0,0,0-1.08.44,3.12,3.12,0,0,0-.68.88,4,4,0,0,0-.38,1.39,14.31,14.31,0,0,0-.07,1.77,4.87,4.87,0,0,0,.32,1.52,1.91,1.91,0,0,0,.59,1.09A1.82,1.82,0,0,0,109.79,54.79Z"/><path class="content_genre-2" d="M117,57.5a1.53,1.53,0,0,1-1.11-.75,2.09,2.09,0,0,1-.22-1.26,4.64,4.64,0,0,1,.31-1.38,8.94,8.94,0,0,0,.86-1.45l-.41-.67-.12-.07-.69-.94c-.15-.42-.29-.83-.4-1.24a5.13,5.13,0,0,1-.09-1.65,3.1,3.1,0,0,1,.57-1.67l.55-.55a3.94,3.94,0,0,1,1.2-.4,2.6,2.6,0,0,1,1.35.29,4.94,4.94,0,0,1,.73.59,3,3,0,0,0,.3.83l0,.68a3.59,3.59,0,0,1-.16,1.54,7.66,7.66,0,0,1-.23.82,5.06,5.06,0,0,1-.49.94,4.36,4.36,0,0,0-.49,1.14l.66.67.3.29.16-.95a.85.85,0,0,1,.22-1l.42.09a11.36,11.36,0,0,1,1,.83c.26.26.54.52.83.77l.14.63a1.18,1.18,0,0,1-.5.39,1.42,1.42,0,0,1-1.1-.6,2.27,2.27,0,0,0-.26.93l.6.67.58.67.21.55-.32.39-.42.12a2,2,0,0,1-.68-.59,1.46,1.46,0,0,0-.72-.51,3.24,3.24,0,0,1-.65,1.22,2.2,2.2,0,0,1-.93.63A1.88,1.88,0,0,1,117,57.5Zm.66-6.51.29-.5a3.87,3.87,0,0,0,.56-1.31,4.19,4.19,0,0,0,0-1.38.81.81,0,0,0-.25-.56,1.26,1.26,0,0,0-.89-.41,1.39,1.39,0,0,0-1,1.1l0,.59a2.92,2.92,0,0,0,.1,1.2,7.86,7.86,0,0,0,.91,1.32Zm.66,4.78a2.87,2.87,0,0,0,.53-1.15l-.91-1h-.16a3.67,3.67,0,0,0-.72,1.18,5.36,5.36,0,0,0-.09,1c.08.13.19.27.32.44C117.71,56.43,118.06,56.27,118.34,55.77Z"/><path class="content_genre-2" d="M130.72,57.42a.65.65,0,0,1-.74-.33,15,15,0,0,1-.54-1.64c-.16-.59-.35-1.2-.56-1.84a15.48,15.48,0,0,0-2.74-.07c-.17.77-.3,1.42-.4,2a4.64,4.64,0,0,1-.58,1.52l-.37.09a.78.78,0,0,1-.42-.22l-.22-.51a14.05,14.05,0,0,1,.33-1.79c.14-.59.26-1.2.37-1.82q.38-1.42.69-2.7c.2-.84.43-1.69.67-2.54.17-.42.34-.86.53-1.32a1,1,0,0,1,.66-.17.78.78,0,0,1,.54.51l.45,1.07c.4,1.29.8,2.53,1.18,3.73s.81,2.48,1.27,3.83a7.71,7.71,0,0,1,.35,1.68C131.14,57.26,131,57.45,130.72,57.42Zm-2.37-5.21q-.27-.81-.48-1.68a15.6,15.6,0,0,0-.55-1.72c-.16.57-.32,1.11-.46,1.63s-.27,1.09-.4,1.71a3.43,3.43,0,0,0,.91.09Z"/></svg>