<svg id="レイヤー_1" data-name="レイヤー 1" xmlns="http://www.w3.org/2000/svg" viewBox="0 0 150.98 97.42"><defs><style>.delivery_item_02-1{fill:#ffff93;}.delivery_item_02-2{fill:#ff7bac;}</style></defs><path class="delivery_item_02-1" d="M12.46,58.85a30.26,30.26,0,0,1-11-23.56,30.24,30.24,0,0,1,11.7-23.24c5.52-4.22,12.35-6.38,19.14-7.86A121.6,121.6,0,0,1,120.52,19c8.66,5.28,16.78,11.8,22.31,20.3s8.25,19.18,5.69,29C144.4,84,127.78,93.83,111.58,95.55s-32.3-2.81-48.17-6.48S30.68,82.61,15.2,87.66C23.12,68.9,12.46,58.85,12.46,58.85Z"/><path class="delivery_item_02-1" d="M13.53,57.79a28.61,28.61,0,0,1-9.4-30.16A29,29,0,0,1,13,14.09c4.64-4,10.52-6.16,16.36-7.67C52.65.42,78,2.34,100.41,10.83c11.06,4.18,21.94,10,30.91,17.75S147.4,46.89,148,59.05c.49,10.74-4.94,20.26-13.55,26.43-8.9,6.37-19.67,9-30.5,9-27-.13-52.49-14.18-79.75-10.34a55.52,55.52,0,0,0-9.35,2.13l1.85,1.84C20.44,79,21.18,67.8,15,59.53a14.31,14.31,0,0,0-1.46-1.74c-1.4-1.33-3.53.79-2.13,2.12a8.86,8.86,0,0,1,1.35,1.62,20.59,20.59,0,0,1,2.61,5.09c2.35,6.84,1.12,14.11-1.6,20.65-.45,1.06.84,2.16,1.84,1.84,27.65-8.88,55.51,6.23,83,8.12,11.8.81,23.72-1,34-7,9.19-5.43,16.49-14.19,18-25,1.76-12.52-3.75-24.79-12.12-33.85S119,15.63,107.81,10.65A123.67,123.67,0,0,0,34.14,2.27C28,3.49,21.78,5.14,16.26,8.21A31.72,31.72,0,0,0,3.8,20.73a31.4,31.4,0,0,0,7.6,39.18C12.89,61.13,15,59,13.53,57.79Z"/><path class="delivery_item_02-2" d="M29.51,37.15a53.76,53.76,0,0,1-8.23-9.23v-.86l.49-.26a3.34,3.34,0,0,1,1.32.35,45.59,45.59,0,0,0,4,4.67q2.43,2.51,4.19,4.56l0,.56-1,.35Zm3-6.67a85.47,85.47,0,0,1-7.43-6.66,2.27,2.27,0,0,1,.61-1.53l1.31.64q5,4.39,6.43,5.49l.69.5.47,1.13-.33.78A2.26,2.26,0,0,1,32.55,30.48Zm3.5-4.74-7.69-7,.15-.89.58-.78L30.3,18q1.68,1.36,7.51,6.7L37.3,26Z"/><path class="delivery_item_02-2" d="M43.28,34.67a2.4,2.4,0,0,1-1.49-1.34,1.58,1.58,0,0,1,.14-1l.39-.22a4.73,4.73,0,0,1,1.69.61l11.35,5.39.66.24a3.15,3.15,0,0,0,.88,1l-.18.49-.64.45a3.1,3.1,0,0,1-1.54-.21Z"/><path class="delivery_item_02-2" d="M58.55,51.43l-.79-.93a2.28,2.28,0,0,1,.13-1.14l.66-.67Q62.12,41.25,66,33.77c.29-.24.71-.1,1.27.44l.63,1.16-3.08,6.4q4.15,3.13,7.67,6.2l.52.54a1.61,1.61,0,0,1,.33,1,1.41,1.41,0,0,1-1,.78,3.31,3.31,0,0,1-1.41-.47A43.82,43.82,0,0,0,63.69,44q-3.15,6.6-4.37,7.34Z"/><path class="delivery_item_02-2" d="M79.13,60.89l-.42-.47-.17-.29a7.54,7.54,0,0,0-.72-1l.16-.52.3-.14a4.64,4.64,0,0,0,1.66-.32A4.5,4.5,0,0,0,83,57.06a14,14,0,0,0,1.7-2.27,5.33,5.33,0,0,0,.69-3.13.49.49,0,0,1-.33-.5l.24-.72.54-.18,1,.36a5.53,5.53,0,0,1,.62,2.1l.15.86a8.82,8.82,0,0,0,5.34-2.07Q81.39,46.76,80,46.35l-.57-1.53.17-.38.44-.16a26,26,0,0,1,2.75.73q1.36.43,13,5.39l.61.4.38,1.2-.27.5-.56.3a28.51,28.51,0,0,1-5,2.69,18.85,18.85,0,0,1-4.1.72,5.74,5.74,0,0,1-1.14,1.67,11.58,11.58,0,0,1-1.15,1c-.3.23-1.08.72-2.32,1.45a9,9,0,0,0-1,.56A5.09,5.09,0,0,1,79.13,60.89Z"/><path class="delivery_item_02-2" d="M97.61,63.82a4,4,0,0,1-1.24-1.41c.45-2.59.82-4,1.11-4.36l1.1-.11.62.85.26.64a23.2,23.2,0,0,1-.89,4Zm1.32,6.46a2.3,2.3,0,0,1-.82-1.08l.09-.63.21-.16a9.76,9.76,0,0,0,2.76-.59,6,6,0,0,0,2.52-1.75,21.87,21.87,0,0,0,2.36-3.36l1.15-.11.68.12.4.61a1.12,1.12,0,0,1-.2,1,15.47,15.47,0,0,1-2,3,7.92,7.92,0,0,1-1.64,1.35,13.74,13.74,0,0,1-1.64.87,8.63,8.63,0,0,1-1.84.56A8.34,8.34,0,0,1,98.93,70.28Zm1.85-5.15-.5-.51-.42-1.06,1.63-4.11.68-.21.76.24.62.77a3,3,0,0,1,0,1.41l-1.71,3.16Z"/><path class="delivery_item_02-2" d="M114.51,78.92l-.72-.72-.44-.76.47-.86a10.37,10.37,0,0,0,2.68-.13,7,7,0,0,0,2.38-1.14,21.25,21.25,0,0,0,2.75-2.26,16.61,16.61,0,0,0,2.43-2.91l-9.59-3.91-.73-.9-.28-.76.23-.54.31-.16a52.52,52.52,0,0,1,6.1,2.26c3,1.24,5.1,2.1,6.37,2.6l.7.71.12,1c-.44.62-1.39,1.72-2.83,3.31a17.81,17.81,0,0,1-3.16,2.95c-.66.4-1.41.83-2.25,1.31a7.21,7.21,0,0,1-2.33.9A6.33,6.33,0,0,1,114.51,78.92Zm15.35-6.43a6.61,6.61,0,0,1-1.32-1.36,4.57,4.57,0,0,1-.65-1.76,3.6,3.6,0,0,1,.57-2.43,3.15,3.15,0,0,1,1.77-1.59,4.33,4.33,0,0,1,2.15,0,4.05,4.05,0,0,1,2,1,3.69,3.69,0,0,1,1,2.29,3.13,3.13,0,0,1-.65,2.53,7.58,7.58,0,0,1-1.34,1.3,3.45,3.45,0,0,1-1.37.44A4.08,4.08,0,0,1,129.86,72.49Zm1.76-2a2.14,2.14,0,0,0,1.54-1.31c.17-.46,0-.94-.54-1.46a1.77,1.77,0,0,0-1.6,0,1.5,1.5,0,0,0-.91,1.09,1.35,1.35,0,0,0,.24,1.2A1.75,1.75,0,0,0,131.62,70.48Z"/></svg>