<svg viewBox="0 0 125.01 86.46" xmlns="http://www.w3.org/2000/svg"><path d="m77.63 5.05c-11.12-3.84-23.18-4-34.91-3.11-8.64.64-17.44 1.89-25.17 5.82s-14.31 11-15.74 19.5c-2.15 12.74 7.29 24.54 17.42 32.59a117.07 117.07 0 0 0 58.3 24.42c10 1.22 20.54 1.06 29.68-3.2s16.53-13.39 16.32-23.47c-.18-9-6-16.72-9.47-25s-3.55-19.86 4.33-24.18a70.47 70.47 0 0 1 -25.33-.42z" fill="#ffff93"/><path d="m78 3.61c-11-3.76-22.83-4.05-34.35-3.24-10.68.75-22 2.29-31 8.59-7.72 5.4-13.32 14.04-12.59 23.7.76 9.93 7.18 18.48 14.29 25a107.53 107.53 0 0 0 26.34 17.34 118.7 118.7 0 0 0 30.12 9.75c10.58 1.9 21.93 2.79 32.33-.51 9.07-2.88 17.11-9.35 20.48-18.42a23.51 23.51 0 0 0 .64-13.89c-1.26-5.1-3.86-9.77-6.26-14.43-3.58-7.07-7.23-16.46-2.76-24a10.4 10.4 0 0 1 3.88-3.77c1.57-.89.43-3-1.16-2.74a69.79 69.79 0 0 1 -24.71-.39l-11.04-2.18-4.21-.81c-1.89-.37-2.7 2.52-.8 2.89 8.51 1.65 17.16 3.84 25.84 4.28a73.27 73.27 0 0 0 15.72-.94l-1.13-2.74c-7.19 4.08-8.21 13.15-6.67 20.53 2 9.37 8.79 16.89 10.67 26.3 1.82 9.08-3.07 17.84-10.37 23-8.46 6.07-19.26 7.07-29.35 6.27a114.39 114.39 0 0 1 -57-20.93c-7.86-5.59-15.55-12.39-19.63-21.35a23.08 23.08 0 0 1 -2-13.44 23.33 23.33 0 0 1 6-11.62c6.85-7.49 16.9-10.51 26.72-11.76 10.89-1.4 22.37-1.86 33.19.26a62.26 62.26 0 0 1 8 2.14c1.87.62 2.66-2.27.81-2.89z" fill="#ffff93"/><g fill="#ff7bac"><path d="m33.51 32.65-.06-.36-.24-.23-.28-1 .11-.17a9.14 9.14 0 0 0 .68-1.37 16.19 16.19 0 0 0 .74-2.63c.26-1.17.49-2.26.68-3.28a37.12 37.12 0 0 1 -6.14 2.04l-.77.09-.46-.19-.22-.72-.16-.2v-.47l.67-.38.43-.22a5.93 5.93 0 0 0 1.86-.51c.86-.34 1.75-.64 2.66-.91a12.73 12.73 0 0 0 2.7-1.14l2.43-1.34c.75-.41 2-1.18 3.65-2.29l.88.18.41.34.27.48v.41l-.18.2a11.41 11.41 0 0 1 -2 1.32l-2.33 1.32c-.64.36-1.21.67-1.73.92a28.2 28.2 0 0 1 -.73 4.46q-.57 2.28-1.48 4.94a3.09 3.09 0 0 0 -.36.7 1.38 1.38 0 0 1 -1.03.01z"/><path d="m59.64 36.42a43.51 43.51 0 0 1 -3.57-3.83q-1.82-2.16-3.8-5a21.51 21.51 0 0 0 -2.82 2.2c-.75.71-1.31 1.26-1.68 1.64a2.7 2.7 0 0 1 -1.21 0l-.39-.43.11-.68a25.37 25.37 0 0 1 5.37-4.41l.7-.35c.66.08 1.06.32 1.22.73q2.45 3.42 4.08 5.53a20.16 20.16 0 0 0 2.78 3.07 1.47 1.47 0 0 1 0 1.54zm-2.18-8.72-1.46-2.51a1.36 1.36 0 0 1 0-.89 1 1 0 0 1 1.33-.17l1.18 1.76a3.66 3.66 0 0 1 .38 1.53l-.47.45zm3.31-1.05-.53-.58-.8-1.83a1.08 1.08 0 0 1 .29-1 1.14 1.14 0 0 1 .91.09 1.93 1.93 0 0 1 .76.77 4.83 4.83 0 0 1 .6 2.32l-.19.31a.87.87 0 0 1 -1.04-.08z"/><path d="m67.87 40.39a3.29 3.29 0 0 1 -.91-.93 1 1 0 0 1 .04-1.05 11.92 11.92 0 0 1 2-.2 13.06 13.06 0 0 0 3.27-.59 15.92 15.92 0 0 0 3.91-1.79 17.87 17.87 0 0 0 3.61-2.94l.62-.25.16.22a9 9 0 0 1 -.07 1.26 15.72 15.72 0 0 1 -2.31 2.78 9.28 9.28 0 0 1 -2.71 1.8c-1 .42-2 .81-3.09 1.16a14.92 14.92 0 0 1 -4.52.53zm3.73-8.93c-1-.68-2.08-1.49-3.33-2.42a1.69 1.69 0 0 1 .42-1.71l1 .11a12.05 12.05 0 0 1 3.45 2.62 2.8 2.8 0 0 1 -.28 1.62 3.59 3.59 0 0 1 -1.26-.22z"/><path d="m87.82 47-.82-.63a1.94 1.94 0 0 1 -.06-.95l.45-.65q1.83-6.63 3.9-13.33c.2-.24.57-.18 1.11.17l.68.87-1.59 5.7q3.87 2 7.2 4l.51.36a1.36 1.36 0 0 1 .42.79 1.22 1.22 0 0 1 -.71.8 2.63 2.63 0 0 1 -1.23-.19 36.28 36.28 0 0 0 -6.77-3.76q-1.59 5.82-2.48 6.62z"/><path d="m40.87 56.31-1-.67-.21-.85.29-.24a2.63 2.63 0 0 1 1.42 0l.49.2a4.08 4.08 0 0 1 .92 0l.1-.34a3.48 3.48 0 0 1 .12-1.58c.16-.56.3-1.12.42-1.7l.27-.73v-.26a5.27 5.27 0 0 1 .75-1.43 1.83 1.83 0 0 1 .76-.17l.19.11h.31l.17.21.39.54a30.51 30.51 0 0 1 -1.17 4.15l-.12 1.57.61.34a10.73 10.73 0 0 1 1.83.35 3.8 3.8 0 0 1 0-1.5c.09-.47.17-.94.24-1.42a12.43 12.43 0 0 1 .9-3.38 7.68 7.68 0 0 0 .34-2 7.31 7.31 0 0 1 .81-2.07 1.4 1.4 0 0 1 1-.06l.34.37.3.3a3.23 3.23 0 0 1 0 1.66l-.34.29-.28 1.79 2.6.63a2.22 2.22 0 0 1 1.56 1.09 1.22 1.22 0 0 1 -.07.68.45.45 0 0 1 -.51.22 1.37 1.37 0 0 1 -1-.12l-.33-.2c-.46-.06-.92-.14-1.39-.23a4.11 4.11 0 0 0 -1.4 0l-.23.26c-.07.52-.12 1-.15 1.52l-.14.26-.25 2.1-.22.2a2.53 2.53 0 0 0 1.08.47l2.91.78a7.37 7.37 0 0 1 1.89 1.07l.42.6-.16.42v.28a2 2 0 0 1 -1.65-.11l-.92-.48c-1.95-.46-3.86-1-5.75-1.57h-.23l-1-.33-.85-.08-.47-.25c-.58-.12-1.18-.23-1.77-.33a13.86 13.86 0 0 1 -1.82-.36zm1.19-9a1.78 1.78 0 0 1 -1-.71 1.54 1.54 0 0 1 0-1 11.6 11.6 0 0 1 1.75-1.17l.11-.17.57-.27.59-.16a3.24 3.24 0 0 0 1-.47 3.15 3.15 0 0 1 2.26-1.07l.13-.22a7.2 7.2 0 0 1 2-.77 8.34 8.34 0 0 1 1.34-.64l.69.09.71.79.06.49c1 1 1.94 2 2.92 2.89a22.93 22.93 0 0 0 3.18 2.53l.47.07.51.54v.32l-.45.62-.15.16a2.14 2.14 0 0 0 -1.2-.05 18.81 18.81 0 0 1 -3.55-2.83c-1.08-1.09-2.19-2.15-3.33-3.2a8.93 8.93 0 0 0 -1.41.52 6.05 6.05 0 0 1 -1.37.63c-.93.52-1.89 1-2.88 1.43a8.37 8.37 0 0 0 -1.85 1.08l-.44.41z"/><path d="m59.16 62.26a1.85 1.85 0 0 1 -.66-.47 15.4 15.4 0 0 1 -.64-2.44l-.2-.25.13-.31a1.47 1.47 0 0 1 0-.88l.21-.11h-.21a43.36 43.36 0 0 1 1.35-4.55l.28-.21a2.21 2.21 0 0 1 1.26.42l.48.68a13 13 0 0 1 -.91 3.64v.65c-.09.7-.14 1.35-.16 1.94l.33.19a22.67 22.67 0 0 1 4.63.38q2.32.44 4.68.78l.49.08 1.62.58c.38-.71.74-1.44 1.09-2.2s.7-1.51 1.06-2.25a.88.88 0 0 1 .62 0 2.42 2.42 0 0 0 .7.48l.29.34a2.67 2.67 0 0 1 -.08 1.08l-.69 1.63a11.41 11.41 0 0 1 -1.1 2.3 5.7 5.7 0 0 1 -.44.65h-.52l-.26.15c-.71-.27-1.41-.56-2.09-.88h-.22l-.5-.24a3.7 3.7 0 0 0 -1.3-.15l-1.26-.29h-.37c-.55 0-1.1-.11-1.67-.2h-.37l-2.1-.27-.19-.11-.36.06a4.91 4.91 0 0 0 -1.53 0 3 3 0 0 1 -1.39-.22zm7.74-1.93a1.23 1.23 0 0 0 -.65-.28l-1-.24a3.67 3.67 0 0 1 -2.17-1.39 4.37 4.37 0 0 1 -.46-2 7.42 7.42 0 0 1 .29-2l.14-.63.95-2.12.45-.21.94.45c.48 0 1 0 1.47-.1.23-.41.44-.82.63-1.24s.39-.84.59-1.25l-.51-.21h-.24l-1-.39h-.27a24.3 24.3 0 0 0 -2.82-.73 1.22 1.22 0 0 1 -.5-.59.8.8 0 0 1 -.16-.8l.17-.17a10.22 10.22 0 0 1 1.47.19l1.5.27c.53.18 1.06.35 1.59.5a32.91 32.91 0 0 0 3.92.45 18.53 18.53 0 0 1 3.9.67l.25.12 1.25.31a3 3 0 0 1 1 .86v.61l-.49.31h-.55-.59l-.29-.18h-.46l-.25-.2c-.45-.13-.89-.28-1.33-.44s-.91 0-1.31 0a4.23 4.23 0 0 0 -1.87-.14l-.73 1.21v.22a1 1 0 0 0 -.35.62l-.1.31.12.24 1.28.36.3-.07.4.17h.22l1 .88-.2.94c-.33.78-.69 1.53-1.09 2.27l.08.29a11.07 11.07 0 0 0 -.87 1.72v.3l-.49.3-.59.38-.11.17a1.43 1.43 0 0 0 -1 .07.31.31 0 0 1 -.4 0 2 2 0 0 0 -1.06.19zm-1.62-2.33.35-.84-.2-.06a.66.66 0 0 0 -.6.12v.55zm.51-2.6.23-.26v-.22l.32-.78v-.27l-.19-.11a.81.81 0 0 1 -.68 0l-.28.57-.08.85.43.08zm2.21 3.06a1.23 1.23 0 0 0 .55-.94h-.55l-.28.41.15.48zm.35-2.8h.22l.24.17.15-.16.18.15.25-.09q.35-.78.72-1.56l-.33-.2-.87-.08a2.38 2.38 0 0 0 -.62 1.11z"/></g></svg>