<svg id="レイヤー_1" data-name="レイヤー 1" xmlns="http://www.w3.org/2000/svg" viewBox="0 0 140.81 96.36"><defs><style>.cls-1{fill:#ff7bac;}.cls-2{fill:#fff;}</style></defs><path class="cls-1" d="M27.67,91.89c-10.12-3.43-20-9.7-24.17-19.56C-2.88,57.05,6.92,39.67,19.11,28.47a103.37,103.37,0,0,1,70.44-27c14.8.18,30.38,4.08,40.62,14.76S143.05,45.61,133,56.43c-5.69,6.1-14.18,8.81-20.42,14.34s-9.13,16.91-2.17,21.52h0C82,84.05,56.31,101.61,27.67,91.89Z"/><path class="cls-1" d="M28.07,90.45c-8.82-3-17.71-8.21-22.23-16.68-4.64-8.69-3-18.86,1.27-27.34,4.57-9,11.73-16.39,19.72-22.49A102.23,102.23,0,0,1,84.59,3.07c9.86-.37,19.89.67,29.14,4.25,8.73,3.38,16.61,9.33,20.79,17.86,3.72,7.57,4.71,17.15,1,24.91-4.41,9.08-14.31,12.13-21.87,17.88a22,22,0,0,0-7.69,10.12c-1.31,3.61-1.63,7.81,0,11.35a10.5,10.5,0,0,0,3.64,4.15l1.15-2.74c-10.43-3-21.29-2.62-31.95-1.18s-21.18,3.77-31.95,3.75a59.26,59.26,0,0,1-18.78-3c-1.84-.62-2.62,2.28-.8,2.89,10.57,3.54,21.65,3.55,32.59,2.17,10.63-1.34,21.16-3.73,31.9-4a60.13,60.13,0,0,1,18.2,2.2c1.7.5,2.51-1.81,1.15-2.74-3.24-2.23-3.77-6.36-2.93-10a18.46,18.46,0,0,1,6.94-10.48c4.11-3.18,8.86-5.38,13.14-8.29a28,28,0,0,0,9.66-10.37c4.07-8.1,3.59-17.89.15-26.12-3.78-9-11.2-15.74-20-19.84C108.88,1.64,98.62,0,88.52,0A103.53,103.53,0,0,0,56.84,5,105.25,105.25,0,0,0,28.31,19.15c-8.56,6-16.4,13.3-21.87,22.31C1.35,49.85-1.73,60.12,1,69.84S11.75,86.42,20.56,90.62a62.79,62.79,0,0,0,6.71,2.72C29.1,94,29.89,91.07,28.07,90.45Z"/><path class="cls-2" d="M40.24,62.12c-.81.53-1.37.35-1.66-.52a5,5,0,0,1,.72-1.5l.29-1.1a4.59,4.59,0,0,0-.38-2.89A5.32,5.32,0,0,0,37.54,55a3.79,3.79,0,0,0-2.68-.18l-1.26.5c-.65.37-1.21.67-1.68.91.56,1.61,1.31,3.41,2.23,5.4a10.59,10.59,0,0,1,.59,2.13A6.67,6.67,0,0,1,32,65.24a5.24,5.24,0,0,1-2.24.08l-1.29-.65a10.13,10.13,0,0,1-1.25-1.57,5.52,5.52,0,0,1-.75-1.83,4.9,4.9,0,0,1,.2-2.37,11.06,11.06,0,0,1,.7-1.56c.5-.5,1.12-1.14,1.84-1.91l-1.38-3.31L24.25,54l-.48.19a1.41,1.41,0,0,1-1.56-.31.73.73,0,0,1,.15-.82c.55-.35,2.16-1.32,4.81-2.9-.66-1.49-1.05-2.41-1.19-2.76l-.09-.85a2.45,2.45,0,0,1,.94-.57,1.51,1.51,0,0,1,1.1.17L29.06,49l2.83-1.45.34-.41a2.49,2.49,0,0,1,1.85.15l.27.37a1.33,1.33,0,0,1,0,.92,1.61,1.61,0,0,1-1,.54l-.3.27h-.42L29.86,50.8l1.19,3.28a20.62,20.62,0,0,1,3.64-1.43,6.34,6.34,0,0,1,4.29.46,7.64,7.64,0,0,1,1.52,1.08,6.59,6.59,0,0,1,1.36,2.31,5.91,5.91,0,0,1-.14,3A10.14,10.14,0,0,1,40.24,62.12ZM32.33,63,30.26,57.9a5.63,5.63,0,0,0-1.56,2.3,5.52,5.52,0,0,0,.61,2.31l.85.67A2,2,0,0,0,32.33,63Zm8.85-12.89-.44-.23L37,48.25q-.63-.55-1.14-1c-.2-.49,0-.87.58-1.14l1-.11a29.08,29.08,0,0,1,5.14,2.43l.22.67a.81.81,0,0,1-.54.54A1.24,1.24,0,0,1,41.18,50.06Z"/><path class="cls-2" d="M53.3,55.69l-.74-.29c-.28-.31-.56-.62-.87-.92l.38-.5.68-1.28.47-.79c.22-.65.49-1.58.83-2.77a31.67,31.67,0,0,0,.83-4.3,31.89,31.89,0,0,0,.29-4.78l-5.63,3.15a6.82,6.82,0,0,1-1.45.3A3.68,3.68,0,0,1,47,42.3q1.45-.94,8.92-5.48a9,9,0,0,1,1.64.06l.42.69a19.13,19.13,0,0,1,0,2.62q-.11,1.32-.39,5.13A13,13,0,0,0,59,46.4a25.12,25.12,0,0,0,2.5,1.09,7.08,7.08,0,0,0,3.59.56l1-.3a1.37,1.37,0,0,1,.78.7.77.77,0,0,0-.07.7,4.66,4.66,0,0,1-1.52.93,5.25,5.25,0,0,1-2.85.21,18.44,18.44,0,0,1-5.26-2.35q-.44,1.38-.78,2.52c-.22.77-.45,1.52-.68,2.26a8.7,8.7,0,0,1-1,2.25Z"/><path class="cls-2" d="M75.63,46.88l-.75-.29c-.27-.31-.56-.62-.86-.92l.38-.5.68-1.28.47-.79c.21-.65.48-1.58.82-2.77A30.19,30.19,0,0,0,77.21,36a33.49,33.49,0,0,0,.29-4.79L71.86,34.4a6.62,6.62,0,0,1-1.44.3,3.71,3.71,0,0,1-1.11-1.21q1.47-.95,8.92-5.48a9,9,0,0,1,1.64.06l.42.69a19.1,19.1,0,0,1,0,2.62c-.08.88-.21,2.59-.4,5.14a15,15,0,0,0,1.5,1.07,24.55,24.55,0,0,0,2.49,1.09,7.22,7.22,0,0,0,3.59.57l1-.31a1.43,1.43,0,0,1,.78.7.79.79,0,0,0-.08.71,4.81,4.81,0,0,1-1.52.92,5.2,5.2,0,0,1-2.84.21,18.33,18.33,0,0,1-5.26-2.35q-.43,1.38-.78,2.52l-.68,2.26a9.42,9.42,0,0,1-1,2.25Z"/><path class="cls-2" d="M96.73,37.52H96a2.71,2.71,0,0,0-.74-.67,1.49,1.49,0,0,1-.12-.93c.42-.25.84-.53,1.26-.83A10.14,10.14,0,0,0,98.61,32c.33-.85.62-1.71.87-2.56a33.63,33.63,0,0,1-4.09-1.25A6.2,6.2,0,0,1,93.32,27l-.42-.38.15-1.27.71-.36a12.17,12.17,0,0,1,2.83,1,18.72,18.72,0,0,0,3.61,1.27,23.6,23.6,0,0,0,.78-3.2c.18-1.05.34-2,.49-2.94s.3-1.65.43-2.19l.71-.51.93.24.75,1.2c0,.61-.08,1.36-.14,2.25a14.35,14.35,0,0,1-.53,2.82c-.29,1-.54,2-.75,3a26,26,0,0,0,3.82,1,27.08,27.08,0,0,1,2.87.62l.36.48a3.34,3.34,0,0,1-.22,1.05l-1.29.56c-.93-.14-1.8-.29-2.64-.44a20.89,20.89,0,0,1-2.16-.49l-1.73-.5a27.44,27.44,0,0,1-1.56,3.9c-.28.44-.68,1-1.21,1.74A4.63,4.63,0,0,1,96.73,37.52Z"/><path class="cls-2" d="M63.29,81.5l-.84,0A4.6,4.6,0,0,1,61.29,80a17,17,0,0,0-1-1.66l-.15-.57-1-1.91L59,75.46l-.07-.37a7.18,7.18,0,0,1-.86-1.6l-1.16.33-.79.23-.64-.22A1.45,1.45,0,0,1,55,73l.14-.68a2.28,2.28,0,0,0,.65-1.29l.19-.2.43-1.53L56.29,69a6.15,6.15,0,0,1-2.65-1.23l-.25-.63v-.35l.25-.25,0-.26.41-.39a10.9,10.9,0,0,1,1.09-2.39l1-.75.62.15.42.55-.27.91A7.17,7.17,0,0,0,56,66.51l1.27.66.39-.08.43-.65.29-.67a5.51,5.51,0,0,1,1.69-1.22l.36.34.24,0,.19.48-.17.39-.19.23a14.67,14.67,0,0,1-.9,1.88l-1,1.79-.14.56-.32,1.08a12,12,0,0,0,1.93-1.23l-.1-.24L59.59,69a2.06,2.06,0,0,1,1-.88,2.52,2.52,0,0,1,1.13,0,16.26,16.26,0,0,0,1.34,1.17c.46.36.94.7,1.43,1l.49.21.37.61-.1.39a3.39,3.39,0,0,1-1,.73A4,4,0,0,1,62.52,72l-.7-.43-.22-.16-1,.81.25,1.14L61.66,75l.26,0L62,74.6l.85-.46a5.6,5.6,0,0,1,2.13.29,5.67,5.67,0,0,0,2.13.3l.52.6a4.07,4.07,0,0,1-1.16,1.21,5.64,5.64,0,0,1-3-.17l-.26-.17a.45.45,0,0,1-.43-.18l-.66-.27v.32l.34.55.19.61a10.56,10.56,0,0,0,.86,1.51c.33.46.65.93,1,1.39l-.08.31A4.78,4.78,0,0,1,63.29,81.5Zm-5.14.32-.64,0a1,1,0,0,1-.79-.64c0-.63-.07-1.26-.14-1.9a4.83,4.83,0,0,1,.15-1.86A6.11,6.11,0,0,1,58,76.19l.49,0,.65.75a1.83,1.83,0,0,1,0,1l-.39.11.09.36.24.46-.07.36.21.32.06.88-.38.76A1.31,1.31,0,0,1,58.15,81.82Zm9.47-12.58a.44.44,0,0,0-.57,0l-.32-.51a1.55,1.55,0,0,1,.45-.58l.07-.65.17-.27c0-.72,0-1.47-.07-2.23A11.18,11.18,0,0,0,67,62.74l-.29,0a6.53,6.53,0,0,1-1.61.79l-.37.07-1,.46a2.12,2.12,0,0,1-1.4.08,1.05,1.05,0,0,1-.59-.6l.21-.49a4.08,4.08,0,0,1,2.15-1.12l.58-.31.55-.14a7,7,0,0,1,1.89-.95,7.56,7.56,0,0,0,1.59-.4c.54-.2,1.09-.4,1.64-.62a3.1,3.1,0,0,1,1.28-.91l1-.18.47.17a1.27,1.27,0,0,1,.55.87,13.89,13.89,0,0,0,.76,2.89,5.28,5.28,0,0,1,.28,2.87,3.27,3.27,0,0,1-1.39,1.15l-.38-.25-.39,0L72,65.59a3.21,3.21,0,0,0,.07-1.74l-.15-.19c-.2-.85-.41-1.68-.63-2.5h-.35l-.2.21-.26,0-.89.5a24.05,24.05,0,0,1,.32,2.57A9.47,9.47,0,0,1,69.75,67a.64.64,0,0,1-.52.41l0,.28A3.88,3.88,0,0,1,67.62,69.24ZM75.74,76a2.4,2.4,0,0,0-1.67,0,13.69,13.69,0,0,1-1.68.5,11.81,11.81,0,0,0-1,1.15h-.88a2.81,2.81,0,0,1-1.22-1.09c-.3-.48-.62-.94-1-1.4L68,73.89l-.27-1-.57-.74.23-.64a5.8,5.8,0,0,1,2-1.12l1-.28a9.13,9.13,0,0,1,1.42-.82c.52-.25,1-.47,1.55-.67l.39,0,.28-.19c.42-.06.83-.11,1.23-.13a3,3,0,0,1,.61.84c.09.44.17.87.23,1.3s.27.87.38,1.28L76.91,73l.15.26.06,1.17-.29.79A2.82,2.82,0,0,1,75.74,76ZM74.13,73.8l.21-.36L74,72.26l-.37-1.14-.23-.26a13.27,13.27,0,0,0-2.83,1.32l-.28,0A7.75,7.75,0,0,0,71,74.37l.25.31A18,18,0,0,0,74.13,73.8Z"/><path class="cls-2" d="M76.94,66.16l-1.13-.11-.22-.16-.27-.17.25-.91.64-.68.09-.29q1.59-2.16,3-4.46l0-.28a25.66,25.66,0,0,0,1.54-2.22L82,54.61l.24-.22.44-1.2a1.78,1.78,0,0,0,.4-.89,1.08,1.08,0,0,1,.13-.69A1.35,1.35,0,0,1,84,51h1.18l.26.33a38.12,38.12,0,0,0,7.09.85q3.54.09,7.15.38l.4.45.48.69-.23.5-1,.39c-1.8,0-3.62-.07-5.45-.19l-5.5-.37-.27-.17a16.87,16.87,0,0,0-2.95-.33l0,.29a14.46,14.46,0,0,0-1,2.38l-.34.34a2.13,2.13,0,0,1-.45,1L83,57.8v.4l-.52.6a5.89,5.89,0,0,1-1,1.63l-.17.27A7,7,0,0,1,80,62.58l0,.27A3.74,3.74,0,0,1,78.9,64.3l0,.3A4.46,4.46,0,0,1,76.94,66.16Zm8.77,6.72A10.66,10.66,0,0,1,84,72.81l-.18-.28a16.55,16.55,0,0,0,.38-5.48,26.63,26.63,0,0,0-1.11-5.45,10.75,10.75,0,0,1-.31-1.29,3.28,3.28,0,0,1,1.25-.84l.65.22a2,2,0,0,1,1.2,1.64,30.2,30.2,0,0,1,.93,3.87A16.42,16.42,0,0,1,87,69.1q-.06,1-.09,2l-.18.42-.17.6a2.37,2.37,0,0,1-.63.52Zm10.4-1.94-1.63-.43-.66-1.16a3.07,3.07,0,0,0-.8-1.52l0-.27a3.7,3.7,0,0,1-.75-1c-.4-1.11-.84-2.21-1.3-3.29L90.7,63l0-.26-.14-.22a1.08,1.08,0,0,0-.17-.74l-.3-.44a5,5,0,0,0-.37-.94c-.23-.81-.49-1.63-.77-2.47l-.23-.38,0-.4,1-.57.77,0,.71.6a4,4,0,0,1,1,1.39l.6,1.53,0,.34a24.29,24.29,0,0,0,2,4.18l0,.24.32.5,0,.46a6.71,6.71,0,0,1,1.46,2.3l0,.31a3.17,3.17,0,0,1,.31,2Z"/></svg>