<svg id="レイヤー_1" data-name="レイヤー 1" xmlns="http://www.w3.org/2000/svg" viewBox="0 0 121.4 78.57"><defs><style>.delivery_item_15-1{fill:#ff7bac;}.delivery_item_15-2{fill:#fff;}</style></defs><path class="delivery_item_15-1" d="M10.31,31.17a23.81,23.81,0,0,0,.52,37.44c4.42,3.37,9.88,5.1,15.31,6.29A97.34,97.34,0,0,0,96.75,63.06c6.93-4.23,13.43-9.45,17.85-16.24s6.6-15.35,4.55-23.2C115.86,11,102.56,3.19,89.6,1.81S63.76,4.05,51.07,7,24.88,12.16,12.5,8.12C18.83,23.12,10.31,31.17,10.31,31.17Z"/><path class="delivery_item_15-1" d="M9.25,30.1A25.34,25.34,0,0,0,7.19,67.37,30.4,30.4,0,0,0,19.93,74.8c9.54,3.09,20,4.06,30,3.69a99.62,99.62,0,0,0,29.84-5.71,88.84,88.84,0,0,0,26.17-14.35c7.73-6.29,13.89-14.8,15.22-24.88A26.75,26.75,0,0,0,111.85,9.6C105.15,3.81,96.45.75,87.68.14,65-1.44,43.68,11.18,21,8.45a43.63,43.63,0,0,1-8.06-1.78c-1-.32-2.28.78-1.84,1.84,2.15,5.2,3.15,10.93,1.28,16.36a16.2,16.2,0,0,1-2.09,4.05,5.87,5.87,0,0,1-1,1.18c-1.41,1.34.72,3.46,2.12,2.13a16.64,16.64,0,0,0,3.85-6.56c2-5.89,1.06-12.31-1.28-18L12.1,9.56c21,6.72,41.95-3.35,62.66-6,9.32-1.17,18.95-.81,27.53,3.33,7.12,3.43,13.36,9.24,15.41,17.09,2.45,9.38-1.47,19.26-7.64,26.32S95.63,62.51,87.23,66.48a95.88,95.88,0,0,1-56.32,7.81C21.82,72.76,12,70.14,6.68,62a22.42,22.42,0,0,1,4.69-29.72C12.86,31,10.73,28.89,9.25,30.1Z"/><path class="delivery_item_15-2" d="M28.82,45.52l-.42-.1-.55-.13-.26-.52a54.49,54.49,0,0,0-1.86-6,35.85,35.85,0,0,1-2.1,3.73l-1.08,1.42a14.26,14.26,0,0,1-1.31,1.52L20,45.9l-.48-.08-.31-.43.14-1.11a6.3,6.3,0,0,0,1.79-1.65q.59-.85,1-1.41a9,9,0,0,0,.77-1.28c.25-.49.51-1,.79-1.6a14.89,14.89,0,0,0,.88-2.55L18.23,38.2a5.7,5.7,0,0,0-1.44.44l-.41-.2-.55-.39a.58.58,0,0,1,.1-.55,5.76,5.76,0,0,1,1.4-.76l6.88-2.66c-.23-.92-.41-1.61-.53-2.07a5.27,5.27,0,0,1-.2-1.44l.5-.16.36-.15.53.11a1.11,1.11,0,0,1,.58.55,11.73,11.73,0,0,0,.74,2.49l4.59-1.62a1,1,0,0,0,.8.06l.42.63-.14.8-.59.28-4.6,1.59q2.91,8.91,2.94,9.21a1.13,1.13,0,0,1-.12.73Z"/><path class="delivery_item_15-2" d="M37.57,36.18l-.37,0c-.23.22-.55,0-1-.65q-1-3.43-1.51-5A12.3,12.3,0,0,1,34.12,28a3.73,3.73,0,0,1,.61-.55,2.33,2.33,0,0,1,1,.25,4,4,0,0,1,.91,1.91Q37,31,38.21,35.08l-.06.76Zm4.14,5-.92-.07-.35-.5c.51-.57,1-1.09,1.34-1.57a10.83,10.83,0,0,0,1.08-1.66,5.5,5.5,0,0,0,.6-2.4,15,15,0,0,0-.14-3,19.7,19.7,0,0,0-.79-3.36,29.52,29.52,0,0,1-.84-3.13,1.94,1.94,0,0,1,1-.48,1.21,1.21,0,0,1,.81.13,1.57,1.57,0,0,1,.59,1c.53,2,.87,3.39,1,4.17s.3,1.69.42,2.71a9,9,0,0,1,0,2.67,10.16,10.16,0,0,1-.76,2.3,6.84,6.84,0,0,1-1.31,2,6.57,6.57,0,0,1-1.17,1Z"/><path class="delivery_item_15-2" d="M55.75,29.76,51,30.68l-.88-.57-.18-.42v-.36A3.39,3.39,0,0,1,51,28.88L55,28a2,2,0,0,1,1.26,0l.2.2.38.31,0,.48A1.71,1.71,0,0,1,55.75,29.76Zm-.27-3.86a27.24,27.24,0,0,1-4.73-.16,2.92,2.92,0,0,1-.68-.83l0-.32.29-.32.71-.21a20,20,0,0,1,4.71.16l.44,1-.11.32Zm2.68,10.17-.23-.1-.53-.14-.26-.51.08-.41.41-.44.33-.39c.35-.38.7-.76,1-1.16a15.54,15.54,0,0,0,1.2-1.62,18.75,18.75,0,0,0,1.23-2.15c.37-.75.66-1.41.88-2A13.07,13.07,0,0,1,63,25.64l.64-.4.24.06a1.75,1.75,0,0,1,.61,1.11,16.57,16.57,0,0,1-.59,2.25,13.94,13.94,0,0,1-1.08,2.47,17.84,17.84,0,0,1-1.25,1.92c-.41.53-.84,1.05-1.3,1.55a6.31,6.31,0,0,1-1.43,1.21Zm3.37-12.43a5.76,5.76,0,0,1-2.24-1.23,1.56,1.56,0,0,1-.62-1.3l.47-.63a7,7,0,0,1,2.35.91l.83,1.3,0,.57A1.79,1.79,0,0,1,61.53,23.64Zm2.64-2a3.5,3.5,0,0,1-1-.51A5.66,5.66,0,0,1,62,19.72l-.27-.88a.78.78,0,0,1,.77-.4,1.66,1.66,0,0,1,1,.13,5.09,5.09,0,0,1,1.2,1.8l.27.53-.24.56Z"/><path class="delivery_item_15-2" d="M75.51,31.72l-.64.14a2.26,2.26,0,0,1-.85-.07,1.51,1.51,0,0,1,.11-1.07,2.53,2.53,0,0,0,1.08-1.23,8.2,8.2,0,0,0,1-4,15.31,15.31,0,0,0-.66-3.88l-6.08,2.1-.87-.12a1.35,1.35,0,0,1-.7-.79l0-.27a4.07,4.07,0,0,1,1.39-.88l.51-.12,5.26-1.76A18.13,18.13,0,0,1,74,15.37a1.23,1.23,0,0,1,.85-.43l.62.2.56.25L77.1,19l4-1.38.84-.2a2,2,0,0,1,1.28.16l.3.46,0,.48a3.3,3.3,0,0,1-1.19.82l-4.72,1.59a23.63,23.63,0,0,1,.74,4.66,7.58,7.58,0,0,1-1,4.08A5.23,5.23,0,0,1,75.51,31.72Z"/><path class="delivery_item_15-2" d="M87,26.45v-1a5.56,5.56,0,0,0,1.2-1.8,6.28,6.28,0,0,0,.4-2A13.12,13.12,0,0,0,88,18.26,41.43,41.43,0,0,0,86.61,14l0-.62.58-.57c.85.1,1.34.42,1.48,1,.39,1.13.79,2.39,1.21,3.79a14.43,14.43,0,0,1,.67,3.66,6.64,6.64,0,0,1-.29,2.41,6.08,6.08,0,0,1-1,1.71A5.36,5.36,0,0,1,87,26.45Zm9.75-3.23-1.08.33a2.32,2.32,0,0,1-1.07-.69c-.78-2.7-1.54-5.21-2.29-7.51A22.14,22.14,0,0,1,91.17,11l.48-.51a6.42,6.42,0,0,1,1.14.3l.41.43q2,6.25,2.93,9.37a9.35,9.35,0,0,0,1.39-2A23.57,23.57,0,0,0,98.83,15a1.2,1.2,0,0,1,1.11.15l.48.69a4.1,4.1,0,0,1-.19,1.64,18.17,18.17,0,0,1-.85,2.11A19,19,0,0,1,96.74,23.22Z"/><path class="delivery_item_15-2" d="M30.11,67.87c-.67.37-1.15.37-1.45,0l-.08-.77.08-.47A7.48,7.48,0,0,0,30,64.51a14.1,14.1,0,0,0,1.12-2.82c.18-.75.34-1.64.49-2.69a11.17,11.17,0,0,0,0-3.11L26.7,57.74a13.87,13.87,0,0,1-.24,2.65,18,18,0,0,1-.69,2.36l-.41.47a5.23,5.23,0,0,0-1-.11L24,62.18V61.5a16.18,16.18,0,0,0,1-5.22,1.22,1.22,0,0,1,1-.59l.29.24a63.34,63.34,0,0,0,6.27-2.42,1.92,1.92,0,0,1,.87.53l.1.3c.08.5.15,1.06.19,1.69a13.65,13.65,0,0,1,0,2.11c-.06.79-.12,1.47-.19,2.07a12.63,12.63,0,0,1-.42,2c-.22.72-.49,1.51-.82,2.37a9.19,9.19,0,0,1-1,2,12.49,12.49,0,0,1-.9,1.2Zm3.63-15.12-.81.08L32,52.4a3,3,0,0,1-1.6-1.63,2.25,2.25,0,0,1,1-.58,6.17,6.17,0,0,1,2.69,1.5l0,.58ZM36.09,51a5.06,5.06,0,0,1-1.29,0l-.6-.53a7.07,7.07,0,0,1-1.34-1.63l0-.27.37-.46.65-.21.87.41a13.6,13.6,0,0,1,1.61,1.88l.12.49Z"/><path class="delivery_item_15-2" d="M41.49,59.19A3.26,3.26,0,0,1,39.94,59a11.75,11.75,0,0,1-1.81-3.28l.6-.7.87.16.52.25a19,19,0,0,1,1.76,3Zm2.68-1-.6,0-.86-.41-1.35-3.43.29-.52.61-.29.81.12a2.76,2.76,0,0,1,.79.88l.75,2.9ZM46,62.36a1.81,1.81,0,0,1-1.12-.18l-.3-.44,0-.22a8.3,8.3,0,0,0,1.34-1.92,5,5,0,0,0,.54-2.5A18.47,18.47,0,0,0,46,53.71l.63-.73.48-.31.6.15a.92.92,0,0,1,.44.72,12,12,0,0,1,.53,3,6.78,6.78,0,0,1-.22,1.76A13.11,13.11,0,0,1,48,59.73a7,7,0,0,1-.8,1.38A6.67,6.67,0,0,1,46,62.36Z"/><path class="delivery_item_15-2" d="M55.11,59.59l-.56-.28-.63-.77.34-.36.6-1,.41-.59c.22-.51.49-1.21.82-2.12s.66-2,1-3.15a18.13,18.13,0,0,0,.6-3.48l-4.4,2.07a5.41,5.41,0,0,1-1.14.15,3.16,3.16,0,0,1-.81-1c.81-.44,3.17-1.69,7.1-3.76a7.23,7.23,0,0,1,1.29.13L60,46a14.09,14.09,0,0,1-.2,2c-.11.68-.35,1.89-.73,3.63a10.43,10.43,0,0,0,1.12.93,18.39,18.39,0,0,0,1.88,1,5.83,5.83,0,0,0,2.8.67l.81-.19a1.1,1.1,0,0,1,.58.6.6.6,0,0,0-.1.56,3.67,3.67,0,0,1-1.25.63,4,4,0,0,1-2.24,0,14.36,14.36,0,0,1-4-2.16c-.29.71-.54,1.35-.76,1.93s-.45,1.17-.69,1.73a6.41,6.41,0,0,1-.93,1.69ZM63,45.46c-.36,0-.71,0-1.05,0l-.84-.4a7,7,0,0,1-1.49-1.74.67.67,0,0,1,.6-.58l.42-.07a2.27,2.27,0,0,1,1.33.47l.39.21a4.35,4.35,0,0,0,1,1v.5l0,.33Zm1.29-2.72A9.28,9.28,0,0,1,62,42.07l-.48-.63,0-.34.42-.47.66-.21L64.7,41l.36.18.25.69-.28.54Z"/><path class="delivery_item_15-2" d="M77.51,53.11l-.82-.26a3.79,3.79,0,0,1-1.24-2,9.42,9.42,0,0,0-1-2.23,5.9,5.9,0,0,0-1.14.8l-.33.59.13.41a13.89,13.89,0,0,0,.77,1.25c.28.4.53.79.78,1.2l-.16.21,0,.28-.63.35a2.19,2.19,0,0,1-1.09-.28l-.35-.21a12.28,12.28,0,0,1-1-1.42,14.55,14.55,0,0,1-.79-1.58,1.71,1.71,0,0,1-.06-1.43l.5-.38.6-.06a7,7,0,0,1,2.07-1.7l-.08-.57-.2-.33a6.55,6.55,0,0,1-2.38,0l-.21.39-.54.23-.37-.05-.21-.16a2.16,2.16,0,0,1-.8-.82,6.86,6.86,0,0,0-.28-.91c-.08-.74-.14-1.49-.19-2.25s-.08-1.53-.09-2.3a3.08,3.08,0,0,1,.72-.72,1.36,1.36,0,0,1,.94.14l.33.35.29.53c0,.44,0,.88,0,1.33a.63.63,0,0,0,.53-.06l1-.52a3.46,3.46,0,0,1-.16-1.44,4.61,4.61,0,0,1,.63-.46l.53,0a1,1,0,0,1,.64.64l.54.67A9,9,0,0,0,75.77,40h.5l.43.68A3.84,3.84,0,0,1,75,42.11l.06.53.21.16.83,0a7.72,7.72,0,0,1,1.35-.93l.17.24.37.05.3.46.17.21-.5.89a5.79,5.79,0,0,1-1.31.67l-.22,0a.9.9,0,0,0-.58.5l.2.76a19.17,19.17,0,0,0,3.44-.84l1,.22a2.75,2.75,0,0,1,.53.65,3.46,3.46,0,0,0-.2,2.18A3.84,3.84,0,0,1,80.65,50a1.34,1.34,0,0,1-.76.4,1.83,1.83,0,0,1-1.23-.17l-.28-.37a3.85,3.85,0,0,0,.16-1.47,12,12,0,0,0-.25-1.54l-.42.09c-.38.25-.75.5-1.11.77a1.48,1.48,0,0,0,.14.79,5.39,5.39,0,0,1,.66,1.62l0,.27.19.21,0,.28a2.45,2.45,0,0,1,.4.59l.44.7-.19.49L78,53Zm-6-8.45q.72-.45,1.41-.93L72.76,43l-.73.16-.71.39h-.23a2.17,2.17,0,0,0,0,1.21Zm12.35,1.06-.31-.07-.19.12-1-.2-.22-.38A4,4,0,0,1,81,43.35l0-.26-.12-.19-.43-2.14A5.3,5.3,0,0,1,80.12,39,1.17,1.17,0,0,1,81,38.4l.83.36a3.91,3.91,0,0,1,.81,1.92l.12.39.07.55a15,15,0,0,1,.57,1.87c.24.4.49.79.75,1.16a.69.69,0,0,1-.06.73Zm4.48,4.54-2.17-.13A7.16,7.16,0,0,1,84,49.66.92.92,0,0,1,83.6,49l.07-.51.56-.17.58.1.23.14a3.28,3.28,0,0,0,1.65.1,11,11,0,0,0-.3-1.58c-.14-.53-.28-1.08-.41-1.63a20.47,20.47,0,0,1-1.47-5.52c-.12-.59-.25-1.19-.39-1.79a10.2,10.2,0,0,1-.27-1.79,3.08,3.08,0,0,1,.81-.51.92.92,0,0,1,.73.26l.64.42.2.65a14.82,14.82,0,0,0,.55,2.49,14.22,14.22,0,0,1,.46,2l.13.24a9.32,9.32,0,0,0,.39,2,22.18,22.18,0,0,1,1.31,4.46,2.74,2.74,0,0,1,.07,1.47A2.21,2.21,0,0,1,88.36,50.26Z"/><path class="delivery_item_15-2" d="M96.61,48.33l-.87-.12a3.21,3.21,0,0,1-1.18-1.84,47.46,47.46,0,0,0-1.74-5.25l-.66,1.64a1.65,1.65,0,0,1-.77.62l-.45-.08-.22-.49c.17-1,.35-2,.56-3a26.93,26.93,0,0,0,.44-3l.17-.18C92,35.81,92,35,92,34.13a13.35,13.35,0,0,1,.3-2.53l.44-.42a1.77,1.77,0,0,0,.93.16l.45.52a34.73,34.73,0,0,0-.52,3.82,9.4,9.4,0,0,0,.49,3.87l.16.18a19.24,19.24,0,0,0,1.26,3.35l.07.75a.92.92,0,0,1,.38.72l.09.63.25.48,0,.27a4.23,4.23,0,0,0,.74,1.47l-.19.67Zm7.88-2.69-.72-.17a3.9,3.9,0,0,1-.93-1.75q-.89-3.11-1.66-6.24L101,37.3a31.37,31.37,0,0,0-.88-3.36l-.44,0a13,13,0,0,0-1.46,1.23l0,.72-.19.33c-.08.43-.16.87-.23,1.31a5.32,5.32,0,0,1-.35,1.3,2.42,2.42,0,0,1-.86.65L96,39.38l-.39-.4.11-.52.28-.41a23.63,23.63,0,0,0,.6-4.08,34,34,0,0,1,.51-4l.67-.37.45,0,.21.27q.24,0,.27.36a6.43,6.43,0,0,0-.13,2.48c.39-.14.78-.26,1.17-.37,1.43-.54,2.86-1.08,4.31-1.61.73-.4,1.49-.78,2.26-1.13l.67.17.14.24.23.21-.07.52a3.32,3.32,0,0,1-1,.92l-.94.17-.21.19-.65.3a9.15,9.15,0,0,0-2.43,1v.38l.15.29v.71l.46,1,.31,0,.23-.19.37-.06,1.41-.57a10,10,0,0,1,1.49-.49l.62.14.27.14.19.5-.28.53-1,.48-.32,0c-.47.18-1,.38-1.42.58a3.25,3.25,0,0,0-1.2.84,3.93,3.93,0,0,0,.08,1.4l.12.19,0,.26.38.72a12.31,12.31,0,0,1,1.43-.74c.44-.2.9-.38,1.36-.57a3.46,3.46,0,0,1,1-.57l.6.08a.71.71,0,0,1,.5.57l.09.31a6.5,6.5,0,0,1-2.17,1.38,8.5,8.5,0,0,0-2.26,1.3l.12.9.12.19.08.65.45,1.07-.08.28Z"/></svg>