<svg id="レイヤー_1" data-name="レイヤー 1" xmlns="http://www.w3.org/2000/svg" viewBox="0 0 131.79 101.97"><defs><style>.delivery_item_4-1{fill:#fff;}.delivery_item_4-2{fill:#ff7bac;}</style></defs><path class="delivery_item_04-1" d="M2.06,37.85c-1.52-14.21,9.23-27.7,22.52-33S52.94,1.14,66.71,5C93,12.36,118.19,29.68,127.44,55.4c4.51,12.54,4.32,28.15-5.26,37.41-7.92,7.65-20.26,8.94-31,6.62S70.57,91.76,60.39,87.55,39,80.24,28.25,82.73c1.16-9.33-5.51-17.67-12.09-24.4S2.24,44.32,1.51,35"/><path class="delivery_item_04-1" d="M3.56,37.85c-.92-9.16,3.32-17.82,9.86-24,7.4-7,17.29-10.29,27.37-10.75,10.72-.48,21.47,1.81,31.57,5.26a104.84,104.84,0,0,1,24.8,12.23c14.79,10,27.66,25.09,30.94,43.06,1.56,8.6.77,18.3-4.62,25.48-5.71,7.62-15.49,10.24-24.62,9.84-10.77-.47-20.77-5.18-30.44-9.51-10.27-4.6-21.05-9.19-32.51-9.08a38.34,38.34,0,0,0-8.06,1l1.9,1.44c.85-7.61-3.1-14.52-7.77-20.2S11.43,52.08,7.27,45.91A23.46,23.46,0,0,1,3,35C2.84,33-.16,33,0,35c1.37,15.57,17.17,23.23,24.1,35.9a19.94,19.94,0,0,1,2.64,11.88c-.12,1,1,1.64,1.89,1.45,11.9-2.68,23.94,1.54,34.74,6.26C73.68,95,84,100.23,95.25,101.63c9.59,1.18,20.09-.58,27.44-7.25,7-6.35,9.52-16.09,9.05-25.27-1-19.23-13.44-36.27-28.24-47.66A103.6,103.6,0,0,0,78.25,7.3,99.06,99.06,0,0,0,46.81.08c-10.75-.52-22,1.51-30.91,7.84C8.27,13.33,2.13,21.56.75,31a27.81,27.81,0,0,0-.19,6.88c.19,1.91,3.19,1.93,3,0Z"/><path class="delivery_item_04-2" d="M36.49,34.38v-.44l-.23-.32-.12-1.26.17-.18a10.77,10.77,0,0,0,1.09-1.47,20.07,20.07,0,0,0,1.44-3c.55-1.33,1-2.57,1.49-3.73a45.31,45.31,0,0,1-7.67,1.15l-.94-.07-.5-.32-.11-.89L31,23.61l.11-.54.88-.31.55-.17a7.08,7.08,0,0,0,2.3-.21c1.09-.22,2.21-.39,3.34-.51a15.91,15.91,0,0,0,3.4-.78L44.69,20q1.47-.48,4.8-1.94l1,.41.42.49.21.62-.07.49-.25.19a14.15,14.15,0,0,1-2.64,1.14l-3,1.06c-.83.3-1.57.54-2.24.73a32.69,32.69,0,0,1-1.8,5.05q-1.15,2.58-2.79,5.53a4.43,4.43,0,0,0-.57.74A1.56,1.56,0,0,1,36.49,34.38Z"/><path class="delivery_item_04-2" d="M66.57,44.34a51.41,51.41,0,0,1-3.42-5.28q-1.68-2.94-3.42-6.75a26.33,26.33,0,0,0-3.79,2c-1,.68-1.82,1.21-2.34,1.59a3.25,3.25,0,0,1-1.43-.28l-.37-.57.28-.78a30.4,30.4,0,0,1,7.27-4.08l.91-.26c.75.23,1.18.6,1.28,1.12q2.16,4.54,3.66,7.39a23.69,23.69,0,0,0,2.63,4.21,1.79,1.79,0,0,1-.36,1.81Zm-.74-10.76-1.15-3.27a1.67,1.67,0,0,1,.15-1,1.23,1.23,0,0,1,1.6.08l1,2.32a4.45,4.45,0,0,1,.12,1.89l-.65.44ZM70,33l-.5-.79-.56-2.33c0-.32.13-.68.56-1.09a1.4,1.4,0,0,1,1,.31,2.34,2.34,0,0,1,.73,1.05,5.76,5.76,0,0,1,.22,2.88l-.29.32A1,1,0,0,1,70,33Z"/><path class="delivery_item_04-2" d="M75.46,50.77a4,4,0,0,1-.89-1.29,1.24,1.24,0,0,1,.31-1.23,13.42,13.42,0,0,1,2.45.2,16.12,16.12,0,0,0,4,0,18.31,18.31,0,0,0,5-1.29,21.08,21.08,0,0,0,4.89-2.71l.79-.17.14.3A11.72,11.72,0,0,1,91.78,46a19.21,19.21,0,0,1-3.32,2.79,11,11,0,0,1-3.58,1.55c-1.24.29-2.54.54-3.9.73A18.34,18.34,0,0,1,75.46,50.77ZM81.74,41q-1.5-1.52-3.42-3.57a2,2,0,0,1,.86-1.92l1.11.33q3,2.59,3.51,3.82a3.27,3.27,0,0,1-.67,1.86A4.43,4.43,0,0,1,81.74,41Z"/><path class="delivery_item_04-2" d="M97.62,62.79l-.79-.93A2.37,2.37,0,0,1,97,60.73l.67-.67q3.56-7.44,7.41-14.93c.29-.24.71-.09,1.27.44l.63,1.17-3.08,6.39q4.15,3.15,7.67,6.21l.52.54a1.56,1.56,0,0,1,.33,1,1.46,1.46,0,0,1-1,.79,3.12,3.12,0,0,1-1.41-.48,44.31,44.31,0,0,0-7.21-5.87c-2.1,4.39-3.56,6.84-4.37,7.33Z"/><path class="delivery_item_04-2" d="M39.73,64.86l-1-1-.06-1.05.4-.22a3.15,3.15,0,0,1,1.67.32l.53.34a4.18,4.18,0,0,1,1.09.24l.18-.38a4.15,4.15,0,0,1,.44-1.92c.3-.62.58-1.26.85-1.91l.47-.82.07-.3a7.14,7.14,0,0,1,1.19-1.53,2.46,2.46,0,0,1,.93,0l.21.18.36.1.15.28.36.72a36.43,36.43,0,0,1-2.27,4.66c-.16.62-.32,1.23-.47,1.83l.66.53a13.27,13.27,0,0,1,2.08.8,4.57,4.57,0,0,1,.29-1.77c.21-.54.4-1.08.58-1.63a15.39,15.39,0,0,1,1.78-3.81A8.59,8.59,0,0,0,51,56.18a8.78,8.78,0,0,1,1.39-2.27,1.6,1.6,0,0,1,1.13.13l.33.5.29.43a3.81,3.81,0,0,1-.4,1.94l-.26.27-.71,2,2.94,1.3a2.58,2.58,0,0,1,1.61,1.61,1.36,1.36,0,0,1-.22.78.53.53,0,0,1-.65.16,1.54,1.54,0,0,1-1.15-.36l-.35-.3c-.53-.17-1.06-.36-1.59-.56a4.76,4.76,0,0,0-1.65-.33l-.33.25c-.19.6-.36,1.19-.5,1.77l-.21.28-.77,2.44-.31.2a3,3,0,0,0,1.19.78L54,68.78a8.72,8.72,0,0,1,2,1.66l.37.8-.28.47L56,72a2.46,2.46,0,0,1-1.94-.47l-1-.76q-3.3-1.42-6.46-3.06h-.28l-1.12-.6-1-.27-.44-.37c-.67-.27-1.34-.53-2-.77A18.69,18.69,0,0,1,39.73,64.86ZM43,54.49A2.07,2.07,0,0,1,42,53.44a1.78,1.78,0,0,1,.15-1.16,14.59,14.59,0,0,1,2.31-1l.17-.18.72-.2.73-.06a3.56,3.56,0,0,0,1.25-.36,3.79,3.79,0,0,1,2.9-.77l.2-.25A9,9,0,0,1,53,49a9.15,9.15,0,0,1,1.72-.48l.79.26.67,1.08,0,.59q1.4,2.05,2.84,4a28.69,28.69,0,0,0,3.22,3.67l.54.18.5.74-.06.39-.58.6-.21.16a2.44,2.44,0,0,0-1.4-.32,22.78,22.78,0,0,1-3.62-4.1c-1-1.52-2.13-3-3.26-4.48a10.28,10.28,0,0,0-1.77.31,6.91,6.91,0,0,1-1.76.45c-1.21.42-2.44.78-3.7,1.09a9.65,9.65,0,0,0-2.42.89l-.6.38Z"/><path class="delivery_item_04-2" d="M60.09,75.74a2.13,2.13,0,0,1-.68-.69,19.55,19.55,0,0,1-.26-3L59,71.69l.22-.34a1.79,1.79,0,0,1,.16-1l.26-.09-.24-.11A53.79,53.79,0,0,1,61.94,65l.37-.19a2.65,2.65,0,0,1,1.4.76l.42.91a15.21,15.21,0,0,1-1.84,4.11l-.16.76c-.25.81-.45,1.56-.6,2.26l.35.3a26.46,26.46,0,0,1,5.39,1.42c1.77.67,3.56,1.3,5.37,1.91l.56.19,1.79,1c.59-.76,1.18-1.55,1.75-2.37s1.15-1.63,1.73-2.43a1,1,0,0,1,.74.07,2.63,2.63,0,0,0,.73.72l.26.47a3,3,0,0,1-.32,1.25L78.73,78a14.82,14.82,0,0,1-1.79,2.5,8.31,8.31,0,0,1-.66.67l-.61-.09-.34.12c-.79-.47-1.55-1-2.29-1.48l-.26,0-.54-.39a4.5,4.5,0,0,0-1.5-.44l-1.38-.54-.43-.13c-.63-.17-1.27-.37-1.93-.6l-.43-.13-2.42-.76-.2-.18h-.44a5.75,5.75,0,0,0-1.81-.33A3.79,3.79,0,0,1,60.09,75.74Zm9.54-.65a1.46,1.46,0,0,0-.71-.48l-1.12-.49A4.4,4.4,0,0,1,65.54,72a5.07,5.07,0,0,1-.13-2.41,8.73,8.73,0,0,1,.77-2.33l.29-.72L68,64.25l.57-.17,1,.74c.56.08,1.15.15,1.75.2.35-.44.69-.89,1-1.34l1-1.36L72.77,62h-.28l-1.11-.66-.32,0a29.45,29.45,0,0,0-3.17-1.47,1.48,1.48,0,0,1-.48-.8,1,1,0,0,1,0-1l.24-.17a11.36,11.36,0,0,1,1.7.53c.58.23,1.15.45,1.72.63.59.34,1.17.65,1.76.94a45.21,45.21,0,0,0,4.54,1.36,21.58,21.58,0,0,1,4.47,1.61l.27.18,1.42.64a3.6,3.6,0,0,1,1,1.23l-.12.72-.64.26-.65-.11-.69-.2-.3-.28-.55-.06L81.26,65c-.5-.25-1-.51-1.48-.8-.55-.13-1.06-.24-1.54-.33a4.89,4.89,0,0,0-2.17-.56L75,64.57l0,.26a1.21,1.21,0,0,0-.55.65l-.17.35.08.31,1.44.69.38,0,.43.29.26.05,1,1.24-.44,1.07c-.55.84-1.14,1.66-1.77,2.45l0,.36a13.85,13.85,0,0,0-1.39,1.84l0,.36-.65.26-.78.32-.17.18a1.66,1.66,0,0,0-1.16-.12.38.38,0,0,1-.48,0A2.32,2.32,0,0,0,69.63,75.09Zm-1.41-3.16.6-.91-.23-.11a.81.81,0,0,0-.74,0l-.11.66Zm1.15-3,.33-.25.07-.26.55-.85,0-.33-.2-.17a1,1,0,0,1-.81-.11l-.46.61-.27,1,.49.18Zm2,4.15a1.51,1.51,0,0,0,.85-1L71.48,72l-.41.42.07.61Zm1-3.24.26.05.24.25.21-.16.18.22.32-.06c.37-.56.77-1.13,1.18-1.69l-.34-.3-1-.28a2.63,2.63,0,0,0-1,1.13Z"/></svg>