<svg viewBox="0 0 82.48 65.85" xmlns="http://www.w3.org/2000/svg"><path d="m5.37 35.2a49.8 49.8 0 0 1 -.52-19.38c1.24-6.21 6.57-11.06 12.59-13s12.56-1.48 18.74.02a63.13 63.13 0 0 1 41.18 33.16c2.21 4.52 3.88 9.45 3.61 14.46s-2.82 10.12-7.29 12.41c-3.76 1.92-8.24 1.64-12.41 1a78 78 0 0 1 -19-5.6c-6.96-3.06-10.27-6.27-17.56-8.37s-15.48-3.1-23.21.77c0 0 5.2-9.54 3.87-15.47z" fill="#ffff93"/><path d="m6.81 34.8a51.72 51.72 0 0 1 -1.18-10.8c0-3.31.12-6.9 1.31-10 2.34-6.14 8.64-9.76 14.83-10.7 7-1.08 14.44.67 21 3.16a61 61 0 0 1 16.42 9.38 62.1 62.1 0 0 1 12.81 13.9c3.85 5.77 7.52 12.7 7.46 19.8a15 15 0 0 1 -2.89 8.9 11.35 11.35 0 0 1 -8.56 4.36 39.89 39.89 0 0 1 -10.92-1.27 77.68 77.68 0 0 1 -11.29-3.41 73.93 73.93 0 0 1 -9.69-4.69 56.45 56.45 0 0 0 -8.89-4.3c-6.65-2.35-14.22-3.48-21.22-1.72a26.89 26.89 0 0 0 -5.26 2l2.05 2c2.61-4.79 5.21-11.08 4.02-16.61-.39-1.89-3.28-1.09-2.89.79.63 3.08-.44 6.44-1.49 9.31a37.45 37.45 0 0 1 -2.23 5 1.52 1.52 0 0 0 2.05 2.1c7.24-3.54 15.48-2.69 23-.36a49.41 49.41 0 0 1 9.6 4.5 76.45 76.45 0 0 0 10.46 5 77.32 77.32 0 0 0 11.69 3.43c3.79.8 7.79 1.55 11.67 1.18a14.37 14.37 0 0 0 9.33-4.36 17.08 17.08 0 0 0 4.2-8.89c1.19-7.66-2.15-15.29-6-21.73a64.18 64.18 0 0 0 -12.85-15.36 65 65 0 0 0 -17.14-10.78c-6.77-2.89-14.29-4.94-21.71-4.63-7.08.37-13.94 3.21-18.22 9a19.17 19.17 0 0 0 -3.35 9.41 49.89 49.89 0 0 0 .07 11.67c.22 1.85.52 3.69.92 5.51s3.31 1.09 2.89-.79z" fill="#ffff93"/><g fill="#ff7bac"><path d="m26 35.65a16 16 0 0 1 .17-2.84 6.6 6.6 0 0 1 -1.53-.48l-.95-.57a5.2 5.2 0 0 1 -1.58-2.43 7.45 7.45 0 0 1 -.1-2.71 13.11 13.11 0 0 1 .77-2.91 19.36 19.36 0 0 1 1.73-3.15 8.18 8.18 0 0 1 2.06-2.15 9.4 9.4 0 0 1 2.31-1.19 4.13 4.13 0 0 1 3.18.32 11.07 11.07 0 0 1 1.29.81 4.27 4.27 0 0 1 1.27 1.71 6.69 6.69 0 0 1 .31 3.29 14.11 14.11 0 0 1 -1 3.41 15.38 15.38 0 0 1 -1.53 2.74 17.19 17.19 0 0 1 -2.17 2.29 3.74 3.74 0 0 1 -2 .81c-.1.77-.18 1.31-.23 1.62s-.14.81-.24 1.49c-.37.76-.8 1-1.3.85a.83.83 0 0 1 -.46-.91zm-.13-5q.24-1.42.33-2.28a5.87 5.87 0 0 1 .54-1.83 1.05 1.05 0 0 1 1.56-.31 1.9 1.9 0 0 1 .16 1.43c-.09.91-.2 1.88-.32 2.92a7 7 0 0 0 1.69-1.16 14 14 0 0 0 1.32-1.65 10.57 10.57 0 0 0 1-2 12.51 12.51 0 0 0 .65-2.48 5.5 5.5 0 0 0 -.12-2.29 2.15 2.15 0 0 0 -1.57-1.59 2.81 2.81 0 0 0 -1.87-.13 5 5 0 0 0 -1.58.8 6 6 0 0 0 -1.52 1.73 23.35 23.35 0 0 0 -1.35 2.5 8.5 8.5 0 0 0 -.6 2.42 3 3 0 0 0 .09 2 2.91 2.91 0 0 0 1.54 1.88z"/><path d="m34.75 39.77a2.48 2.48 0 0 1 -1.08-1.85 3.44 3.44 0 0 1 .57-2 7.33 7.33 0 0 1 1.41-1.77 14.05 14.05 0 0 0 2.25-1.45l-.11-1.25-.12-.19-.34-1.83c.07-.72.17-1.4.29-2.07a8.11 8.11 0 0 1 1-2.43 5.13 5.13 0 0 1 2-2l1.19-.41a6.35 6.35 0 0 1 2 .27 4 4 0 0 1 1.73 1.37 8.74 8.74 0 0 1 .65 1.35 4.81 4.81 0 0 0 -.19 1.4l-.43 1a5.63 5.63 0 0 1 -1.27 2.09 8.86 8.86 0 0 1 -.9 1 7.83 7.83 0 0 1 -1.4 1 6.72 6.72 0 0 0 -1.5 1.29l.5 1.47.22.63.89-1.26a1.38 1.38 0 0 1 1-1.28l.55.43a17.88 17.88 0 0 1 .81 1.86c.2.56.42 1.12.66 1.69l-.25 1a1.86 1.86 0 0 1 -1 .22 2.23 2.23 0 0 1 -1.16-1.63 4 4 0 0 0 -1 1.14l.41 1.44.38 1.38-.09.93-.74.34-.68-.17a3.19 3.19 0 0 1 -.58-1.32 2.22 2.22 0 0 0 -.68-1.24 5.18 5.18 0 0 1 -1.74 1.3 3.54 3.54 0 0 1 -1.78.25 2.77 2.77 0 0 1 -1.47-.7zm3.11-1.57a4.27 4.27 0 0 0 1.56-1.27l-.62-2-.23-.11a5.88 5.88 0 0 0 -1.86 1.18 9 9 0 0 0 -.82 1.38 6.11 6.11 0 0 0 .16.85c.45.49 1.05.49 1.81-.03zm2.39-7.33.77-.51a6.4 6.4 0 0 0 1.72-1.5 6.86 6.86 0 0 0 1-2 1.25 1.25 0 0 0 0-1 2 2 0 0 0 -1-1.22 2.24 2.24 0 0 0 -2.18.9l-.45.82a4.7 4.7 0 0 0 -.69 1.8 12 12 0 0 0 .38 2.53z"/><path d="m55 49.46a1 1 0 0 1 -.83-1 24.12 24.12 0 0 1 .37-2.72c.18-1 .34-2 .47-3a23.33 23.33 0 0 0 -3.89-2c-.78 1-1.42 1.83-1.93 2.52a7.43 7.43 0 0 1 -1.96 1.74l-.59-.13a1.43 1.43 0 0 1 -.45-.62v-.89c.53-.8 1.1-1.58 1.72-2.34s1.22-1.54 1.81-2.35q1.55-1.8 2.88-3.41c.89-1.07 1.8-2.13 2.75-3.19l1.68-1.52a1.5 1.5 0 0 1 1.07.2 1.26 1.26 0 0 1 .42 1.12l-.09 1.86c-.33 2.13-.63 4.2-.92 6.2s-.51 4.07-.81 6.36a13 13 0 0 1 -.7 2.71c-.33.52-.69.69-1 .46zm.24-9.17c.12-.89.28-1.81.47-2.75a24.47 24.47 0 0 0 .43-2.85c-.64.7-1.24 1.37-1.81 2s-1.16 1.38-1.77 2.18a5.57 5.57 0 0 0 1.24.76z"/></g></svg>