<svg id="レイヤー_1" data-name="レイヤー 1" xmlns="http://www.w3.org/2000/svg" viewBox="0 0 90.27 83.22"><defs><style>.cls-1{fill:#fff;}.cls-2{fill:#ff7bac;}</style></defs><path class="cls-1" d="M25.58,1.7h0c7.8-.92,15.58,1.56,22.83,4.58C58.61,10.52,68.48,16,76.14,24S89.07,42.58,88.83,53.62s-6.71,22.15-17,26.26c-9.92,4-21.44,1-30.6-4.5-5.07-3-9.72-6.87-15.11-9.33S14.21,62.68,9,65.57A23.24,23.24,0,0,0,7.52,49C2.76,39.43-.74,31,3.2,20.2,6.67,10.71,15.38,2.89,25.58,1.7Z"/><path class="cls-1" d="M25.58,3.2c6.66-.78,13.24,1,19.42,3.32a103.71,103.71,0,0,1,17.29,8.39c10.45,6.4,19.61,15.58,23.37,27.5C89,53.05,87.17,65.14,79.13,73.24A23.45,23.45,0,0,1,64.3,80.13a35.76,35.76,0,0,1-17.83-3.66C40,73.4,34.54,68.54,28.12,65.33,22,62.27,14.57,60.89,8.29,64.27l2.2,1.7a24.86,24.86,0,0,0-.67-15.44c-1-2.56-2.35-5-3.45-7.46a44.33,44.33,0,0,1-2.5-7A26.86,26.86,0,0,1,12.11,9.62,24.8,24.8,0,0,1,25.58,3.2c1.89-.24,1.91-3.24,0-3A29.59,29.59,0,0,0,3.36,16.13,28.79,28.79,0,0,0,.09,31.68C.56,37.07,2.56,42.1,4.86,46.94c1.39,2.92,2.77,5.68,3.29,8.9a21.93,21.93,0,0,1-.55,9.33,1.52,1.52,0,0,0,2.2,1.7c5.88-3.17,12.89-1.16,18.37,1.88,5.88,3.26,11,7.66,17.17,10.48a38.86,38.86,0,0,0,18.55,3.93,26.68,26.68,0,0,0,16-6.56c8.82-7.77,12-20.19,9.55-31.46C86.81,32.58,78.19,22.25,67.88,15A99.35,99.35,0,0,0,48.39,4.66C41.22,1.71,33.41-.72,25.58.2,23.68.42,23.66,3.42,25.58,3.2Z"/><path class="cls-2" d="M26.25,40.9l-.54-.6-.16-.81-7.87-3.15a5,5,0,0,1-1.4-.78,1.86,1.86,0,0,1-.15-1.45l.79-.3,1.2.33,8.61,3.3q1.82-4,2.82-6.06c.67-1.38,1.22-2.5,1.64-3.38q-9-3.7-9.87-4.09a2.33,2.33,0,0,1-.76-1l.06-.88.49-.2a5.44,5.44,0,0,1,2.26.44l9.77,4.08a2.69,2.69,0,0,1,1.4,1l-.13.85a20.94,20.94,0,0,0-2.46,4q-1.24,2.52-2.85,6.35a5,5,0,0,1-1.84,2.47Z"/><path class="cls-2" d="M41.24,48.45l-.37-.75-.31-.44.15-.45c.81,0,1.83,0,3,0a10,10,0,0,0,3.79-.88,11.3,11.3,0,0,0,3.79-2.81q-4.14-1.77-10.83-4.37a6.05,6.05,0,0,0-.69-.83c0-.42,0-.86.06-1.3l.82-.31c.68.23,1.82.66,3.42,1.31s3.58,1.47,5.94,2.46l4,1.67a1.65,1.65,0,0,1,.51.79,1.41,1.41,0,0,1-.46,1.42c-.53.56-1.19,1.19-2,1.89a12.81,12.81,0,0,1-7.26,3A6.65,6.65,0,0,1,41.24,48.45ZM43,32.85l-.23-1a.89.89,0,0,1,.58-1.08Q49.83,33.36,56,36.4l.63,1.06-.33.88-.84.3Q50.17,36,43.68,33.24Z"/><path class="cls-2" d="M70.92,63.84a11.1,11.1,0,0,1-1.06-1.36,22.56,22.56,0,0,1-1.52-4.06c-1.79-.6-3.52-1.14-5.17-1.62s-3.39-1-5.21-1.63a1.82,1.82,0,0,1-.71-.9l0-.83q2.45-1.71,4.42-2.94c1.32-.81,2.78-1.81,4.37-3l4.28-3.13.77.24A1.42,1.42,0,0,1,71.8,46l-.26.58q-1.37,1-3.74,2.84a62.8,62.8,0,0,1-6.53,4.3c1.16.36,2.36.76,3.59,1.21s2.38.86,3.41,1.26a5.58,5.58,0,0,1,.39-3.36A1.63,1.63,0,0,1,70,53l.54.81c.12,1.45.22,2.58.31,3.38A26.57,26.57,0,0,0,71.35,60a6.8,6.8,0,0,0,1.14,2.59l.52.15-.36,1A1.16,1.16,0,0,1,70.92,63.84Z"/></svg>