<svg viewBox="0 0 117.91 93.45" xmlns="http://www.w3.org/2000/svg"><path d="m28.4 2.14c27.24-3.83 54.7 9.86 73.6 29.86 6.57 6.93 12.52 15 14 24.47a30.08 30.08 0 0 1 -10 27.07c-11.73 10-29 9.36-44.25 7-15.79-2.42-29.88-4.33-45.41.18.7-9.37 2.36-17.75-1.59-26.71-2.71-6.16-7.12-11.38-9.76-17.6-9.05-21.59-.5-40.9 23.41-44.27z" fill="#ff7bac"/><path d="m28.8 3.59c14.59-2 29.49 1.21 42.64 7.6a100.12 100.12 0 0 1 34.61 27.65c4.57 5.81 8.34 12.72 8.81 20.23a28.82 28.82 0 0 1 -6.13 19.53c-9.12 11.46-24.81 12.69-38.35 11.48-7.84-.71-15.58-2.29-23.38-3.08a87 87 0 0 0 -24.64.71c-2.11.4-4.21.91-6.28 1.5l1.9 1.45c.63-8.33 2-16.85-.79-25-2.8-7.83-8.7-14.14-11.58-22-3.91-10.61-3.95-23.3 4.57-31.73 4.99-4.93 11.82-7.35 18.62-8.34 1.9-.27 1.09-3.17-.8-2.89a36.68 36.68 0 0 0 -17.93 7.3 26.93 26.93 0 0 0 -9.07 14 35.74 35.74 0 0 0 .32 18 47.43 47.43 0 0 0 4.09 10.5c2.07 3.86 4.59 7.43 6.69 11.29a31 31 0 0 1 3.76 14.12c.13 4.94-.55 9.86-.93 14.78a1.51 1.51 0 0 0 1.9 1.44 76 76 0 0 1 26-2.44c8.32.55 16.5 2.16 24.77 3.1 14.13 1.61 30.53 1 41.19-9.79a31.92 31.92 0 0 0 9-19.37c.74-7.7-1.78-15.21-5.86-21.67a83.87 83.87 0 0 0 -15.55-17.57 106.88 106.88 0 0 0 -18.91-13.45c-13.32-7.36-28.56-11.74-43.86-10.82-1.88.12-3.75.32-5.61.58a1.5 1.5 0 0 0 -1 1.84 1.54 1.54 0 0 0 1.8 1.05z" fill="#ff7bac"/><g fill="#fff"><path d="m38.11 29.23c-.4-.35-.79-.71-1.16-1.08l-.16-.53 3-.4a13.12 13.12 0 0 0 3.53-1.09 16.39 16.39 0 0 0 3.94-2.58 25.85 25.85 0 0 0 3.52-3.67q-5.32-2.61-10.62-4.88-.61 1.83-1.72 4.82l-.74.55-.92-.32-.44-1.44q.42-1 1.11-3.06l1-2.9a1.61 1.61 0 0 1 1.17-1.13 1.55 1.55 0 0 1 1.08.63v.51q6 2.67 12.51 5.78a1.75 1.75 0 0 1 .8 1l-.13.86a50.72 50.72 0 0 1 -4 4.35 17.15 17.15 0 0 1 -4.41 3.09 17.78 17.78 0 0 1 -4.11 1.5 7.19 7.19 0 0 1 -3.25-.01z"/><path d="m57.71 30.58a2.43 2.43 0 0 1 -1.48-1.35 1.58 1.58 0 0 1 .13-1l.4-.22a4.62 4.62 0 0 1 1.68.61l11.35 5.38.67.24a3.17 3.17 0 0 0 .88 1l-.19.48-.63.45a3 3 0 0 1 -1.52-.17z"/><path d="m77 49.1-.46-.92 1.24-.78.66-.15a5 5 0 0 0 1.62-.25c.53-.13 1.15-.31 1.87-.56a11.83 11.83 0 0 0 2.74-1.44c1.11-.78 2.23-1.63 3.35-2.56a16.81 16.81 0 0 0 2.84-3l-6.75-2.54a24.73 24.73 0 0 1 -2.16 2 23.8 23.8 0 0 1 -2.41 1.57c-1 .59-1.7.79-2.11.59l-.77-.82.56-.9a50.37 50.37 0 0 0 4.17-3c.78-.67 1.48-1.31 2.12-1.9l1.14.39 8.24 3.1.67.48.43.78-.3.9c-1 1.06-1.84 2-2.65 2.75s-1.63 1.46-2.43 2.08-1.46 1.13-2 1.56a11.28 11.28 0 0 1 -1.82 1.22 31 31 0 0 1 -3.1 1.43q-1.2.22-1.86.39a8.18 8.18 0 0 1 -2.83-.42z"/><path d="m24.4 43.78-5.09-3.2-.31-1.27.17-.51.3-.35a4.12 4.12 0 0 1 1.35.5l4.39 2.55a2.55 2.55 0 0 1 1.15 1v.36l.07.6-.44.42a2.11 2.11 0 0 1 -1.59-.1zm-3.13 7.73-.15-.28-.34-.58.22-.65.43-.29h.75l.61-.07 1.93-.18a20.86 20.86 0 0 0 2.44-.44 22.78 22.78 0 0 0 2.84-1.02c1-.37 1.8-.72 2.48-1a17.62 17.62 0 0 1 1.94-.79l.91.16.16.28a2.12 2.12 0 0 1 -.38 1.52 20.93 20.93 0 0 1 -2.43 1.52 15.72 15.72 0 0 1 -3 1.32 20.78 20.78 0 0 1 -2.76.68c-.82.14-1.65.24-2.49.31a8.24 8.24 0 0 1 -2.31-.11zm6.14-11.45a33.17 33.17 0 0 1 -4.13-4.15 3.63 3.63 0 0 1 .07-1.32l.33-.26h.51l.82.4a26.69 26.69 0 0 1 4.15 4.12l-.47 1.29-.37.18z"/><path d="m42.28 61.8q-2.07-1.21-6.2-3.77l.31-1.03.55-.23 1.29.45 4.38 2.47 2-3.21q-2.7-1.47-5.57-3a2.72 2.72 0 0 1 0-1.1l1-.28a39.83 39.83 0 0 1 5.35 2.67c.71-1.18 1.25-2.06 1.62-2.65l-5.81-2.82-.3-.67.1-.83a3.86 3.86 0 0 1 1.48 0l6.7 3.2a2.91 2.91 0 0 1 .7.7v1q-3.36 5-5.71 9.45a1.57 1.57 0 0 1 -1.89-.35z"/><path d="m54.05 61.56a4.19 4.19 0 0 1 -1.24-1.41c.45-2.6.81-4.06 1.11-4.37l1.1-.12.62.86.26.64a22 22 0 0 1 -.9 4.05zm1.32 6.44a2.39 2.39 0 0 1 -.83-1.08l.1-.63.21-.16a9.84 9.84 0 0 0 2.76-.59 6 6 0 0 0 2.52-1.75 21.87 21.87 0 0 0 2.36-3.36l1.15-.11.67.12.41.61a1.12 1.12 0 0 1 -.2 1 15.47 15.47 0 0 1 -2 3 7.92 7.92 0 0 1 -1.64 1.35 13.74 13.74 0 0 1 -1.64.87 8.63 8.63 0 0 1 -1.84.56 8.34 8.34 0 0 1 -2.03.17zm1.85-5.15-.51-.51-.42-1.06 1.64-4.11.67-.17.77.24.63.76a3 3 0 0 1 0 1.41l-1.71 3.16z"/><path d="m71.38 76.86-.72-.72-.44-.76.47-.86a10.37 10.37 0 0 0 2.68-.13 7 7 0 0 0 2.38-1.14 21.25 21.25 0 0 0 2.75-2.25 17.13 17.13 0 0 0 2.44-2.91l-9.6-3.91-.73-.9-.28-.76.23-.54.31-.16a52.52 52.52 0 0 1 6.13 2.25q4.47 1.86 6.37 2.6l.7.71.12 1c-.44.62-1.39 1.72-2.83 3.31a18.41 18.41 0 0 1 -3.16 3l-2.28 1.31a7.21 7.21 0 0 1 -2.33.9 6.33 6.33 0 0 1 -2.21-.04zm15.35-6.43a6.61 6.61 0 0 1 -1.32-1.36 4.57 4.57 0 0 1 -.65-1.76 3.6 3.6 0 0 1 .57-2.43 3.15 3.15 0 0 1 1.77-1.59 4.44 4.44 0 0 1 2.15 0 4.05 4.05 0 0 1 2 1 3.64 3.64 0 0 1 1 2.29 3.13 3.13 0 0 1 -.65 2.53 7.23 7.23 0 0 1 -1.34 1.3 3.45 3.45 0 0 1 -1.37.44 4.08 4.08 0 0 1 -2.16-.42zm1.76-2a2.14 2.14 0 0 0 1.51-1.32c.17-.46 0-.94-.54-1.46a1.77 1.77 0 0 0 -1.6-.05 1.5 1.5 0 0 0 -.86 1.09 1.35 1.35 0 0 0 .24 1.2 1.73 1.73 0 0 0 1.25.53z"/></g></svg>