<svg id="レイヤー_1" data-name="レイヤー 1" xmlns="http://www.w3.org/2000/svg" viewBox="0 0 155.53 107.38"><defs><style>.cls-1{fill:#fff;}.cls-2{fill:#ff7bac;}</style></defs><path class="cls-1" d="M96.64,101.35c-13.9,4.8-29,5-43.63,3.89-10.81-.81-21.8-2.37-31.46-7.27S3.66,84.27,1.87,73.59C-.81,57.64,11,42.91,23.64,32.85A146.35,146.35,0,0,1,96.53,2.33C109,.8,122.2,1,133.62,6.33S154.29,23.07,154,35.67c-.24,11.23-7.51,20.9-11.85,31.27s-4.44,24.82,5.42,30.23a88,88,0,0,0-31.67.44Z"/><path class="cls-1" d="M96.25,99.9c-13.45,4.59-27.8,4.91-41.85,3.94C41.56,103,28,101.14,17.15,93.58,7.86,87.09,1.47,76.41,3.3,64.82c1.88-12,10.58-21.89,19.56-29.41C42.4,19,67,8.4,92.08,4.45c12.9-2,26.82-2.62,39.14,2.45,10.13,4.17,19,13.05,21,24.11,2.26,12.6-6.35,23.65-11.05,34.59-3.68,8.58-5.36,20.32.59,28.34a16.32,16.32,0,0,0,5.12,4.52L148,95.72a91.47,91.47,0,0,0-32.54.46l-13.84,2.68-5.36,1c-1.9.37-1.1,3.26.79,2.89l12.55-2.43a139.35,139.35,0,0,1,18.3-2.77,87.32,87.32,0,0,1,19.31,1c1.58.26,2.74-1.85,1.15-2.74-9.22-5.19-8.48-18.1-5.42-26.72C147.11,57.37,156.18,47,155.5,33.84c-.6-11.53-8.43-21.63-18.18-27.27C125.57-.23,111.23-.8,98.06.65A147.61,147.61,0,0,0,25.24,29.72C15.48,37.15,6.15,46.35,1.93,58.13A31.09,31.09,0,0,0,.79,75.81a33.17,33.17,0,0,0,8.53,15c9.13,9.51,22.07,13.38,34.8,15,14,1.83,28.7,2.34,42.64-.34A77.43,77.43,0,0,0,97,102.79C98.86,102.17,98.08,99.27,96.25,99.9Z"/><path class="cls-2" d="M26.61,81.17a2.3,2.3,0,0,1-1.48.1l-.27-.37.12-.4a2.45,2.45,0,0,0,.79-1.12l.52-1.64.17-1.15a25.8,25.8,0,0,1-2.59-2.25,22.9,22.9,0,0,1-2.23-2.63l.08-.3,1-.47.55.06,1,.56a15.11,15.11,0,0,1,2.1,2.37l.26-.05c0-.91,0-1.82-.05-2.73a19.85,19.85,0,0,0-.32-2.74l-.39-1.49a5.46,5.46,0,0,0-1.49.24L23,68.05a25.51,25.51,0,0,1-2.73,1.27l-.64,0-.42-.37-.32-.3.3-.64a14.48,14.48,0,0,1,1.95-1.15A10.31,10.31,0,0,0,23,65.67l-.13-.3-.43-.59a11.84,11.84,0,0,1-.66-1.35l-.35-.7.06-.67a2,2,0,0,1,1.12-.87l.29,0,.1.24.25-.05a2.78,2.78,0,0,1,.78,1.13c.17.52.36,1,.56,1.54l.65.83L27,64.3a6.18,6.18,0,0,1,1.8-1.07,1,1,0,0,0,.83-.12,1.81,1.81,0,0,1,.93,1.14l0,.26-.71.49-.26,0-1.39.9c.18,1,.38,2,.59,3l.14.22c.11,1.09.2,2.18.27,3.29a30.15,30.15,0,0,1,.06,3.29,3.83,3.83,0,0,0,1.92.41L33.11,76l.27.17h.35l.39.67a2.71,2.71,0,0,1-1.55.94,4,4,0,0,1-1.88,0,7.65,7.65,0,0,0-1.9-.18l-.16.61a4.61,4.61,0,0,1-1.12,2.21A9.73,9.73,0,0,0,26.61,81.17Zm15.88-5.26-.61,0-.27-.17-.48,0-.22.16A4.17,4.17,0,0,0,39,75.77a4.12,4.12,0,0,1-1.91-.17,1.4,1.4,0,0,1-.61-.85.53.53,0,0,1,.46-.38,6.93,6.93,0,0,1,1.7-.34c.56,0,1.11,0,1.68,0a2,2,0,0,0-.23-1.07,49.72,49.72,0,0,1-1.91-5.37,1.67,1.67,0,0,1-.46-.78L37.2,65.5,36,65.85l-2.59,1.3a11.53,11.53,0,0,1-1.82.92L30.48,68a1.67,1.67,0,0,1-.65-.75,8.27,8.27,0,0,1,2.56-1.69l.94-.45.26,0c.83-.42,1.68-.81,2.57-1.16l.34-.34L36.43,63a9,9,0,0,1-.76-2.43l-.14-.35-.16-.41-.24-.23a6.83,6.83,0,0,1-.4-2.92l.42-.22a1.06,1.06,0,0,1,.94,0,2.55,2.55,0,0,1,1.09,1.54l.45,1.33.15.19A15.15,15.15,0,0,1,38.63,62l.18.26,1-.31.26-.18.94-.1.21.2a.56.56,0,0,1,.47.49L41.4,63l-1.76,1.29a3,3,0,0,0,.23,1.28.65.65,0,0,1,.4.52,1.11,1.11,0,0,0,.17.74l.34.54L41,68.55A34.1,34.1,0,0,1,43,73.41L43,74l.49.74,0,.58A9.37,9.37,0,0,1,42.49,75.91Zm-6.77-4.26-1.29,0a.57.57,0,0,0-.57,0l-1.22-.27-.48-.21a1.59,1.59,0,0,1-.57-.74l.58-.63h.35a5.26,5.26,0,0,1,1.95.09,10.5,10.5,0,0,0,1.82.26l.42.16.29.44A2.28,2.28,0,0,1,35.72,71.65Z"/><path class="cls-2" d="M45.7,58.84l-.89-.13a1.1,1.1,0,0,1-.55-.71,3.71,3.71,0,0,1,1.3-1.42l.37-.07c.5-.28,1-.57,1.45-.87a13.08,13.08,0,0,1,1.46-.83,3.09,3.09,0,0,0,1.56-.9l.57-.15A4,4,0,0,1,52,53.15l1.09,0a1.11,1.11,0,0,1,.77.93,2,2,0,0,1-1.23.84l-.57.15-.26.23-.43.12c-.94.59-1.89,1.16-2.84,1.72S46.65,58.25,45.7,58.84Zm2.72-5.43L47,53.86l-.29.17-.93.08-.35-.19-.26,0-.45-.42.19-.43a1.55,1.55,0,0,1,.82-.73l1.24-.29.33-.2.26,0a11.93,11.93,0,0,0,2-1L50,51l.47.49-.08.71-1.32.8ZM48.65,61l-.7.15-.23-.27L47,60.6v-.68a16,16,0,0,1,2.52-1.67,7.94,7.94,0,0,0,2-1l.92-.09.43.38a.88.88,0,0,1-.12.73,3.59,3.59,0,0,1-1,.8l-.63.32-.27,0A11,11,0,0,1,48.65,61Zm1.41,2.87a2.26,2.26,0,0,1-1.54-.08l-.28-.57a6.7,6.7,0,0,1,1.63-1.55l.4-.08A26,26,0,0,1,52.94,60a1.57,1.57,0,0,1,.87.81,4.9,4.9,0,0,1-1.19,1.47,7.23,7.23,0,0,1-1.61,1l-.24,0Zm3.42,8.47a1.84,1.84,0,0,1-1.63-.11l-.76-.38-.36-.54a3.44,3.44,0,0,1-.47-1,1.92,1.92,0,0,0-.26-1l-.3-.44a8.81,8.81,0,0,1-.38-2.49A5.42,5.42,0,0,1,51.2,65a16.69,16.69,0,0,0,2.11-1.07l.9-.35,1-.11a1.41,1.41,0,0,1,.84,1.1l0,.27.21.32,0,.42.28.52a11,11,0,0,0,.45,2,12.6,12.6,0,0,1,.47,2l-.26.23-1.06.82-.8.19-.66.46-.44.1Zm1.58-2.74L54.9,69l-.16-.22c-.29-1-.56-2-.81-3a2,2,0,0,0-1.14.24l-.37.28-.8.46.19,1L52,68a10.08,10.08,0,0,0,.69,2.25l.36.21Zm1.67-9.88-.88-.13L55.36,59l.26-.25v-.33a2.24,2.24,0,0,0,1-1.21A3,3,0,0,0,57,55.34l.26-.38-.14-.67a1.36,1.36,0,0,1-1.24,0l-1-.49a4.11,4.11,0,0,1-1.21-1.86l-.13-1.16.76-.37.39,0,.21.2h.35a13.63,13.63,0,0,0,1.68,2.14l.45,0a5.17,5.17,0,0,0,.07-2.62,8.74,8.74,0,0,1-.22-2.64l.47-.39,1,.23c.38.79.74,1.58,1.07,2.37.07.75.15,1.51.22,2.31a2.64,2.64,0,0,1,1.19.89l.44.1A7.68,7.68,0,0,0,63.4,54l.51.07.63.38c.63-.16,1.24-.29,1.84-.39l.34.54,0,.58-.63.45-.27,0-.28.18-.46,0-.22.14a6.24,6.24,0,0,1-1.56-.11l-1.89-.84a13.62,13.62,0,0,1-1.51-.84,2.4,2.4,0,0,0-.45,1.29c-.13.5-.24,1-.35,1.34a8.63,8.63,0,0,1-.94,2A6.18,6.18,0,0,1,56.73,59.68Zm3.21,9.72a.76.76,0,0,0-.73-.12l-.54-.66,1-1.08,0-.29.29-.47,0-.26.43-1a10.44,10.44,0,0,0,.06-1.58l-.42,0-.46.23-.91-.37-.38-.08a4,4,0,0,1-1.1-1.45L57,61.15l.53-.57a2.06,2.06,0,0,1,1.3.05l.16.21A24.38,24.38,0,0,0,60.55,63l.24-.09a9.29,9.29,0,0,0-.13-2.79l-.54-2.74a.92.92,0,0,1,.76-.5h.63a3.72,3.72,0,0,1,.83.7l0,.27.2.32,0,.55.14.22a10.17,10.17,0,0,1,.43,2.63l.71.4.29.41.32.1a1,1,0,0,1,.68.34l.34.14.38.46c.54.1,1.09.19,1.64.27a3.73,3.73,0,0,0,1.68-.15l.44-.09.78.69a7.11,7.11,0,0,1-1.57,1.06,9.49,9.49,0,0,1-1.65.19,6,6,0,0,1-1.66-.2c-.81-.32-1.6-.65-2.37-1l-.2.91-.27.71,0,.26a10.66,10.66,0,0,1-1.11,2.11A3.18,3.18,0,0,1,59.94,69.4Zm2.69-17L62.2,52l-.29,0-.29-.42a17.26,17.26,0,0,1,0-2.28c0-.77.11-1.53.21-2.3l.51-.6a2.67,2.67,0,0,1,1.08-.1,1.57,1.57,0,0,1,.61.92c-.07.71-.11,1.44-.12,2.18a19.26,19.26,0,0,1-.16,2.16A1.45,1.45,0,0,1,62.63,52.39Zm3.44,9.43-.9-.36-.27-.57a11.62,11.62,0,0,0,0-1.67c0-.56-.07-1.12-.11-1.69l.34-.34L66.38,57l.58.65a6.87,6.87,0,0,1,.27,3.1A2.13,2.13,0,0,1,66.07,61.82Z"/><path class="cls-2" d="M70.91,47.53,70,47a.88.88,0,0,1-.4-1.15q6.32-3,12.7-5.49l1.21.25.43.84-.36.82q-5.47,2.09-11.91,5ZM81.23,59.36l-.8-.24-.53-.06-.24-.41c.55-.61,1.23-1.36,2-2.27A10,10,0,0,0,83.6,53a11.2,11.2,0,0,0,.49-4.7q-4.11,1.86-10.54,5a7.25,7.25,0,0,0-1.08,0c-.31-.28-.62-.59-.92-.92l.34-.82c.62-.34,1.71-.89,3.27-1.63s3.51-1.65,5.83-2.72l3.92-1.79a1.69,1.69,0,0,1,.92.16,1.42,1.42,0,0,1,.74,1.3c.05.77.07,1.68.05,2.72A12.39,12.39,0,0,1,86,53.08,12.74,12.74,0,0,1,84,57,6.52,6.52,0,0,1,81.23,59.36Z"/><path class="cls-2" d="M107,51.27l-.32-.31-.39,0-1-.76,0-.25a10.31,10.31,0,0,0-.35-1.8,19.21,19.21,0,0,0-1.2-3c-.61-1.31-1.19-2.51-1.75-3.62a44.25,44.25,0,0,1-4.34,6.42l-.68.65-.57.15-.73-.52-.31-.08L95,47.61l.37-.85.25-.52A7.37,7.37,0,0,0,97,44.4c.58-.95,1.2-1.89,1.88-2.81a15.48,15.48,0,0,0,1.73-3c.47-1.09.92-2.11,1.34-3.05s1-2.55,1.82-4.85l1-.46.64,0,.61.26.3.39,0,.31a14.68,14.68,0,0,1-1,2.72c-.5,1.15-.92,2.14-1.26,3s-.67,1.53-1,2.14a33.7,33.7,0,0,1,2.51,4.75c.75,1.72,1.48,3.66,2.18,5.8a5,5,0,0,0,.17.92A1.63,1.63,0,0,1,107,51.27Z"/><path class="cls-2" d="M122.85,43.59l-1.47,0-.74-.34.18-.42q1.5-1.43,2.1-2.07A12.16,12.16,0,0,0,124.25,39a20.51,20.51,0,0,0,1.36-2.55,10.81,10.81,0,0,0,.85-3.23,15.82,15.82,0,0,0,0-3.5q-.73-.12-10.54,4.66L114.32,34l-.83-.56a2.2,2.2,0,0,1,1.08-1l12.6-5.83,1,.22a2,2,0,0,1,.91.93,38.54,38.54,0,0,1-.11,4,23.52,23.52,0,0,1-.7,4.12,12.75,12.75,0,0,1-1.39,3.44c-.56.9-1,1.63-1.48,2.19a9.77,9.77,0,0,1-1.23,1.34A3.79,3.79,0,0,1,122.85,43.59Zm6.09-17.44-.3-.19L126.37,24a2.14,2.14,0,0,1-.55-1.52L127,22a6.06,6.06,0,0,1,1.89,1.29c.49.51.91,1,1.26,1.39V26Zm2.83-2.48-.84-.47a11.32,11.32,0,0,1-2.39-2.87l.46-.75.79-.29.85.17a24.82,24.82,0,0,1,2.21,3.18l-.26.73Z"/></svg>