<svg viewBox="0 0 94.87 75.31" xmlns="http://www.w3.org/2000/svg"><path d="m23 73.35c21.79 3.06 43.76-7.88 58.91-23.85 5.26-5.54 10-12 11.23-19.57a24.06 24.06 0 0 0 -8-21.66c-9.38-8-23.2-7.49-35.4-5.62-12.63 1.94-23.9 3.46-36.32-.14.55 7.5 1.88 14.2-1.27 21.37-2.15 4.92-5.74 9.12-7.85 14.12-7.3 17.2-.47 32.66 18.7 35.35z" fill="#ffff93"/><path d="m22.56 74.79c12.34 1.69 24.7-.79 35.87-6.19a81.89 81.89 0 0 0 29.05-23.33c3.76-4.87 6.68-10.47 7.28-16.67a25.46 25.46 0 0 0 -4.29-16.54c-7-10.3-19.75-12.64-31.4-12-7.21.43-14.29 2-21.48 2.65a63.62 63.62 0 0 1 -23.8-1.7 1.51 1.51 0 0 0 -1.9 1.45c.54 7.05 1.79 14.32-1.25 21a98 98 0 0 1 -5.22 9 41.25 41.25 0 0 0 -3.91 8.74c-2.87 9.15-1.95 19.74 5.36 26.6 4.28 4 9.94 6.16 15.69 7 1.89.28 2.7-2.61.8-2.89-4.84-.71-9.73-2.27-13.52-5.46a19.22 19.22 0 0 1 -6.39-10.58 27 27 0 0 1 .96-13.87 38.44 38.44 0 0 1 3.82-8.3 91 91 0 0 0 5-8.67 27.39 27.39 0 0 0 2.41-11.03c.06-3.83-.46-7.64-.75-11.45l-1.89 1.45a62 62 0 0 0 20.05 2.1c6.38-.32 12.66-1.42 19-2.28 10.62-1.46 23.34-1.9 32 5.51a22.55 22.55 0 0 1 7.68 14.5c.65 5.81-1.18 11.34-4.24 16.22a63.87 63.87 0 0 1 -11.94 13.48 80.92 80.92 0 0 1 -14.3 10.22c-11.44 6.42-24.76 9.94-37.89 8.15a1.56 1.56 0 0 0 -1.85 1 1.51 1.51 0 0 0 1.05 1.89z" fill="#ffff93"/><g fill="#ff7bac"><path d="m36.06 45.35-.66-.17-.48-.48-6.92 1.46a4.23 4.23 0 0 1 -1.33.11 1.57 1.57 0 0 1 -.78-.94l.42-.57 1-.33 7.5-1.7c-.4-2.41-.68-4.24-.86-5.51l-.42-3.09-8.73 1.73a2.08 2.08 0 0 1 -1-.33l-.36-.64.24-.37a4.53 4.53 0 0 1 1.77-.74l8.66-1.7a2.24 2.24 0 0 1 1.45.07l.31.65a18.12 18.12 0 0 0 .13 3.92q.31 2.33 1 5.72a4.21 4.21 0 0 1 -.16 2.56z"/><path d="m43.92 32-.63-.6a.72.72 0 0 1 -.1-1q5.72-1.2 11.36-1.94l.93.45.19.76-.45.59q-4.84.61-10.63 1.7zm6 11.62-.6-.35-.42-.16-.11-.38 2.09-1.43a8.46 8.46 0 0 0 2.24-2.3 9.43 9.43 0 0 0 1.32-3.7q-3.69.69-9.52 2a5.36 5.36 0 0 0 -.87-.25 10.41 10.41 0 0 1 -.56-.93l.43-.59c.57-.16 1.56-.39 3-.68l5.25-1.05 3.53-.68a1.37 1.37 0 0 1 .71.31 1.18 1.18 0 0 1 .34 1.2c-.11.63-.27 1.37-.49 2.22a10.78 10.78 0 0 1 -3.63 5.45 5.5 5.5 0 0 1 -2.69 1.34z"/><path d="m77.63 40.56a8.82 8.82 0 0 1 -1.37-.46 18.3 18.3 0 0 1 -2.93-2.1c-1.52.42-3 .85-4.33 1.28s-2.82.86-4.37 1.28a1.49 1.49 0 0 1 -.9-.29l-.36-.6c.6-1.54 1.17-2.9 1.7-4.08s1.09-2.54 1.65-4.09 1.07-2.93 1.52-4.15l.64-.19a1.18 1.18 0 0 1 1.07.6l.09.52c-.32.89-.75 2.12-1.27 3.71a53.33 53.33 0 0 1 -2.54 6c1-.29 2-.57 3-.83s2-.5 3-.7a4.76 4.76 0 0 1 -1.29-2.51 1.34 1.34 0 0 1 1-.45l.76.31c.74 1 1.34 1.68 1.78 2.2a19.52 19.52 0 0 0 1.65 1.7 5.78 5.78 0 0 0 2 1.27l.43-.14.2.84a1 1 0 0 1 -1.13.88z"/></g></svg>