<svg id="レイヤー_1" data-name="レイヤー 1" xmlns="http://www.w3.org/2000/svg" viewBox="0 0 92.81 67.07"><defs><style>.delivery_item_12-1{fill:#fff;}.delivery_item_12-2{fill:#ff7bac;}</style></defs><path class="delivery_item_12-1" d="M10.75,22.55C5.67,27.12,1.43,33.31,1.5,40.14c.11,10.58,10.26,18.31,20.24,21.8A66,66,0,0,0,69.9,60C78.55,56.14,86.71,49.91,90,41.05s.15-20.47-8.51-24.28C76.63,14.63,71,15.19,65.9,13.51S56.27,5.89,59.19,1.43h0C44.65,13.42,25.11,9.61,10.75,22.55Z"/><path class="delivery_item_12-1" d="M9.68,21.49C4.87,25.87.8,31.56.09,38.19-.55,44.26,2.18,50,6.35,54.25a39.35,39.35,0,0,0,15.82,9.42,66.7,66.7,0,0,0,21.44,3.4C57.2,67,71.78,63,82.3,54.08c4.63-3.91,8.54-9.15,9.92-15.13a23.05,23.05,0,0,0-2.14-16.09A17.59,17.59,0,0,0,84,16.37c-3.28-2-7.11-2.51-10.86-3S65.59,12.52,62.75,10c-2.16-1.93-4-5-2.27-7.79C61.42.65,59.37-.66,58.12.37c-10.85,9-25.76,9-38.19,14.51A39.78,39.78,0,0,0,9.68,21.49c-1.44,1.29.69,3.4,2.13,2.12C22.58,14,37.49,13.88,50.25,8.48a40.78,40.78,0,0,0,10-6L57.89.67c-3.14,5.11,1,11.07,5.66,13.47,5.8,3,13,1.35,18.64,4.66,4.42,2.57,6.93,7.58,7.49,12.54a21.5,21.5,0,0,1-4.34,15.18c-3.5,4.81-8.53,8.38-13.79,11a62.17,62.17,0,0,1-19.67,6A64.79,64.79,0,0,1,31.41,63a49.51,49.51,0,0,1-17.54-6.5C8.72,53.19,3.94,48.22,3.11,41.92c-.94-7.23,3.62-13.69,8.7-18.31C13.24,22.31,11.11,20.19,9.68,21.49Z"/><path class="delivery_item_12-2" d="M33.46,49.15a4.78,4.78,0,0,1-1.51,0l-.73,0c-.31-1.32-.94-3.71-1.9-7.19s-1.45-5.37-1.47-5.67l0-1.35-.13-.24.15-.62.64-.34a4.91,4.91,0,0,0,1.15,0,.7.7,0,0,0,.53.35L39.32,32,40,31.9l.24-.11a2.74,2.74,0,0,1,1.09,1.35q.09.82,2.35,12.52l-.17.75-.29.18-.08.28-.42.17c-.56-.13-1.09-.24-1.6-.31l-.33-.13-6.73,2A.92.92,0,0,1,33.46,49.15Zm5.81-10.52.38,0a17.84,17.84,0,0,0-.77-4.55c-.27,0-3,.66-8.23,2.12l-.16.57a36.37,36.37,0,0,0,.92,3.7Zm1.18,6.13.42.09a12.3,12.3,0,0,0-.56-3.53l-.25-.79L32,42.62c.51,2.13.82,3.4.94,3.81Z"/><path class="delivery_item_12-2" d="M45.8,33.6l-1-.26-.09-.24,0-.37A2.15,2.15,0,0,1,45.85,32l7-1.91.67,0,.31.43-.13.89-.4.19-.23-.05Zm4.47-3.48-1.1,0-.2.08H47.49a2.33,2.33,0,0,1-1.4-.46l0-.57a3.94,3.94,0,0,1,1-.51l1.6.1.2-.1a10.63,10.63,0,0,1,1.74.32l.23.49-.07.23ZM47.19,35.9l-.82-.3-.19-.34.09-.3c.58-.55,2.45-1.2,5.64-2h.44l.19-.1a1,1,0,0,1,.6.73l-.26.56C52.44,34.4,50.55,35,47.19,35.9Zm.45,2.72L47,38.26l-.14-.5.49-.49.38,0L52.23,36a3.11,3.11,0,0,1,.9.35l.13.33-.2.64-.76.29Zm2,7.18-.23-.33c-.21.07-.35,0-.41-.13l-.4-.57,0-.47A9,9,0,0,0,48.05,43a6.78,6.78,0,0,1-.45-1.36l-.2-.92a1.13,1.13,0,0,1,.44-.75c1.65-.39,3.28-.84,4.88-1.37a2.59,2.59,0,0,1,1.14.19.75.75,0,0,1,.34.57,44,44,0,0,1,.24,4.42l.1.2-.26.37a3.36,3.36,0,0,1-1.14.47h-.28L50,45.55Zm2.85-2.45-.28-3-2.86.78.81,2.78ZM60,43.19a4.65,4.65,0,0,1-2.7-.69,5.85,5.85,0,0,1-1.57-3,14.85,14.85,0,0,1-.63-4.72l.19-.32A3.13,3.13,0,0,1,57,33.7L60.64,33a10.06,10.06,0,0,1-.23-1.94c0-.65,0-1.31-.12-2-2.67.54-4.25.9-4.76,1.09a2.06,2.06,0,0,1-.8-.21.74.74,0,0,1-.41-.61l.31-.29q.76-.54,5.69-1.6l.33-.23a8.31,8.31,0,0,0,1.21.06l.54.74a14.26,14.26,0,0,0,0,2.17c0,.74.12,1.48.2,2.22l.34,1.29a1.78,1.78,0,0,1-1.26.75,2.93,2.93,0,0,0-1.08.11l-3.51.76A13.57,13.57,0,0,0,57.56,39a7.58,7.58,0,0,0,.86,1.8,1.41,1.41,0,0,0,1.16.64,4.78,4.78,0,0,0,1.19-.07,6.9,6.9,0,0,0,1.31-.24l.42-.35a16.45,16.45,0,0,1,.57-3.64l.2-.31.56-.18.55.26.26.74.09,3.66-.07.4a7.73,7.73,0,0,1-1.27.71C62.42,42.7,61.29,42.94,60,43.19Z"/></svg>