<svg viewBox="0 0 90.27 83.22" xmlns="http://www.w3.org/2000/svg"><path d="m25.58 1.7c7.8-.92 15.58 1.56 22.83 4.58 10.2 4.24 20.07 9.72 27.73 17.72s12.93 18.58 12.69 29.62-6.71 22.15-17 26.26c-9.92 4-21.44 1-30.6-4.5-5.07-3-9.72-6.87-15.11-9.33s-11.91-3.37-17.12-.48a23.24 23.24 0 0 0 -1.48-16.57c-4.76-9.57-8.26-18-4.32-28.8 3.47-9.49 12.18-17.31 22.38-18.5z" fill="#fff"/><path d="m25.58 3.2c6.66-.78 13.24 1 19.42 3.32a103.71 103.71 0 0 1 17.29 8.39c10.45 6.4 19.61 15.58 23.37 27.5 3.34 10.64 1.51 22.73-6.53 30.83a23.45 23.45 0 0 1 -14.83 6.89 35.76 35.76 0 0 1 -17.83-3.66c-6.47-3.07-11.93-7.93-18.35-11.14-6.12-3.06-13.55-4.44-19.83-1.06l2.2 1.7a24.86 24.86 0 0 0 -.67-15.44c-1-2.56-2.35-5-3.45-7.46a44.33 44.33 0 0 1 -2.5-7 26.86 26.86 0 0 1 8.24-26.45 24.8 24.8 0 0 1 13.47-6.42c1.89-.24 1.91-3.24 0-3a29.59 29.59 0 0 0 -22.22 15.93 28.79 28.79 0 0 0 -3.27 15.55c.47 5.39 2.47 10.42 4.77 15.26 1.39 2.92 2.77 5.68 3.29 8.9a21.93 21.93 0 0 1 -.55 9.33 1.52 1.52 0 0 0 2.2 1.7c5.88-3.17 12.89-1.16 18.37 1.88 5.88 3.26 11 7.66 17.17 10.48a38.86 38.86 0 0 0 18.55 3.93 26.68 26.68 0 0 0 16-6.56c8.82-7.77 12-20.19 9.55-31.46-2.63-12.56-11.25-22.89-21.56-30.14a99.35 99.35 0 0 0 -19.49-10.34c-7.17-2.95-14.98-5.38-22.81-4.46-1.9.22-1.92 3.22 0 3z" fill="#fff"/><g fill="#ff7bac"><path d="m26.25 40.9-.54-.6-.16-.81-7.87-3.15a5 5 0 0 1 -1.4-.78 1.86 1.86 0 0 1 -.15-1.45l.79-.3 1.2.33 8.61 3.3q1.82-4 2.82-6.06c.67-1.38 1.22-2.5 1.64-3.38q-9-3.7-9.87-4.09a2.33 2.33 0 0 1 -.76-1l.06-.88.49-.2a5.44 5.44 0 0 1 2.26.44l9.77 4.08a2.69 2.69 0 0 1 1.4 1l-.13.85a20.94 20.94 0 0 0 -2.46 4q-1.24 2.52-2.85 6.35a5 5 0 0 1 -1.84 2.47z"/><path d="m41.24 48.45-.37-.75-.31-.44.15-.45h3a10 10 0 0 0 3.79-.88 11.3 11.3 0 0 0 3.79-2.81q-4.14-1.77-10.83-4.37a6.05 6.05 0 0 0 -.69-.83c0-.42 0-.86.06-1.3l.82-.31c.68.23 1.82.66 3.42 1.31s3.58 1.47 5.94 2.46l4 1.67a1.65 1.65 0 0 1 .51.79 1.41 1.41 0 0 1 -.46 1.42c-.53.56-1.19 1.19-2 1.89a12.81 12.81 0 0 1 -7.26 3 6.65 6.65 0 0 1 -3.56-.4zm1.76-15.6-.23-1a.89.89 0 0 1 .58-1.08q6.48 2.59 12.65 5.63l.63 1.06-.33.88-.84.3q-5.29-2.64-11.78-5.4z"/><path d="m70.92 63.84a11.1 11.1 0 0 1 -1.06-1.36 22.56 22.56 0 0 1 -1.52-4.06c-1.79-.6-3.52-1.14-5.17-1.62s-3.39-1-5.21-1.63a1.82 1.82 0 0 1 -.71-.9v-.83q2.45-1.71 4.42-2.94c1.32-.81 2.78-1.81 4.37-3l4.28-3.13.77.24a1.42 1.42 0 0 1 .71 1.39l-.26.58q-1.37 1-3.74 2.84a62.8 62.8 0 0 1 -6.53 4.3c1.16.36 2.36.76 3.59 1.21s2.38.86 3.41 1.26a5.58 5.58 0 0 1 .39-3.36 1.63 1.63 0 0 1 1.34.17l.54.81c.12 1.45.22 2.58.31 3.38a26.57 26.57 0 0 0 .5 2.81 6.8 6.8 0 0 0 1.14 2.59l.52.15-.36 1a1.16 1.16 0 0 1 -1.73.1z"/></g></svg>