<svg viewBox="0 0 88.59 61.04" xmlns="http://www.w3.org/2000/svg"><path d="m6.09 27.58a72 72 0 0 1 50.63-25.91c5.45-.34 11.08 0 16.07 2.2s9.26 6.59 10.22 12c.68 3.73-.26 7.54-.32 11.33s1.08 8.07 4.44 9.82c-7.72-.93-14.5 4.6-20.95 8.94a83.66 83.66 0 0 1 -28 12.13c-9.37 2.15-19.85 2.48-27.93-2.72s-12-17.48-5.75-24.82" fill="#fff"/><path d="m7.15 28.64a70.88 70.88 0 0 1 35.77-23.15c7.17-2 15-3.14 22.46-2.12 6.9 1 14.29 4.84 16 12.13 1.08 4.53-.63 9.18-.15 13.76.38 3.58 1.81 7.19 5.1 9l.76-2.79c-7.57-.8-14.09 3.91-20 8a85.78 85.78 0 0 1 -21.16 10.83c-7.15 2.42-14.78 4.15-22.37 3.63-6.61-.44-13.44-3-17.31-8.6-3.51-5.12-4.9-12.62-.66-17.76 1.22-1.48-.89-3.57-2.12-2.12-4.09 5-4.34 11.67-1.92 17.46a22.41 22.41 0 0 0 14.88 12.82c7.56 2.2 15.73 1.34 23.26-.49a85.38 85.38 0 0 0 23.5-9.64c4-2.38 7.62-5.23 11.58-7.61 3.78-2.27 7.87-4 12.36-3.51 1.52.16 2-2.11.76-2.8-2.93-1.62-3.73-5.23-3.71-8.35 0-4.35 1.19-8.68 0-13-1.91-7.24-8.79-11.92-15.81-13.46-7.6-1.66-15.86-.74-23.37 1a73.84 73.84 0 0 0 -20.82 8.34 72.54 72.54 0 0 0 -19.18 16.31c-1.21 1.48.9 3.61 2.13 2.12z" fill="#fff"/><g fill="#ff7bac"><path d="m29.27 45.75a5.77 5.77 0 0 1 -1.8.31l-.86.11q-.95-2.25-3.67-8.14t-2.83-6.43l-.31-1.6-.2-.25v-.77l.7-.53a5.41 5.41 0 0 0 1.36-.21.81.81 0 0 0 .69.31q9.13-3.76 10.44-4.27l.74-.22.26-.18a3.21 3.21 0 0 1 1.55 1.38q.28 1 5.24 14.36l-.06.93-.3.27v.34l-.46.29c-.69-.05-1.35-.07-2-.06l-.41-.09-7.54 3.7a1.07 1.07 0 0 1 -.54.75zm4.81-13.59.44-.1a20.92 20.92 0 0 0 -1.79-5.23q-.49 0-9.34 4.11l-.07.71a42.44 42.44 0 0 0 1.81 4.2zm2.6 7h.52a14.82 14.82 0 0 0 -1.36-4.07l-.45-.88-9.18 4q1.53 3.63 1.86 4.33z"/><path d="m40.83 24.94-1.23-.12-.15-.27-.12-.43a2.58 2.58 0 0 1 1.24-1.12l8-3.64.8-.07.46.45v1.08l-.44.3h-.28zm4.61-5-1.3.23-.22.14-1.75.28a2.71 2.71 0 0 1 -1.74-.26l-.14-.68a5 5 0 0 1 1.14-.8l1.91-.2.22-.16a12.67 12.67 0 0 1 2.13 0l.36.53v.3zm-2.51 7.44-1-.2-.3-.36.06-.38q.86-1.14 6.28-3.41l.53-.08.21-.16a1.21 1.21 0 0 1 .85.75l-.2.71q-.75.49-6.43 3.14zm1.07 3.14-.85-.3-.27-.57.49-.67.44-.1 5.12-2.35a3.81 3.81 0 0 1 1.13.24l.22.37-.12.8-.84.48zm3.78 8.11-.34-.35c-.23.13-.4.1-.51-.07l-.59-.6-.14-.55a12 12 0 0 0 -.86-1.5 7.6 7.6 0 0 1 -.82-1.56l-.41-1a1.33 1.33 0 0 1 .37-1q2.82-1.15 5.52-2.56a3.26 3.26 0 0 1 1.39 0 .9.9 0 0 1 .51.61q1.1 4.34 1.1 5.19l.16.21-.16.55a4.14 4.14 0 0 1 -1.25.77l-.34.06-3.26 1.49zm2.89-3.46-.91-3.52-3.24 1.48 1.48 3.13zm8.87-1.66a5.56 5.56 0 0 1 -3.33-.28c-.79-.41-1.6-1.49-2.45-3.23a18.33 18.33 0 0 1 -1.67-5.47l.17-.42a3.71 3.71 0 0 1 1.8-1.24l4.23-1.54a12.24 12.24 0 0 1 -.65-2.25c-.14-.76-.32-1.54-.53-2.33q-4.59 1.74-5.43 2.25a2.31 2.31 0 0 1 -1-.09.9.9 0 0 1 -.61-.64l.32-.4q.8-.8 6.42-3l.35-.33a8.34 8.34 0 0 0 1.44-.17l.79.77a15.71 15.71 0 0 0 .41 2.58c.2.86.43 1.73.67 2.59l.65 1.46a2.16 2.16 0 0 1 -1.34 1.13 3.49 3.49 0 0 0 -1.25.34l-4 1.59a16 16 0 0 0 1.3 4.3 8.85 8.85 0 0 0 1.36 2 1.73 1.73 0 0 0 1.5.55 6 6 0 0 0 1.4-.33 7 7 0 0 0 1.5-.54l.43-.5a19.86 19.86 0 0 1 0-4.42l.17-.39.63-.33.71.2.45.83.82 4.31v.49a9.41 9.41 0 0 1 -1.41 1c-1.11.46-2.39 1-3.86 1.51z"/></g></svg>