<svg viewBox="0 0 92.81 67.07" xmlns="http://www.w3.org/2000/svg"><path d="m10.75 22.55c-5.08 4.57-9.32 10.76-9.25 17.59.11 10.58 10.26 18.31 20.24 21.8a66 66 0 0 0 48.16-1.94c8.65-3.86 16.81-10.09 20.1-18.95s.15-20.47-8.51-24.28c-4.86-2.14-10.49-1.58-15.59-3.26s-9.63-7.62-6.71-12.08c-14.54 11.99-34.08 8.18-48.44 21.12z" fill="#fff"/><path d="m9.68 21.49c-4.81 4.38-8.88 10.07-9.59 16.7-.64 6.07 2.09 11.81 6.26 16.06a39.35 39.35 0 0 0 15.82 9.42 66.7 66.7 0 0 0 21.44 3.4c13.59-.07 28.17-4.07 38.69-12.99 4.63-3.91 8.54-9.15 9.92-15.13a23.05 23.05 0 0 0 -2.14-16.09 17.59 17.59 0 0 0 -6.08-6.49c-3.28-2-7.11-2.51-10.86-3s-7.55-.85-10.39-3.37c-2.16-1.93-4-5-2.27-7.79.94-1.56-1.11-2.87-2.36-1.84-10.85 9-25.76 9-38.19 14.51a39.78 39.78 0 0 0 -10.25 6.61c-1.44 1.29.69 3.4 2.13 2.12 10.77-9.61 25.68-9.73 38.44-15.13a40.78 40.78 0 0 0 10-6l-2.36-1.81c-3.14 5.11 1 11.07 5.66 13.47 5.8 3 13 1.35 18.64 4.66 4.42 2.57 6.93 7.58 7.49 12.54a21.5 21.5 0 0 1 -4.34 15.18c-3.5 4.81-8.53 8.38-13.79 11a62.17 62.17 0 0 1 -19.67 6 64.79 64.79 0 0 1 -20.47-.52 49.51 49.51 0 0 1 -17.54-6.5c-5.15-3.31-9.93-8.28-10.76-14.58-.94-7.23 3.62-13.69 8.7-18.31 1.43-1.3-.7-3.42-2.13-2.12z" fill="#fff"/><g fill="#ff7bac"><path d="m33.46 49.15a4.78 4.78 0 0 1 -1.51 0h-.73c-.31-1.32-.94-3.71-1.9-7.19s-1.45-5.37-1.47-5.67v-1.35l-.13-.24.15-.62.64-.34a4.91 4.91 0 0 0 1.15 0 .7.7 0 0 0 .53.35l9.13-2.09.68-.1.24-.11a2.74 2.74 0 0 1 1.09 1.35q.09.82 2.35 12.52l-.17.75-.29.18-.08.28-.42.17c-.56-.13-1.09-.24-1.6-.31l-.33-.13-6.73 2a.92.92 0 0 1 -.6.55zm5.81-10.52h.38a17.84 17.84 0 0 0 -.77-4.55c-.27 0-3 .66-8.23 2.12l-.16.57a36.37 36.37 0 0 0 .92 3.7zm1.18 6.13.42.09a12.3 12.3 0 0 0 -.56-3.53l-.25-.79-8.06 2.09c.51 2.13.82 3.4.94 3.81z"/><path d="m45.8 33.6-1-.26-.09-.24v-.37a2.15 2.15 0 0 1 1.14-.73l7-1.91h.67l.31.43-.13.89-.4.19-.23-.05zm4.47-3.48h-1.1l-.2.08h-1.48a2.33 2.33 0 0 1 -1.4-.46v-.57a3.94 3.94 0 0 1 1-.51l1.6.1.2-.1a10.63 10.63 0 0 1 1.74.32l.23.49-.07.23zm-3.08 5.78-.82-.3-.19-.34.09-.3c.58-.55 2.45-1.2 5.64-2h.44l.19-.1a1 1 0 0 1 .6.73l-.26.56c-.44.25-2.33.85-5.69 1.75zm.45 2.72-.64-.36-.14-.5.49-.49h.38l4.5-1.27a3.11 3.11 0 0 1 .9.35l.13.33-.2.64-.76.29zm2 7.18-.23-.33c-.21.07-.35 0-.41-.13l-.4-.57v-.47a9 9 0 0 0 -.55-1.3 6.78 6.78 0 0 1 -.45-1.36l-.2-.92a1.13 1.13 0 0 1 .44-.75c1.65-.39 3.28-.84 4.88-1.37a2.59 2.59 0 0 1 1.14.19.75.75 0 0 1 .34.57 44 44 0 0 1 .24 4.42l.1.2-.26.37a3.36 3.36 0 0 1 -1.14.47h-.28l-2.86.73zm2.85-2.45-.28-3-2.86.78.81 2.78zm7.51-.16a4.65 4.65 0 0 1 -2.7-.69 5.85 5.85 0 0 1 -1.57-3 14.85 14.85 0 0 1 -.63-4.72l.19-.32a3.13 3.13 0 0 1 1.71-.76l3.64-.7a10.06 10.06 0 0 1 -.23-1.94c0-.65 0-1.31-.12-2-2.67.54-4.25.9-4.76 1.09a2.06 2.06 0 0 1 -.8-.21.74.74 0 0 1 -.41-.61l.31-.29q.76-.54 5.69-1.6l.33-.23a8.31 8.31 0 0 0 1.21.06l.54.74a14.26 14.26 0 0 0 0 2.17c0 .74.12 1.48.2 2.22l.34 1.29a1.78 1.78 0 0 1 -1.26.75 2.93 2.93 0 0 0 -1.08.11l-3.51.76a13.57 13.57 0 0 0 .47 3.69 7.58 7.58 0 0 0 .86 1.8 1.41 1.41 0 0 0 1.16.64 4.78 4.78 0 0 0 1.19-.07 6.9 6.9 0 0 0 1.31-.24l.42-.35a16.45 16.45 0 0 1 .57-3.64l.2-.31.56-.18.55.26.26.74.09 3.66-.07.4a7.73 7.73 0 0 1 -1.27.71c-.97.28-2.1.52-3.39.77z"/></g></svg>