<svg viewBox="0 0 105.03 86.27" xmlns="http://www.w3.org/2000/svg"><path d="m7 30.11c8.33-13.11 23.19-20.7 38.1-25.04 12.9-3.76 27.19-5.46 39.58-.21s21.78 19.26 18.06 32.2c-1.53 5.34-5 9.94-6.68 15.25s-.62 12.28 4.45 14.56c-10.45.25-20.43 4.19-30.05 8.26s-19.37 8.39-29.77 9.47c-29.12 3.04-49.54-29.36-33.69-54.49z" fill="#ffff93"/><path d="m8.33 30.86c5.52-8.73 14.17-14.92 23.41-19.24a88.43 88.43 0 0 1 32.26-8.48c10.87-.58 22.12 1.86 30 9.86 6.76 6.88 10.19 16.79 6.49 26.05-2.23 5.59-6.08 10.59-6.57 16.76-.38 4.75 1.28 10.15 5.86 12.33l.76-2.8c-11.78.34-22.68 5-33.36 9.54-9.94 4.21-20.67 8.81-31.69 8.36-15.39-.59-28.4-12.24-31.71-27.08a33.84 33.84 0 0 1 4.55-25.3c1-1.64-1.57-3.14-2.59-1.51a36.73 36.73 0 0 0 -5.48 23.86 38.35 38.35 0 0 0 9.63 21 36.58 36.58 0 0 0 20.48 11.5c10.63 1.89 21.28-1.34 31.09-5.23 12.63-5 25.17-11.71 39.05-12.11 1.38 0 2.17-2.12.76-2.79-4.1-1.95-5-7.06-4.19-11.14 1.07-5.65 4.86-10.38 6.72-15.76 3.29-9.54-.35-19.8-7-27-16.12-17.54-44.03-12.26-63.53-4.01-10.88 4.61-21.12 11.54-27.53 21.68-1.03 1.65 1.56 3.14 2.59 1.51z" fill="#ffff93"/><g fill="#ff7bac"><path d="m29.59 47.06a1.15 1.15 0 0 1 -1.39-.06l-.14-.56a1.17 1.17 0 0 1 .7-.88 8.44 8.44 0 0 0 1.36-1.56 14.89 14.89 0 0 0 1.19-2.38 8.54 8.54 0 0 0 .69-2.93 5.18 5.18 0 0 0 -.4-2.36 2.48 2.48 0 0 0 -1.6-1.33q-1.86-.5-4.93 1.2a26.44 26.44 0 0 0 -4.31 2.8c-.82.73-1.68 1.46-2.56 2.21a2 2 0 0 1 -1.35 0 2 2 0 0 1 -.63-.82l.22-.71a24.29 24.29 0 0 1 3.18-2.95 30.87 30.87 0 0 1 4.12-2.61 13.41 13.41 0 0 1 4.07-1.57 8.45 8.45 0 0 1 3.1.1 6.34 6.34 0 0 1 2.7 2.22 5.48 5.48 0 0 1 .81 2.39 13.22 13.22 0 0 1 -.07 2.41 13.59 13.59 0 0 1 -.74 2.27q-.49 1.17-.87 1.86a11.08 11.08 0 0 1 -1 1.49 12.94 12.94 0 0 1 -1.43 1.55z"/><path d="m50 40.65a9.34 9.34 0 0 1 -2.18-.54 2.91 2.91 0 0 1 -.68-1.11l.4-.63.62-.19a3.53 3.53 0 0 0 1.5.15 5.66 5.66 0 0 0 -.66-5.85 3.83 3.83 0 0 0 -1.35-1 2.7 2.7 0 0 0 -1.46.27 3.45 3.45 0 0 0 -.74.54 1.06 1.06 0 0 1 -1.38-.22l-.31-1a12.74 12.74 0 0 0 1.24-1.66 36 36 0 0 0 2.21-4.63q-5.06 2.16-6 2.73l-1.08.15a1.19 1.19 0 0 1 -.52-1.56 6 6 0 0 1 1.48-1.1c.55-.31 1.64-.83 3.29-1.57a21.58 21.58 0 0 1 3.88-1.43l.68.26a2.06 2.06 0 0 1 .84 1.51 12.51 12.51 0 0 1 -.89 2.77q-.66 1.56-1.32 3.06a3.09 3.09 0 0 1 1.87.64 5.78 5.78 0 0 1 1.44 1.33c.27.41.54.87.83 1.38a6.15 6.15 0 0 1 .73 4 15.08 15.08 0 0 1 -.44 2.37c-.67 1.03-1.33 1.47-2 1.33zm-6.6.44c-1 .7-1.63.78-2 .25l-.2-.94a12.41 12.41 0 0 0 1.8-5.08l.28-.24a1 1 0 0 1 1.49.17l.31.54a8 8 0 0 1 -.2 2 12.07 12.07 0 0 1 -1.1 2.65zm11.82-14.09-1.13-.2-.8-.58a2.93 2.93 0 0 1 -1.71-1.7.75.75 0 0 1 .5-.62 2.62 2.62 0 0 1 1.92.2l1 .57.91 1.11v.72zm3.6 6.65a35.78 35.78 0 0 1 -5.82-1.46 1.46 1.46 0 0 1 -.74-1 1.24 1.24 0 0 1 1.45-.94 48.75 48.75 0 0 0 5.75 1.52 3.21 3.21 0 0 1 .68 1 1.17 1.17 0 0 1 -1.32.89zm-1.46-9.65-1.22-.19-1.85-.89-.73-.92a1.24 1.24 0 0 1 0-1l.7-.37.66-.09 2.08 1.19a2.57 2.57 0 0 1 1.26 1.57 1.92 1.92 0 0 1 -.9.7z"/><path d="m60.57 66.64a3 3 0 0 1 -1.46-.22l-.69-.48c-.82-1.25-1.64-2.43-2.44-3.53s-1.66-2.44-2.57-4a27.32 27.32 0 0 1 -2.49 2l-1.24.41a1.64 1.64 0 0 1 -.4-1.46 17 17 0 0 1 2.82-2.9c-.32-.59-.79-1.35-1.42-2.27a9.28 9.28 0 0 1 -1.35-3.1l.88-.55.72-.08.46.22a6.58 6.58 0 0 1 1 1.36l1.61 2.48c.68-.45 1.82-1.26 3.43-2.43.07-3 .15-4.8.22-5.44l.16-.41.46-.23a1.22 1.22 0 0 1 1.22.11l.42.76a18.26 18.26 0 0 0 .09 2.82l-.07.7.71-.28a7.45 7.45 0 0 1 2.08-.52 4.51 4.51 0 0 1 3.66 1.3 5.07 5.07 0 0 1 .86 1.3c.07.64.13 1.26.19 1.87a6.29 6.29 0 0 1 -.73 2.44 7.79 7.79 0 0 1 -1.1 1.49 4.6 4.6 0 0 1 -1.12.84c-.36.19-.8.42-1.32.71a3.12 3.12 0 0 0 -1.14.25l-.72-.11a1.94 1.94 0 0 1 -.82-.88l.1-.24a3 3 0 0 1 .93-.44 12.43 12.43 0 0 0 2.49-1.67 3.42 3.42 0 0 0 1.14-1.85 2.62 2.62 0 0 0 -.32-1.88l-.82-.59a3.62 3.62 0 0 0 -2.19.2 14.4 14.4 0 0 0 -2.23 1.1 26.84 26.84 0 0 0 -2.27 1.56 17.12 17.12 0 0 0 -2.18 1.88q1.53 2.41 2.7 4.18a34.81 34.81 0 0 0 2.89 3.73 7.12 7.12 0 0 1 .94 1 1.63 1.63 0 0 1 -1.09.85z"/><path d="m82.48 50.07-.68-.07c-.39-.36-.78-.7-1.15-1a5.54 5.54 0 0 1 -.79-.74l-3.54 2.4-.82.12-.73-.26a.62.62 0 0 1 -.54-.61 2.19 2.19 0 0 1 1-1c.82-.7 1.86-1.48 3.11-2.35a18.16 18.16 0 0 1 -1.47-2l-4.37 2.87-1.23-.09a2 2 0 0 1 -1-.57 1.33 1.33 0 0 1 .78-.93l4.63-3.23a3.25 3.25 0 0 1 -.68-2.28l.77-.5 1.08.4.3.45.5.57q3.69-2.32 4.38-2.8l.82-.32a2.93 2.93 0 0 1 1.06.8 3.78 3.78 0 0 1 .09 1.39l-.31.17-.38.11-.67.31-3.74 2.4a11.29 11.29 0 0 0 1.52 2.09 30.06 30.06 0 0 0 3-2.15 1.21 1.21 0 0 0 .88-.1 6.25 6.25 0 0 1 1.27.7l-.09.33-.24.4v.43l-.31.15-.42.21q-1.65.93-2.1 1.26l-.1.31a7 7 0 0 0 1.41 1.36l.12.8-.24.52-.56.23zm.45 7.07a5 5 0 0 0 -1.87.17 9.71 9.71 0 0 1 -3-.73 9.49 9.49 0 0 1 -1.85-1.13 4.13 4.13 0 0 1 -1.21-1.61l.16-.48.62-.33h.93a4.76 4.76 0 0 1 1.37 1.16 6.43 6.43 0 0 0 2.64 1 4.54 4.54 0 0 0 2.28-.19l.3-.32.4.09.31-.17.54.11.35.56-.55 1.14-.88.47z"/></g></svg>