<svg id="レイヤー_1" data-name="レイヤー 1" xmlns="http://www.w3.org/2000/svg" viewBox="0 0 84.61 69.6"><defs><style>.delivery_item_11-1{fill:#c05acd;}.delivery_item_11-2{fill:#fff;}</style></defs><path class="delivery_item_11-1" d="M5.91,45.26h0c6.63,10.5,18.52,16.56,30.45,20,10.34,3,21.75,4.37,31.66.17S85.44,50.05,82.47,39.7c-1.23-4.28-4-8-5.34-12.2s-.5-9.83,3.56-11.65c-8.36-.2-16.34-3.35-24-6.61S41.15,2.53,32.83,1.66C9.54-.77-6.8,25.16,5.91,45.26Z"/><path class="delivery_item_11-1" d="M4.61,46C9.11,53.14,16,58.38,23.53,62a75.83,75.83,0,0,0,26.38,7.42c9.1.76,18.66-1,25.75-7,6-5.08,9.91-12.93,8.74-20.86-.77-5.2-4.18-9.33-5.76-14.25-1.11-3.46-.91-8.37,2.8-10.16,1.41-.68.64-2.75-.75-2.79-10-.3-19.2-4.73-28.28-8.51C44.42,2.52,35.66-.77,26.85.16A30.44,30.44,0,0,0,.56,24.37,29.86,29.86,0,0,0,4.61,46c1,1.63,3.62.13,2.59-1.52a26.88,26.88,0,0,1-4-17.88,28,28,0,0,1,7.59-15.5,26.65,26.65,0,0,1,15.6-7.91C34.68,2.15,43,5.2,50.55,8.3c9.74,4,19.41,8.72,30.14,9.05l-.76-2.8c-3.23,1.55-4.69,5-4.87,8.45-.21,4.19,1.72,7.91,3.58,11.54S82,42,81.53,46.29a20.77,20.77,0,0,1-4.25,10.08C65.91,71.37,43.67,67.18,28.63,61,20.22,57.59,12.14,52.31,7.2,44.5,6.17,42.87,3.58,44.38,4.61,46Z"/><path class="delivery_item_11-2" d="M29.65,41.69a12.5,12.5,0,0,1-.14-2.36,5.39,5.39,0,0,1-1.32-.24l-.84-.37a4.35,4.35,0,0,1-1.56-1.86,6.31,6.31,0,0,1-.36-2.22,10.81,10.81,0,0,1,.35-2.49,16.6,16.6,0,0,1,1.1-2.78,7,7,0,0,1,1.49-2,7.68,7.68,0,0,1,1.79-1.22,3.48,3.48,0,0,1,2.66-.06,8.26,8.26,0,0,1,1.15.54,3.59,3.59,0,0,1,1.22,1.28,5.49,5.49,0,0,1,.6,2.69,11.94,11.94,0,0,1-.48,2.93,12.61,12.61,0,0,1-1,2.42,14.44,14.44,0,0,1-1.56,2.12,3.12,3.12,0,0,1-1.6.87c0,.65,0,1.1,0,1.37s0,.68,0,1.25q-.34,1-1,.84A.72.72,0,0,1,29.65,41.69ZM29,37.54c0-.8.06-1.44,0-1.92a5,5,0,0,1,.26-1.57.87.87,0,0,1,1.25-.41,1.64,1.64,0,0,1,.29,1.17c0,.76,0,1.57,0,2.44a5.38,5.38,0,0,0,1.28-1.13,12.23,12.23,0,0,0,.93-1.5,9.3,9.3,0,0,0,.63-1.74,10.79,10.79,0,0,0,.3-2.12,4.83,4.83,0,0,0-.31-1.83,1.8,1.8,0,0,0-1.46-1.16,2.38,2.38,0,0,0-1.56.08,4.68,4.68,0,0,0-1.23.83,5.33,5.33,0,0,0-1.08,1.58,19.58,19.58,0,0,0-.85,2.21,6.64,6.64,0,0,0-.26,2.06,2.51,2.51,0,0,0,.28,1.62A2.44,2.44,0,0,0,29,37.54Z"/><path class="delivery_item_11-2" d="M37.36,44.21a2.06,2.06,0,0,1-1.08-1.43,2.74,2.74,0,0,1,.26-1.68,6.34,6.34,0,0,1,1-1.6A12.22,12.22,0,0,0,39.24,38L39,37l-.11-.14-.47-1.48q0-.9,0-1.74a6.8,6.8,0,0,1,.59-2.12,4.16,4.16,0,0,1,1.44-1.85l.95-.47a5.53,5.53,0,0,1,1.68,0,3.51,3.51,0,0,1,1.58.95,9.74,9.74,0,0,1,.67,1.06,3.85,3.85,0,0,0,0,1.18l-.26.86a4.55,4.55,0,0,1-.87,1.87,7.77,7.77,0,0,1-.64.94,6.82,6.82,0,0,1-1,1,5.3,5.3,0,0,0-1.11,1.22L42,39.43l.24.49.62-1.13a1.14,1.14,0,0,1,.7-1.16l.5.29A15.61,15.61,0,0,1,45,39.39c.22.44.46.88.72,1.33l-.1.85a1.65,1.65,0,0,1-.8.28,1.91,1.91,0,0,1-1.13-1.23,3.12,3.12,0,0,0-.73,1.05l.47,1.11.45,1.1,0,.77-.58.37-.56,0a2.75,2.75,0,0,1-.62-1,1.86,1.86,0,0,0-.68-1,4.4,4.4,0,0,1-1.34,1.26,3,3,0,0,1-1.45.39A2.33,2.33,0,0,1,37.36,44.21Zm2.41-1.61a3.7,3.7,0,0,0,1.16-1.22l-.73-1.63-.2-.07a5,5,0,0,0-1.41,1.17,7.91,7.91,0,0,0-.54,1.22,4.66,4.66,0,0,0,.21.69C38.69,43.16,39.19,43.1,39.77,42.6ZM41,36.29l.58-.5a5.35,5.35,0,0,0,1.27-1.42,5.86,5.86,0,0,0,.65-1.72,1.08,1.08,0,0,0-.07-.81,1.66,1.66,0,0,0-1-.91,1.86,1.86,0,0,0-1.71,1l-.29.73a4,4,0,0,0-.39,1.56,9.64,9.64,0,0,0,.57,2.06Z"/><path class="delivery_item_11-2" d="M55.05,50.16a.89.89,0,0,1-.8-.75,19.85,19.85,0,0,1,0-2.29c.05-.81.08-1.67.08-2.56a19.83,19.83,0,0,0-3.43-1.28c-.54.91-1,1.67-1.34,2.29a6.1,6.1,0,0,1-1.39,1.67l-.5-.05a1.09,1.09,0,0,1-.44-.46L47.21,46a23.19,23.19,0,0,1,1.19-2.11c.43-.69.85-1.4,1.25-2.13.74-1.1,1.41-2.14,2-3.11s1.27-2,1.94-2.92l1.24-1.44a1.32,1.32,0,0,1,.91.07,1.05,1.05,0,0,1,.46.88l.11,1.54q-.08,2.7-.12,5.22c0,1.69,0,3.48-.06,5.37a10.46,10.46,0,0,1-.28,2.28C55.65,50.14,55.37,50.31,55.05,50.16Zm-.74-7.6c0-.76,0-1.53.11-2.33a19.19,19.19,0,0,0,.06-2.4c-.45.64-.88,1.26-1.28,1.86s-.82,1.26-1.25,2a4.65,4.65,0,0,0,1.11.5Z"/></svg>