<svg id="レイヤー_1" data-name="レイヤー 1" xmlns="http://www.w3.org/2000/svg" viewBox="0 0 78.79 17.33"><defs><style>.cls-1{fill:#4d4d4d;}</style></defs><path class="cls-1" d="M1.49,8.81a8.62,8.62,0,0,0,9,1.28c1.53-.67,3-1.93,3.18-3.69S12.3,3.47,10.83,2.92A8.37,8.37,0,0,0,1.49,5.3,6.55,6.55,0,0,0,0,9.85a6.87,6.87,0,0,0,2.07,4.26c3,3,7.48,2.71,11.09,1.1a1.14,1.14,0,0,0,.4-1.54A1.15,1.15,0,0,0,12,13.26c-2.3,1-5.17,1.4-7.41,0A4.47,4.47,0,0,1,2.56,7.84,5.61,5.61,0,0,1,8.41,4.69a4.17,4.17,0,0,1,2.78,1c.69.83-.58,1.74-1.21,2.1a6.31,6.31,0,0,1-6.9-.6,1.15,1.15,0,0,0-1.59,0,1.13,1.13,0,0,0,0,1.59Z"/><path class="cls-1" d="M21.38,7.83q5-.07,9.93-.48a1.15,1.15,0,0,0,1.12-1.13A1.12,1.12,0,0,0,31.31,5.1q-5,.41-9.93.48a1.13,1.13,0,0,0,0,2.25Z"/><path class="cls-1" d="M25.79.79a43.49,43.49,0,0,0-1.34,6.57,12.74,12.74,0,0,0,.17,5.73A4.6,4.6,0,0,0,28,16.27,3.54,3.54,0,0,0,32,14.63c.66-1.29-1.28-2.43-1.94-1.14a1.47,1.47,0,0,1-2,.45,3.09,3.09,0,0,1-1.55-2.73,18.61,18.61,0,0,1,.31-4.65A40.1,40.1,0,0,1,28,1.39a1.13,1.13,0,0,0-2.17-.6Z"/><path class="cls-1" d="M51.26,4.42a5.25,5.25,0,0,0-6.34-1.79,7.72,7.72,0,0,0-4.35,5.49,8.3,8.3,0,0,0,1.21,6.54,6.25,6.25,0,0,0,5.54,2.66,5.92,5.92,0,0,0,5.34-3.84c.46-1.37-1.71-2-2.17-.59-.88,2.58-4.72,2.83-6.49.95a6.11,6.11,0,0,1,.85-8.61c1.28-1,3.45-1.16,4.46.32.81,1.19,2.76.07,1.95-1.13Z"/><path class="cls-1" d="M62.28,10.15a1.13,1.13,0,0,0,0-2.25,1.13,1.13,0,0,0,0,2.25Z"/><path class="cls-1" d="M69.82,10.49h.34a.83.83,0,0,0,.44-.09,1,1,0,0,0,.36-.24.86.86,0,0,0,.23-.36.91.91,0,0,0,.1-.43l0-.3a1.2,1.2,0,0,0-.29-.5l-.23-.17a1.17,1.17,0,0,0-.57-.16h-.34a.88.88,0,0,0-.43.1,1,1,0,0,0-.6.6.88.88,0,0,0-.1.43l0,.3a1.16,1.16,0,0,0,.29.49l.23.18a1.16,1.16,0,0,0,.57.15Z"/><path class="cls-1" d="M77.7,11.18a1.13,1.13,0,0,0,0-2.25,1.13,1.13,0,0,0,0,2.25Z"/></svg>