<svg viewBox="0 0 156.95 110.29" xmlns="http://www.w3.org/2000/svg"><path d="m53.2 108.79c-11.93.07-24.27-1.45-34.56-7.49s-18.1-17.42-17.13-29.3c.61-7.43 4.49-14.2 8.8-20.24 18.86-26.09 49.09-42.76 80.77-48.49 12.2-2.19 25-2.83 36.8.93s22.52 12.52 26.17 24.36c3.4 11 .35 23.2-5.77 32.94s-15 17.38-24.12 24.4c-3.44 2.66-7 5.37-9.07 9.21s-2 9.17 1.32 12c-7.92-6.73-18.87-6.13-28.1-3.46a127.24 127.24 0 0 1 -35.11 5.14z" fill="#c05acd"/><path d="m53.2 107.29c-12 .07-24.76-1.42-35.09-8.08-8.82-5.68-15.69-15.66-15.11-26.47.31-6.18 3.12-11.93 6.44-17a99.09 99.09 0 0 1 10.56-13.44 118.75 118.75 0 0 1 25.8-20.64 133.85 133.85 0 0 1 30.82-13.43c11.68-3.44 24-5.75 36.26-5.14 11.61.59 23.18 4.38 31.55 12.71a32.18 32.18 0 0 1 8.07 12.81 33.72 33.72 0 0 1 .5 17.72c-2.75 12.13-10.69 22-19.75 30.12-4.5 4-9.44 7.52-14 11.46-4.09 3.51-7.57 8.25-7 13.92a9.62 9.62 0 0 0 3.07 6.32l2.12-2.12c-6.12-5.11-14-6.45-21.8-5.46a104.06 104.06 0 0 0 -12.31 2.85 125.51 125.51 0 0 1 -13.72 2.7 127.22 127.22 0 0 1 -16.44 1.17 1.5 1.5 0 0 0 0 3 130.59 130.59 0 0 0 27.31-3.1c7.76-1.74 15.19-4.63 23.28-3.77a21.55 21.55 0 0 1 11.56 4.73c1.46 1.23 3.57-.82 2.12-2.12a7.45 7.45 0 0 1 -2.17-6.76 13.24 13.24 0 0 1 4-7.29 65.41 65.41 0 0 1 6.95-5.81c2.51-2 5-3.94 7.38-6 9.43-8.18 17.91-18 21.55-30.16a39.38 39.38 0 0 0 1.22-18.17 33.59 33.59 0 0 0 -7-15c-7.26-9.09-18.37-14.35-29.65-16.06-12.85-1.93-26.09-.05-38.6 3.11a138.86 138.86 0 0 0 -32.42 12.66 123.82 123.82 0 0 0 -27.52 20.29 112.19 112.19 0 0 0 -11.24 12.9c-3.76 5-7.2 10.51-8.91 16.61-3.19 11.3 1.32 22.84 9.6 30.75 9 8.58 21.39 12 33.48 12.89 3 .23 6.06.32 9.09.3a1.5 1.5 0 0 0 0-3z" fill="#c05acd"/><g fill="#fff"><path d="m39 66.58-.51-.07-.67-.12-.36-.59a69.56 69.56 0 0 0 -2.79-7.06 41.5 41.5 0 0 1 -2.17 4.66l-1.15 1.8a18.05 18.05 0 0 1 -1.43 1.94l-1.5.72h-.58l-.42-.49.04-1.37a7.82 7.82 0 0 0 2-2.15c.41-.71.76-1.31 1.05-1.77a12.55 12.55 0 0 0 .8-1.6c.25-.61.52-1.27.8-2a17 17 0 0 0 .81-3.12l-7.3 3.46a6.67 6.67 0 0 0 -1.68.66l-.51-.2-.69-.41a.75.75 0 0 1 .06-.68 7.78 7.78 0 0 1 1.61-1l8-3.81c-.36-1.08-.64-1.89-.83-2.43a6.28 6.28 0 0 1 -.37-1.7l.59-.23.42-.22.63.08a1.38 1.38 0 0 1 .75.61 13.29 13.29 0 0 0 1.12 2.91l5.28-2.4a1.33 1.33 0 0 0 1 0l.56.71-.1 1-.68.39-5.35 2.32q4.29 10.4 4.36 10.75a1.29 1.29 0 0 1 -.08.89z"/><path d="m48.56 54.6h-.44q-.39.42-1.2-.69c-1-2.68-1.75-4.63-2.26-5.86a14.53 14.53 0 0 1 -1-2.92 5.42 5.42 0 0 1 .67-.71 2.75 2.75 0 0 1 1.22.2 4.71 4.71 0 0 1 1.26 2.21c.38 1.11 1.18 3.26 2.4 6.42v.91zm5.44 5.65h-1.12l-.47-.57c.56-.73 1.05-1.4 1.46-2a14.1 14.1 0 0 0 1.13-2.08 6.91 6.91 0 0 0 .5-2.93 18.65 18.65 0 0 0 -.45-3.62 23.86 23.86 0 0 0 -1.25-3.95 36.94 36.94 0 0 1 -1.29-3.67 2.29 2.29 0 0 1 1.19-.67 1.5 1.5 0 0 1 1 .08 2 2 0 0 1 .79 1.16q1.21 3.53 1.62 4.9c.27.92.52 2 .76 3.2a10.35 10.35 0 0 1 .19 3.2 12.6 12.6 0 0 1 -.69 2.82 8.15 8.15 0 0 1 -1.37 2.45 7.74 7.74 0 0 1 -1.3 1.33z"/><path d="m69.05 40.65a32.54 32.54 0 0 1 -5.68.25 3.44 3.44 0 0 1 -.89-.94v-.38l.32-.41.83-.32a24.11 24.11 0 0 1 5.65-.24l.61 1.17-.09.39zm.68 4.59-5.62 1.54-1.1-.6-.26-.48v-.43a3.77 3.77 0 0 1 1.23-.64l4.69-1.47a2.46 2.46 0 0 1 1.45-.16l.27.22.48.34v.57a2 2 0 0 1 -1.14 1.11zm3.47 7.33-.29-.09-.65-.12-.36-.59v-.5l.46-.56.36-.49q.57-.73 1.14-1.5a19.93 19.93 0 0 0 1.28-2 22 22 0 0 0 1.33-2.72c.37-.94.66-1.76.87-2.45a15.61 15.61 0 0 1 .71-1.91l.72-.53h.3a2 2 0 0 1 .82 1.27 18.58 18.58 0 0 1 -.5 2.75 15.85 15.85 0 0 1 -1.06 3 20.1 20.1 0 0 1 -1.33 2.51c-.43.68-.91 1.34-1.41 2a7.91 7.91 0 0 1 -1.59 1.56zm2.88-15.17a7.06 7.06 0 0 1 -2.79-1.27 1.87 1.87 0 0 1 -.87-1.5l.51-.8a8.29 8.29 0 0 1 2.89.87l1.11 1.48.12.68a2.33 2.33 0 0 1 -.97.54zm3-2.61a4.13 4.13 0 0 1 -1.21-.52 7 7 0 0 1 -1.57-1.61l-.4-1a.94.94 0 0 1 .89-.55 1.88 1.88 0 0 1 1.24.07 6 6 0 0 1 1.61 2l.36.61-.23.7z"/><path d="m93.54 45.77-.74.23a3.23 3.23 0 0 1 -1 0 1.82 1.82 0 0 1 0-1.31 2.92 2.92 0 0 0 1.2-1.57 9.82 9.82 0 0 0 .83-4.92 18 18 0 0 0 -1.15-4.57l-7.1 3.07-1.06-.07a1.57 1.57 0 0 1 -.9-.87v-.34a4.82 4.82 0 0 1 1.58-1.18l.6-.19 6.2-2.59a21.08 21.08 0 0 1 -1.71-5.12 1.48 1.48 0 0 1 1-.59l.76.19.7.25 1.61 4.2 4.67-2 1-.31a2.2 2.2 0 0 1 1.54.07l.41.52.1.57a3.91 3.91 0 0 1 -1.36 1.09l-5.5 2.34a27.3 27.3 0 0 1 1.31 5.51 9.05 9.05 0 0 1 -.85 5 6.28 6.28 0 0 1 -2.14 2.59z"/><path d="m106.79 38.4-.09-1.19a6.59 6.59 0 0 0 1.3-2.27 7.25 7.25 0 0 0 .29-2.48 15.34 15.34 0 0 0 -1-3.94 47.24 47.24 0 0 0 -2.06-5v-.75l.64-.73c1 0 1.65.38 1.87 1 .57 1.3 1.16 2.78 1.8 4.42a17.26 17.26 0 0 1 1.13 4.31 7.74 7.74 0 0 1 -.12 2.91 7.27 7.27 0 0 1 -1.1 2.14 6.37 6.37 0 0 1 -2.66 1.58zm11.38-4.76-1.27.5a2.76 2.76 0 0 1 -1.34-.73q-1.78-4.74-3.43-8.78a25.8 25.8 0 0 1 -1.75-5.1l.52-.66a7.06 7.06 0 0 1 1.39.26l.54.46q3 7.31 4.37 11a11.18 11.18 0 0 0 1.47-2.59 28.68 28.68 0 0 0 1.24-4.47 1.45 1.45 0 0 1 1.34.08l.63.78a4.76 4.76 0 0 1 -.07 2 23.2 23.2 0 0 1 -.81 2.61 22.19 22.19 0 0 1 -2.83 4.64z"/><path d="m43 94.21c-.76.5-1.33.55-1.73.15l-.16-.92v-.57a8.71 8.71 0 0 0 1.45-2.68 16.78 16.78 0 0 0 1.09-3.48c.14-.9.25-2 .33-3.25a13.26 13.26 0 0 0 -.31-3.72l-5.73 2.66a15.7 15.7 0 0 1 0 3.19 22.83 22.83 0 0 1 -.61 2.89l-.44.6a6.57 6.57 0 0 0 -1.25 0l-.57-1.08v-.81q.63-1.41.65-6.33a1.42 1.42 0 0 1 1.2-.8l.38.25a79.08 79.08 0 0 0 7.27-3.47 2.22 2.22 0 0 1 1.09.55l.14.34c.15.6.28 1.27.39 2a17.37 17.37 0 0 1 .17 2.53v2.48a15.57 15.57 0 0 1 -.36 2.4q-.28 1.33-.75 2.91a12.59 12.59 0 0 1 -1 2.44 16 16 0 0 1 -1 1.52zm3-18.43-1 .22-1.13-.44a3.54 3.54 0 0 1 -2.07-1.8 2.78 2.78 0 0 1 1.17-.79 7.57 7.57 0 0 1 3.36 1.55l.07.7zm2.64-2.3a6.14 6.14 0 0 1 -1.54.1l-.85-.58a8 8 0 0 1 -1.75-1.83v-.32l.4-.59.76-.3 1.07.41a16.25 16.25 0 0 1 2.11 2.09l.16.54z"/><path d="m55.78 82.77a4 4 0 0 1 -1.88 0c-1.61-2.08-2.44-3.34-2.47-3.76l.66-.89 1 .11.65.25a23.8 23.8 0 0 1 2.38 3.4zm3.1-1.45h-.71l-1.07-.41-1.92-4 .29-.64.7-.4 1 .06a3.15 3.15 0 0 1 1 1l1.17 3.4zm2.55 4.84a2.26 2.26 0 0 1 -1.36-.16l-.4-.49v-.27a9.64 9.64 0 0 0 1.44-2.43 6 6 0 0 0 .41-3 21.64 21.64 0 0 0 -.88-4l.7-.92.54-.42.72.12a1.11 1.11 0 0 1 .6.82 14.76 14.76 0 0 1 .91 3.51 7.65 7.65 0 0 1 -.11 2.08 13.13 13.13 0 0 1 -.47 1.8 8.61 8.61 0 0 1 -2.12 3.33z"/><path d="m72.1 82-.69-.28-.82-.86.37-.47.63-1.21.44-.75c.2-.62.47-1.49.78-2.62s.6-2.4.87-3.85a22.05 22.05 0 0 0 .4-4.22l-5.08 2.89a7.4 7.4 0 0 1 -1.35.28 3.67 3.67 0 0 1 -1.06-1.15q1.38-.9 8.15-5.15a9 9 0 0 1 1.55 0l.39.68a18.52 18.52 0 0 1 0 2.47c-.07.83-.25 2.29-.54 4.41a12.34 12.34 0 0 0 1.42 1 22.68 22.68 0 0 0 2.34 1 7 7 0 0 0 3.41.55l1-.31a1.37 1.37 0 0 1 .74.67.74.74 0 0 0 -.06.68 4.61 4.61 0 0 1 -1.44.87 5 5 0 0 1 -2.69.19 17.29 17.29 0 0 1 -5-2.21c-.28.87-.53 1.66-.74 2.38s-.43 1.43-.66 2.13a8.23 8.23 0 0 1 -1 2.11zm8.09-17.63a11.29 11.29 0 0 1 -1.26.14l-1-.39a9 9 0 0 1 -2-2 .8.8 0 0 1 .66-.74l.51-.13a2.79 2.79 0 0 1 1.64.44l.48.21a5.16 5.16 0 0 0 1.28 1.14v.59.4zm1.28-3.37a10.61 10.61 0 0 1 -2.78-.59l-.63-.71v-.4l.46-.61.76-.3 2.59.54.44.18.37.81-.29.67z"/><path d="m98.31 72.19-1-.24a4.6 4.6 0 0 1 -1.67-2.22 11.35 11.35 0 0 0 -1.34-2.59 7.8 7.8 0 0 0 -1.3 1.07l-.34.74.19.47a15.93 15.93 0 0 0 1 1.43c.36.45.71.9 1 1.36l-.17.27.06.33-.72.48a2.74 2.74 0 0 1 -1.33-.23l-.44-.23a13.38 13.38 0 0 1 -1.29-1.61 16.07 16.07 0 0 1 -.96-1.81 2 2 0 0 1 -.2-1.71l.56-.5.71-.13a8.47 8.47 0 0 1 2.32-2.22l-.14-.68-.28-.37a7.87 7.87 0 0 1 -2.85.17l-.21.49-.63.32h-.44l-.27-.17a2.55 2.55 0 0 1 -1-.9 7.71 7.71 0 0 0 -.43-1.07c-.16-.87-.3-1.77-.43-2.67s-.24-1.82-.32-2.75a3.51 3.51 0 0 1 .8-.92 1.62 1.62 0 0 1 1.14.08l.43.39.38.6c0 .53.05 1.06.08 1.6a.76.76 0 0 0 .64-.12l1.1-.71a4.21 4.21 0 0 1 -.32-1.71 6.58 6.58 0 0 1 .71-.61h.64a1.19 1.19 0 0 1 .83.7l.7.76a10 10 0 0 0 1.48-.65h.59l.58.78a4.6 4.6 0 0 1 -2 1.88l.12.63.27.17 1-.11a8.57 8.57 0 0 1 1.53-1.24l.23.26h.44l.41.52.22.24-.52 1.11a6.79 6.79 0 0 1 -1.5.92l-.26.05a1.09 1.09 0 0 0 -.65.66l.3.89a21.89 21.89 0 0 0 4-1.31l1.18.16a3.23 3.23 0 0 1 .69.74 4.12 4.12 0 0 0 0 2.62 4.69 4.69 0 0 1 .09 2.62 1.59 1.59 0 0 1 -.86.55 2.28 2.28 0 0 1 -1.5-.09l-.36-.42a4.63 4.63 0 0 0 0-1.78 14.13 14.13 0 0 0 -.44-1.82l-.5.15c-.42.33-.84.68-1.26 1a1.86 1.86 0 0 0 .25.93 6.43 6.43 0 0 1 .94 1.87l.05.33.24.24.06.33a2.56 2.56 0 0 1 .54.67l.59.8-.19.6-.54.36zm-7.93-9.57c.55-.4 1.08-.81 1.6-1.24l-.28-.84-.86.26-.82.53h-.27a2.62 2.62 0 0 0 .15 1.46zm14.86.13h-.37l-.21.16-1.17-.15-.3-.44a4.66 4.66 0 0 1 -1.66-2.09v-.31l-.16-.21-.72-2.52a6.65 6.65 0 0 1 -.48-2.12 1.39 1.39 0 0 1 1-.76l1 .36a4.47 4.47 0 0 1 1.15 2.22l.18.45.14.65a21.62 21.62 0 0 1 .86 2.19 14.58 14.58 0 0 0 1 1.31.86.86 0 0 1 0 .89zm5.79 5c-.86 0-1.74 0-2.61 0a8.8 8.8 0 0 1 -2.63-.37 1.06 1.06 0 0 1 -.57-.74v-.61l.66-.26.71.07.28.14a3.91 3.91 0 0 0 2 0 11.49 11.49 0 0 0 -.5-1.87c-.22-.62-.43-1.26-.64-1.92a24.33 24.33 0 0 1 -2.27-6.46c-.19-.69-.4-1.4-.63-2.11a11.46 11.46 0 0 1 -.48-2.11 3.7 3.7 0 0 1 .91-.69 1.07 1.07 0 0 1 .9.25l.81.44.3.76a16.91 16.91 0 0 0 .88 2.93 15.6 15.6 0 0 1 .73 2.38l.19.28a10.29 10.29 0 0 0 .65 2.34 26.88 26.88 0 0 1 2 5.21 3.39 3.39 0 0 1 .21 1.76 2.69 2.69 0 0 1 -.93.6z"/><path d="m120.73 64.7-1.06-.06a3.9 3.9 0 0 1 -1.58-2.1 57.56 57.56 0 0 0 -2.57-6.11l-.64 2a2 2 0 0 1 -.86.82l-.55-.06-.3-.56c.11-1.22.24-2.43.39-3.62a33.36 33.36 0 0 0 .25-3.64l.19-.22c0-1 0-2 0-3a15.55 15.55 0 0 1 .12-3.05l.49-.54a2.18 2.18 0 0 0 1.13.1l.58.58a44.4 44.4 0 0 0 -.27 4.62 11.31 11.31 0 0 0 1 4.59l.2.19a23.12 23.12 0 0 0 1.82 3.9l.15.9a1.09 1.09 0 0 1 .53.82l.16.74.34.55.06.33a5.33 5.33 0 0 0 1 1.69l-.16.81zm9.17-4-.88-.13a4.68 4.68 0 0 1 -1.27-2q-1.34-3.63-2.56-7.31l-.2-.2a39.24 39.24 0 0 0 -1.36-4l-.52.08a17.78 17.78 0 0 0 -1.64 1.61v.87l-.19.41c-.06.52-.12 1.06-.15 1.59a7.85 7.85 0 0 1 -.31 1.59 2.93 2.93 0 0 1 -1 .86l-.75-.11-.5-.43.08-.64.3-.52a29.31 29.31 0 0 0 .34-4.94 36.24 36.24 0 0 1 .24-4.89l.76-.5h.55l.26.3c.2 0 .32.16.37.41a7.88 7.88 0 0 0 .06 3c.46-.2.92-.38 1.38-.55 1.65-.78 3.32-1.56 5-2.32q1.26-.82 2.61-1.56l.81.13.18.28.3.24v.62a3.91 3.91 0 0 1 -1.11 1.19l-1.12.29-.23.24-.74.42a11.15 11.15 0 0 0 -2.83 1.4v.45l.21.33.06.85.64 1.11.37-.07.25-.25.44-.1c.54-.26 1.08-.53 1.63-.82a11.65 11.65 0 0 1 1.75-.71l.75.11.33.14.28.57-.29.67-1.17.67-.38.07c-.55.27-1.1.54-1.65.83a3.91 3.91 0 0 0 -1.36 1.11 5.2 5.2 0 0 0 .23 1.68l.16.21v.31l.52.82a15.15 15.15 0 0 1 1.64-1c.52-.27 1-.54 1.57-.8a4.31 4.31 0 0 1 1.14-.77h.72a.81.81 0 0 1 .65.63l.14.37a7.87 7.87 0 0 1 -2.47 1.84 10.59 10.59 0 0 0 -2.58 1.76l.22 1.07.16.22.16.77.63 1.23-.06.36z"/></g></svg>