<svg id="レイヤー_1" data-name="レイヤー 1" xmlns="http://www.w3.org/2000/svg" viewBox="0 0 94.87 75.31"><defs><style>.delivery_item_13-1{fill:#ffff93;}.delivery_item_13-2{fill:#ff7bac;}</style></defs><path class="delivery_item_13-1" d="M23,73.35c21.79,3.06,43.76-7.88,58.91-23.85,5.26-5.54,10-12,11.23-19.57a24.06,24.06,0,0,0-8-21.66c-9.38-8-23.2-7.49-35.4-5.62h0c-12.63,1.94-23.9,3.46-36.32-.14.55,7.5,1.88,14.2-1.27,21.37C10,28.8,6.41,33,4.3,38-3,55.2,3.83,70.66,23,73.35Z"/><path class="delivery_item_13-1" d="M22.56,74.79C34.9,76.48,47.26,74,58.43,68.6A81.89,81.89,0,0,0,87.48,45.27c3.76-4.87,6.68-10.47,7.28-16.67a25.46,25.46,0,0,0-4.29-16.54c-7-10.3-19.75-12.64-31.4-12-7.21.43-14.29,2-21.48,2.65a63.62,63.62,0,0,1-23.8-1.7,1.51,1.51,0,0,0-1.9,1.45c.54,7.05,1.79,14.32-1.25,21a98,98,0,0,1-5.22,9A41.25,41.25,0,0,0,1.51,41.2C-1.36,50.35-.44,60.94,6.87,67.8c4.28,4,9.94,6.16,15.69,7,1.89.28,2.7-2.61.8-2.89-4.84-.71-9.73-2.27-13.52-5.46A19.22,19.22,0,0,1,3.45,55.87,27,27,0,0,1,4.41,42,38.44,38.44,0,0,1,8.23,33.7a91,91,0,0,0,5-8.67A27.39,27.39,0,0,0,15.64,14c.06-3.83-.46-7.64-.75-11.45L13,4A62,62,0,0,0,33.05,6.1c6.38-.32,12.66-1.42,19-2.28,10.62-1.46,23.34-1.9,32,5.51a22.55,22.55,0,0,1,7.68,14.5c.65,5.81-1.18,11.34-4.24,16.22A63.87,63.87,0,0,1,75.55,53.53a80.92,80.92,0,0,1-14.3,10.22c-11.44,6.42-24.76,9.94-37.89,8.15a1.56,1.56,0,0,0-1.85,1A1.51,1.51,0,0,0,22.56,74.79Z"/><path class="delivery_item_13-2" d="M36.06,45.35l-.66-.17-.48-.48L28,46.16a4.23,4.23,0,0,1-1.33.11,1.57,1.57,0,0,1-.78-.94l.42-.57,1-.33,7.5-1.7c-.4-2.41-.68-4.24-.86-5.51l-.42-3.09-8.73,1.73a2.08,2.08,0,0,1-1-.33l-.36-.64.24-.37a4.53,4.53,0,0,1,1.77-.74l8.66-1.7a2.24,2.24,0,0,1,1.45.07l.31.65A18.12,18.12,0,0,0,36,36.72q.31,2.33,1,5.72A4.21,4.21,0,0,1,36.84,45Z"/><path class="delivery_item_13-2" d="M43.92,32l-.63-.6a.72.72,0,0,1-.1-1q5.72-1.2,11.36-1.94l.93.45.19.76-.45.59q-4.84.61-10.63,1.7Zm6,11.62-.6-.35-.42-.16-.11-.38,2.09-1.43A8.46,8.46,0,0,0,53.12,39a9.43,9.43,0,0,0,1.32-3.7q-3.69.69-9.52,2a5.36,5.36,0,0,0-.87-.25,10.41,10.41,0,0,1-.56-.93l.43-.59c.57-.16,1.56-.39,3-.68l5.25-1.05,3.53-.68a1.37,1.37,0,0,1,.71.31,1.18,1.18,0,0,1,.34,1.2c-.11.63-.27,1.37-.49,2.22a10.78,10.78,0,0,1-3.63,5.45A5.5,5.5,0,0,1,49.94,43.64Z"/><path class="delivery_item_13-2" d="M77.63,40.56a8.82,8.82,0,0,1-1.37-.46A18.3,18.3,0,0,1,73.33,38c-1.52.42-3,.85-4.33,1.28s-2.82.86-4.37,1.28a1.49,1.49,0,0,1-.9-.29l-.36-.6c.6-1.54,1.17-2.9,1.7-4.08s1.09-2.54,1.65-4.09,1.07-2.93,1.52-4.15l.64-.19a1.18,1.18,0,0,1,1.07.6l.09.52c-.32.89-.75,2.12-1.27,3.71a53.33,53.33,0,0,1-2.54,6c1-.29,2-.57,3-.83s2-.5,3-.7a4.76,4.76,0,0,1-1.29-2.51,1.34,1.34,0,0,1,1-.45l.76.31c.74,1,1.34,1.68,1.78,2.2a19.52,19.52,0,0,0,1.65,1.7,5.78,5.78,0,0,0,2,1.27l.43-.14.2.84A1,1,0,0,1,77.63,40.56Z"/></svg>