<svg id="レイヤー_1" data-name="レイヤー 1" xmlns="http://www.w3.org/2000/svg" viewBox="0 0 49.58 21.96"><defs><style>.expand_etc-1{fill:#fff;}</style></defs><path class="expand_etc-1" d="M2.62,17.25a12.37,12.37,0,0,0,5.09-1.11,5.21,5.21,0,0,0,2.7-3.53,3.84,3.84,0,0,0-1.88-4A4.8,4.8,0,0,0,4,8.48a7.67,7.67,0,0,0-4,7.36,6.29,6.29,0,0,0,4.68,6c2.8.58,6-.72,6.89-3.62a1.12,1.12,0,0,0-2.17-.59,2.69,2.69,0,0,1-1.29,1.57,4.23,4.23,0,0,1-2.22.54,3.36,3.36,0,0,1-1.14-.21,3.93,3.93,0,0,1-.89-.46,4.16,4.16,0,0,1-1.46-2.32,5.78,5.78,0,0,1,1.46-5.42,3.3,3.3,0,0,1,2.72-1.1,1.9,1.9,0,0,1,1.62,1.38,2.71,2.71,0,0,1-1.41,2.48A9.27,9.27,0,0,1,2.62,15a1.13,1.13,0,1,0,0,2.25Z"/><path class="expand_etc-1" d="M13.71,11.28a14.67,14.67,0,0,0,7.88-4.45,1.15,1.15,0,0,0,0-1.59,1.13,1.13,0,0,0-1.59,0,12.42,12.42,0,0,1-6.89,3.87,1.13,1.13,0,0,0,.6,2.17Z"/><path class="expand_etc-1" d="M15.93,4.1A36.24,36.24,0,0,0,16,9.9a17.62,17.62,0,0,0,1,5.25,3.63,3.63,0,0,0,3.35,2.45A2.76,2.76,0,0,0,23.2,15,1.13,1.13,0,0,0,21,15c0,.09-.05.15,0,.06s-.12.08,0,0c-.11,0-.12.11-.22.14a1,1,0,0,1-.79,0c-.84-.43-1.07-1.69-1.23-2.51a32.75,32.75,0,0,1-.49-8.67A1.13,1.13,0,0,0,17.06,3,1.16,1.16,0,0,0,15.93,4.1Z"/><path class="expand_etc-1" d="M33.44,1.25a4.27,4.27,0,0,0-4.8.2,6.55,6.55,0,0,0-2.46,4.79c-.35,3.12,1,7.27,4.66,7.4A3.76,3.76,0,0,0,34.71,11c.34-1.41-1.83-2-2.17-.6,0,.05-.09.31,0,.14a1.08,1.08,0,0,1-.15.28c.1-.15-.08.09-.13.13a.63.63,0,0,1-.12.11c.1-.07,0,0,0,0a2.12,2.12,0,0,1-1,.31h-.34c-.2,0,.05,0-.15,0a1.64,1.64,0,0,1-.58-.19,2.67,2.67,0,0,1-1-1,5.91,5.91,0,0,1-.64-3.22,5.07,5.07,0,0,1,1.11-3.26,2.55,2.55,0,0,1,1.43-.79,1.73,1.73,0,0,1,1.38.32,1.13,1.13,0,0,0,1.54-.41,1.15,1.15,0,0,0-.4-1.54Z"/><path class="expand_etc-1" d="M38.82,5.83a1.13,1.13,0,0,0,0-2.25,1.13,1.13,0,0,0,0,2.25Z"/><path class="expand_etc-1" d="M43.06,4.62h.6a.84.84,0,0,0,.44-.1.77.77,0,0,0,.36-.23.77.77,0,0,0,.23-.36,1,1,0,0,0,.1-.44l0-.29a1.14,1.14,0,0,0-.29-.5l-.23-.18a1.1,1.1,0,0,0-.57-.15h-.6a.84.84,0,0,0-.44.1.82.82,0,0,0-.36.23.86.86,0,0,0-.23.36.94.94,0,0,0-.1.43l0,.3a1.2,1.2,0,0,0,.29.5l.23.18a1.16,1.16,0,0,0,.57.15Z"/><path class="expand_etc-1" d="M47,.56v0A.42.42,0,0,0,47,.73l-.07.14a1.32,1.32,0,0,0,0,.34,1.09,1.09,0,0,0,.17.63h0l.18.23h0v0a1.57,1.57,0,0,0,.26.19,1.69,1.69,0,0,0,.31.13h.06l.32,0h.1l.34,0h.07l.27-.12h0l0,0,.22-.18h0a2,2,0,0,0,.18-.23h0a1.51,1.51,0,0,0,.13-.29v0s0-.28,0-.15,0-.11,0-.15h0a.93.93,0,0,0,0-.34A1.13,1.13,0,0,0,49.4.56a.89.89,0,0,0-.29-.32.91.91,0,0,0-.39-.2.82.82,0,0,0-.44,0,.9.9,0,0,0-.42.13l-.23.18a1.1,1.1,0,0,0-.29.5l0,.3a1.09,1.09,0,0,0,.15.56s0,0,0,0l-.11-.27a.06.06,0,0,1,0,0l0-.3v0l0-.3a0,0,0,0,1,0,0l.12-.27,0,0,.18-.23,0,0,.23-.18-.05,0,.27-.11L48,.27l.3,0h-.13l.3,0-.09,0,.27.11,0,0,.22.17,0,0L49,.71a0,0,0,0,1,0,0l.11.27v0l0,.3v0l0,.3a.06.06,0,0,1,0,0L49,1.73s0,0,0,0a.91.91,0,0,0,.14-.42,1,1,0,0,0,0-.45,1,1,0,0,0-.21-.38.79.79,0,0,0-.31-.29L48.29.05a1,1,0,0,0-.6,0l-.27.11a1.1,1.1,0,0,0-.4.4Z"/></svg>