<svg id="レイヤー_1" data-name="レイヤー 1" xmlns="http://www.w3.org/2000/svg" viewBox="0 0 150.17 127.85"><defs><style>.cls-1{fill:#ffff5a;}.cls-2{fill:#dfb1ff;}</style></defs><path class="cls-1" d="M12.09,49.59C8.9,36.06,12.4,20.53,22.91,11.42s28.15-9.73,37.82.26A36.39,36.39,0,0,1,96.53,3.1a36.39,36.39,0,0,1,24.26,27.7c.3,1.66.52,3.44,1.59,4.74,1.27,1.54,3.38,2,5.29,2.57,13.47,4,22.84,18.73,20.81,32.65S133.27,96.08,119.21,96.1C121,104,113.5,110.67,106.64,115c-9.49,5.92-19.93,11.24-31.11,11.39s-23.16-6.32-26-17.14c-7.87,7.71-21.25,5.75-30.64,0-8.92-5.47-16.47-15.6-14-25.78C5.32,81.5,6.12,79.63,6,77.66,5.9,75.16,4.34,73,3.25,70.73c-4.51-9.34,0-22,9.43-26.33"/><path class="cls-1" d="M13.54,49.2c-2.42-10.48-.85-22.09,5.32-31A28.58,28.58,0,0,1,45,6a23.47,23.47,0,0,1,14.65,6.73,1.53,1.53,0,0,0,2.12,0,34.09,34.09,0,0,1,55.48,11.39A36.71,36.71,0,0,1,119.48,32c.55,3,1.77,5.36,4.73,6.59,2.5,1,5.12,1.56,7.54,2.84a28.05,28.05,0,0,1,6.44,4.69c7.53,7.32,11.11,18.58,7.79,28.73-3.68,11.25-14.9,19.68-26.77,19.78a1.52,1.52,0,0,0-1.45,1.89c1.15,5.51-2.86,10.2-6.78,13.51a74.55,74.55,0,0,1-16,9.72c-10.48,5-22.84,7.49-33.52,1.66-5-2.72-9-7-10.53-12.57a1.52,1.52,0,0,0-2.51-.67c-4.82,4.62-11.8,5.37-18.1,4a34.14,34.14,0,0,1-18.08-10.37,25.17,25.17,0,0,1-5.51-9.1,17.3,17.3,0,0,1,0-10.44,12.52,12.52,0,0,0,.61-6A20.2,20.2,0,0,0,5,70.91a17.42,17.42,0,0,1-2-8.84A19,19,0,0,1,13.44,45.7c1.74-.83.22-3.42-1.52-2.59A21.62,21.62,0,0,0,.37,58.76a21.21,21.21,0,0,0,.48,9.95,29.85,29.85,0,0,0,2.28,5,8.34,8.34,0,0,1,1.08,6.43,33.05,33.05,0,0,0-1.29,6.22,19.31,19.31,0,0,0,.51,5.52,26.56,26.56,0,0,0,5.33,10.4,36.81,36.81,0,0,0,19,12.35c7.83,2.1,16.7,1.45,22.79-4.38l-2.51-.67c3.1,11.31,14.91,17.84,26.07,18.23,7,.24,14-1.77,20.38-4.59a81.46,81.46,0,0,0,17.84-10.51c5.16-4.14,9.75-10,8.3-17l-1.45,1.9c11.42-.1,22.24-7.08,27.58-17.11,5.45-10.23,4.11-22.63-2.59-32A31.52,31.52,0,0,0,131.38,37.9a34.1,34.1,0,0,0-4-1.45c-1.36-.4-3-.78-3.89-2s-1-3-1.28-4.44a33.45,33.45,0,0,0-1.08-4.19,38.15,38.15,0,0,0-23.47-24c-13-4.45-28.17-.8-37.95,8.74h2.12C54,2.67,41.54,1.08,31.33,4.83c-11,4-18.3,14-20.81,25.23A45.14,45.14,0,0,0,10.64,50c.44,1.88,3.33,1.09,2.9-.79Z"/><path class="cls-2" d="M36.46,61.05l-.92-.64a5.11,5.11,0,0,1-.8-2.91,12.51,12.51,0,0,0-.31-3.13,7.47,7.47,0,0,0-1.73.56l-.63.61v.55A17.43,17.43,0,0,0,32.55,58q.27.88.51,1.77l-.28.21-.08.35-.91.21a2.9,2.9,0,0,1-1.25-.77l-.35-.4a16.36,16.36,0,0,1-.66-2.13,18.37,18.37,0,0,1-.38-2.26,2.15,2.15,0,0,1,.48-1.81l.76-.28.76.16a8.9,8.9,0,0,1,3.23-1.32l.12-.74-.12-.48a8.62,8.62,0,0,1-3-1L31,49.9l-.76.07-.43-.2-.2-.28a2.82,2.82,0,0,1-.69-1.32,6.42,6.42,0,0,0,0-1.24c.19-1,.4-1.91.62-2.87s.49-1.93.78-2.9a3.61,3.61,0,0,1,1.17-.6,1.71,1.71,0,0,1,1.11.53l.28.56.16.76c-.19.54-.38,1.09-.56,1.65a.86.86,0,0,0,.68.13l1.4-.28a4.85,4.85,0,0,1,.35-1.86,10.1,10.1,0,0,1,1-.33l.63.26a1.25,1.25,0,0,1,.56,1l.41,1a11.18,11.18,0,0,0,1.83,0l.61.2.28,1a5,5,0,0,1-2.72,1.11l-.13.69.2.28,1,.28a9.77,9.77,0,0,1,2-.64l.12.36.44.2.2.69.13.33-1,.91a7.41,7.41,0,0,1-1.88.33l-.28,0a1.16,1.16,0,0,0-.91.41l0,1a24.15,24.15,0,0,0,4.59.28l1.12.64a3.83,3.83,0,0,1,.41,1,4.36,4.36,0,0,0-1.08,2.63,5.28,5.28,0,0,1-1,2.68,1.71,1.71,0,0,1-1.1.2A2.42,2.42,0,0,1,39,58l-.2-.56a5,5,0,0,0,.76-1.78,14.17,14.17,0,0,0,.28-2l-.56,0c-.56.16-1.12.34-1.68.53a2,2,0,0,0-.12,1,7.11,7.11,0,0,1,.2,2.26l-.08.35.16.33-.08.36a2.9,2.9,0,0,1,.28.89l.28,1-.43.53-.69.16Zm-4.19-12.8c.71-.19,1.41-.39,2.11-.61l0-1-1-.07-1,.2-.28-.08a2.81,2.81,0,0,0-.43,1.53Zm14.93,6-.36-.2-.28.07-1.11-.6L45.32,53a5.1,5.1,0,0,1-.84-2.77l.08-.33-.08-.28.28-2.82a7.08,7.08,0,0,1,.36-2.33,1.46,1.46,0,0,1,1.32-.36l.88.76a4.87,4.87,0,0,1,.28,2.69v.54l-.12.71a21.52,21.52,0,0,1,0,2.54A16.15,16.15,0,0,0,48,53.07a.92.92,0,0,1-.36.89ZM51,61.65l-2.65-1a9.31,9.31,0,0,1-2.5-1.42,1.15,1.15,0,0,1-.28-1l.28-.61h.76l.68.35.23.26a4.32,4.32,0,0,0,2,.76A13,13,0,0,0,49.8,57c0-.71.06-1.44.11-2.19a26.71,26.71,0,0,1,.28-7.41q.14-1.17.21-2.37a13.48,13.48,0,0,1,.35-2.33,4,4,0,0,1,1.2-.33,1.18,1.18,0,0,1,.81.61l.63.76v.89a19.86,19.86,0,0,0-.28,3.3,16.09,16.09,0,0,1-.2,2.69l.08.36a11.44,11.44,0,0,0-.28,2.62,29,29,0,0,1-.08,6,3.57,3.57,0,0,1-.48,1.85A2.8,2.8,0,0,1,51,61.65Z"/><path class="cls-2" d="M60.91,63.66l-.23-.28-.28-.13-.69-.76a11.48,11.48,0,0,1-.2-2.13c0-2.86,0-5.71.08-8.56a5.36,5.36,0,0,1-.23-1.93v-.68c0-1,.09-1.93.11-2.88a25.54,25.54,0,0,1,.24-2.81L59,42.74v-.69a5.75,5.75,0,0,1,3.14-.89,26.85,26.85,0,0,0,3.39-.2c.69.09,1.41.15,2.15.19a3.5,3.5,0,0,1,2,.7l.2.74a5.6,5.6,0,0,1-1.39,1.85c-.51.46-1,.88-1.49,1.27a7.13,7.13,0,0,0-1.28,1.35,12,12,0,0,1,1.45,1.24,7.1,7.1,0,0,1,.63,3.35,9.5,9.5,0,0,1-.49,1.85,4.07,4.07,0,0,1-1.11,1.58l-.35.15a4.23,4.23,0,0,1-2.29.48l-1-.23a6.28,6.28,0,0,0-.23,1.73l.15,1a2,2,0,0,0-.15,1,23.65,23.65,0,0,0,0,3.15l-.49.89h-.4ZM62.43,46l2.44-2.29-1.27-.33-1.32.28L62.15,46Zm1.24,7.54a4.12,4.12,0,0,0,1.12-2.26A4.36,4.36,0,0,0,64.16,49a3.7,3.7,0,0,0-1.45-.4l-.36-.23-.2.28.08.56-.08.33c.05,1.13.09,2.26.13,3.37l.15.54A1.84,1.84,0,0,0,63.67,53.58Zm7.44,7.87A5.15,5.15,0,0,1,69.67,61a1.83,1.83,0,0,1-.36-1.52q.12-1.65.36-3.3,0-4.59,0-9.11c.13-.78.29-1.54.48-2.26L70.07,44a9.87,9.87,0,0,1,1.32-2.33c1-.27,2-.52,3-.75a20.33,20.33,0,0,1,3-.47l2,.2.41.21a.68.68,0,0,1,.76.33l.28.76a19.16,19.16,0,0,0-.54,3.22l.06.28c-.09.51-.16,1-.21,1.58l.08,1.09-.48,1.65-.36.35a.56.56,0,0,0-.63.26l-.33.35a2,2,0,0,1-1.2.21c-.62,0-1.25,0-1.88,0q-1.32.2-2.64.48l-.28.61c-.05,1-.07,2-.07,3a6.32,6.32,0,0,0,.15,2.13,12.76,12.76,0,0,1,2.36-.68v-.28a15.93,15.93,0,0,1-1.12-1.82,5.1,5.1,0,0,1-.55-2l.48-.48,1.19-.08.91.41.33.28a7.12,7.12,0,0,0,.72,1.24l.28.08a5.58,5.58,0,0,0,1.65-1l1-1,.76-.15,1.17.48.15.89-.36.89a11.19,11.19,0,0,1-2.56,1.85l-.36.21-.12.43a8.85,8.85,0,0,0,2.08,2.06,11.37,11.37,0,0,1,2,1l-.12,1.17a2.52,2.52,0,0,1-1.32.2h-.51a15.9,15.9,0,0,1-1.83-.75,10.85,10.85,0,0,1-1.7-1l-.92-.68a7.13,7.13,0,0,1-1.62.9,4.7,4.7,0,0,0-1.57,1l-.28.2a3.81,3.81,0,0,1-1,.81Zm2.8-12.62a12.86,12.86,0,0,0,2-.25l1,.05a1.15,1.15,0,0,0,.23-1L77,47.33a16.17,16.17,0,0,0-3.68.08l-.41-.08a1.94,1.94,0,0,0-.27,1.5l.48.21.61-.21Zm3.2-4c.08-.33.17-.65.27-1l-.07-.48.07-.41H77l-.63.08a8.8,8.8,0,0,1-2.41.61l-1.12.2-.15,1a2,2,0,0,0,1,.12l2.1-.12.61.07Z"/><path class="cls-2" d="M94.79,60.28a2.38,2.38,0,0,1-1.17-.66L93.24,59,93,58l.18-.64a1.2,1.2,0,0,0,1.07-.23,17.8,17.8,0,0,0,1.19-3.32,8.81,8.81,0,0,0,.25-2.9,1.26,1.26,0,0,0-.45-.39,1.24,1.24,0,0,0-.69-.06l-1.4.07q-.81,2-1.2,3.24c-.27.84-.62,1.89-1.08,3.16L90,58.33a3.93,3.93,0,0,1-1.5.13l-.45-.39L87.78,57a32.64,32.64,0,0,0,1.45-3.1c.34-.86.67-1.88,1-3-1.86.21-3.14.08-3.83-.38-.14-1.06.18-1.66.94-1.77,1.64-.07,2.83-.13,3.58-.18a19,19,0,0,1,1.55-3.91A1.05,1.05,0,0,1,94,44.31a1.43,1.43,0,0,1,.56,1.53l-.64,2.33q1.13.11,2.1.15a2.91,2.91,0,0,1,1.79.77,6.72,6.72,0,0,1,.51,2.31,9.47,9.47,0,0,1-.46,3.45c-.37,1.13-.83,2.31-1.37,3.53l-.38.58a1.55,1.55,0,0,1-.36.87A1.47,1.47,0,0,1,94.79,60.28Zm13-5.89-1-.4a6.89,6.89,0,0,1-1.65-1l-2.55-2a15.21,15.21,0,0,1-2.22-1.93l-.36-.4-.28-.56.44-.69.76-.1c.47,0,1.64.67,3.5,2.07a30.17,30.17,0,0,0,3.28,2.3l.76.61.13.4.12.43-.33.89-.28.13Zm-3.93-7.74a11.07,11.07,0,0,1-2.36-2.06l-.56-.68a1.49,1.49,0,0,1,.07-1,1.41,1.41,0,0,1,1-.2,6.47,6.47,0,0,1,3.6,3.07l.08.64-.63.27A1.3,1.3,0,0,1,103.88,46.65ZM107.61,44l-.48-.28-2-1.77a1.38,1.38,0,0,1-.4-1l.4-.48,1.12-.15,1.45.76A6.78,6.78,0,0,1,108.93,43c.09.56,0,.84-.35.86C108.44,44.17,108.12,44.2,107.61,44Z"/><path class="cls-2" d="M36.51,90.47A1.83,1.83,0,0,1,34.74,90a2.39,2.39,0,0,1,.15-1.42,14.09,14.09,0,0,1,2-2,12.59,12.59,0,0,0,2.71-4.2l-3.25-2.11-1.21,1.78c-.55.56-1,.74-1.5.56-.29.13-.64,0-1-.41a2.31,2.31,0,0,1,.28-1.7A29.49,29.49,0,0,0,35,76.77a39,39,0,0,0,1.91-5.35l.76-.07a.89.89,0,0,1,.91.46l1,.83,1.24,0c1.66.57,2.86,1,3.61,1.39a4,4,0,0,1,.51,1.66,25.94,25.94,0,0,1-1.43,4.57c-.62,1.5-1.33,3-2.1,4.59a14,14,0,0,1-2.82,3.92A8.66,8.66,0,0,1,36.51,90.47Zm4-10.26a12,12,0,0,0,1.6-4.14l-3.3-1.24c-.52,1.27-1,2.37-1.47,3.32ZM47.28,92.3a3.06,3.06,0,0,1-1.4-1.5q-.27-6.45.08-13.08c.23-4.42.42-7.08.56-8a1.05,1.05,0,0,1,1-.35l.48.28A4.71,4.71,0,0,1,48.88,72l-.46,7.47a29,29,0,0,0,7,2.66l.56.41.28.48-.28.41-.74.74a18.25,18.25,0,0,1-6.83-1.91,53.6,53.6,0,0,0,.18,7.77l-.08.33.13.84-.41.46A3.07,3.07,0,0,1,47.28,92.3Z"/><path class="cls-2" d="M65.05,90.52a1.6,1.6,0,0,1-.28-.94l0-4.65-1.65.89a1.72,1.72,0,0,1-1.17.41L61.62,86l-.88-.4a4.48,4.48,0,0,1-.18-1.32l4.19-3.71V75.72l-3.23.33-1.09.55-1.35-1.11-.27-1.73L64.75,73l.17-3.45c.14-.41.6-.54,1.38-.41l.86.56,0,3L72.69,72l.46.38A3.86,3.86,0,0,1,73.51,74c-.36.63-.82,1.35-1.39,2.15s-1.19,1.66-1.89,2.58a39.77,39.77,0,0,0,5.31-1.81,1.59,1.59,0,0,1,1.52.28,2.35,2.35,0,0,1,.26,1.37c-.33.87-.62,1.72-.88,2.57s-.5,1.73-.7,2.64l-.1,1.85a6,6,0,0,0,.63,1.48,2,2,0,0,0,1.48.3L79,87.27,80.36,87l.61.35.2.61a2.12,2.12,0,0,1-.88,1.1,9.38,9.38,0,0,0-1.27.63,5,5,0,0,1-1.86.33,4,4,0,0,1-3.22-1.45,5.59,5.59,0,0,1-1-2.64,21.74,21.74,0,0,1,.61-5,27.62,27.62,0,0,0-6.27,2.64V89.5l.05.56-.66,1C66.13,91.55,65.61,91.36,65.05,90.52Zm4.11-14.63L70,74.83l-2.77.38,0,2.59Z"/><path class="cls-2" d="M93.62,91.15a4.15,4.15,0,0,1-2.29-1.81,3.36,3.36,0,0,1,3.25-5,3.29,3.29,0,0,1,2.48,1,3.64,3.64,0,0,1,.52,2.72,3.75,3.75,0,0,0,1.58-2,3.53,3.53,0,0,0,0-2.5c-.29-.82-1.15-1.43-2.6-1.83a7.1,7.1,0,0,0-4.56.34L89.76,83l-.54-1-.1-.66a2.45,2.45,0,0,1,.43-.92l.44-.33,8.07-6.8-7.24.81a4.09,4.09,0,0,1-1.93-.15L88,73l-.22-.71L88,72l.72-.33q.93-.23,11.42-.91l1.42.53a2.47,2.47,0,0,1-.38,2.29c0,.29-1.93,2.06-5.79,5.33a8.61,8.61,0,0,1,4.5,1.54,5.92,5.92,0,0,1,1.88,2.4,5.43,5.43,0,0,1,.14,2.9,6.85,6.85,0,0,1-1.36,3,6.22,6.22,0,0,1-2.24,1.85,6.88,6.88,0,0,1-2.13.65A10.43,10.43,0,0,1,93.62,91.15Zm1.77-2.36.46-.81a1.3,1.3,0,0,0-1.27-1.4,1.42,1.42,0,0,0-1.29,1.63A2.12,2.12,0,0,0,95.39,88.79Z"/></svg>