<svg id="レイヤー_1" data-name="レイヤー 1" xmlns="http://www.w3.org/2000/svg" viewBox="0 0 144.91 162.13"><defs><style>.cls-1{fill:#ffff5a;}.cls-2{fill:#dfb1ff;}</style></defs><path class="cls-1" d="M95.19,29.52c10.12-7.6,26-5.81,34.22,3.84s7.32,25.65-1.83,34.38a32.81,32.81,0,0,1,15.61,32.15,32.78,32.78,0,0,1-23.94,26.54,29.87,29.87,0,0,1-15.11,31.09A29.86,29.86,0,0,1,70,152.14c-8.49,9.63-24.71,10.17-34.9,2.37s-14.1-22.22-11-34.66c-7.43-.85-13.83-6.16-17.47-12.7S1.81,93,1.58,85.53C1.33,77.75,2.14,69.68,6,62.9s11.21-12,19-11.35a26.39,26.39,0,0,1,2.12-30.32,26.38,26.38,0,0,1,29.56-7A27.55,27.55,0,0,1,86.43,2.3a27.56,27.56,0,0,1,19.81,25.25"/><path class="cls-1" d="M96,30.81c7.51-5.55,18.1-5.93,26.22-1.43,8.35,4.63,12.36,14.06,11.16,23.38a23.49,23.49,0,0,1-6.81,13.92,1.52,1.52,0,0,0,.3,2.36,31.44,31.44,0,0,1,15,23.06A30.91,30.91,0,0,1,118.85,125a1.53,1.53,0,0,0-1,1.84,28.47,28.47,0,0,1-8.17,24.83,27.1,27.1,0,0,1-25.13,6.75,27.57,27.57,0,0,1-13.43-7.33,1.52,1.52,0,0,0-2.13,0c-6.2,6.92-16.33,8.8-25,6.21-9.5-2.82-16-11.12-18.31-20.52a34.61,34.61,0,0,1,0-16.53,1.52,1.52,0,0,0-1.45-1.89C12.43,116.89,5.9,105.31,4,94.78a63.9,63.9,0,0,1-.6-18.37C4,70.66,5.83,64.72,9.62,60.24s9.3-7.6,15.31-7.19a1.51,1.51,0,0,0,1.29-2.26A25.05,25.05,0,0,1,24.84,27.5,24,24,0,0,1,43,14.09a24.32,24.32,0,0,1,13.17,1.55,1.53,1.53,0,0,0,1.7-.69,26.12,26.12,0,0,1,21-12,24.86,24.86,0,0,1,21.35,11.12,25.41,25.41,0,0,1,4.49,13.46c.05,1.93,3.05,1.94,3,0A29.28,29.28,0,0,0,94,4C85.87-1.1,75.65-1.18,67.07,2.94A28.24,28.24,0,0,0,55.32,13.43L57,12.74a28,28,0,0,0-25.38,2.53,26.87,26.87,0,0,0-12,22.42,27.24,27.24,0,0,0,4,14.61l1.3-2.25c-6-.4-11.67,2.28-15.88,6.39C4.53,60.87,2,66.86.87,73A64.86,64.86,0,0,0,.74,93.4c.91,6.39,2.93,12.78,6.88,18a24.8,24.8,0,0,0,16.5,10l-1.45-1.9c-2.59,10.6-.51,22.4,6.29,31.06A28.93,28.93,0,0,0,56.27,161a25,25,0,0,0,14.8-7.82H68.94a31.62,31.62,0,0,0,28.19,8.34c10.06-2,18-9.32,21.83-18.71A30.5,30.5,0,0,0,120.7,126l-1,1.84a34.41,34.41,0,0,0,22.52-19.2,33.24,33.24,0,0,0-1.74-29.87,33.7,33.7,0,0,0-12.1-12.37l.31,2.36c7.55-7.31,9.86-19.21,6.2-29-3.75-10-13.44-16.16-24-16.5a26.3,26.3,0,0,0-16.4,4.91c-1.54,1.14,0,3.74,1.51,2.59Z"/><path class="cls-2" d="M46.33,65.15a9,9,0,0,1-2.84-1.24,4,4,0,0,1-1.27-1.57,7.69,7.69,0,0,1-.84-1.92,12,12,0,0,1-.13-3,10.89,10.89,0,0,1,1.38-3.31,15.29,15.29,0,0,1,3-3.12A77.52,77.52,0,0,0,37,52.08l-1.24.23-1-.74-.28-1,.28-.43q1.13-.3,8.23-1.31a65.2,65.2,0,0,1,8.33-.9l.68.46a3.53,3.53,0,0,1,.46,1.24l-.48.66-.59.08a22.46,22.46,0,0,0-2.27,1.28c-.63.41-1.3.87-2,1.36a6.61,6.61,0,0,0-1.73,1.77,16.17,16.17,0,0,0-1.17,2.16,6.08,6.08,0,0,0-.38,2.59A5.28,5.28,0,0,0,45,61.8,5,5,0,0,0,48,62.87c1.31-.12,2.45-.2,3.43-.25l.48.25a1.42,1.42,0,0,1,0,1.42l-.2.43a9.87,9.87,0,0,1-2.64.56A11.24,11.24,0,0,1,46.33,65.15Zm4.32-7a4.85,4.85,0,0,0-1-.64L49.15,57l-1-1.11-.25-.84.25-.91L49.33,54l1,.69c.55.91.95,1.37,1.22,1.37a3.61,3.61,0,0,1,.33,1.78A3.49,3.49,0,0,1,50.65,58.2ZM55,56.75a2.78,2.78,0,0,1-1.76-1l-1-1.17a1.63,1.63,0,0,1-.41-1.55l.36-.31,1.27-.15.53.31a8.35,8.35,0,0,0,1.09,1.27,2.32,2.32,0,0,1,.74,1.16l0,.61-.28.49Z"/><path class="cls-2" d="M72.26,59.24l-.66-.38c-.26-.53-.51-1-.77-1.5a5.8,5.8,0,0,1-.5-1.07l-4.57,1-.89-.2-.64-.56a.71.71,0,0,1-.3-.84,2.38,2.38,0,0,1,1.39-.58c1.12-.38,2.49-.76,4.12-1.15a18.53,18.53,0,0,1-.71-2.59l-5.59,1.15L61.92,52a2.1,2.1,0,0,1-.73-1,1.44,1.44,0,0,1,1.16-.64l6-1.42a3.58,3.58,0,0,1,.18-2.62l1-.2.94.84.13.58.28.79c3.13-.59,5-1,5.58-1.09h1a3.32,3.32,0,0,1,.76,1.24,4.18,4.18,0,0,1-.48,1.45l-.39,0-.43,0-.81,0-4.77.94A12.13,12.13,0,0,0,72,53.65a30.15,30.15,0,0,0,4-1,1.4,1.4,0,0,0,.94.25,6.49,6.49,0,0,1,1,1.22l-.22.31-.41.3-.2.43-.38,0-.51.05c-1.37.18-2.25.33-2.64.43l-.23.28a7.47,7.47,0,0,0,.89,1.95l-.21.87-.45.43H72.26Zm-2.39,7.39a5.65,5.65,0,0,0-2-.59,10.36,10.36,0,0,1-2.73-1.93,10.5,10.5,0,0,1-1.43-1.9,4.43,4.43,0,0,1-.61-2.13l.35-.43.76-.08.94.38a5.26,5.26,0,0,1,.94,1.73,7.24,7.24,0,0,0,2.27,2.09,5,5,0,0,0,2.38.67l.43-.2.38.25.38,0,.51.33.13.71-1,.94-1.09.13Z"/><path class="cls-2" d="M95.51,65.74a4.1,4.1,0,0,1-2.28-1.82,3.73,3.73,0,0,1,.1-3.44A3.82,3.82,0,0,1,96.48,59a3.24,3.24,0,0,1,2.47,1,3.6,3.6,0,0,1,.53,2.72,3.77,3.77,0,0,0,1.58-2,3.53,3.53,0,0,0,0-2.5c-.29-.83-1.16-1.44-2.6-1.83a7,7,0,0,0-4.56.34l-2.29.84-.53-1-.1-.66a2.26,2.26,0,0,1,.43-.91l.43-.33L100,47.86l-7.24.82a4,4,0,0,1-1.93-.16l-.89-1-.23-.71.23-.2.71-.33q.94-.23,11.43-.91l1.42.53a2.45,2.45,0,0,1-.38,2.28q0,.44-5.79,5.34a8.53,8.53,0,0,1,4.5,1.53,6,6,0,0,1,1.87,2.4,5.27,5.27,0,0,1,.14,2.91,6.74,6.74,0,0,1-1.35,3,6.25,6.25,0,0,1-2.24,1.86,7.25,7.25,0,0,1-2.13.65A11.65,11.65,0,0,1,95.51,65.74Zm1.78-2.36.46-.82a1.3,1.3,0,0,0-1.27-1.39,1.42,1.42,0,0,0-1.3,1.62A2.15,2.15,0,0,0,97.29,63.38Z"/><path class="cls-2" d="M43.21,94A6.48,6.48,0,0,1,40.31,93l-.6-.53-.89-.74a6.13,6.13,0,0,1-1.08-1.83,10.51,10.51,0,0,1-.55-1.95l.48-.51c.44-.47.87-.54,1.27-.2h.46l.46.51a8.65,8.65,0,0,0,1.85,3.12,4.82,4.82,0,0,0,1.65.86,13.4,13.4,0,0,0,4.34.15c1.15-.33,2.21-.61,3.18-.83l.53.25.36.46a2.62,2.62,0,0,1-.84,1.22,14.88,14.88,0,0,1-2,.72,16.66,16.66,0,0,1-2.68.51A9.56,9.56,0,0,1,43.21,94Zm6-13.1L48,80.56,48,80.23q-1-1-7.09-1.9a3.25,3.25,0,0,1-2-.31,1.33,1.33,0,0,1-.49-1l.54-.51L40.8,76a31.37,31.37,0,0,1,5.89.71A14.13,14.13,0,0,1,49.48,78l.71.48.74.63.1.66a1,1,0,0,1-.41.76A5.92,5.92,0,0,1,49.18,80.94Z"/><path class="cls-2" d="M70.83,95.64c-.33,0-.74,0-1.21-.1a5.35,5.35,0,0,1-1.55-.43,7.41,7.41,0,0,1-2.47-1.22A5.34,5.34,0,0,1,64,91.61a5.74,5.74,0,0,1-.24-2.31,7.48,7.48,0,0,1,.79-2.89,13.41,13.41,0,0,1,2-2.7,18.65,18.65,0,0,0-1.47-2.87c-.53-.81-1.06-1.69-1.6-2.64a4.66,4.66,0,0,1-.59-1.65q.15-.89,1.32-.84l.76.18a27.06,27.06,0,0,1,1.76,2.78c.52,1,1.13,2,1.82,3.26a8.26,8.26,0,0,1,2.19-1.39L73,79.22a9.83,9.83,0,0,1,2.75-.87l.6.18A2.38,2.38,0,0,1,76.7,80a4.54,4.54,0,0,1-1.3.94l-1.75,1a8.13,8.13,0,0,0-1.42.86A9.87,9.87,0,0,0,70,84.47a8.49,8.49,0,0,0-2,2,9,9,0,0,0-1.06,2.24,4.12,4.12,0,0,0,0,1.67A3.29,3.29,0,0,0,68,92a5.87,5.87,0,0,0,1.9.92l1.53.12a21.2,21.2,0,0,0,3.46-.56l3.6-.91.56.56,0,.68-.25,1.15c-1.48.42-2.79.81-4,1.16A13.75,13.75,0,0,1,70.83,95.64Z"/><path class="cls-2" d="M94.35,94.32a2.38,2.38,0,0,1-1.17-.66L92.8,93l-.23-1,.18-.64a1.18,1.18,0,0,0,1.06-.23A17.87,17.87,0,0,0,95,87.8a8.81,8.81,0,0,0,.25-2.9,1.28,1.28,0,0,0-.46-.39,1.2,1.2,0,0,0-.68-.06l-1.4.07q-.81,2-1.2,3.24c-.27.84-.63,1.89-1.08,3.16l-.84,1.45a3.75,3.75,0,0,1-1.5.12l-.46-.38-.3-1.06c.62-1.2,1.11-2.24,1.45-3.1s.67-1.88,1-3c-1.86.21-3.14.08-3.83-.38-.14-1.06.17-1.66.94-1.78,1.64-.06,2.83-.12,3.58-.17A18.24,18.24,0,0,1,92,78.66a1.05,1.05,0,0,1,1.47-.31,1.43,1.43,0,0,1,.56,1.53l-.64,2.33q1.13.11,2.1.15a2.93,2.93,0,0,1,1.79.77,6.49,6.49,0,0,1,.5,2.31,9.25,9.25,0,0,1-.45,3.45C97,90,96.54,91.2,96,92.42l-.38.58a1.62,1.62,0,0,1-.36.87A1.49,1.49,0,0,1,94.35,94.32Zm13-5.89-1-.4a6.89,6.89,0,0,1-1.65-1l-2.55-2a14.11,14.11,0,0,1-2.22-1.93l-.36-.41-.28-.55.43-.69.77-.1c.47,0,1.64.67,3.5,2.07a33.7,33.7,0,0,0,3.27,2.3l.77.61.12.4.13.43-.33.89-.28.13Zm-3.93-7.74a11.32,11.32,0,0,1-2.37-2.06l-.55-.68a1.49,1.49,0,0,1,.07-1,1.36,1.36,0,0,1,1-.2,6.5,6.5,0,0,1,3.6,3.07l.08.63-.64.28A1.28,1.28,0,0,1,103.44,80.69ZM107.17,78l-.48-.28-2-1.77a1.39,1.39,0,0,1-.41-1l.41-.48,1.12-.15,1.44.76a6.81,6.81,0,0,1,1.25,1.93c.08.56,0,.84-.36.86C108,78.21,107.68,78.24,107.17,78Z"/><path class="cls-2" d="M36.1,123.79a2,2,0,0,1-1.52-.4,1.25,1.25,0,0,1-.16-.81l.64-.69a6,6,0,0,1,2.21-1.24l.15-.46A15.14,15.14,0,0,1,37,118c-.09-.75-.16-1.52-.21-2.3v-.48l.07-.61-.68-.2-.28.07-.43-.07-.49.07a4,4,0,0,1-1.24-.61l-.2-.56a1,1,0,0,1,.48-.81,20.6,20.6,0,0,1,2.69-.63,16.25,16.25,0,0,0,0-5.39.68.68,0,0,1,.71-.35l.28.07.53,0a3.24,3.24,0,0,1,1.12,1.12q.18,2.16.36,4.29l1,.28.48-.12.64.4.48.28.28.74-.15.35-1.32.33-1-.12-.33.12-.23,1.25.08.28-.13.89a10.71,10.71,0,0,0,.41,2.58l.4.08,1.2-.41,1,.46.21.56a4.6,4.6,0,0,0-.33.81l-.71.49a13.81,13.81,0,0,1-1.91,1.13,17.15,17.15,0,0,0-1.83,1A3.91,3.91,0,0,1,36.1,123.79Zm13.3-9c-.88-.08-1.76-.18-2.66-.3a5.79,5.79,0,0,1-2.46-.92l-.13-.48a29.35,29.35,0,0,1-.71-3,12.15,12.15,0,0,0-.21-2.46,2.76,2.76,0,0,1,.36-1.38l2-.25v-.35a7,7,0,0,1-1.4-2.8,1.12,1.12,0,0,1,1.12-.35l.35.15.33-.08.71.61,1.1,1.37a.82.82,0,0,1,.27.82l.28.43.49.05,1.24-.2,3.07-3.36.82-.07.71.23a1.39,1.39,0,0,1,.48,1.49l-1.53,1.86a17.11,17.11,0,0,1,1.86.33,2.65,2.65,0,0,1,2,.81l0,.36a9.67,9.67,0,0,0-.79,3.35,12.48,12.48,0,0,1-.66,3.43l-1.6.68a40.39,40.39,0,0,0-4.92,0Zm2.92,10.69a.63.63,0,0,0-.76-.2q-1.91.15-3.81.12a7.39,7.39,0,0,1-2.56-.68,1.46,1.46,0,0,1-.28-1.09,8.46,8.46,0,0,0,.2-2.47,5.33,5.33,0,0,0-.35-1.44l.07-.54-.07-.48a17.44,17.44,0,0,0,.43-2.13l-.15-.33a3.67,3.67,0,0,1,1.44-.41l.36.13.36-.2.28.07a4.84,4.84,0,0,1,1.65-.28,8.9,8.9,0,0,0,1.6.28l.48,0,1,0a2.43,2.43,0,0,0,1.17.13l.63.48.48.48v.28l-.28,1.1.08.33c-.08.72-.15,1.45-.2,2.18l.07,1.57-.15,1.25a.92.92,0,0,1,.2.81A2.76,2.76,0,0,1,52.32,125.52Zm-4-16.43.08-.68a.73.73,0,0,0-.69-.28,9.88,9.88,0,0,1-1.6.28v.33l1.38.35Zm.16,3.35,0-1.09a4.7,4.7,0,0,0-2.09-.35l-.12.35.35,1,.54.07.28-.07Zm2.69,7.27a3.33,3.33,0,0,0,.2-1.53,1.71,1.71,0,0,0-1.37-.25H48.8l-.23.25-.82.21-.07.76c.56.13,1.12.25,1.7.34S50.56,119.66,51.21,119.71Zm.07,3.4.08-1a3.08,3.08,0,0,0-2-.48,8.59,8.59,0,0,0-1.65-.08l.26,1.58,1,.15h.76ZM54,109.7a5.82,5.82,0,0,1,.35-1.62,12.2,12.2,0,0,1-2.56-.23l-.49.15-.07.28.07.25-.07.49A10.4,10.4,0,0,1,54,109.7Zm-.41,2.87.07-.25.28-.69a4.35,4.35,0,0,0-2-.35l-.4.28-.08.4.15.48.76.21Z"/><path class="cls-2" d="M64.92,107.09c-.34-.36-.71-.73-1.12-1.12l-.13-.69q1.35-.81,12-1a2.19,2.19,0,0,1,1.4.59l.15.89-.2.83-1.73.18-9.7.26Zm10.74,17a9.24,9.24,0,0,1-1.75-.73,11.88,11.88,0,0,1-1.65-2l0-.28-.23-1.58-.48,0a17.22,17.22,0,0,0-1.73,1.25L68,123.24a1.84,1.84,0,0,1-1.4.61,1.87,1.87,0,0,1-1-.66l-.25-.74c.36-.53,1.08-1.67,2.18-3.43a53.73,53.73,0,0,1,4.14-5.66,61.6,61.6,0,0,0-6.42.28l-1-.74a1.82,1.82,0,0,1-.38-1l.43-.16q1.31-.45,10-.76a2.81,2.81,0,0,1,1.4.49,9.54,9.54,0,0,1,.2,1.09l-3.63,3.55-.48.74,1.52.4,1.15,1.22a5.06,5.06,0,0,0,.71,2.95,2.63,2.63,0,0,0,1.32.2,16.45,16.45,0,0,0,2.87-1l.4,0,.36-.07.91.48.43.48-.48.74a.94.94,0,0,1-.35.63l-.28-.07L80,123l-.28,0-1.65.64-.23.2-.86.08-.56,0Z"/><path class="cls-2" d="M95.51,125.19a4.13,4.13,0,0,1-2.28-1.81,3.73,3.73,0,0,1,.1-3.44,3.8,3.8,0,0,1,3.15-1.54,3.21,3.21,0,0,1,2.47,1,3.56,3.56,0,0,1,.53,2.71,3.73,3.73,0,0,0,1.58-2,3.53,3.53,0,0,0,0-2.5c-.29-.82-1.16-1.43-2.6-1.83a7.1,7.1,0,0,0-4.56.34l-2.29.84-.53-1-.1-.66a2.26,2.26,0,0,1,.43-.91l.43-.33,8.08-6.8-7.24.81a4.09,4.09,0,0,1-1.93-.15l-.89-1-.23-.72.23-.2.71-.33q.94-.22,11.43-.91l1.42.53c.29.54.16,1.3-.38,2.29q0,.42-5.79,5.33a8.71,8.71,0,0,1,4.5,1.53,6,6,0,0,1,1.87,2.4,5.27,5.27,0,0,1,.14,2.91,6.78,6.78,0,0,1-1.35,3,6.22,6.22,0,0,1-2.24,1.85,7.25,7.25,0,0,1-2.13.65A11.06,11.06,0,0,1,95.51,125.19Zm1.78-2.36.46-.81a1.3,1.3,0,0,0-1.27-1.4,1.43,1.43,0,0,0-1.3,1.63A2.17,2.17,0,0,0,97.29,122.83Z"/></svg>