<svg id="レイヤー_1" data-name="レイヤー 1" xmlns="http://www.w3.org/2000/svg" viewBox="0 0 202.96 181.32"><defs><style>.cls-1{fill:#ffff5a;}.cls-2{fill:#dfb1ff;}</style></defs><path class="cls-1" d="M36.71,62.09c-9.55-12.7-7.3-32.72,4.82-43s32.24-9.2,43.21,2.3a41.17,41.17,0,0,1,40.4-19.61,41.21,41.21,0,0,1,33.35,30.07c15.24-2.85,31.88,5.24,39.06,19s4.29,32-6.77,42.89c12.1,10.66,12.79,31.05,3,43.85s-27.92,17.72-43.56,13.81c-1.07,9.33-7.74,17.38-16,21.95s-17.78,6.08-27.17,6.38c-9.77.31-19.92-.71-28.43-5.52s-15-14.08-14.27-23.82c-11.52,7.27-27.71,6.14-38.1-2.67s-14.14-24.6-8.84-37.15C5.15,103.05-1.24,87,2.51,73.11S19.83,48.54,34.24,48.22"/><path class="cls-1" d="M38,61.34c-7.07-9.54-7.5-23-1.8-33.33,5.9-10.67,18-15.77,29.88-14.2a29.9,29.9,0,0,1,17.6,8.65,1.51,1.51,0,0,0,2.35-.3,39.88,39.88,0,0,1,29.27-19,38.39,38.39,0,0,1,32.09,11.87A38.55,38.55,0,0,1,157,32.26a1.54,1.54,0,0,0,1.85,1.05c11.35-2.06,23.43,2.16,31.5,10.3,8.3,8.38,11.27,20.61,8.65,32a35,35,0,0,1-9.32,17.06,1.52,1.52,0,0,0,0,2.12c8.82,7.87,11.2,20.82,7.9,31.88-3.58,12-14.05,20.22-25.93,23.21a43.7,43.7,0,0,1-21.08.06,1.53,1.53,0,0,0-1.9,1.45c-.81,6.62-4.66,12.49-9.63,16.78-5.7,4.93-13,7.57-20.31,8.9a80.63,80.63,0,0,1-23.16.76c-7.31-.83-14.84-3.11-20.55-7.93s-9.7-11.88-9.17-19.52a1.52,1.52,0,0,0-2.26-1.3,31.83,31.83,0,0,1-29.47,1.82c-9.45-4.29-15.65-13.24-17.25-23.4a30.89,30.89,0,0,1,2-16.54,1.49,1.49,0,0,0-.69-1.69A33.29,33.29,0,0,1,3,82.55,31.68,31.68,0,0,1,17.3,55.29a32.13,32.13,0,0,1,16.94-5.57c1.93-.06,1.93-3.06,0-3A36.38,36.38,0,0,0,4.9,63.9C-1.37,74-1.44,86.66,3.66,97.27a35.09,35.09,0,0,0,13,14.6l-.69-1.7a34.76,34.76,0,0,0,3.05,31.46,33.37,33.37,0,0,0,28.07,15,33.74,33.74,0,0,0,18-5l-2.25-1.29c-.51,7.33,2.79,14.37,7.83,19.57,5.55,5.72,13.1,8.92,20.86,10.3a81.27,81.27,0,0,0,25.15.16c8-1.11,16-3.62,22.55-8.57s11.41-12.14,12.43-20.45l-1.9,1.45c13.09,3.21,27.71.68,38.45-7.65A36,36,0,0,0,201.56,111a31.08,31.08,0,0,0-9.72-18.27V94.8c9-9,12.8-22.45,10.42-34.88-2.41-12.62-11.64-22.69-23.43-27.39a38,38,0,0,0-20.74-2.11l1.84,1a42.83,42.83,0,0,0-23.78-28A41.37,41.37,0,0,0,99,5.5,41.73,41.73,0,0,0,83.44,20.65l2.36-.31C76.75,11,62,8.12,49.86,12.6a30.55,30.55,0,0,0-15,11.75,34.8,34.8,0,0,0-5.62,18.19,32.6,32.6,0,0,0,6.12,20.31c1.14,1.53,3.74,0,2.59-1.51Z"/><path class="cls-2" d="M36.12,74.15l-1.55-.54,0-.68.4-.56.44-.2.48-.26,0-.28.35-.2a2.77,2.77,0,0,0,.49-1.09,2.25,2.25,0,0,0-.84-.64l-.53-.12-.84-.41-.21-.28a.62.62,0,0,1-.55-.35,1.06,1.06,0,0,1-.36-.82,10.8,10.8,0,0,0,1-2.87l.27-.35-.55.08a5.35,5.35,0,0,1-2-.54A1.4,1.4,0,0,1,31.6,63l.48-.48.91.05a2.45,2.45,0,0,1,1.17-.13l.28.08.69-.28A31.45,31.45,0,0,0,36,59l-.07-.48c.18-.87.38-1.72.6-2.57a18.51,18.51,0,0,0,.44-2.56l.76-.36a3.5,3.5,0,0,1,1.19.56l.13.69.43-.08v.84a15.55,15.55,0,0,0-.35,1.78,7,7,0,0,1-.48,1.7l.07.56a15.85,15.85,0,0,0-.56,3.14,7.43,7.43,0,0,0,1.81.21l.48-.28L41,61l1-.08.68.56.21,1a9.75,9.75,0,0,1,2,.76l.2.33.13.69-.28.35a6.64,6.64,0,0,1-2.33.41l-.44.07c-.27.73-.54,1.46-.82,2.19s-.56,1.45-.83,2.18a14.71,14.71,0,0,1,2.42,1l.2.33.56.36a.79.79,0,0,1,.48.73l-.61.36-.15.33-.81.15a4.81,4.81,0,0,0-1.48-.68,2.64,2.64,0,0,0-1.52-.69,17.72,17.72,0,0,1-2.21,2.31A2.68,2.68,0,0,1,36.12,74.15Zm1.8-5.87a15.65,15.65,0,0,0,.83-1.77,12.08,12.08,0,0,0,.54-1.93l-1.52-.13-.28.2c-.37.95-.7,1.91-1,2.87ZM48.3,75.19a6.61,6.61,0,0,1-2.48-.61l-.21-.28-.28-.15-.15-.26-.48-1a10.5,10.5,0,0,0,1.47.28l.26-.15a1.28,1.28,0,0,0,.91.2l.76-.2,1.25-1.5a25.41,25.41,0,0,0,.83-2.46A37.37,37.37,0,0,0,45.94,69a1.91,1.91,0,0,1-1-.94l0-.69a7.79,7.79,0,0,1,2.57-.55l.4.07.28-.07.28.07.48-.07.28.07.76-.2.49.05a.84.84,0,0,0,.28-.89A4.86,4.86,0,0,0,50,63.76a2.92,2.92,0,0,0-1.37-.48l-.56.08A6,6,0,0,0,47,63a2.33,2.33,0,0,1-.55-1l.28-.61a24.31,24.31,0,0,0,4.08-3L51,58c-.61-.09-1.22-.18-1.82-.29a8.21,8.21,0,0,0-1.87-.12c-.69.19-1.38.35-2.08.49a3.6,3.6,0,0,1-1.85-1l-.23-.61.48-.48c.7,0,1.4-.12,2.12-.22l2.12-.26c.61.08,1.2.18,1.78.3a8.87,8.87,0,0,0,1.83.18c1.06.13,2.08.24,3,.33l.36.4.48.28.13.56-.33.69A14.77,14.77,0,0,1,53,59.73l-.56.76a5.18,5.18,0,0,1-1.17.73l-.15.56.56.33.48.69.48.35a15.58,15.58,0,0,1,.76,2.52v.48l0,.28.26.41c1.06.27,2.13.52,3.2.76l.28.2.48.28.07.25.28.16,0,.33-.25.35a9,9,0,0,1-1.12.48c-.56-.13-1.11-.27-1.66-.42A8.79,8.79,0,0,0,53.23,69l-.35.61A14.84,14.84,0,0,1,52,72.17a8.08,8.08,0,0,1-1.48,2.21A5.08,5.08,0,0,1,48.3,75.19Z"/><path class="cls-2" d="M71.44,68l-.66-.38c-.26-.52-.51-1-.77-1.5a6,6,0,0,1-.5-1.06l-4.57,1-.89-.2-.64-.56a.7.7,0,0,1-.3-.84,2.38,2.38,0,0,1,1.39-.58c1.12-.37,2.49-.75,4.12-1.14a18.91,18.91,0,0,1-.71-2.59l-5.59,1.14-1.22-.58a2.18,2.18,0,0,1-.73-1,1.45,1.45,0,0,1,1.16-.63l6-1.43A3.55,3.55,0,0,1,67.73,55l1-.2.94.83.13.59.27.78q4.71-.89,5.59-1.09h1a3.39,3.39,0,0,1,.76,1.25,4.19,4.19,0,0,1-.49,1.44l-.38,0-.43,0-.81,0-4.77.94a12.22,12.22,0,0,0,.71,2.75,32.07,32.07,0,0,0,4-1,1.38,1.38,0,0,0,.94.26,6.83,6.83,0,0,1,1,1.21l-.23.31-.4.3-.2.44-.39,0-.5.05c-1.37.19-2.25.33-2.64.43l-.23.28a7.39,7.39,0,0,0,.89,2l-.21.86-.45.43H71.44Zm-2.39,7.39a5.58,5.58,0,0,0-2-.58,9.31,9.31,0,0,1-4.17-3.84,4.66,4.66,0,0,1-.61-2.13l.36-.43.76-.08.94.38a5.56,5.56,0,0,1,.94,1.73,6.91,6.91,0,0,0,2.27,2.09,5,5,0,0,0,2.38.68l.43-.21.38.26.38,0,.51.33.13.71-1,.94-1.09.12Z"/><path class="cls-2" d="M85.4,68.41a1.62,1.62,0,0,1-1.85-.81l0-.84c.45-1.12.92-2.21,1.4-3.26A15.14,15.14,0,0,0,86,59.73c-1.07.22-2.06.39-3,.5a2.1,2.1,0,0,1-2-1l-.1-.33.59-.63.45-.31c1.29-.3,2.23-.51,2.82-.62s1.21-.24,1.85-.39l.16-1.22a17.62,17.62,0,0,0,.25-2.29,1.55,1.55,0,0,1,1-.48,2.6,2.6,0,0,1,1.11.31,2,2,0,0,1,.51,1.34l-.3,1.86c1.94-.36,3.29-.58,4-.66l.82.28a1.1,1.1,0,0,1,.56.93,1.39,1.39,0,0,1-.64,1.12,3.36,3.36,0,0,1-2.06.38L89,59.17c-.42,1.52-.71,2.67-.85,3.44a12.6,12.6,0,0,1-.64,2.22q-.42,1.07-.87,2.31l-.71.86Zm8.33,5.41A5.64,5.64,0,0,1,91,72.59a3.52,3.52,0,0,1-1.23-3,4.92,4.92,0,0,1,1.06-2.28,6.8,6.8,0,0,1,1.4-.78,4,4,0,0,1,2.18-.06l1.4.35a13.37,13.37,0,0,0-.05-3.85,1.48,1.48,0,0,1,1.5-.74l.55.25.39.49c0,.49.11,1.06.19,1.72a20.1,20.1,0,0,1-.32,4,6.33,6.33,0,0,1,2.49,2.42l.48.71c.2.76,0,1.17-.64,1.24l-1-.23c-.59-.45-1.19-.9-1.8-1.34l-.38-.31-.84,1.35A2.68,2.68,0,0,1,93.73,73.82Zm1.12-3a1.27,1.27,0,0,0,.37-1.35c-.16-.47-.68-.78-1.54-.91A1.65,1.65,0,0,0,92,70c0,.77.49,1.31,1.47,1.63A1.55,1.55,0,0,0,94.85,70.8Zm8.25-9.45c-.86-.32-1.7-.66-2.51-1a17.68,17.68,0,0,1-2.39-1.26l-.76-1,.13-.76,1.49-.28,1.73.79,2.51.83.79.39a2.65,2.65,0,0,1,.52,1.23c.06.43-.22.7-.85.8Z"/><path class="cls-2" d="M118.44,74.27l-.79-.17q-2.06,0-3.71-2.64a19.49,19.49,0,0,1-.45-6.35,37.83,37.83,0,0,1-4.62-.13l-.74-.68-.23-.69.86-.66a10.74,10.74,0,0,1,2.09-.41h3c0-1.06.17-2.41.35-4h-3.3a6.89,6.89,0,0,1-1.52,0c-.68-.22-1.05-.56-1.12-1a2.74,2.74,0,0,1,2.31-1.19l4.09,0a17.69,17.69,0,0,1,.89-3.25l.71-.21L117,53l.49.38.28,1.34-.31,1.48L121,56l1.6.15,1,.56c.42.25.54.56.36.91l-.41.51a19.76,19.76,0,0,1-2,.26l-4.67.17a21.1,21.1,0,0,0-.41,3.76,13.1,13.1,0,0,0,3.91-.08l1.32.21,1,.73v.39l-.3.73-.46.1a32.18,32.18,0,0,1-5.79.56,33.46,33.46,0,0,0-.18,3.47,3.44,3.44,0,0,0,1.27,2.78,2.83,2.83,0,0,0,2,.56,5,5,0,0,0,3.23-1.7,9.74,9.74,0,0,0,2-3.06,16.79,16.79,0,0,1,1.31-2.76l.43-.1.4.23a7.55,7.55,0,0,1,.64,2.23c-.22.78-.49,1.6-.81,2.45A7.48,7.48,0,0,1,125,71.43,8.88,8.88,0,0,1,123.17,73a11,11,0,0,1-1.86.89,6.7,6.7,0,0,1-2.24.36Z"/><path class="cls-2" d="M146.89,73a1.47,1.47,0,0,1-1.19-.81l.15-.73.79-.69a4.63,4.63,0,0,0,1.29-2.26,9.15,9.15,0,0,0,.38-3.92,8,8,0,0,0-1.05-3.13,5.71,5.71,0,0,0-2.55-2.09L143,59q-1.28,6.15-1.74,7.63t-2,5c-.39.71-.85,1.06-1.37,1a5.73,5.73,0,0,1-2-.51A7.44,7.44,0,0,1,134.07,71a8.3,8.3,0,0,1-1.36-2.09,11.37,11.37,0,0,1-.8-3.77,14.64,14.64,0,0,1,.63-3.44,7.49,7.49,0,0,1,1.77-2.65,7,7,0,0,1,3.05-1.88,16.46,16.46,0,0,1,3.49-.69l.15-.4.33-.13a3,3,0,0,1,1.9.51l.59.28a10.15,10.15,0,0,1,3.25,1.34,7.68,7.68,0,0,1,2.83,3,9.66,9.66,0,0,1,.91,3.4,13.59,13.59,0,0,1-.17,3.53,6.77,6.77,0,0,1-1.49,3.18A4.75,4.75,0,0,1,146.89,73Zm-9.7-2.81a24.89,24.89,0,0,0,2.13-5.35,42.8,42.8,0,0,0,1.22-6,6.11,6.11,0,0,0-4.08,1.48,6.55,6.55,0,0,0-2,3.65,7.63,7.63,0,0,0,.15,3.37A4.32,4.32,0,0,0,137.19,70.14Z"/><path class="cls-2" d="M164.77,73.31a2.38,2.38,0,0,1-1.17-.66l-.38-.66L163,71l.18-.63a1.21,1.21,0,0,0,1.06-.23,17.7,17.7,0,0,0,1.2-3.33,9,9,0,0,0,.25-2.89,1.11,1.11,0,0,0-.46-.39,1.29,1.29,0,0,0-.68-.07l-1.4.08c-.54,1.32-.94,2.4-1.21,3.24s-.62,1.89-1.07,3.16L160,71.35a3.78,3.78,0,0,1-1.5.13l-.46-.38-.3-1.07c.62-1.2,1.11-2.23,1.45-3.09s.67-1.88,1-3c-1.86.2-3.14.08-3.83-.38-.14-1.07.17-1.66.94-1.78,1.64-.07,2.83-.13,3.58-.18a18.68,18.68,0,0,1,1.55-3.91,1.06,1.06,0,0,1,1.47-.3,1.43,1.43,0,0,1,.56,1.52l-.64,2.34c.75.07,1.44.12,2.1.15a3,3,0,0,1,1.79.76,6.49,6.49,0,0,1,.5,2.31,9.3,9.3,0,0,1-.45,3.46c-.37,1.13-.83,2.31-1.37,3.53L166,72a1.56,1.56,0,0,1-.36.86A1.45,1.45,0,0,1,164.77,73.31Zm13-5.89-1-.41a6.87,6.87,0,0,1-1.65-1l-2.55-2a14.68,14.68,0,0,1-2.22-1.93l-.36-.41-.28-.56.43-.68.76-.1q.72,0,3.51,2.07a30.8,30.8,0,0,0,3.27,2.29l.77.61.12.41.13.43-.33.89-.28.13Zm-3.93-7.74a11.37,11.37,0,0,1-2.37-2.06l-.55-.69a1.46,1.46,0,0,1,.07-1,1.36,1.36,0,0,1,1-.21,6.52,6.52,0,0,1,3.6,3.08l.08.63-.64.28A1.31,1.31,0,0,1,173.86,59.68ZM177.59,57l-.48-.28-2-1.78a1.39,1.39,0,0,1-.41-1l.41-.48,1.12-.16,1.44.76A7,7,0,0,1,178.91,56q.12.84-.36.87C178.42,57.2,178.1,57.23,177.59,57Z"/><path class="cls-2" d="M87.91,105.12a5.64,5.64,0,0,1-2.44-.89,2.51,2.51,0,0,1-1.06-1.37A7.27,7.27,0,0,1,84,101a5.11,5.11,0,0,1,.24-1.72,6.41,6.41,0,0,1,1.34-2.2A5.93,5.93,0,0,1,89.26,96l1.22.08q.15-.69-.41-11.5a7.6,7.6,0,0,1,.23-1.76l.86.18a4.1,4.1,0,0,1,1.22.56l.3,1L92.84,89l8.71-1.27,1.14,0a2.64,2.64,0,0,1,0,1.25l-.46,1.06-1,.36c-.71-.12-3.39.26-8,1.14L93.29,97a26.52,26.52,0,0,1,8.1,3.22,2.9,2.9,0,0,1,.41,1.22l-.15.48-.74.28a4,4,0,0,1-1.19-.33,30.06,30.06,0,0,0-6.27-2.13,6.22,6.22,0,0,1-.44,2.46,5.55,5.55,0,0,1-1.66,2.06A5.65,5.65,0,0,1,87.91,105.12Zm.1-2.46a2.45,2.45,0,0,0,2.39-1.35,3.43,3.43,0,0,0-.05-2.59,2.89,2.89,0,0,0-2.41,0,2.54,2.54,0,0,0-1,1,3.86,3.86,0,0,0-.24,1.75,2.1,2.1,0,0,0,.6,1.07Z"/><path class="cls-2" d="M112.41,97.86l-1.16-.41a12.4,12.4,0,0,1-.88-3.25c-.11-1-.17-1.94-.19-2.88a19.6,19.6,0,0,1,.21-3.12,8.22,8.22,0,0,1,.8-2.73,6.27,6.27,0,0,1,1.25-.69l.66.28a2.28,2.28,0,0,1,.35,1.85,20,20,0,0,0-.58,3.11,19.8,19.8,0,0,0,.1,3.32l2.54-2.67a2.39,2.39,0,0,1,1.41-.25.87.87,0,0,1,.79.63,4.2,4.2,0,0,1,.06,1.37,27.46,27.46,0,0,0-2.75,3c-.79,1-1.35,1.67-1.67,2.08l-.28.08A.65.65,0,0,1,112.41,97.86Zm4.52,6.17-.76-.71-.08-.41.16-.48.28-.05A7.27,7.27,0,0,0,119.6,100a12.14,12.14,0,0,0,1.34-2.82,18.88,18.88,0,0,0,.74-3.21,19.54,19.54,0,0,0,.18-3.63,17.27,17.27,0,0,0-.32-3,12,12,0,0,0-.67-2.08l.15-.66a1.91,1.91,0,0,1,1.57,0,3.56,3.56,0,0,1,1.12,1.17,10.22,10.22,0,0,1,.93,2.9,11.49,11.49,0,0,1,.15,2.18c0,.56-.07,1.21-.13,2s-.16,1.63-.33,2.64a15.73,15.73,0,0,1-.71,2.84,15.41,15.41,0,0,1-1.42,2.91,6.65,6.65,0,0,1-2.42,2.41,5.37,5.37,0,0,1-1.1.42A4.85,4.85,0,0,1,116.93,104Z"/><path class="cls-2" d="M48.6,133.6l-1.55-.53,0-.69.4-.56.44-.2.48-.25,0-.28.35-.21a2.77,2.77,0,0,0,.49-1.09,2.12,2.12,0,0,0-.84-.63l-.53-.13-.84-.41-.21-.28a.6.6,0,0,1-.55-.35,1.06,1.06,0,0,1-.36-.81,10.92,10.92,0,0,0,1-2.87l.27-.36-.55.08a5.17,5.17,0,0,1-2-.54,1.39,1.39,0,0,1-.48-1.09l.48-.48.91,0a2.58,2.58,0,0,1,1.17-.13l.28.08.69-.28a31.45,31.45,0,0,0,.83-3.15l-.07-.48c.18-.86.38-1.72.6-2.56a18.91,18.91,0,0,0,.44-2.57l.76-.35a3.3,3.3,0,0,1,1.19.55l.13.69.43-.08v.84a16,16,0,0,0-.35,1.78,7,7,0,0,1-.48,1.7l.07.56a16,16,0,0,0-.56,3.15,8,8,0,0,0,1.81.2l.48-.28.61-1.17,1-.07.68.56.21,1a9.75,9.75,0,0,1,1.95.76l.2.33.13.69-.28.35a6.64,6.64,0,0,1-2.33.41l-.44.08c-.27.72-.54,1.45-.82,2.18s-.56,1.46-.83,2.18a14.71,14.71,0,0,1,2.42,1l.2.33.56.36a.81.81,0,0,1,.48.74l-.61.35-.15.33-.81.15a4.81,4.81,0,0,0-1.48-.68,2.71,2.71,0,0,0-1.52-.69,16.54,16.54,0,0,1-2.21,2.31A2.57,2.57,0,0,1,48.6,133.6Zm1.8-5.87a15.65,15.65,0,0,0,.83-1.77,12.08,12.08,0,0,0,.54-1.93l-1.52-.13-.28.2c-.37,1-.7,1.91-1,2.87Zm10.38,6.91A6.42,6.42,0,0,1,58.3,134l-.21-.28-.28-.15-.15-.25-.48-1a9.23,9.23,0,0,0,1.47.28l.26-.15a1.28,1.28,0,0,0,.91.2l.76-.2,1.25-1.5a24.53,24.53,0,0,0,.83-2.46,39.85,39.85,0,0,0-4.24-.08,1.91,1.91,0,0,1-1-.94l-.05-.68a7.55,7.55,0,0,1,2.57-.56l.4.07.28-.07.28.07.48-.07.28.07.76-.2.49,0a.84.84,0,0,0,.28-.89,4.77,4.77,0,0,0-.64-2.1,2.83,2.83,0,0,0-1.37-.49l-.56.08a6,6,0,0,0-1.12-.41,2.33,2.33,0,0,1-.55-1l.28-.61a23.76,23.76,0,0,0,4.08-3l.16-.43c-.61-.08-1.22-.18-1.82-.29a7.69,7.69,0,0,0-1.87-.11c-.69.18-1.38.34-2.08.48a3.6,3.6,0,0,1-1.85-1l-.23-.61.48-.48c.7,0,1.4-.12,2.12-.22l2.12-.26c.61.08,1.2.18,1.78.3a8.87,8.87,0,0,0,1.83.18c1.06.14,2.08.25,3,.33l.36.41.48.28.13.55-.33.69a13.32,13.32,0,0,1-2.08,1.5l-.56.76a5.61,5.61,0,0,1-1.17.74l-.15.55.56.33.48.69.48.36a15.47,15.47,0,0,1,.76,2.51v.48l0,.28.26.41c1.06.27,2.13.52,3.2.76l.28.2.48.28.07.26.28.15,0,.33-.25.35a10.88,10.88,0,0,1-1.12.49l-1.66-.42a8.11,8.11,0,0,0-1.74-.27l-.35.61a14.84,14.84,0,0,1-.86,2.59A8.08,8.08,0,0,1,63,133.83,5.08,5.08,0,0,1,60.78,134.64Z"/><path class="cls-2" d="M83.92,127.4l-.66-.38c-.26-.52-.51-1-.77-1.49a6.12,6.12,0,0,1-.5-1.07l-4.57,1-.89-.2-.64-.56a.69.69,0,0,1-.3-.83,2.4,2.4,0,0,1,1.39-.59c1.12-.37,2.49-.75,4.12-1.14a18.91,18.91,0,0,1-.71-2.59c-3,.62-4.9,1-5.59,1.14l-1.22-.58a2.12,2.12,0,0,1-.73-1,1.45,1.45,0,0,1,1.16-.63l6-1.42a3.57,3.57,0,0,1,.18-2.62l1-.2.94.84.13.58.27.79c3.14-.6,5-1,5.59-1.1h1a3.39,3.39,0,0,1,.76,1.25,4.32,4.32,0,0,1-.49,1.45l-.38,0-.43,0-.81,0-4.77.94a12.27,12.27,0,0,0,.71,2.74,32.07,32.07,0,0,0,4-1,1.38,1.38,0,0,0,.94.26,6.9,6.9,0,0,1,1,1.22l-.23.3-.4.31-.2.43-.39,0-.5,0c-1.37.19-2.25.33-2.64.44l-.23.27a7.39,7.39,0,0,0,.89,2l-.21.86-.45.43H83.92Zm-2.39,7.39a5.79,5.79,0,0,0-2-.58,10.36,10.36,0,0,1-2.73-1.93,10.94,10.94,0,0,1-1.44-1.9,4.74,4.74,0,0,1-.61-2.14l.36-.43.76-.08.94.39a5.41,5.41,0,0,1,.94,1.72,7.06,7.06,0,0,0,2.27,2.1,5,5,0,0,0,2.38.67l.43-.2.38.25.38,0,.51.33.13.71-1,.94-1.09.13Z"/><path class="cls-2" d="M98.85,133.19a4,4,0,0,1-1.68-1c-.25-.62-.5-1.26-.76-1.9q-.52-1.75-.81-3.06a24.58,24.58,0,0,1-.43-3.26q0-2.24.15-3.93a21.75,21.75,0,0,1,.39-2.75,14.69,14.69,0,0,1,.63-2.08,1.53,1.53,0,0,1,1.16-.31l.51.23a1.64,1.64,0,0,1,.59,1c-.14.93-.29,1.82-.46,2.69a31.58,31.58,0,0,0-.31,4.69c.11,1.14.23,2.23.38,3.27a6.55,6.55,0,0,0,1.32,3l.44.13a4.44,4.44,0,0,1,.2,2.46l-.13.36A1.65,1.65,0,0,1,98.85,133.19Zm10.08-.94q-1-.3-2-.66a4.85,4.85,0,0,1-2-1.93,5.7,5.7,0,0,1-1-2.2l.28-.16a1.86,1.86,0,0,1,1-.45,3.36,3.36,0,0,1,1.37,1.32,19.24,19.24,0,0,0,1.7,1.37,4.67,4.67,0,0,0,2.26.28,19.62,19.62,0,0,0,2.16-.74l.38-.15,1.39.51.23.66a2,2,0,0,1-1.32,1.54,15.2,15.2,0,0,1-1.84.5A10.53,10.53,0,0,1,108.93,132.25Zm-3-13.33-1.49-1-.16-.43.31-.66a22.63,22.63,0,0,1,3.54-1.1,22.94,22.94,0,0,1,3.77-.57.68.68,0,0,0,.81.28l.51,1,.1.69a1.89,1.89,0,0,1-1.22.66l-.73-.08a23.93,23.93,0,0,0-2.74.48C107.73,118.43,106.83,118.67,106,118.92Z"/><path class="cls-2" d="M123.37,127.86a1.63,1.63,0,0,1-1.86-.81l0-.84c.45-1.12.92-2.2,1.41-3.26a15.58,15.58,0,0,0,1.1-3.77q-1.6.33-3,.51a2.14,2.14,0,0,1-2-1l-.1-.33.59-.64.45-.3q1.93-.47,2.82-.63t1.86-.39l.15-1.22a17.66,17.66,0,0,0,.25-2.28,1.54,1.54,0,0,1,1-.49,2.6,2.6,0,0,1,1.11.31,2,2,0,0,1,.51,1.34l-.3,1.86c1.94-.36,3.29-.58,4-.66l.82.28a1.09,1.09,0,0,1,.56.94,1.37,1.37,0,0,1-.64,1.11,3.29,3.29,0,0,1-2.06.38l-3.22.64c-.42,1.52-.71,2.67-.85,3.44a11.8,11.8,0,0,1-.64,2.22c-.27.71-.57,1.48-.87,2.31l-.71.87Zm8.32,5.41a5.64,5.64,0,0,1-2.75-1.23,3.52,3.52,0,0,1-1.23-3,4.92,4.92,0,0,1,1.06-2.28,7.3,7.3,0,0,1,1.4-.78,4,4,0,0,1,2.18-.06l1.4.36a13.45,13.45,0,0,0-.05-3.86,1.48,1.48,0,0,1,1.5-.74l.56.25.38.49c.05.49.11,1.06.19,1.72a20.22,20.22,0,0,1-.32,4,6.32,6.32,0,0,1,2.49,2.41l.48.71c.2.76,0,1.18-.63,1.24l-1-.23c-.59-.45-1.19-.9-1.8-1.34l-.38-.31-.84,1.35A2.65,2.65,0,0,1,131.69,133.27Zm1.12-3a1.26,1.26,0,0,0,.37-1.35c-.16-.47-.67-.78-1.54-.91a1.65,1.65,0,0,0-1.67,1.5q0,1.14,1.47,1.62A1.54,1.54,0,0,0,132.81,130.25Zm8.25-9.45c-.86-.32-1.7-.65-2.51-1a17.68,17.68,0,0,1-2.39-1.26l-.76-1,.13-.76,1.5-.28,1.72.79,2.52.84.78.38a2.65,2.65,0,0,1,.52,1.23c.06.43-.22.7-.85.8Z"/><path class="cls-2" d="M153.45,133.9a4.08,4.08,0,0,1-2.28-1.81,3.73,3.73,0,0,1,.1-3.44,3.83,3.83,0,0,1,3.15-1.54,3.24,3.24,0,0,1,2.47,1,3.59,3.59,0,0,1,.53,2.72,3.75,3.75,0,0,0,1.58-2,3.53,3.53,0,0,0,0-2.5c-.29-.82-1.16-1.43-2.6-1.83a7.11,7.11,0,0,0-4.56.35l-2.29.83-.53-1-.1-.66a2.3,2.3,0,0,1,.43-.92l.43-.33,8.08-6.8-7.24.81a4.09,4.09,0,0,1-1.93-.15l-.89-1-.23-.71.23-.2.71-.33q.94-.24,11.43-.92l1.42.53a2.47,2.47,0,0,1-.38,2.29q0,.44-5.79,5.33a8.61,8.61,0,0,1,4.5,1.54,5.88,5.88,0,0,1,1.87,2.4,5.24,5.24,0,0,1,.14,2.9,6.73,6.73,0,0,1-1.35,3,6.22,6.22,0,0,1-2.24,1.85A7,7,0,0,1,156,134,10.53,10.53,0,0,1,153.45,133.9Zm1.78-2.36.46-.81a1.3,1.3,0,0,0-1.27-1.4,1.43,1.43,0,0,0-1.3,1.63A2.15,2.15,0,0,0,155.23,131.54Z"/></svg>