<svg id="レイヤー_1" data-name="レイヤー 1" xmlns="http://www.w3.org/2000/svg" viewBox="0 0 164.21 142.69"><defs><style>.item_04-1{fill:#dfb1ff;}.item_04-2{fill:#ffff5a;}</style></defs><path class="item_04-1" d="M53.54,128.28c-14.62,4.54-32.3.55-41.48-11.7s-12.13-32.34,1-40.16C8.15,72.74-1.38,63.12,2.28,48.48c3.6-14.42,14.79-16.57,21.63-18.92C25.29,29.08,27,14.28,44.63,5.23c15.6-8,38.75-1.8,44.81,6.07a37,37,0,0,1,40.31-2.51A37,37,0,0,1,147.1,45.25c9.76,7.35,15.86,12.64,15.58,24.86s-7.85,24.61-19.82,27c5.59,5.27,5.39,20.91,1,27.18s-12.24,9.51-19.9,10-15.28-1.33-22.66-3.45C101.27,130.9,78.88,155.72,53.54,128.28Z"/><path class="item_04-1" d="M53.14,126.83c-11.42,3.5-24.85,1.89-34.41-5.59a35.65,35.65,0,0,1-13-29.64c.47-5.68,3.13-10.89,8.08-13.89a1.52,1.52,0,0,0,0-2.59c-7.6-5.68-12.29-15-10.49-24.59a22.44,22.44,0,0,1,7.39-13.38C13.81,34.62,17.57,33.2,21.3,32c1.17-.38,3-.61,3.87-1.53a7.12,7.12,0,0,0,1.18-2.37,47.71,47.71,0,0,1,4.09-8.34,36.55,36.55,0,0,1,27-16.56A48.29,48.29,0,0,1,76,5.17c4.45,1.37,9.38,3.42,12.34,7.19a1.5,1.5,0,0,0,1.82.23A35.77,35.77,0,0,1,121,6.73a34.16,34.16,0,0,1,22.47,20.63,34.6,34.6,0,0,1,2.17,17.49,1.62,1.62,0,0,0,.69,1.7c6.27,4.72,12.85,9.81,14.44,18a29.5,29.5,0,0,1-6.37,23.91,21.55,21.55,0,0,1-11.95,7.28,1.5,1.5,0,0,0-.66,2.5c2.49,2.42,3.34,6.28,3.66,9.6a30.29,30.29,0,0,1-1.11,11.94c-2.84,9-13.24,12.91-21.86,13.18-7.1.22-14-1.53-20.82-3.46a1.49,1.49,0,0,0-1.46.38c-7.29,8-19.49,12-30,8.39-6.1-2.12-11.23-6.34-15.58-11-1.32-1.42-3.43.71-2.12,2.12,7.25,7.79,17,14.08,28,13.29a34.18,34.18,0,0,0,18.62-7.74,27,27,0,0,0,3.22-2.93l-1.46.39c11.79,3.37,25,6,36.32-.25a20.8,20.8,0,0,0,9.59-10.26,30.63,30.63,0,0,0,1.75-13.09c-.29-4.41-1.31-9.46-4.61-12.67l-.66,2.51c9.44-2,16.27-9.81,19.23-18.71,2.79-8.41,2.46-18.28-3.08-25.5C156.24,50.24,152,47.07,147.86,44l.68,1.7a38.75,38.75,0,0,0-9.83-31.49A37,37,0,0,0,107.15,2.74,37.61,37.61,0,0,0,88.69,10l1.81.23c-2.74-3.49-7.13-5.6-11.2-7.12A51.19,51.19,0,0,0,62,0,39.48,39.48,0,0,0,44.36,3.69a41.24,41.24,0,0,0-13.92,11,42,42,0,0,0-6.11,10.46c-.26.62-.51,1.24-.75,1.87l-.27.69c-.17.43.06-.07-.15.34-.07.14-.15.27-.21.41s.08-.06.14-.1c.22-.18.6-.27.14-.12l-.58.19-1.31.43C17.39,30.1,13.4,31.49,10,34a24,24,0,0,0-8.87,13,26.72,26.72,0,0,0,.94,18.15,30.72,30.72,0,0,0,8.18,11c.66.58,1.36,1.12,2.07,1.65V75.12C1.68,81.57,1.12,95.24,4.81,105.93a38.71,38.71,0,0,0,9.82,15.74,37.24,37.24,0,0,0,17.11,8.84,43.31,43.31,0,0,0,22.2-.78C55.78,129.16,55,126.27,53.14,126.83Z"/><path class="item_04-2" d="M43.12,51.45l-.18,0h0l-1.17-.33-.1-.15a3.07,3.07,0,0,1-.33-1.4l0-.15q.26-6.82.18-7a4,4,0,0,0-1.15.48,3.17,3.17,0,0,1-1.93.46h-.1l-1-.51-.18-1.32.79-.53a12.49,12.49,0,0,0,2-.74c.54-.25,1.09-.49,1.65-.71l.12-.43.08-3.63,0,0-1.88.71a22.27,22.27,0,0,1-.56,2.49l-.07.26-.61.1-.33,0-.31.12-1.12-.38-.2-.86-.18-.48.36-.61c.66-3.78,1.2-6,1.62-6.68l.16-.23.61.13,1.52.56.13,1,0,.08c-.22.57-.42,1.15-.61,1.72h0a7.3,7.3,0,0,1,1.67-.35,25.6,25.6,0,0,1,.64-5l.81-.3a3.26,3.26,0,0,1,1.37.45l.38,1.05-.25,3.68.25.1.74-.23.78.33.39.25L47.59,32c.39-.83.74-1.69,1.07-2.57l.07-.17.13-.08a3,3,0,0,1,1.32-.3h.15l.84.63.3,1.14-.22.16a.59.59,0,0,0-.23.48v.07l-.36.82-.3.91a1.2,1.2,0,0,0,.73.13q8.38.51,9.27,1.09l0,0a1.09,1.09,0,0,1,.33,1A63.48,63.48,0,0,1,60,43.77q-.45,2.29-.84,3.72a9.2,9.2,0,0,1-1.14,2.56l0,.05a2,2,0,0,1-1.93.51l-.08,0c-1-.41-1.91-.83-2.84-1.27l-.08-.08-.5-.51-.26-1.29-.15.2,0,0-1,1.12L49.9,49l-1-.28-.41-1.22.11-.15a4.54,4.54,0,0,1,1.26-1.32,26.62,26.62,0,0,0,2.34-5.23,47.82,47.82,0,0,0,1.32-5.24l-.66.06-.61,1.67a35,35,0,0,1-2,4.67l0,.08-.28.2-.15.28L49,43.3a2.32,2.32,0,0,1-1.78.91h-.07l-.76-.35a1.64,1.64,0,0,1-.59-.74l-.1-.53.28-.54.1,0a2.61,2.61,0,0,0,1.19-1.06l.06,0a10.21,10.21,0,0,0,1.09-1.62q.41-.9,1.29-3.63l-.35-.18s-.12,0-.26.05a7.28,7.28,0,0,1-1.14,2l0,.05a2.6,2.6,0,0,1-1.6.36h-.16l-.78-.69v-.61l.5-1.09-.12-.23-1,0-.15,3.27c.46-.08.92-.18,1.4-.3l.12,0,.81.31.46,1.32-.38.56-2.51.94a25.46,25.46,0,0,0,0,4.21A15.27,15.27,0,0,1,44,50.94l-.08.1A1,1,0,0,1,43.12,51.45Zm12.67-3.58.05,0a12,12,0,0,0,1.07-3.07c.18-1.12.37-2.2.54-3.24a9.94,9.94,0,0,0,.19-2.5l.18-2.77L56.73,36q-.91,2.94-1.8,5.89a19.62,19.62,0,0,1-2.54,5.35l.46-.61.68-.07,1.22.48Z"/><path class="item_04-2" d="M76.82,53.33a1.49,1.49,0,0,0-.88-.28l-.56-.56-.08-.69c-.59-.32-1.19-.61-1.79-.88a8.17,8.17,0,0,1-1.74-1.1l-.2-.48a1.81,1.81,0,0,1,1.6-.43l1,.15.13.28.83.33c.09-.46.16-.94.21-1.45v-.68l-.21-.28-.71-.13-.25.08c-1.15-.1-2.29-.22-3.4-.36a1.92,1.92,0,0,1-1,.13,6.45,6.45,0,0,1-1.65-.46l-.28-.28a1.17,1.17,0,0,1-.28-.76l1.24-.4.36.12.33-.12.71.05.48-.05a9.73,9.73,0,0,1,2.06.2l.35-.08a3.67,3.67,0,0,0,1.93.21l.48-.13c0-.54,0-1.08.08-1.6a1.15,1.15,0,0,0-1.12-.26c-.59-.1-1.14-.17-1.65-.22l-1.65.07-.48-.07a10.91,10.91,0,0,0-2.16.21,13.48,13.48,0,0,1-2.13.27,3,3,0,0,1-1.8-.89l-.13-.41a7.31,7.31,0,0,1,3-.88l.28,0,.36-.13.88.08.49-.08c1.23,0,2.48,0,3.73,0a17.79,17.79,0,0,0,2.44.13l.2-.61-.08-.49A3.69,3.69,0,0,0,73.65,40l-1,.08L72.05,40l-.56.15-.28-.07a7.06,7.06,0,0,1-2.82.33,4.41,4.41,0,0,1-1.11-.54L67,39a5.3,5.3,0,0,1,1.91-.59,18,18,0,0,0,2-.3h.69l.28.07a27.78,27.78,0,0,1,3.65,0l.36-.07.08-.89-.16-.41-2.13-.23-1,.23-.41-.15-.28.08-.48-.08L71,37l-.36-.08-.28.08-.68-.2-.28.12-.13-.53L69,36.11a17.06,17.06,0,0,1-.63-1.7A8.08,8.08,0,0,1,68,32.56l.43-.48a10.56,10.56,0,0,1,3-.44,9,9,0,0,0,4.55-.2l.22-1.17a7.64,7.64,0,0,0-.91-.2,16.05,16.05,0,0,1-3.1,0c-.88.08-1.78.18-2.71.28l-.61.07-.69-.15-.56.15A11.35,11.35,0,0,1,66,30.15l-.35-.77.12-.35c.8-.17,1.59-.31,2.37-.41,1.54-.05,3.08-.12,4.62-.2l.48-.2a4.22,4.22,0,0,0,1.52.12l.28-.05a2.26,2.26,0,0,0,1.32-.23,1.42,1.42,0,0,1,.36-1.16l.53-.06,1,.49.43,1.09q3.28,0,6.55.13A7.88,7.88,0,0,1,87,28.32a6.9,6.9,0,0,0,1.75-.26l.36.16.48.12.48,1a2,2,0,0,1-.76.77,13.29,13.29,0,0,0-2.77.12c-1.52.05-3,0-4.57-.07a31.16,31.16,0,0,0-3.3.22l-.28,1a37.08,37.08,0,0,0,5.87.13,2.67,2.67,0,0,1,1.4.56l.12,1-.4.41a18,18,0,0,0-.84,2,3.06,3.06,0,0,1-.76,1.73l-.69.05-.48-.13-.36.13L82.16,37a7.28,7.28,0,0,0-3-.48l-.76.2-.08.28v1a2.15,2.15,0,0,0,1.12.13c1.12,0,2.22,0,3.32-.13.51.09,1,.15,1.58.2s.92-.19,1.4-.27a2.49,2.49,0,0,1,1.29.6l.23.77a4.63,4.63,0,0,0-.56,1.57l.69.08.63-.21.53.13a2.32,2.32,0,0,1,1.32.48,1,1,0,0,1,.36.92l-.2.33a19.23,19.23,0,0,1-2.52.28l-.25-.08-1,.41c-.14.79-.3,1.58-.48,2.36l.07.48-.07.25.15.36-.28.48a11,11,0,0,0-2.36.21c-.68-.09-1.36-.16-2.06-.21l-.28.08-.28-.08-1.72.28-.36-.07-.48.12-.28.56a20.53,20.53,0,0,0,.2,3.23l-.28.83.08.82-.2.27A1.23,1.23,0,0,0,76.82,53.33ZM75.58,34.89c.27,0,.43-.09.48-.28L76,34.34l.07-.82c-.59-.1-1.21-.18-1.85-.23l-.56.08h-1a1.86,1.86,0,0,1-.89.08l-1-.08-.2.41a1.6,1.6,0,0,0,.33,1,2.4,2.4,0,0,0,1.16.12l1.32-.12Zm7.54,10.24a7.38,7.38,0,0,0,.48-1.86.81.81,0,0,0-.83-.2l-.33.08-1.12-.21a16.52,16.52,0,0,0-3.1.69l-.15.68a2.06,2.06,0,0,0-.08.82l.28.15.36-.08.76.21a4.15,4.15,0,0,1,1.37-.21,3.37,3.37,0,0,0,1.4.13Zm-3.73-3.79a12.84,12.84,0,0,1,2.77-.05,9.91,9.91,0,0,1,1.65-.15l.2-.81-.13-.28c-1.39,0-2.77-.1-4.16-.21a4.7,4.7,0,0,1-1.37.21l-.13,1.17A1.3,1.3,0,0,0,79.39,41.34Zm2.77-6.73.33-1.09-.82-.23-.55.08-2.65-.13a1.4,1.4,0,0,0-.2,1.1l.15.35h.41l.28.05.56-.13c.64.09,1.31.16,2,.21Z"/><path class="item_04-2" d="M101.63,49.47a2.38,2.38,0,0,1-1.17-.66l-.38-.66-.23-1,.18-.63a1.24,1.24,0,0,0,1.07-.23,17.63,17.63,0,0,0,1.19-3.33,8.75,8.75,0,0,0,.25-2.89,1.2,1.2,0,0,0-.45-.4,1.45,1.45,0,0,0-.69-.06l-1.4.08c-.54,1.32-.94,2.4-1.2,3.23s-.62,1.9-1.08,3.17l-.84,1.44a3.74,3.74,0,0,1-1.5.13l-.45-.38-.31-1.07a31.53,31.53,0,0,0,1.45-3.1c.34-.86.67-1.87,1-3-1.86.2-3.14.07-3.83-.38-.14-1.07.18-1.66.94-1.78,1.64-.07,2.83-.13,3.58-.18a19.25,19.25,0,0,1,1.55-3.91,1.06,1.06,0,0,1,1.47-.3,1.42,1.42,0,0,1,.56,1.52l-.64,2.34,2.1.15a2.9,2.9,0,0,1,1.79.76,6.72,6.72,0,0,1,.51,2.31,9.44,9.44,0,0,1-.46,3.45,36.89,36.89,0,0,1-1.37,3.53l-.38.59a1.52,1.52,0,0,1-.36.86A1.48,1.48,0,0,1,101.63,49.47Zm13-5.89-1-.41a7.22,7.22,0,0,1-1.65-1c-.45-.37-1.3-1-2.55-2a15.88,15.88,0,0,1-2.22-1.93l-.36-.41-.28-.56.44-.68.76-.11c.47,0,1.64.68,3.5,2.07a29.63,29.63,0,0,0,3.28,2.3l.76.61.13.41.12.43-.33.89-.28.12Zm-3.93-7.75a11,11,0,0,1-2.36-2l-.56-.69a1.46,1.46,0,0,1,.07-1,1.36,1.36,0,0,1,1-.21A6.54,6.54,0,0,1,112.45,35l.07.63-.63.28A1.29,1.29,0,0,1,110.72,35.83Zm3.73-2.66-.48-.28-2-1.78a1.37,1.37,0,0,1-.4-1l.4-.49,1.12-.15,1.45.76a6.92,6.92,0,0,1,1.24,1.93c.09.56,0,.85-.35.87C115.28,33.35,115,33.39,114.45,33.17Z"/><path class="item_04-2" d="M42.59,79.14q-4.83-.19-6.67-.33a12.2,12.2,0,0,1-2.85-.45c-.31-.77-.22-1.3.25-1.6q.76-.84,1.8-1.83a22.29,22.29,0,0,0,4.16-6.64q.87-2.69-.58-4c-1.64-.2-2.72-.11-3.23.27A14.28,14.28,0,0,0,33.83,66H32.71q-.48-.4-.18-1.47a3.49,3.49,0,0,1,1.73-2.06,6.2,6.2,0,0,1,4.9-.61,4.07,4.07,0,0,1,1.93,1.07,4.23,4.23,0,0,1,1.09,2.69,9.78,9.78,0,0,1-.45,3.5,17,17,0,0,1-1.79,3.8,22.44,22.44,0,0,1-2.68,3.52l6.19.38A1.94,1.94,0,0,1,44.06,78l-.3.94Z"/><path class="item_04-2" d="M54.41,80.64l-.56-.25a4.26,4.26,0,0,1-.63-3.11,52.8,52.8,0,0,0-.1-7.07,12.79,12.79,0,0,1-2.57,3.47l-.33.41-.94.08-.56-.41a1.34,1.34,0,0,1-.33-.91q4.29-5.67,5.3-8.67a60.52,60.52,0,0,0,1.76-6.64l.54-.33a1.79,1.79,0,0,1,.93.58l.33,1.14a16.8,16.8,0,0,1-.45,4.37c-.31,1.07-.79,2.51-1.45,4.34q.36,5.86.37,8.84a12.92,12.92,0,0,1-.29,3.7Zm4-11.6a2.2,2.2,0,0,1-.92-.69,1.15,1.15,0,0,1-.25-.73l.41-.38a9.09,9.09,0,0,1,1.93-.46l1.85-.2-.18-4.17-1.78,0-.5-.21-.56-.3L58.24,61l.74-.79,5.69-.15a26.84,26.84,0,0,0,.2-2.84,3.41,3.41,0,0,1,1.4-.43l.66.66c0,.47.08,1.27.15,2.41,2.32,0,3.93,0,4.83.07L73,60.2l.23,1.2-.71.81-2.06.1-.89,4.09,2.54,0,1.73.33a2.09,2.09,0,0,1,.61,1.5l-.51.51Zm2.21,11.12-.77-.89c-.11-4.67-.15-7.4-.1-8.2a3.22,3.22,0,0,1,2-.25c4.91-.12,7.51-.2,7.82-.23l.25-.31,1.09.71a1.57,1.57,0,0,1,.44,1.07L70,80l-.26-.07C69.37,80.09,66.31,80.18,60.61,80.16Zm7.23-2,.54-5.13L68,73,62,73l.08,5.16ZM67,66.4l.79-4.17H63.53l.15,4.24Z"/><path class="item_04-2" d="M85.24,79.55a4.41,4.41,0,0,1-2.42-.84,3.85,3.85,0,0,1-.61-1.9,3.79,3.79,0,0,0,.21-.74l.81-.13.48.66a3.61,3.61,0,0,1,1.45.61l.28,0,.4,0a3,3,0,0,0,2.7-1.06,2.51,2.51,0,0,0,.83-1.83l-.22-1.42a5.42,5.42,0,0,0-1.71-1.42,2.76,2.76,0,0,0-1.16-.26l-.61,0a2.81,2.81,0,0,1-1.58-.46l-.33-1,.26-.43A4.94,4.94,0,0,1,85.91,69a2.39,2.39,0,0,0,1.74-.76,3.46,3.46,0,0,1,.76-.81,4,4,0,0,0,.76-2.21,2.11,2.11,0,0,0-1-1.83l-1.52-.25a17.59,17.59,0,0,1-2.14.48,2.31,2.31,0,0,1-1.16-.38,1.11,1.11,0,0,1-.33-1l.33-.45a7.71,7.71,0,0,1,4-.69,4.14,4.14,0,0,1,2,.53,4,4,0,0,1,1.93,1.83l.35.56a7.28,7.28,0,0,1,.36,2.56,18.63,18.63,0,0,1-.84,2q-.55.66-1.17,1.29v.49a3.55,3.55,0,0,1,1.87,2.1,6.7,6.7,0,0,1,.39,3,5.93,5.93,0,0,1-1.72,3,6.19,6.19,0,0,1-2.23,1.11A9.72,9.72,0,0,1,85.24,79.55Z"/><path class="item_04-2" d="M102.77,80.64l-.56-.25a4.26,4.26,0,0,1-.63-3.11,52.8,52.8,0,0,0-.1-7.07,13,13,0,0,1-2.57,3.47l-.33.41-.94.08-.56-.41a1.34,1.34,0,0,1-.33-.91q4.29-5.67,5.3-8.67a60.52,60.52,0,0,0,1.76-6.64l.53-.33a1.78,1.78,0,0,1,.94.58l.33,1.14a16.8,16.8,0,0,1-.45,4.37c-.31,1.07-.79,2.51-1.45,4.34q.36,5.86.37,8.84a12.92,12.92,0,0,1-.29,3.7Zm4-11.6a2.2,2.2,0,0,1-.92-.69,1.15,1.15,0,0,1-.25-.73l.4-.38a9.38,9.38,0,0,1,1.93-.46l1.86-.2-.18-4.17-1.78,0-.5-.21-.56-.3L106.6,61l.74-.79L113,60.1c.12-1,.18-2,.2-2.84a3.41,3.41,0,0,1,1.4-.43l.66.66c0,.47.08,1.27.15,2.41,2.32,0,3.93,0,4.82.07l1.07.23.23,1.2-.71.81-2.06.1-.89,4.09,2.54,0,1.73.33a2.09,2.09,0,0,1,.61,1.5l-.51.51ZM109,80.16l-.77-.89c-.11-4.67-.15-7.4-.1-8.2a3.22,3.22,0,0,1,2-.25c4.91-.12,7.51-.2,7.82-.23l.25-.31,1.09.71a1.57,1.57,0,0,1,.44,1.07L118.39,80l-.26-.07C117.73,80.09,114.67,80.18,109,80.16Zm7.23-2,.54-5.13-.39-.1-6,.07.08,5.16Zm-.81-11.78.79-4.17h-4.29l.15,4.24Z"/><path class="item_04-2" d="M22.75,99.86a2.55,2.55,0,0,1-1.5-1l0-.53a5.39,5.39,0,0,1,1.1-1.2l.38-.15a15,15,0,0,1,2.13-1.27l.41-.43.38-.08.58-.3.48.2a1.61,1.61,0,0,1,0,1,3.82,3.82,0,0,1-1.13,1.65,17.47,17.47,0,0,0-1.46,1.39l-1,.79Zm2.1-6.33-.45-.12a14.81,14.81,0,0,1-2.9-2.29l.13-1.19a3.09,3.09,0,0,1,1.42-.51l.66.28a16,16,0,0,1,2.29,2l.58,1-.51.84ZM33.11,111a1.28,1.28,0,0,1-1.15-.71,15.18,15.18,0,0,1-.38-4.19l-.61.45a13.79,13.79,0,0,1-2.6,1.1,20.51,20.51,0,0,1-2.73.78,1.74,1.74,0,0,1-1.12-.33,1.31,1.31,0,0,1-.68-1.32l.13-.3a3.63,3.63,0,0,1,1-.38q5.25-1.5,6.63-3.08-5.41,0-6.93.18l-1.22-.73a1.21,1.21,0,0,1-.28-.92l.61-.53a79.34,79.34,0,0,1,8-.38,13.56,13.56,0,0,0,.05-1.86l-2.51-.05c-.39-.15-.65-.58-.76-1.29-.17-1.76-.27-3.73-.28-5.89A8.92,8.92,0,0,1,30,87.9,2.31,2.31,0,0,1,32,87.08c.66.21.89.6.69,1.2A2.56,2.56,0,0,0,31.66,90C33,90,34,90,34.92,90h2.83l.46.2a1.9,1.9,0,0,1,.51,1.12l-.1,1.4L41,91.07a2.89,2.89,0,0,1,1.11-.81,2.32,2.32,0,0,1,1.65-.51c.73,0,1.09.43,1.07,1.24l-.46.72A11.49,11.49,0,0,1,42.63,93a5.85,5.85,0,0,1-1.65.67,13.87,13.87,0,0,1-1.46.28,4.27,4.27,0,0,1-1.13,0,7.53,7.53,0,0,0,2.9,1.55c1,.27,2.09.53,3.19.79v.58l-.2.56A3.06,3.06,0,0,1,42.5,98,6.83,6.83,0,0,1,40,97.48a4.53,4.53,0,0,1-1.9-1.59,5.14,5.14,0,0,1-.43,2.21,1,1,0,0,1-.82.61l-2.46.05,0,1.81,7.42.1a3.49,3.49,0,0,1,1.6.53,1.46,1.46,0,0,1,.33,1l-.64.56-1.37.07-7.26.08a11.22,11.22,0,0,0,3.72,2l4,1.26c.61.07.75.35.41.84l-.61.58-1,.08A22.33,22.33,0,0,1,37.4,107c-1.14-.35-2.25-.75-3.35-1.21.05,1.86.11,3.22.2,4.06a1.31,1.31,0,0,1-.33.89A.78.78,0,0,1,33.11,111Zm2.71-17.35L36,92,30.85,92l-.08,1.44a.55.55,0,0,0,.56.21Zm-.25,3.31.1-1.6c-2,0-3.6,0-4.77.1v1.47Z"/><path class="item_04-2" d="M56,109.81a10.2,10.2,0,0,1-3.09-.71l-.44-.43a2.47,2.47,0,0,1-1.19-1.15q-1.21-1.22-1.22-8t0-7.73A6.45,6.45,0,0,1,50.46,90l.76-.46.84.1A5.35,5.35,0,0,1,53,90.69v1q-.12,1-.15,12.11a5.94,5.94,0,0,0,1.29,3.09,6.48,6.48,0,0,0,1.73.56,6.17,6.17,0,0,0,2.65-.91c.82-.51,1.45-.93,1.9-1.27l.55-.38a1.51,1.51,0,0,1,1.68-.59l.38.26.23,1.06a1.89,1.89,0,0,1-1,1.78A15.63,15.63,0,0,1,59.55,109,11.49,11.49,0,0,1,56,109.81Z"/><path class="item_04-2" d="M77.29,110.29c-.55-.3-1.11-.57-1.67-.81a39.12,39.12,0,0,1-7.11-7.8l-.79-.22a5,5,0,0,1-.58-1.78l.45-.69q1.75-.55,8.61-7.21a8.07,8.07,0,0,1,1.53-1.27h.53a.88.88,0,0,1,1.06.59l.08,1.11-.76,1a33.06,33.06,0,0,1-7.59,7,25.7,25.7,0,0,0,2.51,3.75l2.12,2.47a7.43,7.43,0,0,0,2.5,1.88l1,.58,0,.3a1,1,0,0,1-.43,1.12A1.54,1.54,0,0,1,77.29,110.29Z"/><path class="item_04-2" d="M88.83,104a1.63,1.63,0,0,1-1.86-.81l0-.84c.46-1.12.93-2.21,1.41-3.26a15.58,15.58,0,0,0,1.1-3.77c-1.06.22-2,.39-3,.5a2.07,2.07,0,0,1-1.95-1l-.1-.33.58-.63.46-.31c1.28-.3,2.22-.51,2.81-.62s1.21-.24,1.86-.39l.15-1.22a16,16,0,0,0,.25-2.29,1.57,1.57,0,0,1,1-.48,2.65,2.65,0,0,1,1.12.31,2.07,2.07,0,0,1,.51,1.34l-.31,1.86c2-.36,3.29-.58,4-.66l.81.28a1.08,1.08,0,0,1,.56.93,1.39,1.39,0,0,1-.64,1.12,3.33,3.33,0,0,1-2,.38l-3.23.64c-.42,1.52-.7,2.67-.85,3.44a11.78,11.78,0,0,1-.63,2.22c-.28.71-.57,1.48-.88,2.31l-.71.86Zm8.33,5.41a5.67,5.67,0,0,1-2.76-1.23,3.57,3.57,0,0,1-1.23-3,4.93,4.93,0,0,1,1.07-2.28,6.48,6.48,0,0,1,1.39-.78,4.07,4.07,0,0,1,2.19-.06l1.39.35a13,13,0,0,0,0-3.85,1.49,1.49,0,0,1,1.5-.74l.56.25.38.49c.05.49.11,1.06.19,1.72a19.33,19.33,0,0,1-.32,4,6.33,6.33,0,0,1,2.49,2.42l.48.71c.21.76,0,1.17-.63,1.24l-1-.23c-.59-.45-1.19-.9-1.8-1.34l-.38-.31-.84,1.35A2.65,2.65,0,0,1,97.16,109.43Zm1.11-3a1.27,1.27,0,0,0,.37-1.35c-.16-.47-.67-.78-1.53-.91a1.66,1.66,0,0,0-1.68,1.49c0,.77.49,1.31,1.47,1.63A1.53,1.53,0,0,0,98.27,106.41ZM106.53,97c-.87-.32-1.71-.66-2.52-1a17.68,17.68,0,0,1-2.39-1.26l-.76-1L101,93l1.5-.28,1.72.79,2.52.84.79.38a2.76,2.76,0,0,1,.52,1.23c.06.43-.23.7-.85.8Z"/><path class="item_04-2" d="M118.4,110.06a4.15,4.15,0,0,1-2.29-1.81,3.36,3.36,0,0,1,3.25-5,3.29,3.29,0,0,1,2.48,1,3.62,3.62,0,0,1,.52,2.71,3.69,3.69,0,0,0,1.58-1.95,3.53,3.53,0,0,0,0-2.5c-.29-.82-1.15-1.43-2.6-1.83a7.1,7.1,0,0,0-4.56.34l-2.28.84-.54-1-.1-.66a2.45,2.45,0,0,1,.43-.92l.44-.33,8.07-6.8L115.6,93a4.09,4.09,0,0,1-1.93-.15l-.89-1-.22-.71.22-.21.72-.33q.93-.23,11.42-.91l1.42.53a2.47,2.47,0,0,1-.38,2.29c0,.29-1.93,2.06-5.79,5.33a8.61,8.61,0,0,1,4.5,1.54,5.92,5.92,0,0,1,1.88,2.4,5.43,5.43,0,0,1,.14,2.9,6.85,6.85,0,0,1-1.36,3,6.22,6.22,0,0,1-2.24,1.85,6.88,6.88,0,0,1-2.13.65A11,11,0,0,1,118.4,110.06Zm1.77-2.36.46-.81a1.3,1.3,0,0,0-1.27-1.4,1.42,1.42,0,0,0-1.29,1.63A2.12,2.12,0,0,0,120.17,107.7Z"/></svg>