<svg id="レイヤー_1" data-name="レイヤー 1" xmlns="http://www.w3.org/2000/svg" viewBox="0 0 153.97 145.45"><defs><style>.cls-1{fill:#dfb1ff;}.cls-2{fill:#ffff5a;}</style></defs><path class="cls-1" d="M83.43,7.78c13.2-9.23,32.66-8.17,44.78,2.44S144,40,136.55,54.29c15.93,11.14,20.32,35,11.27,52.17s-29.39,27-48.78,25.71c-3.44-.23-6.93-.77-10.3,0-2.94.63-5.59,2.16-8.26,3.55-15,7.78-33,11.25-48.83,5.36S3.71,118.2,6.9,101.64c.79-4.08,2.43-8.13,1.87-12.25-.37-2.75-1.7-5.26-2.81-7.8-8.67-19.67-4.41-44.35,10.35-60S55.46.32,75.59,7.85"/><path class="cls-1" d="M84.18,9.08a36.15,36.15,0,0,1,34.68-3,34.37,34.37,0,0,1,19.79,27.8,34.81,34.81,0,0,1-3.4,19.68,1.56,1.56,0,0,0,.54,2.06c9,6.35,14.15,17,15,27.88a40.89,40.89,0,0,1-10.51,31.07,51.37,51.37,0,0,1-31.07,15.81,53.27,53.27,0,0,1-8.75.39c-3.75-.14-7.49-.81-11.23-.23s-6.74,2.43-9.92,4.06a74.88,74.88,0,0,1-9.75,4.18c-12.77,4.44-27.66,5.66-40.18-.28-10.55-5-19.08-15-21.12-26.64a27.64,27.64,0,0,1-.17-8.42c.49-3.66,1.86-7.14,2.2-10.83S9.45,85.7,8,82.44a56.83,56.83,0,0,1-3.25-9A55.59,55.59,0,0,1,7.5,37.85a51.63,51.63,0,0,1,24-25.7A55.57,55.57,0,0,1,66.66,6.93,51.75,51.75,0,0,1,75.2,9.3C77,10,77.79,7.07,76,6.4a57.34,57.34,0,0,0-37.27-.46A55.41,55.41,0,0,0,9.18,28.31a58.68,58.68,0,0,0-9,36.42A56.06,56.06,0,0,0,5,83.15,29.41,29.41,0,0,1,7.08,88.5a13.78,13.78,0,0,1,0,5.72c-.67,3.56-1.83,7-2.11,10.61-1,12.44,6,24.35,15.66,31.75,11.21,8.61,26,10.34,39.54,7.8a76.51,76.51,0,0,0,20.69-7.22c3.5-1.8,6.85-3.75,10.89-3.89,3.65-.12,7.28.52,10.93.51a55.74,55.74,0,0,0,34.64-12.3,44.37,44.37,0,0,0,16.49-30.72c1-11.47-2.52-23.5-10.21-32.18A36.27,36.27,0,0,0,137.31,53l.53,2c5.93-11.6,5.17-26-1.4-37.16C129.64,6.32,116.83-.19,103.53,0A37.78,37.78,0,0,0,82.67,6.48c-1.58,1.1-.08,3.7,1.51,2.6Z"/><path class="cls-2" d="M40,47.79l-.63-.1-.51-.07a1,1,0,0,1-.38-.82l.13-.53a5.45,5.45,0,0,0,.85-1.85c.16-.66.3-1.39.43-2.17s.25-1.51.38-2.15.25-1.57.38-2.78.19-2,.19-2.45l.46-.33c1.4-.08,4.88-.07,10.43.05l-.12-2.13a1.39,1.39,0,0,0,.38-.74l.51-.28a2.08,2.08,0,0,1,1.09.56c.17.9.36,1.76.58,2.59l3.91-.1.33-.08a3.85,3.85,0,0,1,1.75.41.91.91,0,0,1,.46.79l-.3.61-.44.43-.78,0-.21-.26-4.69,0c.17,1,.31,1.83.43,2.5a8.85,8.85,0,0,0,.56,1.92l.45.15.56-.76,1.83-2,.43.07a3,3,0,0,0,.89.15l.33.94a12.38,12.38,0,0,1-1.22,2.16c-.73.92-1.22,1.54-1.47,1.88a1.91,1.91,0,0,0,.61,1.22l.81.41.18.22a6,6,0,0,0,1.29-1.37,6.63,6.63,0,0,1,1.22-1.34l.71.23.28.12v.59l.16.73A20.53,20.53,0,0,1,60.57,47a1.44,1.44,0,0,1-.94.33l-.53-.07-.51.07q-.71-.51-1.41-1t-1.38-1l-.56-.61a12.24,12.24,0,0,1-3.12,1.06c-.38-.11-.77-.25-1.17-.4l-.23-.69.3-.4.36-.08.1-.31a2.27,2.27,0,0,0,1.5-.58,1.27,1.27,0,0,0,.68-.43l.31-.28a18.54,18.54,0,0,1-1.19-2.58,14.3,14.3,0,0,1-.72-2.57l-.15-1.15-8.86,0a7.2,7.2,0,0,0-.44,1.93c-.06.66-.13,1.39-.21,2.17s-.15,1.63-.23,2.53a6.49,6.49,0,0,1-.59,2.34q-.48,1-1,2l-.38.18Zm1.93,7.06c-.42-.05-1-.14-1.62-.28-.46-.83-.53-2.55-.23-5.18l.46-1.11A1.12,1.12,0,0,1,41.6,48l.46.28.46.48c-.14,1.42-.21,3-.23,4.62a.92.92,0,0,1,.41.76l-.33.31Zm2.57-8.76L44,45.71l-.48-.51A26.82,26.82,0,0,0,42.7,42l.27-.86a5.27,5.27,0,0,1,1.6-.46A20.53,20.53,0,0,1,49,40.3l.23,0a8.61,8.61,0,0,1,1.17.74c.19.24.15.71-.11,1.42a13.27,13.27,0,0,0-.63,2.49l-.23.1,0,.36L44.85,46Zm0-6.6-.79-.1a3.28,3.28,0,0,1-.61-1.17,7.33,7.33,0,0,1,3.12-.56l4.22-.25,1.17.51.1.3.25.15.15.49-.27.38-.41.18Q46.28,39.49,44.45,39.49Zm13,15.77a37,37,0,0,1-4-.27,14.11,14.11,0,0,1-3.71-.81,13.36,13.36,0,0,1-2.67-1.55,5.13,5.13,0,0,1-1.88-2.47,8.15,8.15,0,0,1-.5-2.47,3,3,0,0,1,1.09-.2l.86.25.46.46a3.79,3.79,0,0,1,.74,1.52,3.17,3.17,0,0,0,1,1.65,3.94,3.94,0,0,0,2.13.89,9.55,9.55,0,0,0,2.87.66l2.54.16.86-.39.21-.3.28.1A2.85,2.85,0,0,1,59,53l.38.56.23.61-.23.51-.53.43ZM47,44.16l.31-.17a6.42,6.42,0,0,0,.48-1.88L47.44,42l-2.18.51,0,1.8Zm8.23,7.57a3.91,3.91,0,0,1-2.54-1.4,15.35,15.35,0,0,1-.79-2.13l.92-.25a1.26,1.26,0,0,1,.76.38l.86.76.23.18.91-.46.44.28.45.81a2.89,2.89,0,0,1-.58,1.22A3.75,3.75,0,0,1,55.24,51.73Zm4.39-18.21a12.24,12.24,0,0,1-2.08-.22l-.23.05-.48-.26-.15-.56a.8.8,0,0,1-.28-.88l1.14-.13,1.4.33.27-.05.79.28.76.38L61,33l-.36.31Zm1.58,18.06a3.45,3.45,0,0,1-1.86-.89l-1.8-1.93L57.32,48a1,1,0,0,1,.94-.33,1.84,1.84,0,0,1,1.22.45l2,2.06h.26a3.52,3.52,0,0,1,.43,1q-.08.26-.36.18A.56.56,0,0,1,61.21,51.58Z"/><path class="cls-2" d="M70.14,37.79l-1.77.28-.26.1a5.76,5.76,0,0,0,.28,2.51v.59a1.25,1.25,0,0,1-.38.91l-1,.38-.23-.45-.69-.36a8,8,0,0,1-.88-4.09l.38-1,.23-.56L66,36a7.17,7.17,0,0,1,1.55-.38h.2l1.4-.13a5.23,5.23,0,0,1-1.12-2.81l0-.16.5-.63.71-.2.92.27.66.56v.21C71.39,34,71.76,35,72,35.43l3-.15a4.14,4.14,0,0,1-.48-1,15.08,15.08,0,0,0-.36-1.91l.66-.76.94-.13.74.46.33.33.25.76,0,.23a19,19,0,0,1,.54,2l2.13.11L80,35c.26-.47.51-1,.77-1.5a6.57,6.57,0,0,0,.48-1.67l0-.15L82,31l.61,0,.63.17.21.46.33.23L83.93,33a12.23,12.23,0,0,1-.69,1.6,6.25,6.25,0,0,0-.48,1.09c1.51.13,2.69.26,3.56.38l.71-.15,1.14.48.46.94c-.32.69-.6,1.33-.82,1.9S87.36,40.4,87.1,41l-.07.18-.59.12-1.57-.61-.1-.6.1-.66,0-.56a1.39,1.39,0,0,0,.33-.69l-4.94-.42A72,72,0,0,0,70.14,37.79ZM68.09,55l-1.27-.73-.36-.84.15-.18a1.62,1.62,0,0,1,1.27-.58,10.94,10.94,0,0,0,2.58-1.6,8.7,8.7,0,0,0,1.26-1.52l-1.2-.11-.61-.55a14.75,14.75,0,0,1-.3-2.67l.25-6-.07-.33.33-.76a2.18,2.18,0,0,1,1.09-.46l.79-.33a96,96,0,0,1,9.92,0l.94.74L83,40l0,.11a43.68,43.68,0,0,0-.74,6,5.49,5.49,0,0,0,.18,1.4l-.84,1.6-.71.2-2.34,0a8.81,8.81,0,0,0,.08,2.49q1.62.93,5.66.35a4,4,0,0,0,.84-1.52,4.73,4.73,0,0,1,.79-1.4l.71-.15.53.53a1.14,1.14,0,0,1,.56.92,15.63,15.63,0,0,1-.38,1.77,4.1,4.1,0,0,1-.84,1.55l-.81.59a1.42,1.42,0,0,1-.94.35l-.08,0a47.7,47.7,0,0,0-5.61-.16H78.8c-.68-.35-1.34-.72-2-1.09l-.53-.4a2,2,0,0,1-.56-1.63l.07-2.18-1.09.12-.94,1.91a8.64,8.64,0,0,1-1.38,1.48,16.89,16.89,0,0,1-1.74,1.41h-.08c-.5.21-1,.43-1.49.69L69,55l-.56-.08Zm4-13.68,7.67-.15,0-.46-.69-.13-6.88.1ZM72.48,44l7.06,0,.07,0v-.69l-7.33.16-.06.33Zm-.2,2.23,0,.64.86,0h6.17l.18-.63Q73.08,46.15,72.28,46.27Z"/><path class="cls-2" d="M107,53a1.47,1.47,0,0,1-1.2-.81l.15-.73.79-.69a4.58,4.58,0,0,0,1.3-2.26,9.13,9.13,0,0,0,.38-3.92,7.83,7.83,0,0,0-1.06-3.13,5.71,5.71,0,0,0-2.55-2.09l-1.72-.28q-1.27,6.15-1.74,7.63t-2,5c-.39.71-.84,1.06-1.37,1a5.78,5.78,0,0,1-2-.51,7.65,7.65,0,0,1-1.75-1.22A8.58,8.58,0,0,1,92.85,49a11.64,11.64,0,0,1-.8-3.77,14.09,14.09,0,0,1,.64-3.44,7.32,7.32,0,0,1,1.76-2.65,7.07,7.07,0,0,1,3-1.88,16.46,16.46,0,0,1,3.49-.69l.15-.4.33-.13a3,3,0,0,1,1.91.51l.58.28a10.05,10.05,0,0,1,3.25,1.34,7.67,7.67,0,0,1,2.83,3,9.9,9.9,0,0,1,.92,3.4,14,14,0,0,1-.18,3.53,6.68,6.68,0,0,1-1.49,3.18A4.68,4.68,0,0,1,107,53Zm-9.7-2.81a24.89,24.89,0,0,0,2.13-5.35,44.28,44.28,0,0,0,1.22-6,6.14,6.14,0,0,0-4.09,1.48,6.61,6.61,0,0,0-2,3.65,7.49,7.49,0,0,0,.16,3.37A4.3,4.3,0,0,0,97.34,50.21Z"/><path class="cls-2" d="M41.81,86a2.06,2.06,0,0,1-.84-.36,2.69,2.69,0,0,1-.68-.81,8,8,0,0,1-.64-3.22,11.53,11.53,0,0,0-3,.2,1.93,1.93,0,0,1-1.24-.61l-.28-.89a5.1,5.1,0,0,1,2.15-.62l2.22-.14a11.19,11.19,0,0,0,.2-2.11v-.48a.78.78,0,0,0-.84-.2,2.38,2.38,0,0,0-1,.4,3.59,3.59,0,0,1-.61,1.22l-1.11.28-.13.28-.64-.56a.69.69,0,0,1-.55-.61l-.56-.12v.28l.07.68c-.05,1-.14,1.9-.28,2.86a25.66,25.66,0,0,1-.55,2.8l-1.53,1.17h-.33l-.63-.28A1.83,1.83,0,0,1,30.36,84l.2-.68.28-.41c.14-.59.24-1.19.32-1.78s.13-1.18.16-1.78a6.44,6.44,0,0,0-1.52,0,18.64,18.64,0,0,0-2.41-.4l-1,.28-.28.53a1.86,1.86,0,0,1,.13,1,12.7,12.7,0,0,1-.84,3.3l-.48.07a1,1,0,0,1-1,.54l-.28-.13-.49-.08a4.69,4.69,0,0,1-.28-1.09,20.14,20.14,0,0,0,.8-4.38c.11-1.5.24-3,.37-4.51-.08-1.86-.08-3.71,0-5.56l.28-.4a1.57,1.57,0,0,1,1.19-.21l.13.41.48.08.23.28.61.12.41-.2a2.24,2.24,0,0,0,.35-1.24l.49-.13a23.86,23.86,0,0,0,1.95-2.18l.48-.56.08-.33A10.83,10.83,0,0,0,29,64.32a3.62,3.62,0,0,0-1.73.56l-1.6,1.7-.07.33-.82.43-.28.2-.76.13a3.81,3.81,0,0,1-.63-1.58l.2-.53.76-.76c.34-.41.69-.8,1-1.17L26.75,62l1.2.15.05.28a12,12,0,0,1,3.48.21l.27-.08.28.08,1-.08a2.75,2.75,0,0,1,1.85,1.09l.07.28-.4.28c-.64.73-1.28,1.48-1.91,2.25S31.48,68,30.92,68.76a8.44,8.44,0,0,0,1.88,0,3.36,3.36,0,0,1,1.44.41l.49.68a7.31,7.31,0,0,0-.61,3.35l.12.64-.12.46.2,2.54.48-.13a20.7,20.7,0,0,0,1.14-2,14.23,14.23,0,0,0,.87-2.08l.56-.2h.48l.35.2.56.61.49.2-.16,1.17h.28l.28-.2a5.26,5.26,0,0,1,.41-1.65,1.77,1.77,0,0,1,1.11-.21l.44.21.48.56.28,0,.4.89.28.07a4.28,4.28,0,0,1,3.25,1.3l-.2.63a1.59,1.59,0,0,1-.84.41l-.4-.08-.69-.07-.23-.13a1.84,1.84,0,0,0-1.24-.13,1.46,1.46,0,0,0-.33.94q0,1,0,2a1.18,1.18,0,0,0,1,.2,3.2,3.2,0,0,0,1.37-.28l1,.48.2.26a1.1,1.1,0,0,1,.64.43l.08.41-.64.53a1.57,1.57,0,0,1-1.24.2l-1.45-.13-.91.36-.13,1.22a12.86,12.86,0,0,0,.4,2A6.24,6.24,0,0,0,41.81,86ZM27.72,76.84l.07-1.17-.12-.89-.76.2c-.11.65-.2,1.29-.28,1.93l.81.08Zm0-4.17c.13-.41.24-.82.33-1.24l-.33-.13-.76.41-.16.88ZM31,77.39l.41-.28-.08-.4.08-.84a1.29,1.29,0,0,0-.41-.94l-.35-.15a4,4,0,0,0-.13,1.52l.2,1.09Zm.28-4.59v-1l.05-.84-.4,0c-.14.6-.26,1.19-.36,1.78Zm11.86-.69a1.69,1.69,0,0,1-.91-.4l-.08-.41c-.22,0-.36,0-.41-.2l.41-.82a3,3,0,0,0,1-1.11c.19-.6.38-1.2.58-1.81a10.87,10.87,0,0,0,.46-1.87q-1-.21-2.16-.36l-.48.36a21.35,21.35,0,0,1-.76,2.79,9.29,9.29,0,0,1-1.4,2.66,3.08,3.08,0,0,1-1.6.56l-.61-.12-.43-1A20.16,20.16,0,0,0,38,67.78a15.07,15.07,0,0,0,.8-2.78h-.71l-1,.13a2.3,2.3,0,0,1-1.65-.81l-.15-.69.28-.33A16.44,16.44,0,0,1,38.05,63c.88-.05,1.76-.1,2.64-.13a23.25,23.25,0,0,0,2.78.51,22.2,22.2,0,0,1,2.76.51l.15.27.84.49v.81c-.29,1-.61,2.09-.95,3.11a11.79,11.79,0,0,1-1.49,2.91A3.61,3.61,0,0,1,43.13,72.11Z"/><path class="cls-2" d="M56.27,85.59l-.49-.12a4.74,4.74,0,0,1-1.11-.69,9.37,9.37,0,0,1-.64-3l.08-.33a14.77,14.77,0,0,0-.36-3.3,12.66,12.66,0,0,0-.28-3.68l-.61.68-.71.61-.2.56a3.33,3.33,0,0,0-.84,1.09l-.76,0A11.33,11.33,0,0,1,49,77L49,75.54a7.27,7.27,0,0,1,1.53-1.65c.66-1.32,1.37-2.59,2.13-3.82a32.78,32.78,0,0,0,2.06-3.9l.43-.41a15.81,15.81,0,0,1,1-1.57,5.65,5.65,0,0,0,1-.41l1.12.33a3.85,3.85,0,0,1,.48,1.3c-.5.83-1,1.66-1.56,2.5a12.78,12.78,0,0,0-1.28,2.63,1.32,1.32,0,0,1,.41,1l-.21,1.78c.14.73.24,1.46.31,2.18s.15,1.47.25,2.21l-.07.33c.18,1.1.33,2.22.45,3.35a31,31,0,0,0,.54,3.36l-.36.68-.56.2Zm10.25,1.3a3.88,3.88,0,0,1-2.1-.89l-.33-.25-.28-.69a10.82,10.82,0,0,0,1.72-.43l.79-.89c.09-.4.2-.81.33-1.22q-1,.77-2,1.44a3.74,3.74,0,0,1-2.28.62,1.39,1.39,0,0,0-.91-.28L61.29,84l-.28-.2v-.48l1.05-1a14.48,14.48,0,0,0,1.75-1.22l.12-.4a4.36,4.36,0,0,0-1,.48l-1.11-1.17v-.48a1.53,1.53,0,0,1,.55-1,8.18,8.18,0,0,0,1.88-1.93,20.92,20.92,0,0,0-3.07,2.67H60l-.83-.54a1.36,1.36,0,0,1-.21-1.16l1.6-1.45a3.9,3.9,0,0,1,1.17-1l.51-.88a2.14,2.14,0,0,1-1.75-.69l-.41-1.09-.56-.64-.23-1.34a7.46,7.46,0,0,0,.56-1.37l.23-.16v-.4L60,68a4.05,4.05,0,0,1,1.82-.66l2-.17.28.07.28-.07.83.07.33-.28.08-.28.28-.33.35-.07.21-.48a5.37,5.37,0,0,1,.84-.54l.15-.35,1-.89-.2-.26-2,.06L65,63.71l-1,1.37-1.68,1.78h-.27l-.36-.08a2.29,2.29,0,0,0-1-.28l-.08-.25-.28-.92c.56-.67,1.08-1.35,1.55-2a13.77,13.77,0,0,1,2-2.21l1-.25.68.33.16.28a2.23,2.23,0,0,0,1.11.28L69,61.58a8,8,0,0,1,2.29.88l.35.41a1.65,1.65,0,0,1,.64,1.24,21.51,21.51,0,0,1-3.08,3c1,.3,2,.61,3,.94l.43.4a1.88,1.88,0,0,1,.56,1.12,22.23,22.23,0,0,1-1,2.23l.48.43.36,1-.48.56-1.27,0c-.7-.09-1.39-.15-2.09-.2a16.29,16.29,0,0,0-3.07.68l-.12.28-.28.08a13.19,13.19,0,0,0,1.67,1,6.45,6.45,0,0,1,1.53,1.13l.71.76h.28c.59-.45,1.2-.88,1.82-1.27a4.53,4.53,0,0,1,2.14-.66l.56.21L75,77l-.2.48a6.83,6.83,0,0,1-1.4,1q-.75.45-1.47.93l-.07.36a22.55,22.55,0,0,0,2.76,1.43,12.23,12.23,0,0,0,3,.88l.16.48-.36.89c-.42.13-.86.25-1.32.35a7.52,7.52,0,0,1-3-.76q-1.39-.69-2.79-1.29c-.32.81-.65,1.61-1,2.38a16.48,16.48,0,0,1-1.23,2.26A2.25,2.25,0,0,1,66.52,86.89ZM63.81,71.63l.33-2-.33-.08-1.55.21a12.4,12.4,0,0,1-.2,1.49l.2.56.91,0Zm.84,8.76.4-.53-.56.53Zm1.11-.94a2.38,2.38,0,0,0,1-1.12l-1,.84-.08.28Zm3-8.07.35-.16.16-.61.28-.2.2-.61-1-.15-.51.15L68,69.73l-.89.27-.2.49.05.53-.13.41.41.15A6.43,6.43,0,0,0,68.81,71.38Z"/><path class="cls-2" d="M80.91,85.67l-.84-.48-.21-.2v-.36l.28-.61.41-.41a22.74,22.74,0,0,0,1-5.06,48.48,48.48,0,0,1,.69-5.14,4.87,4.87,0,0,0,.08-1.78c.18-1.13.37-2.25.55-3.35L82.76,68,83,65.41,83,64.93l-.25-.13-.08-.48.28-.54,1.52-.07.49.13a28,28,0,0,1,3.2-.39q1.62-.09,3.3-.15l1-.2.05-.56a8.18,8.18,0,0,1-.13-2.18l.2-.56.77-.13.89.48.15.69-.08,1.22a1.86,1.86,0,0,0,.41.89L95,63c.61-.05,1.2-.09,1.77-.11a14.92,14.92,0,0,0,1.68-.17c1.51.1,3,.13,4.49.08a1.24,1.24,0,0,1,1.12-.28l1,.33a2.1,2.1,0,0,1,.28,1l-.13.28a5.84,5.84,0,0,1-2.24.53A99.67,99.67,0,0,0,92,65.08l.28.33a1.91,1.91,0,0,1,.4,1.85v.33l1.47.08.54-.2.35.07,1.17-.2.43.13.82-.28a4.87,4.87,0,0,1,.63-1.7l.48-.16a2.06,2.06,0,0,1,1.17.49,3.16,3.16,0,0,1,.28,1.32l.41,0,1.19-.28a7.38,7.38,0,0,1,1.17.56l.35.68-.23.61a4.51,4.51,0,0,1-1.93.15,3,3,0,0,1-1,.33c-.08.73-.19,1.44-.33,2.14a3.8,3.8,0,0,1,.28,1.49l-.43.61-.89.16a1.86,1.86,0,0,0-1.39-.44l-1.38.21-.27-.13c-.56.09-1.13.2-1.71.34s-1.13.26-1.67.35l-.23.12c-.32-.13-.64-.29-1-.45l-.13-.36-.28-.2a4.44,4.44,0,0,1-.28-2l.28-1.3-.28-.15-2.29.2a2.63,2.63,0,0,1-1.8-.81l0-.56a4.35,4.35,0,0,1,2-.46c.74,0,1.48,0,2.23-.07l.07-.36-.07-.94a3.36,3.36,0,0,1,.55-1.37H88.09l-1.93.28-.76,0a2.52,2.52,0,0,0-.28,1.17,12.4,12.4,0,0,1,.13,1.7,16,16,0,0,0-.33,1.73l0,.33a8.88,8.88,0,0,0-.29,2,11.5,11.5,0,0,1-.25,2l.06.27c-.14.87-.25,1.74-.35,2.61s-.2,1.74-.34,2.6l.08.53c-.19.83-.4,1.64-.63,2.41a7.37,7.37,0,0,1-1,2.19A5,5,0,0,1,80.91,85.67Zm20.66-.76q-1.59-.28-3.15-.69a22.83,22.83,0,0,1-3-1l-1-.36a5.86,5.86,0,0,1-1.88.89,2.33,2.33,0,0,1-1.85.56l-.36-.08-.61.21a4.18,4.18,0,0,1-2.08.4,1.91,1.91,0,0,0-.84-.45l-.08-.77a5.73,5.73,0,0,1,1.85-.88,17.55,17.55,0,0,0,2-.69l.28-.13.76,0a7,7,0,0,1,1.17-.68l.08-.41a29.47,29.47,0,0,1-2.34-3.2H90l-.33-.48-.56-.56.2-.53.69-.48.28,0a11.09,11.09,0,0,0,2-.43,8.49,8.49,0,0,1,2-.39l.56.13h1.37a17.14,17.14,0,0,0,2.08-.53h.89a5.84,5.84,0,0,1,1.2.53l.12.84c-.32.64-.65,1.28-1,1.92S98.81,79,98.4,79.58l-.43.2a3.4,3.4,0,0,1-1.65,1.5v.28a16.93,16.93,0,0,0,2.56,1,20.44,20.44,0,0,0,2.69.58l.76-.07.69.22.2.41.28.61C102.86,84.52,102.22,84.72,101.57,84.91ZM97.16,71.38a3.5,3.5,0,0,0,.27-1.93l-.55-.28h-1l-.63.2L95,69.24l-2,.41-.13,1-.07.53.2.36c1.3,0,2.6-.1,3.89-.2Zm-2,8a.74.74,0,0,1,.63-.48l.28-.56.84-.89V77l-.56-.28-.56.2-.63-.13h-.74a2.69,2.69,0,0,0-1.47.41l0,.48a4.86,4.86,0,0,0,1.3,1.83l.35.15Z"/><path class="cls-2" d="M115,83.11a2.46,2.46,0,0,1-1.17-.66l-.38-.66-.23-1,.18-.63a1.27,1.27,0,0,0,1.07-.23,17,17,0,0,0,1.19-3.33,8.78,8.78,0,0,0,.25-2.89,1.13,1.13,0,0,0-.45-.4,1.45,1.45,0,0,0-.69-.06l-1.39.08c-.55,1.32-1,2.4-1.21,3.23s-.62,1.89-1.08,3.16l-.84,1.45a3.74,3.74,0,0,1-1.5.13l-.45-.38L108,79.83a31.53,31.53,0,0,0,1.45-3.1c.34-.86.68-1.88,1-3-1.87.2-3.14.07-3.84-.38-.13-1.07.18-1.66.94-1.78,1.64-.07,2.84-.13,3.58-.18a19,19,0,0,1,1.55-3.91,1,1,0,0,1,1.47-.3,1.4,1.4,0,0,1,.56,1.52L114.12,71l2.09.15a2.9,2.9,0,0,1,1.79.76,6.5,6.5,0,0,1,.51,2.31,9.23,9.23,0,0,1-.46,3.45,36.89,36.89,0,0,1-1.37,3.53l-.38.59a1.45,1.45,0,0,1-.36.86A1.48,1.48,0,0,1,115,83.11Zm13-5.89-1-.41a7.22,7.22,0,0,1-1.65-1c-.45-.37-1.3-1-2.55-2a14.59,14.59,0,0,1-2.22-1.93l-.35-.4L120,71l.43-.69.76-.1c.47,0,1.64.68,3.5,2.07a32.53,32.53,0,0,0,3.28,2.3l.76.61.13.41.12.43-.33.89-.28.12Zm-3.94-7.75a11.51,11.51,0,0,1-2.36-2l-.56-.69a1.5,1.5,0,0,1,.08-1,1.38,1.38,0,0,1,1-.2,6.49,6.49,0,0,1,3.61,3.07l.07.64-.63.28A1.32,1.32,0,0,1,124.12,69.47Zm3.73-2.66-.48-.28-2-1.78a1.38,1.38,0,0,1-.4-1l.4-.48,1.12-.15,1.45.76a6.92,6.92,0,0,1,1.24,1.93c.09.56,0,.85-.35.86C128.68,67,128.36,67,127.85,66.81Z"/><path class="cls-2" d="M42.31,114.18l-.91-.59A1.32,1.32,0,0,1,41,112.4a1.84,1.84,0,0,1,1.5-.74l5.84-.28q.26-18.91.38-19.83l.25-.33a14.4,14.4,0,0,0,1.88.18l.18.41.33.18-.15,7.79,6.39-1.09,1.17.18,1.35.91v.33a2.57,2.57,0,0,1-.48,1q-1.78.1-8.26,1.37l0,8.69,9.12-.28.66.43.51,1a2.6,2.6,0,0,1-1.27,1l-.59.33Z"/><path class="cls-2" d="M74,112.83a2.38,2.38,0,0,1-1.17-.66l-.38-.66-.23-1,.18-.64a1.2,1.2,0,0,0,1.07-.23,17.11,17.11,0,0,0,1.19-3.32,8.81,8.81,0,0,0,.25-2.9,1.1,1.1,0,0,0-.45-.39,1.24,1.24,0,0,0-.69-.06l-1.39.07c-.55,1.32-1,2.4-1.21,3.24s-.62,1.89-1.08,3.16l-.84,1.45a3.94,3.94,0,0,1-1.5.12l-.45-.38-.31-1.06a33.83,33.83,0,0,0,1.45-3.1c.34-.86.68-1.88,1-3-1.87.21-3.14.08-3.84-.38-.13-1.07.18-1.66.94-1.78,1.64-.06,2.84-.12,3.58-.17a18.78,18.78,0,0,1,1.55-3.91,1.05,1.05,0,0,1,1.47-.31,1.4,1.4,0,0,1,.56,1.52L73,100.72c.74.07,1.44.12,2.09.15a3,3,0,0,1,1.79.76,6.6,6.6,0,0,1,.51,2.32A9.28,9.28,0,0,1,77,107.4c-.37,1.13-.83,2.31-1.37,3.53l-.38.58A1.39,1.39,0,0,1,74,112.83Zm13-5.89-1-.4a7.24,7.24,0,0,1-1.65-1c-.45-.36-1.3-1-2.55-2a15.21,15.21,0,0,1-2.22-1.93l-.35-.41-.28-.55.43-.69.76-.1c.47,0,1.64.67,3.5,2.07a34.55,34.55,0,0,0,3.28,2.3l.76.6.13.41.12.43-.33.89-.28.13ZM83,99.2a11.31,11.31,0,0,1-2.36-2.06l-.56-.68a1.5,1.5,0,0,1,.08-1,1.33,1.33,0,0,1,1-.2,6.49,6.49,0,0,1,3.61,3.07l.07.63-.63.28A1.3,1.3,0,0,1,83,99.2Zm3.73-2.67-.48-.28-2-1.78a1.34,1.34,0,0,1-.4-1l.4-.48,1.12-.15,1.45.76a6.78,6.78,0,0,1,1.24,1.93c.09.56,0,.84-.35.86C87.6,96.72,87.28,96.75,86.77,96.53Z"/><path class="cls-2" d="M99,114a4.11,4.11,0,0,1-2.29-1.81,3.76,3.76,0,0,1,.1-3.44,3.84,3.84,0,0,1,3.15-1.54,3.27,3.27,0,0,1,2.48,1,3.64,3.64,0,0,1,.52,2.72,3.82,3.82,0,0,0,1.59-2,3.59,3.59,0,0,0,0-2.5c-.28-.82-1.15-1.43-2.6-1.83a7.11,7.11,0,0,0-4.56.35l-2.28.83-.53-1-.11-.66a2.32,2.32,0,0,1,.44-.92l.43-.33,8.07-6.8-7.23.81a4.07,4.07,0,0,1-1.93-.15l-.89-1-.23-.71.23-.2.71-.33q.93-.24,11.42-.92l1.43.53a2.48,2.48,0,0,1-.39,2.29q0,.43-5.78,5.33a8.61,8.61,0,0,1,4.49,1.54,6,6,0,0,1,1.88,2.4,5.43,5.43,0,0,1,.14,2.9,6.74,6.74,0,0,1-1.36,3,6.19,6.19,0,0,1-2.23,1.85,7,7,0,0,1-2.14.65A10.45,10.45,0,0,1,99,114Zm1.78-2.36.45-.81a1.29,1.29,0,0,0-1.27-1.4A1.42,1.42,0,0,0,98.71,111,2.14,2.14,0,0,0,100.82,111.61Z"/></svg>