<svg id="レイヤー_1" data-name="レイヤー 1" xmlns="http://www.w3.org/2000/svg" viewBox="0 0 152.38 136.22"><defs><style>.ditem_07-1{fill:#ffff5a;}.ditem_07-2{fill:#dfb1ff;}</style></defs><path class="ditem_07-1" d="M27.8,46.77c-7.13-9.5-5.46-24.45,3.6-32.13s24.09-6.87,32.28,1.73A30.78,30.78,0,0,1,93.87,1.71a30.8,30.8,0,0,1,24.91,22.47A28,28,0,0,1,148,38.36a28,28,0,0,1-5.05,32.05c9,8,9.55,23.2,2.23,32.76s-20.86,13.24-32.54,10.32c-.8,7-5.79,13-11.92,16.4s-13.29,4.54-20.3,4.76c-7.3.23-14.88-.53-21.24-4.12S47.91,120,48.48,112.73a24.78,24.78,0,0,1-28.46-2A24.79,24.79,0,0,1,13.41,83,25.85,25.85,0,0,1,2.25,55,25.86,25.86,0,0,1,26,36.4"/><path class="ditem_07-1" d="M29.09,46a23.13,23.13,0,0,1-1.43-24.36C32,13.75,40.8,9.94,49.57,11.05a21.93,21.93,0,0,1,13,6.38A1.53,1.53,0,0,0,65,17.12a29.47,29.47,0,0,1,21.59-14,28.36,28.36,0,0,1,23.7,8.81,28.55,28.55,0,0,1,7.06,12.64,1.54,1.54,0,0,0,1.85,1.05,26.66,26.66,0,0,1,23.2,7.63,25.36,25.36,0,0,1,6.34,23.49,25.9,25.9,0,0,1-6.87,12.6,1.51,1.51,0,0,0,0,2.12c6.5,5.83,8.24,15.34,5.78,23.51-2.65,8.82-10.37,14.83-19.09,17A32.58,32.58,0,0,1,113,112a1.52,1.52,0,0,0-1.89,1.45c-1.39,11.05-12.42,17.12-22.36,18.86a60.09,60.09,0,0,1-17,.5c-5.36-.61-10.9-2.3-15.07-5.84s-7.07-8.67-6.7-14.28a1.52,1.52,0,0,0-2.26-1.3A23.42,23.42,0,0,1,26,112.76,22.44,22.44,0,0,1,13.38,95.57a22.8,22.8,0,0,1,1.48-12.19,1.52,1.52,0,0,0-.69-1.69A24.46,24.46,0,0,1,3,62,23.23,23.23,0,0,1,13.32,42.13,23.77,23.77,0,0,1,26,37.9c1.92-.06,1.93-3.06,0-3a27.6,27.6,0,0,0-22.22,13,26.33,26.33,0,0,0-.91,25.44,26.53,26.53,0,0,0,9.82,11L12,82.59a26.35,26.35,0,0,0,2.32,23.79A25.34,25.34,0,0,0,35.59,117.8,25.67,25.67,0,0,0,49.24,114L47,112.73c-.37,5.51,2.06,10.78,5.8,14.73,4.13,4.34,9.78,6.81,15.59,7.9a60.18,60.18,0,0,0,19,.22c6.12-.83,12.26-2.7,17.24-6.47a23.42,23.42,0,0,0,9.5-15.62l-1.9,1.44c10,2.44,21.06.5,29.21-5.89a27.27,27.27,0,0,0,9.93-25.76A23.58,23.58,0,0,0,144,69.35v2.12a29.76,29.76,0,0,0,7.89-26.37c-1.8-9.53-8.75-17.14-17.63-20.72a28.72,28.72,0,0,0-15.85-1.64l1.85,1A32.39,32.39,0,0,0,102.17,2.6,31.26,31.26,0,0,0,74.06,4.21a31.59,31.59,0,0,0-11.67,11.4l2.35-.3C57.86,8.2,46.64,6,37.43,9.46,28,13,22.21,22.11,21.88,32.05A24.77,24.77,0,0,0,26.5,47.52c1.14,1.54,3.74,0,2.59-1.51Z"/><path class="ditem_07-2" d="M35.29,67.56l-1.6-.76,0-.16a3.51,3.51,0,0,1-.3-1.44q0-1.73,0-3.48a11.22,11.22,0,0,0-1.07.89l-1.52.81a11.54,11.54,0,0,1-1.67.74l-.44-.11a3.28,3.28,0,0,0-.91-.53,1.73,1.73,0,0,1-.28-1.24l0-.36.35,0a2.92,2.92,0,0,0,1.55-.61c.52-.39,1.07-.78,1.62-1.17.73-.64,1.49-1.25,2.26-1.83l.46-.66.51-.13q.51-.55,1-1.14l-2.75-.13a13.3,13.3,0,0,0-3,.56l-.15.05-1.19-.5L27.39,55l.92-.48h.08c1.06-.19,2.13-.4,3.19-.64h.08l5.87-.15a13.1,13.1,0,0,0,.12-2.18,35.94,35.94,0,0,0-4.49.4H33l-1.17-.45-.1-.38-.48-.74.48-.58a3.69,3.69,0,0,1,1.42-.41h.08c2.25,0,3.64-.07,4.16-.1l.26-.13a11.32,11.32,0,0,0,.1-1.55q-.48-.07-6,.23h-.07A3.18,3.18,0,0,1,30,47.3l-.16-.13-.2-1,.23-.17q1-.61,8.12-.64c.12-.59.25-1.19.38-1.8l.08-.28,1.4-.28.15.15a6.57,6.57,0,0,0,1,.54l0,1.49,6,.08L48.65,45l.53.36,0,.07a3.15,3.15,0,0,1,.53,1.5l0,.23-.15.13a1.49,1.49,0,0,1-1.27.43q-1.24.07-7.67-.08L40.62,49l0,0,5.28.08.41-.08.2.18a2.38,2.38,0,0,1,.53,1.47V51l-.25.11a28.22,28.22,0,0,1-6.15.53c-.06.78-.11,1.55-.12,2.31l7.16-.2.3-.16,1.47.33.49.44.2.45-.05.41.08.79-.94.17L49,56.11l-1.06.25-1.07,0A2.54,2.54,0,0,1,48,57l.1.1.16.76-3.38,2.94a9.52,9.52,0,0,1-1,.94l1.93,2.19a9.51,9.51,0,0,0,1.53.68l3.25.89.28,1-.18.15a2,2,0,0,1-1.45.61l-.68-.1a10.55,10.55,0,0,1-2.19-.59c-.69-.25-1.39-.47-2.08-.66l-.18,0-.23-.4a20.92,20.92,0,0,1-3.07-3.15c-.34-.7-.69-1.38-1.06-2.06A6.53,6.53,0,0,1,39,57.68v-.07l.71-.87a11.43,11.43,0,0,1,1.58.41l.63.53,0,.26c.09.37.18.72.28,1.06l.59-.3a3.76,3.76,0,0,1,1.16-1l.11-.2a4.64,4.64,0,0,1,1.82-1.12q-.63.14-6.32.13l-2.23,1.9-.94.89-.23,1,.08.21v0c0,.93,0,1.86-.08,2.79a9.33,9.33,0,0,1,2.34-1.22l.17,0,1.17.61L40,64.33l-1.68.92-1.14.81Z"/><path class="ditem_07-2" d="M57.2,63.52a2.25,2.25,0,0,1-1.45-.89L55.6,62l.36-.55a22.15,22.15,0,0,1,2.69-1.3l.07-.76a28.56,28.56,0,0,1-.2-3.35L58.24,56a2.79,2.79,0,0,1-2.36-.61,1.29,1.29,0,0,1-.28-1l.43-.49a16.2,16.2,0,0,1,2.34-.48,13.8,13.8,0,0,1,.15-4,5,5,0,0,1-2.64-.63,1.71,1.71,0,0,1-.61-1.17l.61-.69a12.67,12.67,0,0,1,2.36-.33l.36.05a6.66,6.66,0,0,1,1.65-.2l2.72.2.68-.2.41.43.23.13a1.24,1.24,0,0,1,.53,1l-.41.72-.48.45h-.48l-1.73-.2-.28.2-.35,2.29a4.4,4.4,0,0,0,.35,1.77l1,.13a3.74,3.74,0,0,1,.89.36l.48,1.09a1.39,1.39,0,0,1-1.44.76l-.77.33a28.16,28.16,0,0,0-.15,2.9l.23.33.76.07,1-.28,1,.56.26.89a7.09,7.09,0,0,1-1.52,1c-1,.42-2,.8-3,1.14S58.27,63.25,57.2,63.52Zm6.65,4.55a3.46,3.46,0,0,1-1.24-.69l-.28-.84.2-.48a7.28,7.28,0,0,0,3-2.67l.23-.48.48-.4L67,60.78l-.84-.33a7.08,7.08,0,0,1-.81-3.15,32.56,32.56,0,0,1-.08-5c.14-1.23.26-2.48.38-3.73A13.87,13.87,0,0,1,66.42,45a2.24,2.24,0,0,1,1.12-.28l.35.16a7.34,7.34,0,0,1,5.18,0l.28-.13.36.08,1-.16,1,.28a3.77,3.77,0,0,1,.84,1.86,4.31,4.31,0,0,0-.36,1.77,2.5,2.5,0,0,1-.2,1.37,30.69,30.69,0,0,1-.28,8.51l.35.48a.74.74,0,0,1,.26.61l.15.48-.56.28-1,.28-.28-.07-.28.07-1-.2A6.38,6.38,0,0,0,73,63.19l.33.81a4.48,4.48,0,0,0,2.84,1l.36-.08.68.08A7.82,7.82,0,0,1,77.79,62a.94.94,0,0,1,.77-.35l.4.15.08.28.28.13a9.6,9.6,0,0,1,.76,1.85l.2,2.41L80,67.1a7.27,7.27,0,0,1-2.64.48h-.48a8.78,8.78,0,0,1-3.06-.66,16.29,16.29,0,0,1-2.71-1.47,4.8,4.8,0,0,1-1-3.1l.08-.4-.28-.05a6.41,6.41,0,0,1-.8,1.56c-.35.5-.68,1-1,1.51l-.69.76-.15.33a1.94,1.94,0,0,0-.76.56l-1.09.89h-.28l-.08.28A1.7,1.7,0,0,1,63.85,68.07Zm8.61-14.15H73a1.3,1.3,0,0,0,.2-1l-.07-.69.07-.53-.63-.35a5.93,5.93,0,0,1-2.9.4l-.91,0-.56.13-.13,1.37.13.35ZM68.86,58A29,29,0,0,1,73,57.71l0-1.17-.48-.2-.76.12-.33-.07c-.51,0-1-.08-1.4-.13l-1.4-.08-.48.21v1.37ZM71,49.2a3.72,3.72,0,0,1,1.75-.15l.28-.33.33-1.37-.41-.15-.35.07h-.41A5,5,0,0,0,70.51,47a17.81,17.81,0,0,0-1.93.69l-.16.89.28.63,1.2,0,.48-.12Z"/><path class="ditem_07-2" d="M96.66,67a8.29,8.29,0,0,0-1.32-.69l-.69-.61c-.61-.28-1.22-.59-1.82-.91l-.28-.33h-.28l-.21-.2v-.64l.28-.61.56.41h.41l.84-.2a5,5,0,0,0,2.1.76l.28-.13a15.79,15.79,0,0,0,1.81-4.48,34.56,34.56,0,0,0,.76-4.89L99,54.1a19.75,19.75,0,0,0-5.79.2,10,10,0,0,1-.48,1.3A13.43,13.43,0,0,1,92.06,58a20,20,0,0,0-.68,2.21l-.28.2a11.29,11.29,0,0,1-.74,2c-.3.63-.62,1.25-.94,1.88-.61.57-1.19,1.17-1.75,1.8a2.6,2.6,0,0,1-1.52.61l-.51,0A12.82,12.82,0,0,0,84,65.91l.41-.69.83-.53.13-.28.51-.28.48-.41.08-.27h.28a33.62,33.62,0,0,0,2-4.51,29.77,29.77,0,0,0,1.24-4.79,6.93,6.93,0,0,0-2-.28L86,54a4.92,4.92,0,0,1-2-.56,1.81,1.81,0,0,1-.61-1l.2-.36,1.05-.33.27.05.69-.2.36.15.27-.15.28.15.28-.08a7.6,7.6,0,0,0,3.76.13,19.87,19.87,0,0,0,.57-2.53c.15-.87.33-1.72.55-2.55a3.81,3.81,0,0,0,1.12-.4l.55.28.28.33.56.83-.07.26.07.28a13.72,13.72,0,0,0-.3,1.72c-.07.6-.15,1.19-.26,1.78a3.2,3.2,0,0,0,1.2.23c1.82,0,3.64-.11,5.43-.23l.91.23.21.25h.28v.28l.48.84-.2,1a13.7,13.7,0,0,1-.28,2.06l-.16.61.16.76a30.73,30.73,0,0,1-.92,3.58,24,24,0,0,1-1.39,3.38l-.33.28a8.17,8.17,0,0,1-1.12,1.78l-.36.12A1.92,1.92,0,0,1,96.66,67Z"/><path class="ditem_07-2" d="M115.52,65.1a2.46,2.46,0,0,1-1.16-.66l-.39-.66-.22-1,.17-.63A1.26,1.26,0,0,0,115,61.9a17,17,0,0,0,1.19-3.33,8.8,8.8,0,0,0,.26-2.89,1.22,1.22,0,0,0-.46-.4,1.31,1.31,0,0,0-.68-.06l-1.4.08c-.54,1.32-1,2.39-1.21,3.23s-.62,1.89-1.08,3.16l-.83,1.45a3.78,3.78,0,0,1-1.5.13l-.46-.38-.3-1.07a33.63,33.63,0,0,0,1.44-3.1c.34-.86.68-1.88,1-3-1.86.2-3.14.07-3.84-.38-.13-1.07.18-1.66.94-1.78,1.65-.07,2.84-.13,3.58-.18a19.6,19.6,0,0,1,1.55-3.91,1.06,1.06,0,0,1,1.48-.3,1.41,1.41,0,0,1,.55,1.52L114.61,53c.74.07,1.44.12,2.09.16a2.87,2.87,0,0,1,1.79.76,6.29,6.29,0,0,1,.51,2.31,9.22,9.22,0,0,1-.45,3.45,37.06,37.06,0,0,1-1.38,3.53l-.38.59a1.54,1.54,0,0,1-.35.86A1.5,1.5,0,0,1,115.52,65.1Zm13-5.89-1-.41a6.81,6.81,0,0,1-1.65-.95l-2.55-2a14.34,14.34,0,0,1-2.23-1.93l-.35-.4-.28-.56.43-.69.76-.1c.48,0,1.64.68,3.51,2.07a31.77,31.77,0,0,0,3.27,2.3l.76.61.13.4.13.44-.33.89-.28.12Zm-3.94-7.75a11.31,11.31,0,0,1-2.36-2.06l-.56-.68a1.5,1.5,0,0,1,.08-1,1.39,1.39,0,0,1,1-.2,6.49,6.49,0,0,1,3.61,3.07l.08.64-.64.28A1.33,1.33,0,0,1,124.61,51.46Zm3.74-2.66-.49-.28-2-1.78a1.39,1.39,0,0,1-.41-1l.41-.48,1.11-.15,1.45.76a7,7,0,0,1,1.25,1.93c.08.56,0,.85-.36.86C129.18,49,128.85,49,128.35,48.8Z"/><path class="ditem_07-2" d="M44.89,96.17,44,95.58a1.32,1.32,0,0,1-.38-1.19,1.84,1.84,0,0,1,1.5-.74l5.84-.27q.26-18.93.38-19.83l.25-.33a15.92,15.92,0,0,0,1.88.17l.18.41L54,74l-.15,7.79,6.4-1.09,1.17.18,1.34.91v.33a2.57,2.57,0,0,1-.48,1q-1.78.1-8.25,1.37l0,8.69L63,92.92l.66.43.51,1a2.55,2.55,0,0,1-1.27,1l-.58.33Z"/><path class="ditem_07-2" d="M76,94.82a2.31,2.31,0,0,1-1.16-.66l-.39-.66-.22-1,.17-.64a1.2,1.2,0,0,0,1.07-.23,17.11,17.11,0,0,0,1.19-3.32,8.84,8.84,0,0,0,.26-2.9,1.28,1.28,0,0,0-.46-.39,1.21,1.21,0,0,0-.68-.06l-1.4.07c-.54,1.32-.95,2.4-1.21,3.24s-.62,1.89-1.08,3.16l-.83,1.45a3.79,3.79,0,0,1-1.5.12l-.46-.38L69,91.55c.62-1.2,1.1-2.24,1.44-3.1s.68-1.88,1-3c-1.86.21-3.14.08-3.84-.38-.13-1.06.18-1.66.94-1.78,1.65-.06,2.84-.12,3.58-.17a19.35,19.35,0,0,1,1.55-3.91,1.06,1.06,0,0,1,1.48-.31,1.42,1.42,0,0,1,.55,1.53l-.63,2.33c.74.07,1.44.12,2.09.15a2.89,2.89,0,0,1,1.79.77,6.29,6.29,0,0,1,.51,2.31A9.25,9.25,0,0,1,79,89.39c-.38,1.13-.83,2.31-1.38,3.53l-.38.58a1.54,1.54,0,0,1-.35.87A1.49,1.49,0,0,1,76,94.82Zm13-5.89-1-.4a6.52,6.52,0,0,1-1.65-1l-2.55-2a14.94,14.94,0,0,1-2.23-1.93l-.35-.41-.28-.55.43-.69.76-.1c.48,0,1.64.67,3.51,2.07a33.7,33.7,0,0,0,3.27,2.3l.76.61.13.4.13.43-.33.89-.28.13Zm-3.94-7.74a11.31,11.31,0,0,1-2.36-2.06l-.56-.68a1.5,1.5,0,0,1,.08-1,1.34,1.34,0,0,1,1-.2,6.49,6.49,0,0,1,3.61,3.07l.08.63-.64.28A1.3,1.3,0,0,1,85.09,81.19Zm3.74-2.67-.49-.28-2-1.77a1.39,1.39,0,0,1-.41-1l.41-.48,1.11-.15,1.45.76a6.81,6.81,0,0,1,1.25,1.93c.08.56,0,.84-.36.86C89.66,78.71,89.33,78.74,88.83,78.52Z"/><path class="ditem_07-2" d="M101.61,96a4.11,4.11,0,0,1-2.28-1.82,3.73,3.73,0,0,1,.1-3.44,3.83,3.83,0,0,1,3.15-1.54,3.26,3.26,0,0,1,2.47,1,3.59,3.59,0,0,1,.52,2.72,3.72,3.72,0,0,0,1.59-2,3.59,3.59,0,0,0,0-2.5c-.29-.82-1.16-1.43-2.6-1.83a7.11,7.11,0,0,0-4.56.35l-2.29.83-.53-1-.1-.66a2.3,2.3,0,0,1,.43-.92l.43-.33,8.08-6.8-7.24.81a4.08,4.08,0,0,1-1.93-.15l-.89-1-.23-.71.23-.2.71-.33q.95-.24,11.43-.92l1.42.54a2.45,2.45,0,0,1-.38,2.28q0,.43-5.79,5.33a8.57,8.57,0,0,1,4.49,1.54,6,6,0,0,1,1.88,2.4,5.36,5.36,0,0,1,.14,2.91,6.65,6.65,0,0,1-1.36,3,6.19,6.19,0,0,1-2.23,1.85,7,7,0,0,1-2.13.65A10.94,10.94,0,0,1,101.61,96Zm1.78-2.37.46-.81a1.3,1.3,0,0,0-1.27-1.4,1.42,1.42,0,0,0-1.3,1.63A2.15,2.15,0,0,0,103.39,93.6Z"/></svg>