<svg id="レイヤー_1" data-name="レイヤー 1" xmlns="http://www.w3.org/2000/svg" viewBox="0 0 138.34 130.2"><defs><style>.cls-1{fill:#dfb1ff;}.cls-2{fill:#ffff5a;}</style></defs><path class="cls-1" d="M27.15,99.14C14,97.25,2.89,85.63,1.58,72.4S8.9,45.61,21.43,41.18c-3.3-15.69,7.5-32.5,22.65-37.74S77,3.77,87.93,15.49c1.94,2.08,3.74,4.37,6.18,5.84a27.64,27.64,0,0,0,7,2.52c13.39,3.77,26.21,11.87,32.4,24.33s3.93,29.5-7.33,37.66c-2.78,2-6.05,3.52-8,6.31a24.59,24.59,0,0,0-2.7,6.29C109.52,115.16,93,127.6,75.34,128.68S39.77,119.4,31.9,103.52"/><path class="cls-1" d="M27.55,97.69A29.71,29.71,0,0,1,5.27,80.49c-4.15-9.2-2.38-19.81,3.45-27.87a28.31,28.31,0,0,1,13.11-10,1.55,1.55,0,0,0,1.05-1.84c-1.95-9.57,1.6-19.57,8-26.71A33.74,33.74,0,0,1,57.28,3a42.8,42.8,0,0,1,28,12c1.91,1.84,3.54,4,5.51,5.74a18.74,18.74,0,0,0,7.76,4,73,73,0,0,1,14.85,5.71c8.87,4.81,17,12.31,20.25,22.08,2.93,8.7,2.18,18.92-3,26.62A22.63,22.63,0,0,1,126,84.06c-2.07,1.65-4.46,2.86-6.53,4.52-4.43,3.55-5.08,9.26-7.51,14.08A45.74,45.74,0,0,1,90.88,123.1a42.22,42.22,0,0,1-29,2.71A45.66,45.66,0,0,1,37,109a42.83,42.83,0,0,1-3.83-6.28c-.86-1.73-3.45-.21-2.59,1.51,9.69,19.34,33.08,30.17,54,24.35a48.86,48.86,0,0,0,25.55-17.44,50.64,50.64,0,0,0,7.38-14.38,12.84,12.84,0,0,1,5-6.8,58.74,58.74,0,0,0,6.7-4.8c7.32-6.72,10-17.32,8.75-26.95-1.41-10.71-7.88-19.73-16.39-26.12a59.15,59.15,0,0,0-14.39-7.8c-2.73-1-5.52-1.8-8.32-2.63a16.46,16.46,0,0,1-7.75-4.86A55.26,55.26,0,0,0,78.71,6.25,45.93,45.93,0,0,0,63.24.58C52.59-1.2,41.69,1.06,33.18,7.84c-8,6.34-13.41,16.14-13.82,26.39A30.7,30.7,0,0,0,20,41.58L21,39.74A32.59,32.59,0,0,0,.62,63.47a31.09,31.09,0,0,0,10,29.34,31.27,31.27,0,0,0,16.1,7.77c1.89.29,2.71-2.6.8-2.89Z"/><path class="cls-2" d="M55.48,63.55a18.67,18.67,0,0,0-2.64-.75,5.12,5.12,0,0,1-2.43-1.23,3.17,3.17,0,0,1-1-2l-.28-.07-1.72,2.26-.28.15-.69.73a4.19,4.19,0,0,1-1.8.69,1.6,1.6,0,0,1-1-.33A3.1,3.1,0,0,1,43,62l.28-.48.48-.13.16-.28,1-.81a2.18,2.18,0,0,0,.68-1.17,5.39,5.39,0,0,0,1.12-1.37v-.28l-1-.61a3,3,0,0,1-.69-1.7h-.55a4.5,4.5,0,0,1-2,.48c-.74-.24-1.46-.49-2.16-.76L40,54.59a7.08,7.08,0,0,0-.43,2,28.48,28.48,0,0,0,.2,4.8l-.33.68a2.06,2.06,0,0,1-1.11.41,3.25,3.25,0,0,1-1.25-.68,5.51,5.51,0,0,1-.48-3,17.1,17.1,0,0,0,0-3.2,8.07,8.07,0,0,1-2.36.81l-.84-.4a1.32,1.32,0,0,1-.28-1l.48-.68.28-.21A7.36,7.36,0,0,1,35.43,53l1.47-1.5.28-.13a3.34,3.34,0,0,0,.68-1.17l.36-.28.33-.53a1.9,1.9,0,0,0,.43-1,26.79,26.79,0,0,0-3.68.2l-1-.48-.41-.49-.07-.81a3.82,3.82,0,0,1,1.66-.7c.6-.09,1.22-.15,1.87-.19l.43.05.33-.12A6.26,6.26,0,0,1,37.31,43c.23-1.05.42-2.12.55-3.2a3.09,3.09,0,0,1,1.4-.23l1.17.84.13.61-.13.69.13.4v.48a15.69,15.69,0,0,0-.33,2.34l.12.69a4.34,4.34,0,0,0,1.47-.16,2.63,2.63,0,0,1,1.93.84l.21.81c-1.15,1.46-2.29,2.94-3.4,4.45l-.13.48.13.28,1.67.81a6.4,6.4,0,0,0,1.8.56l.28-.08.36.13,0,.64.23-.49c-.1-.59-.18-1.21-.23-1.85l.08-.41-.08-.28L44.8,51c-.09-.82-.17-1.63-.25-2.43s-.15-1.59-.24-2.35l.08-.43-.08-.89a6.36,6.36,0,0,1,.89-3,19.18,19.18,0,0,0,1.92-.42,9.42,9.42,0,0,1,2-.35l.28.08.71-.2c1,.08,2,.15,3,.2a4.52,4.52,0,0,1,2.64,1,.92.92,0,0,1,.33.89l-.05.26c-.19.88-.33,1.72-.43,2.54l.07.28a.73.73,0,0,0-.2.68,19.76,19.76,0,0,1,.07,2.67l-.15.33.08.48-.08.35.08.26-.15.56H55l.23.76c-.19,1-.38,2-.56,2.94l.4.33.08.69-.36.41a20.26,20.26,0,0,1-2,.61l-.28,1,.07.61-.07,1.24a13.63,13.63,0,0,1,2.56.82l1.4.07.28-.61-.08-.4a17.57,17.57,0,0,0,.41-2.26l.35-.36.28-.07.49-.13.55.41a4.53,4.53,0,0,1,.89,3,10.59,10.59,0,0,1,.16,1.85l-.21.41-.63.33a13.54,13.54,0,0,1-2.36.35l-.33-.07-.36.12ZM52.21,45.7l.2-.48,0-.41.13-1a2,2,0,0,0-1.37-.23l-.76,0c-1,.22-2,.47-2.92.74l-.28,1.32.28.33.33.07,2.51-.35.28.07,1-.07Zm-.05,3.71.05-1.12-.41-.12-.35.07L51,48.09a24.89,24.89,0,0,0-3.25.63l.05.94h.35A9.75,9.75,0,0,1,51,49.41Zm-.71,5.13.15-.28c.14-.83.23-1.61.28-2.34l-1-.12-.28.07-.28-.07a6.1,6.1,0,0,0-2.29.68L47.84,54l.15.76c1,0,2,0,3,0Z"/><path class="cls-2" d="M64.62,62.41a1.9,1.9,0,0,1-1.32-.76,2.06,2.06,0,0,1-.2-1.17,22.18,22.18,0,0,1,1-3.07L64.77,56a10.1,10.1,0,0,1,1.1-.36l.91.56a2.1,2.1,0,0,1,.2,1.22c-.27.78-.52,1.57-.76,2.37s-.49,1.59-.76,2.35Zm14.15-8.86c-6.34,0-9.87.07-10.62.1a2.7,2.7,0,0,1-1.09-.56q-.51-3.89-.91-6.57c.1-.41.19-.82.28-1.22l1-.41a2.66,2.66,0,0,0,1.47.41l4.42-.1.15-6.07-.07-.82,1-.4a2.72,2.72,0,0,1,1.24.33,5.18,5.18,0,0,0,.64,1.29l-.16.92a59.71,59.71,0,0,0,7.65,0l.61.25.23.76a1.14,1.14,0,0,0-.28.76,4.19,4.19,0,0,1-1.48.61l-6.9.33,0,2c1.6,0,3.31-.1,5.1-.18a2.46,2.46,0,0,1,1.8.76l.41.48V47a20.83,20.83,0,0,0-1.8,5.56l-.28.45-.56.44Zm.43-2.46c.13-.7.25-1.3.34-1.82s.18-1.11.27-1.79a102.12,102.12,0,0,0-11,.28l.28,3.43ZM73,61.67l-1.19-.48A9.37,9.37,0,0,1,69.35,57l1-.56,1.32.41.4.69.41.4,1.12,2.16.2.56v.61l-.2.28Zm5.87-.07a4.48,4.48,0,0,1-2.64-1.78,5,5,0,0,0-.77-1.17,3.41,3.41,0,0,1-.4-1.83,1.68,1.68,0,0,1,1.52-.55l1,.83,2.08,2.67.21.79-.21.56Zm6.65-.87a4.36,4.36,0,0,1-2.19-1.53c-.76-.87-1.42-1.58-2-2.12l-.12-.79.12-.48,1.32-.38a33.55,33.55,0,0,1,3.61,2.92l.63.4a1.38,1.38,0,0,1,.28,1l-.28.64A1.52,1.52,0,0,1,85.47,60.73Z"/><path class="cls-2" d="M98.26,59.77a2.35,2.35,0,0,1-1.16-.66l-.39-.66-.22-1,.17-.63a1.23,1.23,0,0,0,1.07-.23,17,17,0,0,0,1.19-3.33,8.78,8.78,0,0,0,.26-2.89,1.11,1.11,0,0,0-.46-.39,1.3,1.3,0,0,0-.68-.07l-1.4.08c-.54,1.32-.94,2.4-1.21,3.24s-.62,1.89-1.08,3.16l-.83,1.44a3.78,3.78,0,0,1-1.5.13l-.46-.38-.3-1.07A32.22,32.22,0,0,0,92.7,53.4c.34-.87.68-1.88,1-3-1.86.2-3.14.08-3.84-.38-.13-1.07.18-1.66.94-1.78,1.65-.07,2.84-.13,3.58-.18A19.85,19.85,0,0,1,96,44.1a1.07,1.07,0,0,1,1.48-.3A1.41,1.41,0,0,1,98,45.32l-.63,2.34c.75.07,1.44.12,2.1.15a2.87,2.87,0,0,1,1.78.76,6.29,6.29,0,0,1,.51,2.31,9.3,9.3,0,0,1-.45,3.46c-.38,1.13-.83,2.31-1.38,3.53l-.38.58a1.48,1.48,0,0,1-.35.86A1.45,1.45,0,0,1,98.26,59.77Zm13-5.89-1-.41a7,7,0,0,1-1.65-.95l-2.55-2a15.58,15.58,0,0,1-2.23-1.93l-.35-.41-.28-.56.43-.68.76-.1c.48,0,1.65.67,3.51,2.06a30,30,0,0,0,3.27,2.3l.76.61.13.41.13.43-.33.89-.28.13Zm-3.94-7.75A11.21,11.21,0,0,1,105,44.08l-.56-.69a1.54,1.54,0,0,1,.08-1,1.35,1.35,0,0,1,1-.21,6.51,6.51,0,0,1,3.61,3.08l.08.63-.64.28A1.3,1.3,0,0,1,107.35,46.13Zm3.74-2.66-.49-.28-2-1.78a1.39,1.39,0,0,1-.41-1l.41-.49,1.11-.15,1.45.76a7,7,0,0,1,1.25,1.93q.12.84-.36.87C111.92,43.66,111.59,43.69,111.09,43.47Z"/><path class="cls-2" d="M40.54,89.24a2.11,2.11,0,0,1-1.53-.4,1.35,1.35,0,0,1-.15-.82l.64-.68a6.22,6.22,0,0,1,2.21-1.25l.15-.45a15.14,15.14,0,0,1-.42-2.17c-.09-.76-.17-1.52-.22-2.3v-.48l.08-.61-.69-.21-.28.08-.43-.08-.48.08a4.1,4.1,0,0,1-1.24-.61L38,78.78a1,1,0,0,1,.49-.81,21.94,21.94,0,0,1,2.69-.64,16.19,16.19,0,0,0,0-5.38.64.64,0,0,1,.71-.35l.28.07.53,0a3.25,3.25,0,0,1,1.12,1.12c.12,1.44.23,2.87.35,4.29l1,.28.48-.13.64.41.48.28.28.73-.16.36-1.32.33-1-.13-.33.13L44,80.63l.08.28-.13.89a10.24,10.24,0,0,0,.41,2.59l.4.08,1.2-.41,1,.46.2.56a6.89,6.89,0,0,0-.33.81l-.71.48a12,12,0,0,1-1.9,1.13,16.31,16.31,0,0,0-1.83,1A3.91,3.91,0,0,1,40.54,89.24Zm13.3-9c-.88-.09-1.77-.19-2.66-.31a5.73,5.73,0,0,1-2.47-.91l-.12-.48a29.35,29.35,0,0,1-.71-3,12.18,12.18,0,0,0-.21-2.47A2.75,2.75,0,0,1,48,71.72l2-.25v-.36a6.92,6.92,0,0,1-1.39-2.79A1.14,1.14,0,0,1,49.75,68l.36.16.33-.08.71.61L52.24,70a.81.81,0,0,1,.28.81l.28.44.48,0,1.25-.21,3.07-3.35.81-.07.71.22a1.4,1.4,0,0,1,.49,1.5l-1.53,1.86a17.55,17.55,0,0,1,1.86.33,2.67,2.67,0,0,1,2,.81l.05.35a9.72,9.72,0,0,0-.79,3.36,13.11,13.11,0,0,1-.66,3.42l-1.6.69a38.47,38.47,0,0,0-4.92,0ZM56.76,91a.62.62,0,0,0-.76-.2q-1.91.15-3.81.12a7.39,7.39,0,0,1-2.56-.68,1.46,1.46,0,0,1-.28-1.09,8.82,8.82,0,0,0,.2-2.47,5.4,5.4,0,0,0-.35-1.45l.07-.53-.07-.48a17.44,17.44,0,0,0,.43-2.13l-.15-.33a3.51,3.51,0,0,1,1.44-.41l.36.13.35-.21.28.08A4.69,4.69,0,0,1,53.56,81a9.06,9.06,0,0,0,1.6.28l.49.05,1-.05a2.4,2.4,0,0,0,1.16.13l.64.48.48.48v.28l-.28,1.09.08.33c-.09.73-.15,1.46-.2,2.19l.07,1.57-.15,1.25a.94.94,0,0,1,.2.81A2.78,2.78,0,0,1,56.76,91Zm-4-16.43.08-.68a.73.73,0,0,0-.69-.28,11.35,11.35,0,0,1-1.6.28v.33l1.37.35ZM53,77.89l0-1.09a4.64,4.64,0,0,0-2.08-.35l-.12.35.35,1,.53.07.28-.07Zm2.7,7.26a3.27,3.27,0,0,0,.2-1.52,1.71,1.71,0,0,0-1.37-.25H53.23l-.23.25-.81.2-.07.77c.55.13,1.12.25,1.7.34S55,85.1,55.65,85.15Zm.07,3.41.08-1a3.08,3.08,0,0,0-2-.48A7.85,7.85,0,0,0,52.19,87l.26,1.58,1,.15h.76Zm2.69-13.41a5.82,5.82,0,0,1,.36-1.62,12.35,12.35,0,0,1-2.57-.23l-.48.15-.07.28.07.25-.07.48A10.35,10.35,0,0,1,58.41,75.15ZM58,78l.07-.25.28-.69a4.49,4.49,0,0,0-2-.36l-.41.28-.07.41.15.48.76.21Z"/><path class="cls-2" d="M68.32,72.54c-.34-.36-.71-.73-1.12-1.12l-.13-.69q1.35-.81,12-1a2.16,2.16,0,0,1,1.4.59l.15.88-.2.84-1.73.18-9.7.25Zm10.74,17a9.33,9.33,0,0,1-1.76-.73,12.94,12.94,0,0,1-1.65-2l.06-.28L75.48,85,75,85a16.68,16.68,0,0,0-1.72,1.25l-1.83,2.48a1.81,1.81,0,0,1-1.4.61,1.77,1.77,0,0,1-1-.66l-.25-.73c.35-.53,1.08-1.67,2.18-3.43a53.73,53.73,0,0,1,4.14-5.66,58.82,58.82,0,0,0-6.42.28l-1-.74a1.82,1.82,0,0,1-.38-1l.43-.15c.87-.3,4.21-.56,10-.76a2.74,2.74,0,0,1,1.4.48c.08.36.15.72.2,1.09L75.73,81.6l-.48.74,1.52.4L77.91,84a5.09,5.09,0,0,0,.72,3,2.75,2.75,0,0,0,1.32.2,16.06,16.06,0,0,0,2.86-1l.41,0,.36-.08.91.49.43.48-.48.73a1,1,0,0,1-.36.64l-.28-.08-.4.13-.28,0-1.65.63-.23.21-.86.07-.56,0Z"/><path class="cls-2" d="M94.75,90.64a4.07,4.07,0,0,1-2.28-1.82,3.73,3.73,0,0,1,.1-3.44,3.82,3.82,0,0,1,3.15-1.53,3.26,3.26,0,0,1,2.47,1,3.6,3.6,0,0,1,.52,2.72,3.74,3.74,0,0,0,1.59-2,3.62,3.62,0,0,0,0-2.51c-.29-.82-1.16-1.43-2.6-1.82a7,7,0,0,0-4.56.34l-2.29.84-.53-1-.1-.66a2.26,2.26,0,0,1,.43-.91l.43-.33,8.08-6.81L92,73.58A4,4,0,0,1,90,73.42l-.89-1-.23-.71.23-.2.71-.33q.95-.22,11.43-.91l1.42.53a2.45,2.45,0,0,1-.38,2.28q0,.43-5.79,5.34A8.46,8.46,0,0,1,101,80a6,6,0,0,1,1.88,2.4,5.36,5.36,0,0,1,.14,2.91,6.65,6.65,0,0,1-1.36,3,6.15,6.15,0,0,1-2.23,1.86,7.34,7.34,0,0,1-2.13.65A11.63,11.63,0,0,1,94.75,90.64Zm1.78-2.36.46-.82a1.3,1.3,0,0,0-1.27-1.39,1.42,1.42,0,0,0-1.3,1.62A2.15,2.15,0,0,0,96.53,88.28Z"/></svg>