<svg id="レイヤー_1" data-name="レイヤー 1" xmlns="http://www.w3.org/2000/svg" viewBox="0 0 400.68 419.79"><defs><style>.unknown_text-1{fill:#dfb1ff;}.unknown_text-2{fill:#c05acd;}.unknown_text-3{fill:#666;}.unknown_text-4{fill:#efd8ff;}.unknown_text-5{fill:#4d4d4d;}</style></defs><path class="unknown_text-1" d="M160.78,11a122.72,122.72,0,0,0,3.63,18.5,1.12,1.12,0,0,0,2.17-.59A120.22,120.22,0,0,1,163,11c-.17-1.43-2.42-1.44-2.25,0Z"/><path class="unknown_text-1" d="M159.27.33l-.82.82a.77.77,0,0,0-.23.36.84.84,0,0,0-.1.44.8.8,0,0,0,.1.43.77.77,0,0,0,.23.36l.23.18a1.1,1.1,0,0,0,.57.15l.29,0a1.05,1.05,0,0,0,.5-.29l.82-.82a.88.88,0,0,0,.24-.36.83.83,0,0,0,.09-.44.82.82,0,0,0-.09-.43.88.88,0,0,0-.24-.36l-.22-.18a1.16,1.16,0,0,0-.57-.15l-.3,0a1.1,1.1,0,0,0-.5.29Z"/><path class="unknown_text-1" d="M285.39,35.86l2.47-4.11a1.13,1.13,0,1,0-1.94-1.14l-2.48,4.11a1.13,1.13,0,0,0,1.95,1.14Z"/><path class="unknown_text-1" d="M293.54,23.83l4.11-4.94a1.12,1.12,0,1,0-1.59-1.59L292,22.24a1.12,1.12,0,0,0,1.59,1.59Z"/><path class="unknown_text-1" d="M356.23,45.92,371.11,37A1.13,1.13,0,0,0,370,35L355.1,44c-1.24.75-.11,2.7,1.13,2Z"/><path class="unknown_text-1" d="M379.56,33h.82a.78.78,0,0,0,.43-.09,1,1,0,0,0,.37-.24.86.86,0,0,0,.23-.36.91.91,0,0,0,.1-.43l0-.3a1.2,1.2,0,0,0-.29-.5l-.23-.17a1.07,1.07,0,0,0-.57-.16h-.82a.78.78,0,0,0-.43.1.8.8,0,0,0-.37.23.86.86,0,0,0-.23.36,1,1,0,0,0-.1.44l0,.29a1.14,1.14,0,0,0,.29.5l.23.18a1.16,1.16,0,0,0,.57.15Z"/><path class="unknown_text-1" d="M377.33,104.93l4.09.48a1.15,1.15,0,0,0,.8-.33,1.13,1.13,0,0,0,0-1.6,1.32,1.32,0,0,0-.8-.32l-4.09-.48a1.13,1.13,0,0,0-.79.33,1.15,1.15,0,0,0-.33.8,1.11,1.11,0,0,0,.33.79,1.22,1.22,0,0,0,.79.33Z"/><path class="unknown_text-1" d="M391.38,106.2l8.17,1a1.13,1.13,0,1,0,0-2.25l-8.17-1a1.13,1.13,0,0,0-1.12,1.13,1.14,1.14,0,0,0,1.12,1.12Z"/><path class="unknown_text-1" d="M329.58,144.22l9.91,10.66c1,1.06,2.57-.53,1.59-1.59l-9.91-10.66c-1-1.07-2.58.53-1.59,1.59Z"/><path class="unknown_text-1" d="M323.88,136.76l.83.82a.77.77,0,0,0,.36.23.8.8,0,0,0,.43.1.78.78,0,0,0,.43-.1.85.85,0,0,0,.37-.23l.17-.23a1.1,1.1,0,0,0,.16-.56l0-.3a1.2,1.2,0,0,0-.29-.5l-.82-.82a1,1,0,0,0-.37-.24.8.8,0,0,0-.43-.09.78.78,0,0,0-.43.09,1,1,0,0,0-.37.24l-.17.22a1.29,1.29,0,0,0-.16.57l0,.3a1.2,1.2,0,0,0,.29.5Z"/><path class="unknown_text-1" d="M273.38,152.51l3.71,10.33a1.16,1.16,0,0,0,1.39.78,1.13,1.13,0,0,0,.78-1.38l-3.71-10.33a1.16,1.16,0,0,0-1.39-.78,1.13,1.13,0,0,0-.78,1.38Z"/><path class="unknown_text-1" d="M211,154.49a117.66,117.66,0,0,1,.25,17.31c-.08,1.45,2.17,1.44,2.25,0a117.66,117.66,0,0,0-.25-17.31c-.13-1.44-2.38-1.45-2.25,0Z"/><path class="unknown_text-1" d="M211.67,147.43a1.13,1.13,0,0,0,0-2.25,1.13,1.13,0,0,0,0,2.25Z"/><path class="unknown_text-1" d="M154.67,147.45l-4,13.19a1.13,1.13,0,0,0,2.17.6l4-13.19a1.13,1.13,0,0,0-2.17-.6Z"/><path class="unknown_text-1" d="M148.46,172.76a1.13,1.13,0,0,0,0-2.25,1.13,1.13,0,0,0,0,2.25Z"/><path class="unknown_text-1" d="M111.6,141.59a148.49,148.49,0,0,1-12.51,15.14c-1,1.05.6,2.64,1.59,1.59a152.5,152.5,0,0,0,12.87-15.6c.84-1.17-1.11-2.3-2-1.13Z"/><path class="unknown_text-1" d="M42.13,145.3l8.18-5.82a1.16,1.16,0,0,0,.4-1.54,1.14,1.14,0,0,0-1.54-.41L41,143.35a1.16,1.16,0,0,0-.4,1.54,1.14,1.14,0,0,0,1.54.41Z"/><path class="unknown_text-1" d="M55.56,134.78a1.13,1.13,0,0,0,0-2.25,1.13,1.13,0,0,0,0,2.25Z"/><path class="unknown_text-1" d="M1.41,102.53l16.13-3.22c1.42-.28.82-2.45-.6-2.17L.81,100.36c-1.42.29-.82,2.46.6,2.17Z"/><path class="unknown_text-1" d="M25.8,39.07a37.48,37.48,0,0,1,8.13,6.5,1.13,1.13,0,0,0,1.6-1.6,40.07,40.07,0,0,0-8.6-6.85,1.13,1.13,0,0,0-1.13,2Z"/><path class="unknown_text-1" d="M85.83,22,92,31.92c.76,1.23,2.71.1,1.94-1.14l-6.15-9.87c-.76-1.23-2.71-.1-1.94,1.13Z"/><path class="unknown_text-1" d="M80.47,13.52a1.13,1.13,0,0,0,0-2.25,1.13,1.13,0,0,0,0,2.25Z"/><path class="unknown_text-1" d="M229.27,17.36l-1.75,7.38a1.16,1.16,0,0,0,.79,1.39,1.14,1.14,0,0,0,1.38-.79L231.44,18a1.13,1.13,0,0,0-2.17-.6Z"/><path class="unknown_text-1" d="M345.12,161.23l.82.82a.91.91,0,0,0,.37.24.78.78,0,0,0,.43.09.8.8,0,0,0,.43-.09.88.88,0,0,0,.36-.24l.18-.22a1.16,1.16,0,0,0,.15-.57l0-.3a1.1,1.1,0,0,0-.29-.5l-.82-.82a.77.77,0,0,0-.36-.23.72.72,0,0,0-.43-.1.75.75,0,0,0-.44.1.77.77,0,0,0-.36.23l-.17.23a1,1,0,0,0-.16.56l0,.3a1.2,1.2,0,0,0,.29.5Z"/><path class="unknown_text-2" d="M85.14,93.62a.88.88,0,0,1,.67-.28.94.94,0,0,1,1,1,14.19,14.19,0,0,1-4.05,10.18,13.43,13.43,0,0,1-19.55,0,14.19,14.19,0,0,1-4-10.18.89.89,0,0,1,.28-.67.88.88,0,0,1,.67-.28.94.94,0,0,1,.95,1,12.51,12.51,0,0,0,1.6,6.25A12.28,12.28,0,0,0,67,105.07a11.54,11.54,0,0,0,14.4-2,12.21,12.21,0,0,0,3.5-8.8A.89.89,0,0,1,85.14,93.62ZM60.81,93a1,1,0,0,1-.7.27.94.94,0,0,1-1-.95V66.94a1,1,0,0,1,1-1h3a.94.94,0,0,1,1,1v17.2a.92.92,0,0,1-1,1,1,1,0,0,1-.7-.27.9.9,0,0,1-.3-.68V67.89h-1v24.4A.9.9,0,0,1,60.81,93Zm24.33-26.7a.88.88,0,0,1,.67-.28,1,1,0,0,1,.7.28.87.87,0,0,1,.3.67V92.29a.9.9,0,0,1-.3.68,1,1,0,0,1-.7.27.94.94,0,0,1-1-.95V66.94A.89.89,0,0,1,85.14,66.27Z"/><path class="unknown_text-2" d="M125.46,66a.85.85,0,0,1,.48.15,1.16,1.16,0,0,1,.35.38,1,1,0,0,1,.12.47v40.4a.92.92,0,0,1-1,1,.94.94,0,0,1-.95-1V67.94h-3v39.55a.93.93,0,0,1-.4.8,1.06,1.06,0,0,1-.55.15.85.85,0,0,1-.8-.45l-25-37.85v37.45a1,1,0,0,1-.27.7.9.9,0,0,1-.68.3.86.86,0,0,1-.67-.3,1,1,0,0,1-.28-.7V67.14a1,1,0,0,1,.28-.7.86.86,0,0,1,.67-.3.12.12,0,0,0,.1,0,.86.86,0,0,1,.85.4l24.85,37.65V67a1,1,0,0,1,.28-.7.86.86,0,0,1,.67-.3.6.6,0,0,1,.3.1.89.89,0,0,1,.35-.1Z"/><path class="unknown_text-2" d="M159.86,106.69a1,1,0,0,1,.13.73,1,1,0,0,1-.38.62,1.06,1.06,0,0,1-.55.15,1,1,0,0,1-.8-.4l-16.2-23-3.5,3.35v19.3a1,1,0,0,1-.35.75,3.15,3.15,0,0,1-.52.75,2.4,2.4,0,0,1-.78.55,3,3,0,0,1-1.45.35,3.08,3.08,0,0,1-1.9-.6,2.44,2.44,0,0,1-.95-1.35.93.93,0,0,1-.1-.45V67a1,1,0,0,1,.28-.7.86.86,0,0,1,.67-.3.9.9,0,0,1,.68.3,1,1,0,0,1,.27.7v39.65a1.72,1.72,0,0,1,.05.35.62.62,0,0,0,.25.7,1.17,1.17,0,0,0,1.35,0,.93.93,0,0,0,.55-.95V87.74h0a1.11,1.11,0,0,1,.25-.7L158,66.69a1.09,1.09,0,0,1,.7-.25.9.9,0,0,1,.68.3,1,1,0,0,1,.27.7.79.79,0,0,1-.3.65l-15.9,15.35c.07,0,.1.07.1.1Z"/><path class="unknown_text-2" d="M198.71,66a.85.85,0,0,1,.48.15,1.16,1.16,0,0,1,.35.38,1,1,0,0,1,.12.47v40.4a.92.92,0,0,1-.95,1,.94.94,0,0,1-1-1V67.94h-3v39.55a.93.93,0,0,1-.4.8,1.06,1.06,0,0,1-.55.15.85.85,0,0,1-.8-.45L168,70.14v37.45a1,1,0,0,1-.27.7.9.9,0,0,1-.68.3.86.86,0,0,1-.67-.3,1,1,0,0,1-.28-.7V67.14a1,1,0,0,1,.28-.7.86.86,0,0,1,.67-.3.12.12,0,0,0,.1,0,.86.86,0,0,1,.85.4l24.85,37.65V67a1,1,0,0,1,.28-.7.86.86,0,0,1,.67-.3.6.6,0,0,1,.3.1.89.89,0,0,1,.35-.1Z"/><path class="unknown_text-2" d="M224.56,72a10.91,10.91,0,0,0-8.77,4.48,17.72,17.72,0,0,0,0,21.52,11,11,0,0,0,8.75,4.45.9.9,0,0,1,.68.3,1,1,0,0,1,.27.7.92.92,0,0,1-.95,1,12.28,12.28,0,0,1-7.2-2.3,15.85,15.85,0,0,1-5.22-6.25,19.27,19.27,0,0,1-1.93-8.6,18.32,18.32,0,0,1,4-11.87A13,13,0,0,1,224,70.14l.15,0a.26.26,0,0,0,.2-.1,1,1,0,0,0,.2-.35,1.51,1.51,0,0,0,.1-.6,1.38,1.38,0,0,0-.15-.67.65.65,0,0,0-.3-.33,15.07,15.07,0,0,0-8.27,2.78,18.49,18.49,0,0,0-6,7.05,22,22,0,0,0,.05,19.4,18.17,18.17,0,0,0,6.17,7.07,14.89,14.89,0,0,0,8.45,2.6.9.9,0,0,1,.68.3,1,1,0,0,1,.27.7.92.92,0,0,1-.95,1,16.42,16.42,0,0,1-7.3-1.7,19,19,0,0,1-6-4.57,21.56,21.56,0,0,1-4-6.83,24.07,24.07,0,0,1,.95-18.85,19.88,19.88,0,0,1,6.62-7.72A17.17,17.17,0,0,1,224,66.14l.18,0,.07,0,.18,0,.17,0a.84.84,0,0,1,.8.5,3.15,3.15,0,0,1,0,5A.83.83,0,0,1,224.56,72Zm3.6-6a16,16,0,0,1,9.2,2.83,19.36,19.36,0,0,1,6.55,7.75,24.36,24.36,0,0,1,2.4,10.82,23.34,23.34,0,0,1-2.5,10.73A20.06,20.06,0,0,1,237,106a16.85,16.85,0,0,1-9.45,2.87.94.94,0,0,1-.95-1,1,1,0,0,1,.28-.7.87.87,0,0,1,.67-.3,14.93,14.93,0,0,0,6.58-1.52,16.64,16.64,0,0,0,5.37-4.15,20.57,20.57,0,0,0,3.6-6.23,21.3,21.3,0,0,0,1.35-7.55,22.42,22.42,0,0,0-2.15-9.82,17.55,17.55,0,0,0-5.87-7A14.16,14.16,0,0,0,228.16,68a.94.94,0,0,1-.95-1,1,1,0,0,1,.28-.7A.86.86,0,0,1,228.16,66.09Z"/><path class="unknown_text-2" d="M299.41,66.24a1,1,0,0,1,.75-.1.93.93,0,0,1,.6.43.86.86,0,0,1,.1.72l-10.15,40.3,0,0a1.2,1.2,0,0,1-.3.5h-.05a.4.4,0,0,1-.25.15.79.79,0,0,1-.3,0,.49.49,0,0,1-.25,0,.51.51,0,0,1-.3-.1s0,0,0,0a.94.94,0,0,1-.3-.4,0,0,0,0,0-.05,0l-12.1-37.55-12.2,37.25v0a.85.85,0,0,1-.75.85.47.47,0,0,1-.25,0,.83.83,0,0,1-.9-.75l-10.2-40.3a.83.83,0,0,1,.13-.72,1,1,0,0,1,.57-.43,1.9,1.9,0,0,1,.4,0h3.4l0,0a1,1,0,0,1,.73.1,1,1,0,0,1,.42.6l3.6,14.35a.88.88,0,0,1-.1.73.92.92,0,0,1-.6.42.47.47,0,0,1-.25,0,.91.91,0,0,1-.95-.75L256.41,68h-1.8l9.05,35.8,12.15-37.1v-.1a.48.48,0,0,0,.1-.15.54.54,0,0,1,.15-.15l.3-.2.05,0h.6l.05,0,.2.1c.07.07.12.1.15.1a.56.56,0,0,1,.1.15l.1.2s0,0,.05,0l12,37.15,9.35-37A.79.79,0,0,1,299.41,66.24Z"/><path class="unknown_text-2" d="M339.56,66a.85.85,0,0,1,.48.15,1.16,1.16,0,0,1,.35.38,1,1,0,0,1,.12.47v40.4a.92.92,0,0,1-.95,1,.94.94,0,0,1-.95-1V67.94h-3v39.55a.93.93,0,0,1-.4.8,1.06,1.06,0,0,1-.55.15.85.85,0,0,1-.8-.45l-25-37.85v37.45a1,1,0,0,1-.27.7.9.9,0,0,1-.68.3.86.86,0,0,1-.67-.3,1,1,0,0,1-.28-.7V67.14a1,1,0,0,1,.28-.7.86.86,0,0,1,.67-.3.14.14,0,0,0,.1,0,.86.86,0,0,1,.85.4l24.85,37.65V67a1,1,0,0,1,.28-.7.86.86,0,0,1,.67-.3.6.6,0,0,1,.3.1.89.89,0,0,1,.35-.1Z"/><path class="unknown_text-3" d="M152.09,278.73c0,.1,0,.12-.12.12s-.49,0-1.65,0v4.23c0,1.69,0,2.49,0,2.56s0,.12-.12.12h-.7c-.11,0-.12,0-.12-.12s0-.87,0-2.56v-4.23H147.2a18.2,18.2,0,0,1-.25,2.65,7.91,7.91,0,0,1-1.95,4c-.09.09-.14.15-.18.15s-.11-.06-.21-.16a1.85,1.85,0,0,0-.54-.45,6.51,6.51,0,0,0,2-3.77,16.55,16.55,0,0,0,.22-2.38c-1.38,0-1.84,0-1.93,0s-.11,0-.11-.12v-.66c0-.11,0-.12.11-.12s.57,0,2,0c0-.59,0-1.23,0-1.92v-1.82c-1,0-1.41,0-1.47,0s-.12,0-.12-.1v-.67c0-.1,0-.12.12-.12s.52,0,1.9,0h3.08c1.38,0,1.83,0,1.9,0s.12,0,.12.12v.67c0,.1,0,.1-.12.1s-.48,0-1.44,0V278c1.16,0,1.58,0,1.65,0s.12,0,.12.12Zm-2.65-4.49h-2.21v1.94c0,.6,0,1.21,0,1.8h2.22Zm8.28,6.9a3.6,3.6,0,0,0-.6.6,13.59,13.59,0,0,1-5,3.8.75.75,0,0,1-.24.07c-.09,0-.13-.06-.22-.22a1.54,1.54,0,0,0-.48-.5,12.45,12.45,0,0,0,5.25-3.76,3.48,3.48,0,0,0,.55-.87,4.09,4.09,0,0,1,.78.54c.08.06.11.1.11.18S157.81,281.1,157.72,281.14Zm-1.23-7.56a3.27,3.27,0,0,0-.53.45,13.64,13.64,0,0,1-3.55,2.52.45.45,0,0,1-.23.09c-.09,0-.13-.07-.21-.23a1.5,1.5,0,0,0-.39-.5,11.37,11.37,0,0,0,3.65-2.43,3.61,3.61,0,0,0,.54-.75,4.2,4.2,0,0,1,.75.51c.09.08.12.12.12.18S156.59,273.54,156.49,273.58Zm.6,3.5c-.12.06-.2.16-.5.5a13.78,13.78,0,0,1-4,3.14.72.72,0,0,1-.21.08c-.09,0-.14-.08-.23-.22a1.54,1.54,0,0,0-.43-.49,11.76,11.76,0,0,0,4.2-3.12,2.36,2.36,0,0,0,.45-.72,3.67,3.67,0,0,1,.73.49c.11.09.14.13.14.19S157.19,277,157.09,277.08Z"/><path class="unknown_text-3" d="M168.14,276.37a22.11,22.11,0,0,0,1,5.79c.48,1.41,1.11,2.51,1.77,2.51s.76-1,.87-2.46a3.35,3.35,0,0,0,.57.42c.28.16.31.18.28.46-.24,1.79-.76,2.64-1.6,2.64-1,0-1.94-.9-2.7-3a23.86,23.86,0,0,1-1.13-6.33h-5.4c-1.45,0-1.93,0-2,0s-.12,0-.12-.13v-.7c0-.11,0-.12.12-.12s.56,0,2,0h5.36c0-.37,0-.74,0-1.11a12,12,0,0,0-.15-1.85c.45,0,.75.05,1.05.09.11,0,.2.09.2.17a1,1,0,0,1-.08.29,3.52,3.52,0,0,0-.07,1.25c0,.39,0,.79,0,1.16h1.95c1.44,0,1.94,0,2,0s.12,0,.12.12v.7c0,.11,0,.13-.12.13s-.57,0-2,0Zm-4.33,6.86a28.85,28.85,0,0,0,3.09-1,3.66,3.66,0,0,0-.05.57c0,.3,0,.31-.3.42a56.45,56.45,0,0,1-5.52,1.6,1.39,1.39,0,0,0-.58.23.58.58,0,0,1-.23.1c-.06,0-.12-.06-.16-.16s-.2-.59-.29-.9a9.87,9.87,0,0,0,1.38-.23l1.73-.39v-3.81h-.8c-1.32,0-1.74,0-1.81,0s-.12,0-.12-.12V279c0-.12,0-.13.12-.13s.49,0,1.81,0h2.61c1.31,0,1.73,0,1.8,0s.12,0,.12.13v.63c0,.11,0,.12-.12.12s-.49,0-1.8,0h-.88ZM169.49,273c.14-.12.18-.12.29-.05a8.68,8.68,0,0,1,1.51,1.3c.06.08.08.13-.09.26l-.31.24c-.18.13-.21.13-.3,0a6.31,6.31,0,0,0-1.43-1.35c-.09-.06-.09-.1.06-.22Z"/><path class="unknown_text-3" d="M177.38,274.12c.15.09.21.16.21.25a.45.45,0,0,1-.1.25,2.07,2.07,0,0,0-.3.79,24.62,24.62,0,0,0-.71,5.18,11.15,11.15,0,0,0,.23,2.58c.36-.84.67-1.49,1.11-2.54a3.4,3.4,0,0,0,.36.6.29.29,0,0,1,.07.15.55.55,0,0,1-.07.24c-.33.77-.65,1.5-1,2.39a.8.8,0,0,0-.06.37c0,.14,0,.23,0,.33a.14.14,0,0,1-.11.14,4,4,0,0,1-.67.15.19.19,0,0,1-.17-.15,13.34,13.34,0,0,1-.67-4.35,27.74,27.74,0,0,1,.61-5.12,8.23,8.23,0,0,0,.21-1.66A5.57,5.57,0,0,1,177.38,274.12Zm3.11,7.14c.07,0,.1,0,.1.15,0,1.14,1,1.65,2.73,1.65a22.52,22.52,0,0,0,3-.21c.12,0,.15,0,.16.15s.05.5.05.71,0,.15-.2.18a23.53,23.53,0,0,1-2.68.16c-1.68,0-2.64-.24-3.3-.94a2.42,2.42,0,0,1-.63-1.78Zm-.27-5.58c0-.13,0-.18.18-.21a26.59,26.59,0,0,1,3.18-.27c.87,0,1.72,0,2.13.08.19,0,.22,0,.22.15s0,.48,0,.7,0,.15-.17.14c-.58-.06-1.56-.07-2.41-.07a19,19,0,0,0-3.14.31C180.2,276.1,180.2,275.87,180.22,275.68Z"/><path class="unknown_text-3" d="M201.74,280.26c0,4.63,0,5.49,0,5.58s0,.12-.12.12h-.72c-.1,0-.12,0-.12-.12V285h-9.94v.86c0,.1,0,.12-.12.12H190c-.11,0-.12,0-.12-.12s0-.95,0-5.58v-3c0-3,0-3.9,0-4s0-.12.12-.12.6,0,2.08,0h7.46c1.48,0,2,0,2.08,0s.12,0,.12.12,0,1,0,3.56Zm-.93-6.24h-9.94v10.14h9.94Zm-1.15,9.12c-.11.15-.15.21-.21.21s-.11-.05-.21-.12a8.41,8.41,0,0,1-3.36-5.32,7.91,7.91,0,0,1-3.62,5.39.38.38,0,0,1-.21.11c-.07,0-.12-.06-.21-.2a1.72,1.72,0,0,0-.49-.48c2.38-1.27,3.61-3.4,3.88-6.36a5.27,5.27,0,0,0,0-1.57,8.63,8.63,0,0,1,.93.09c.13,0,.22.07.22.16a1.11,1.11,0,0,1-.09.31,5.44,5.44,0,0,0-.12.72c.44,2.79,1.53,5.12,4,6.56A1.71,1.71,0,0,0,199.66,283.14Z"/><path class="unknown_text-3" d="M209.09,273.06c.17.06.18.19.11.38a2,2,0,0,0-.14.58c0,.68-.07,1.2-.1,1.92a1.06,1.06,0,0,0,.24-.12.14.14,0,0,1,.1,0c.06,0,.15.05.29.19a.55.55,0,0,1,.19.33c0,.09-.06.16-.19.32a7.37,7.37,0,0,0-.74,1.08c0,.32,0,.56,0,.83a7,7,0,0,1,4.56-1.91,3.36,3.36,0,0,1,3.57,3.54c0,1.84-1.25,3.71-4,4.52a.33.33,0,0,1-.43-.1,2.3,2.3,0,0,0-.72-.54,6.19,6.19,0,0,0,3.13-1.67,3.22,3.22,0,0,0,.92-2.28,2.4,2.4,0,0,0-2.51-2.62,6.63,6.63,0,0,0-4.54,2.08c0,1.91,0,3.77,0,5.73,0,.09,0,.12-.12.14s-.52,0-.79,0c-.09,0-.12,0-.12-.14,0-1.84,0-3.43.06-5.43-.9,1.26-1.71,2.45-2.55,3.63-.09.11-.17.12-.26.06a5.62,5.62,0,0,1-.55-.54c-.08-.07-.06-.15,0-.24,1.13-1.35,2.21-2.79,3.35-4.39,0-.49,0-1,0-1.32-.58.16-1.27.39-1.78.57-.33.12-.51.3-.63.31s-.15,0-.26-.19a6.08,6.08,0,0,1-.42-.82,7.27,7.27,0,0,0,1-.16c.65-.17,1.25-.33,2.12-.58,0-.59,0-1.14.06-2a5.17,5.17,0,0,0-.12-1.31A5,5,0,0,1,209.09,273.06Z"/><path class="unknown_text-3" d="M223.82,273.13c.17.07.24.14.24.24a.48.48,0,0,1-.07.2,1.27,1.27,0,0,0-.12.59c-.06.68-.09,1.24-.12,2a2.36,2.36,0,0,1,.52.35c.09.07.11.16,0,.3-.21.35-.41.7-.63,1.15,0,.2,0,.37,0,.57a22.16,22.16,0,0,1,1.69-1.75,4.21,4.21,0,0,1,2.66-1.49c1,0,1.6.68,1.6,1.88,0,.66,0,1.65-.13,2.79s-.15,2-.15,2.47c0,.95.25,1.17.75,1.17a1.77,1.77,0,0,0,1.24-.57,4.22,4.22,0,0,0,.92-1.42,1.74,1.74,0,0,0,.34.76.35.35,0,0,1,0,.48,3,3,0,0,1-2.58,1.71c-1.06,0-1.65-.57-1.65-2,0-.68.05-1.53.12-2.57s.12-1.84.12-2.58-.21-1.29-.69-1.29a3.34,3.34,0,0,0-2,1.12,32,32,0,0,0-2.27,2.36c0,1.56,0,3.56.06,5.66,0,.09,0,.13-.15.15l-.72,0c-.07,0-.12-.05-.12-.17,0-2.2,0-3.76,0-5-.72,1-1.42,2.09-2.2,3.26-.09.13-.14.15-.26.07a2.63,2.63,0,0,1-.55-.51c-.09-.07,0-.16,0-.27,1.21-1.57,2.1-2.8,3-4.16,0-.53,0-.94,0-1.31-.75.23-1.44.45-2.06.7-.16.07-.3.2-.39.2a.27.27,0,0,1-.22-.15,3.89,3.89,0,0,1-.44-.87,5.3,5.3,0,0,0,1-.15c.54-.15,1.19-.33,2.1-.63,0-.69,0-1.35,0-2a6.85,6.85,0,0,0-.11-1.48A4.49,4.49,0,0,1,223.82,273.13Z"/><path class="unknown_text-3" d="M241.39,275.28c.13,0,.18,0,.19.09s.06.45.08.64,0,.17-.14.19c-.81.16-1.62.29-2.5.43a35.94,35.94,0,0,1-3,6.33c-.07.12-.15.1-.24,0a3.35,3.35,0,0,1-.6-.45c-.09-.07-.09-.13,0-.25a26.61,26.61,0,0,0,2.82-5.58c-.65.06-1.25.11-1.89.11a6.22,6.22,0,0,1-.8,0c-.13,0-.15,0-.18-.17a6.44,6.44,0,0,1-.09-.75c.48,0,.87.05,1.19.05a18.1,18.1,0,0,0,2-.12c.18-.56.31-1.12.45-1.75a4.61,4.61,0,0,0,.12-1.17,6,6,0,0,1,1.17.3.17.17,0,0,1,.13.16.31.31,0,0,1-.12.23,1.42,1.42,0,0,0-.21.46c-.16.55-.33,1.1-.48,1.63A20.75,20.75,0,0,0,241.39,275.28Zm.91,3.63a4.34,4.34,0,0,0-.09-1,4.64,4.64,0,0,1,1,.19.2.2,0,0,1,.17.19.78.78,0,0,1-.09.26,2.37,2.37,0,0,0-.06.71,24.1,24.1,0,0,0,.18,2.76,12.92,12.92,0,0,1,2.83,1.5c.12.07.11.12.06.24a4.82,4.82,0,0,1-.36.66c-.07.1-.15.09-.24,0a8.88,8.88,0,0,0-2.28-1.42c0,1.51-.75,2.34-2.68,2.34-1.14,0-2.33-.59-2.33-1.83s1.08-1.89,2.55-1.89a7.06,7.06,0,0,1,1.5.18C242.39,280.92,242.32,279.72,242.3,278.91ZM241,282.49c-1.2,0-1.74.47-1.74,1s.55,1,1.54,1c1.23,0,1.68-.65,1.68-1.41a3,3,0,0,0,0-.36A5,5,0,0,0,241,282.49Zm2.55-6.71c.07-.12.12-.14.25-.1a10.78,10.78,0,0,1,2.94,1.41c.11.09.11.15,0,.28a3.78,3.78,0,0,1-.34.59c-.08.11-.12.09-.21,0a10.1,10.1,0,0,0-3.06-1.53C243.34,276.21,243.46,276,243.58,275.78Z"/><path class="unknown_text-3" d="M251.65,274.92a.2.2,0,0,1,.13.16,1.18,1.18,0,0,1-.06.28,5,5,0,0,0-.12,1.38,24.66,24.66,0,0,0,.21,3.4c.23,1.77.87,3.06,1.59,3.06s1.17-1,1.61-2.36a1.9,1.9,0,0,0,.49.75.34.34,0,0,1,.12.38c-.42,1.21-1.23,2.35-2.23,2.35-1.26,0-2.21-1.74-2.54-4.09a33,33,0,0,1-.27-4.19,6,6,0,0,0-.12-1.43A3.9,3.9,0,0,1,251.65,274.92Zm7.15,1.16c.09-.05.17-.07.23,0a9,9,0,0,1,2.92,5.18c0,.11,0,.15-.1.2a3.16,3.16,0,0,1-.69.34.14.14,0,0,1-.2-.12,8.71,8.71,0,0,0-2.82-5.2A5,5,0,0,1,258.8,276.08Z"/><path class="unknown_text-3" d="M75.77,303.69c0,.11,0,.12-.12.12s-.49,0-1.81,0h-.47a6.06,6.06,0,0,0,2.22,1.92,1.8,1.8,0,0,0-.36.53c-.06.12-.09.18-.13.18s-.11-.05-.21-.14a6.47,6.47,0,0,1-1.83-2c0,2.42.1,3.84.1,4.47,0,.11,0,.12-.13.12h-.68c-.1,0-.12,0-.12-.12,0-.61,0-2,.09-4.29a9.06,9.06,0,0,1-2.55,3.09c-.1.08-.16.12-.22.12s-.09-.06-.15-.18a1.88,1.88,0,0,0-.41-.55,8.9,8.9,0,0,0,3-3.14h-.76c-1.32,0-1.76,0-1.83,0s-.12,0-.12-.12v-.6c0-.1,0-.12.12-.12s.51,0,1.83,0h1v0a7,7,0,0,0-.09-1.41l.91.08c.09,0,.15.06.15.12a.43.43,0,0,1-.06.21,3.25,3.25,0,0,0-.07,1v0h.72c1.32,0,1.74,0,1.81,0s.12,0,.12.12Zm.26-2.52c0,.11,0,.12-.12.12s-.53,0-1.86,0h-2.9c-1.35,0-1.78,0-1.86,0s-.12,0-.12-.12v-.61c0-.11,0-.12.12-.12s.51,0,1.86,0h2a11.11,11.11,0,0,0,.69-1.71,2.37,2.37,0,0,0,.14-.64,7.2,7.2,0,0,1,.81.21c.13,0,.18.1.18.17s0,.12-.11.18a1.06,1.06,0,0,0-.22.35,15.13,15.13,0,0,1-.66,1.44h.09c1.3,0,1.74,0,1.86,0s.12,0,.12.12Zm-.24-3.54c0,.11,0,.12-.12.12s-.5,0-1.79,0H71.39c-1.29,0-1.71,0-1.78,0s-.12,0-.12-.12v-.58c0-.1,0-.12.12-.12s.49,0,1.78,0h.87v-.47a4.22,4.22,0,0,0-.1-1.08c.39,0,.67,0,1,.08.12,0,.2.06.2.12a.66.66,0,0,1-.09.27c-.08.13-.08.25-.08.61V297h.72c1.29,0,1.71,0,1.79,0s.12,0,.12.12Zm-4.7.54c.12,0,.15,0,.21.07a6.24,6.24,0,0,1,.65,1.48c0,.11,0,.15-.14.21l-.37.15c-.2.06-.24.06-.27-.08a7.74,7.74,0,0,0-.57-1.5c-.06-.1,0-.13.15-.21Zm11.66,3c0,.1,0,.12-.12.12s-.5,0-1.82,0h-.07v5.29c0,1.62,0,2.16,0,2.24s0,.12-.12.12h-.74c-.1,0-.12,0-.12-.12s0-.62,0-2.24v-5.29H77.59a18.18,18.18,0,0,1-.38,4.39,6.81,6.81,0,0,1-1.53,3c-.09.12-.15.17-.21.17s-.1,0-.19-.12a1.71,1.71,0,0,0-.57-.35,6.61,6.61,0,0,0,1.71-3.15,19.21,19.21,0,0,0,.3-4.21v-1.85a16.62,16.62,0,0,0-.11-2.11,4.59,4.59,0,0,1,1,.3,14.11,14.11,0,0,0,3-1.17,3.71,3.71,0,0,0,.75-.54,4.63,4.63,0,0,1,.66.67.35.35,0,0,1,.09.21c0,.06-.07.13-.19.14a1.71,1.71,0,0,0-.56.18,20.66,20.66,0,0,1-3.73,1.35v2.31h3.22c1.32,0,1.74,0,1.82,0s.12,0,.12.12Z"/><path class="unknown_text-3" d="M88.75,296.44c.16,0,.24.11.24.22a1.14,1.14,0,0,1-.12.39,8.61,8.61,0,0,0-.18,1.54c-.14,2.27-.23,4.32-.23,6.39,0,1.68.47,2.19,1.77,2.19a7.68,7.68,0,0,0,5.4-2.86,3.93,3.93,0,0,0,.26.87.76.76,0,0,1,.06.21c0,.09,0,.16-.18.28a8.34,8.34,0,0,1-5.72,2.52c-1.69,0-2.61-.81-2.61-3s.14-4.58.21-6.69a8.1,8.1,0,0,0-.12-2.27A6,6,0,0,1,88.75,296.44Z"/><path class="unknown_text-3" d="M101.65,297.92a.2.2,0,0,1,.13.16,1.18,1.18,0,0,1-.06.28,5,5,0,0,0-.12,1.38,24.66,24.66,0,0,0,.21,3.4c.23,1.77.87,3.06,1.59,3.06s1.17-1,1.61-2.36a1.9,1.9,0,0,0,.49.75.34.34,0,0,1,.12.38c-.42,1.21-1.23,2.35-2.23,2.35-1.26,0-2.21-1.74-2.54-4.09a33,33,0,0,1-.27-4.19,6,6,0,0,0-.12-1.43A3.9,3.9,0,0,1,101.65,297.92Zm7.15,1.16c.09-.05.17-.07.23,0a9,9,0,0,1,2.92,5.18c0,.11,0,.15-.1.2a3.16,3.16,0,0,1-.69.34.14.14,0,0,1-.2-.12,8.71,8.71,0,0,0-2.82-5.2A5,5,0,0,1,108.8,299.08Z"/><path class="unknown_text-3" d="M121.3,295.88A14,14,0,0,0,128,301a2.9,2.9,0,0,0-.45.62c-.09.16-.12.24-.19.24a.56.56,0,0,1-.21-.08,14.7,14.7,0,0,1-6.36-5.16,15.85,15.85,0,0,1-6.11,5.24.68.68,0,0,1-.22.09c-.08,0-.11-.06-.2-.21a2.09,2.09,0,0,0-.46-.56,14.21,14.21,0,0,0,6.16-5,2.49,2.49,0,0,0,.39-.89c.39.06.68.12,1,.19s.21.11.21.18a.22.22,0,0,1-.12.19Zm6.16,12.33c0,.1,0,.12-.12.12s-.55,0-2,0h-9c-1.4,0-1.88,0-2,0s-.12,0-.12-.12v-.66c0-.11,0-.12.12-.12s.55,0,2,0H117v-3.38a8.65,8.65,0,0,0-.11-1.8c.36,0,.69.05,1,.09q.18,0,.18.12a.81.81,0,0,1-.09.29,5.17,5.17,0,0,0-.08,1.32v3.36h2.75v-6a8.77,8.77,0,0,0-.11-1.8c.36,0,.71.05,1,.09.11,0,.18.08.18.14a.55.55,0,0,1-.09.28,5,5,0,0,0-.07,1.31V303h1.81c1.31,0,1.74,0,1.83,0s.12,0,.12.12v.64c0,.11,0,.12-.12.12s-.52,0-1.83,0h-1.81v3.62h3.75c1.41,0,1.87,0,2,0s.12,0,.12.12Z"/><path class="unknown_text-3" d="M142.3,296.91c0,.09,0,.11-.12.11s-.56,0-2,0h-4v2h1.16c1.38,0,1.84,0,1.93,0s.12,0,.12.12,0,.5,0,1.66v3.22c0,1.14,0,1.57,0,1.65s0,.12-.12.12-.55,0-1.93,0h-3.09c-1.37,0-1.83,0-1.92,0s-.12,0-.12-.12,0-.51,0-1.65V300.7c0-1.16,0-1.58,0-1.66s0-.12.12-.12.55,0,1.92,0h1.08v-2h-3.81c-1.43,0-1.91,0-2,0s-.12,0-.12-.11v-.66c0-.12,0-.13.12-.13s.55,0,2,0h8.62c1.44,0,1.91,0,2,0s.12,0,.12.13Zm-1.25,3.79a10.6,10.6,0,0,0-.1-1.83c.46,0,.75.05,1,.08s.19.08.19.17a.34.34,0,0,1-.07.22,3.48,3.48,0,0,0-.11,1.37v5.13c0,1.93,0,2.8,0,2.88s0,.12-.12.12h-.69c-.1,0-.12,0-.12-.12V308H130.69v.75c0,.1,0,.12-.12.12h-.68c-.1,0-.12,0-.12-.12s0-1,0-2.85v-5.19a10.7,10.7,0,0,0-.09-1.81c.38,0,.6,0,.95.08.13,0,.21.09.21.17a.75.75,0,0,1-.11.29,5.1,5.1,0,0,0-.07,1.31v6.42h10.36Zm-5.68-1h-2.25v2.13h2.25Zm0,2.85h-2.25v2.36h2.25Zm3.18-2.85h-2.33v2.13h2.33Zm0,2.85h-2.33v2.36h2.33Z"/><path class="unknown_text-3" d="M152.09,302.15a1.24,1.24,0,0,1-1.24,1.24,1.24,1.24,0,1,1,0-2.48A1.23,1.23,0,0,1,152.09,302.15Z"/><path class="unknown_text-3" d="M167.15,305.28c0,.9,0,1.76,0,2.72,0,.13,0,.18-.15.18h-.87c-.12,0-.15-.05-.15-.18,0-.9.06-1.8.06-2.67v-4.44a29.64,29.64,0,0,1-4.71,3.39.26.26,0,0,1-.35-.06,2.36,2.36,0,0,0-.75-.48,28.22,28.22,0,0,0,4.67-3.16,26.51,26.51,0,0,0,2.91-2.9,4.69,4.69,0,0,0,1-1.69,4.8,4.8,0,0,1,1,.67.24.24,0,0,1-.06.42,3.58,3.58,0,0,0-.84.79,26.33,26.33,0,0,1-1.88,2.08Z"/><path class="unknown_text-3" d="M176.3,301.87l2.13-2.17c.36-.36.57-.48.89-.48a1.33,1.33,0,0,1,.91.41,57.59,57.59,0,0,0,6.89,4.92.18.18,0,0,1,.09.28,4.45,4.45,0,0,1-.47.75.16.16,0,0,1-.27.05c-2.38-1.64-4.68-3.35-6.79-5.1a.47.47,0,0,0-.3-.16.36.36,0,0,0-.29.13c-.67.67-1.5,1.54-2.52,2.64a5.24,5.24,0,0,0-.64.81.21.21,0,0,1-.35.06,7.41,7.41,0,0,1-.87-.8A10.27,10.27,0,0,0,176.3,301.87Zm6.87-3.86c.08-.06.12-.05.18,0a7.24,7.24,0,0,1,1.7,1.82.11.11,0,0,1,0,.16l-.44.36a.12.12,0,0,1-.19,0,6.55,6.55,0,0,0-1.74-1.92Zm1.28-1c.06,0,.1-.06.16,0a8.64,8.64,0,0,1,1.71,1.76c.05.07,0,.12,0,.18l-.41.36c-.06.06-.12.06-.18,0A7.12,7.12,0,0,0,184,297.4Z"/><path class="unknown_text-3" d="M191.45,297.71a.19.19,0,0,1,.27,0,13.8,13.8,0,0,1,2.7,2c.11.11.12.17.05.29a5.11,5.11,0,0,1-.51.64c-.09.11-.14.12-.24,0a16.15,16.15,0,0,0-2.85-2.22C191.06,298.16,191.29,297.89,191.45,297.71Zm1.35,8a26.34,26.34,0,0,0,4.34-2.79,23.8,23.8,0,0,0,4.05-4,5,5,0,0,0,.25,1c.09.19.08.31-.1.52a28.75,28.75,0,0,1-3.65,3.45,30.2,30.2,0,0,1-4.5,2.92,5.39,5.39,0,0,0-.82.59.25.25,0,0,1-.41,0,5.89,5.89,0,0,1-.73-1A8.1,8.1,0,0,0,192.8,305.66Z"/><path class="unknown_text-3" d="M210.11,300.45a21.51,21.51,0,0,1,4.89,2.09c.12.06.15.13.11.24a5,5,0,0,1-.36.73c-.09.12-.15.15-.29.07a16.5,16.5,0,0,0-4.36-2V305c0,.92,0,2.09,0,3.06,0,.15,0,.2-.19.2h-.77c-.16,0-.21-.05-.21-.21.05-1,.06-2.13.06-3v-6.67a13.21,13.21,0,0,0-.16-2.4,6.65,6.65,0,0,1,1.24.19c.24.06.18.23.11.46a6.1,6.1,0,0,0-.11,1.66Z"/><path class="unknown_text-3" d="M227.17,305.67c0,.12,0,.17-.17.18a4.1,4.1,0,0,1-.64.06c-.09,0-.14-.07-.14-.18,0-.65,0-1.39,0-2.15-1.65.82-2.46,1.58-2.46,2.48s.82,1.25,2.56,1.25a26.27,26.27,0,0,0,3.57-.3.12.12,0,0,1,.17.1,5,5,0,0,1,.09.74.2.2,0,0,1-.12.21,30.78,30.78,0,0,1-3.71.21c-2.1,0-3.46-.54-3.46-2.15,0-1.26.82-2.28,3.31-3.49,0-1-.37-1.43-1.26-1.41a4.33,4.33,0,0,0-2.46,1.21c-.54.51-.9.9-1.42,1.46-.09.1-.15.1-.23,0a4.88,4.88,0,0,1-.52-.59c-.05-.09-.06-.12,0-.21a16.32,16.32,0,0,0,3.48-4.17c-.93.06-1.85.06-2.79,0-.12,0-.15-.05-.17-.16s-.07-.5-.09-.75a31.14,31.14,0,0,0,3.48,0,13.63,13.63,0,0,0,.54-1.5,2,2,0,0,0,.12-.81,4.66,4.66,0,0,1,1.13.33.19.19,0,0,1,0,.33,1.32,1.32,0,0,0-.27.42c-.18.37-.32.69-.51,1.14a30.52,30.52,0,0,0,3.16-.49c.12,0,.15,0,.18.05a6.19,6.19,0,0,1,.09.66c0,.11,0,.16-.19.18-1.19.21-2.46.38-3.66.5a13,13,0,0,1-1.53,2.24v0a3.32,3.32,0,0,1,1.88-.64,1.73,1.73,0,0,1,1.89,1.75c.73-.33,1.59-.72,2.34-1.08a4.36,4.36,0,0,0,1.14-.76,3.68,3.68,0,0,1,.73.87c.12.22,0,.31-.15.34a4.88,4.88,0,0,0-.82.25c-1.14.47-2.09.82-3.18,1.29Z"/><path class="unknown_text-3" d="M238.24,300.5c.13-.06.18-.06.22,0a13.66,13.66,0,0,1,1,2.56c0,.11,0,.14-.14.2l-.36.13c-.19.08-.21.08-.24-.05l-.22-.85c-.39.06-.77.11-1.13.14v4c0,1.63,0,2.11,0,2.19s0,.1-.12.1h-.67c-.11,0-.12,0-.12-.1s0-.56,0-2.19v-3.93c-.48,0-.95.08-1.43.1a1.75,1.75,0,0,0-.57.12.33.33,0,0,1-.16,0c-.08,0-.12-.06-.15-.18l-.14-.81c.35,0,.6.05.89.05h.12c.4-.53.79-1.06,1.17-1.61a20.45,20.45,0,0,0-2.15-2.3c-.09-.09-.07-.12,0-.26l.24-.3c.12-.14.15-.16.24-.08l.58.57a20.5,20.5,0,0,0,1.16-2,2.57,2.57,0,0,0,.25-.72,5.34,5.34,0,0,1,.8.38c.1.05.15.1.15.17s-.05.11-.12.17a1.64,1.64,0,0,0-.32.41c-.48.8-.85,1.42-1.36,2.14l1,1.07c.42-.65.82-1.34,1.24-2a4.83,4.83,0,0,0,.32-.75,4.78,4.78,0,0,1,.79.37c.11.06.14.1.14.18s0,.12-.14.18a2.4,2.4,0,0,0-.49.66c-.84,1.33-1.7,2.58-2.55,3.7.73,0,1.47-.09,2.23-.17a8,8,0,0,0-.45-1c-.06-.1,0-.12.15-.21Zm-2.51,3.91a1.68,1.68,0,0,0-.12.45,13.67,13.67,0,0,1-.67,2.82c-.05.14-.08.21-.14.21s-.12,0-.22-.12a2.12,2.12,0,0,0-.51-.21,9.85,9.85,0,0,0,.75-2.86,4.07,4.07,0,0,0,0-.78,5.15,5.15,0,0,1,.75.15c.15.05.21.09.21.15A.36.36,0,0,1,235.73,304.41Zm2.72-.6c.16,0,.18,0,.22.08a16.49,16.49,0,0,1,.66,2.5c0,.14,0,.15-.18.21l-.33.11c-.19.06-.24.06-.25-.06a14,14,0,0,0-.59-2.57c0-.1,0-.12.17-.18Zm4.17-.3a3,3,0,0,0-.09.77c-.11,2-.57,3.42-3.05,4.45a.54.54,0,0,1-.22.08c-.08,0-.12-.06-.21-.21a1.62,1.62,0,0,0-.47-.47c2.43-.76,3-2.07,3.09-3.87a6.79,6.79,0,0,0,0-1.29c.3,0,.57.06.82.11s.24.06.24.15A1,1,0,0,1,242.62,303.51Zm4.74-5.59c0,.11,0,.12-.12.12s-.56,0-2,0h-1.62v1.38h1.2c1.35,0,1.78,0,1.86,0s.12,0,.12.12v.57c0,.11,0,.12-.12.12s-.51,0-1.86,0H242c-1.36,0-1.8,0-1.87,0s-.11,0-.11-.12v-.57c0-.11,0-.12.11-.12s.51,0,1.87,0h.81V298h-1.12c-1.44,0-1.91,0-2,0s-.12,0-.12-.12v-.59c0-.09,0-.1.12-.1s.54,0,2,0h1.12v-.4a5.92,5.92,0,0,0-.1-1.49,8.47,8.47,0,0,1,.94.08c.12,0,.2.07.2.12a.46.46,0,0,1-.11.26,2.68,2.68,0,0,0-.07,1v.47h1.62c1.42,0,1.9,0,2,0s.12,0,.12.1Zm-.17,4.44c0,1,0,1.15,0,1.23s0,.12-.12.12h-.64c-.12,0-.12,0-.12-.12v-1.5h-5.81v1.5c0,.1,0,.12-.1.12h-.65c-.1,0-.12,0-.12-.12s0-.2,0-1.23V302c0-.36,0-.51,0-.58s0-.15.12-.15.57,0,2,0h3.37c1.41,0,1.91,0,2,0s.12,0,.12.12,0,.23,0,.52Zm-2.56,4.9c0,.3,0,.44.13.5a1.93,1.93,0,0,0,.81.12c.65,0,.93-.12,1.05-.3a3.09,3.09,0,0,0,.24-1.58,2.25,2.25,0,0,0,.5.29c.25.1.25.1.25.37,0,.95-.19,1.32-.45,1.58s-.66.43-1.66.43a3.19,3.19,0,0,1-1.29-.16c-.26-.14-.44-.33-.44-1v-2.87a11.7,11.7,0,0,0-.07-1.65c.34,0,.61,0,.9.09.12,0,.19.08.19.14a.69.69,0,0,1-.09.3,3.58,3.58,0,0,0-.07,1.21Z"/><path class="unknown_text-3" d="M254.51,300.6a16.55,16.55,0,0,1-3.7,4c-.12.11-.18.14-.29.08a2.18,2.18,0,0,0-.78-.35,16.8,16.8,0,0,0,4.89-5.74,5.43,5.43,0,0,0,.75-2,4.2,4.2,0,0,1,1.07.44.22.22,0,0,1,0,.37,2,2,0,0,0-.42.55c-.32.6-.69,1.25-1,1.76l3.29-.06a1.31,1.31,0,0,0,.67-.11.31.31,0,0,1,.35,0,2.41,2.41,0,0,1,.54.46c.15.15.13.29,0,.37a2.24,2.24,0,0,0-.37.56,15.89,15.89,0,0,1-2.88,4,12.87,12.87,0,0,1,1.53,1.71c.1.12.1.16,0,.28a3.24,3.24,0,0,1-.51.42c-.12.08-.17.09-.26,0a13.86,13.86,0,0,0-4.06-3.72c.19-.19.34-.36.52-.52s.14-.09.27,0A15.91,15.91,0,0,1,256,304.5a13.42,13.42,0,0,0,2.71-4Z"/><path class="unknown_text-3" d="M270,298.92c0,.93,0,1.31,0,1.38s0,.12-.12.12-.45,0-1.5,0h-2.72v5.24c0,2.14,0,3,0,3.12s0,.12-.12.12h-.7c-.11,0-.12,0-.12-.12s0-1,0-3.12v-6.5c0-2.14,0-3.05,0-3.14s0-.12.12-.12.58,0,1.69,0h1.82c1.05,0,1.42,0,1.5,0s.12,0,.12.12,0,.46,0,1.38Zm-.86-2.29h-3.45v1.14h3.45Zm0,1.86h-3.45v1.18h3.45Zm5.84,6.4c0,.11,0,.12-.12.12s-.57,0-2,0h-.21v1.61c0,1.11,0,1.56,0,1.65s0,.12-.12.12h-.66c-.11,0-.12,0-.12-.12s0-.54,0-1.65V305h-2.13a5.58,5.58,0,0,1-.45,1.71,4.7,4.7,0,0,1-1.34,1.7c-.09.07-.15.12-.19.12s-.12-.06-.24-.18a1.56,1.56,0,0,0-.53-.36,3.7,3.7,0,0,0,1.5-1.56,3.59,3.59,0,0,0,.39-1.43h-.09c-1.47,0-2,0-2,0s-.12,0-.12-.12v-.55c0-.11,0-.12.12-.12s.57,0,2,0h.15c0-.47.05-1.05.05-1.79-1.2,0-1.64,0-1.68,0s-.14,0-.14-.12v-.55c0-.11,0-.12.14-.12s.52,0,1.93,0h3.33c1.41,0,1.88,0,1.95,0s.11,0,.11.12v.55c0,.11,0,.12-.11.12s-.52,0-1.81,0v1.79h.21c1.47,0,2,0,2,0s.12,0,.12.12Zm-3.21-2.43h-2c0,.71,0,1.29,0,1.79h2.07Zm5.05,2.6c0,.82.05,1.6.05,2.17s-.11.92-.39,1.14-.62.3-1.82.3c-.28,0-.27,0-.34-.28a2.26,2.26,0,0,0-.27-.66,10.38,10.38,0,0,0,1.09.06c.66,0,.8-.12.8-.72v-6.68h-2.75c-1.17,0-1.54,0-1.62,0s-.13,0-.13-.12,0-.35,0-1.29v-1.73c0-.92,0-1.2,0-1.29s0-.12.13-.12.45,0,1.62,0h1.92c1.16,0,1.55,0,1.62,0s.12,0,.12.12,0,.68,0,2.14Zm-.88-8.43h-3.62v1.14H276Zm0,1.86h-3.62v1.18H276Z"/><path class="unknown_text-3" d="M280.72,302.52c0-.57,0-1.42,0-2.14a16.15,16.15,0,0,1-1.4,1.89c-.09.1-.13.16-.18.16s-.07-.06-.12-.15a2,2,0,0,0-.36-.6,14.94,14.94,0,0,0,3-5.31,4.53,4.53,0,0,0,.22-1,5,5,0,0,1,.9.32c.11,0,.15.1.15.18s-.06.13-.13.21a1.5,1.5,0,0,0-.29.55c-.28.78-.6,1.51-.94,2.24v7.55c0,1.59,0,2.28,0,2.36s0,.12-.11.12h-.7c-.11,0-.12,0-.12-.12s0-.77,0-2.36ZM292.36,308c0,.11,0,.12-.12.12s-.56,0-2,0h-5.54v.72c0,.11,0,.12-.12.12H284c-.1,0-.12,0-.12-.12s0-.51,0-1.66v-3.5c0-.39,0-.78,0-1.18a11,11,0,0,1-1.16,1.3c-.1.09-.16.14-.22.14s-.09-.05-.15-.14a1.64,1.64,0,0,0-.41-.42,10.44,10.44,0,0,0,2.34-3,3.9,3.9,0,0,0,.41-1.07,5.38,5.38,0,0,1,.81.29c.1.05.15.1.15.17s-.08.13-.15.19a2.75,2.75,0,0,0-.48.7l-.23.41h2.72a7.25,7.25,0,0,0,.46-.93,3.5,3.5,0,0,0,.23-.78c.33.08.64.16.81.22s.16.11.16.15a.23.23,0,0,1-.1.2.68.68,0,0,0-.24.3,9.21,9.21,0,0,1-.44.84H290c1.38,0,1.84,0,1.92,0s.12,0,.12.12v.53c0,.1,0,.11-.12.11s-.54,0-1.92,0h-1.65v1.38h3.06c.1,0,.12,0,.12.1v.51c0,.11,0,.12-.12.12s-.53,0-1.88,0h-1.18v1.38h1.18c1.35,0,1.82,0,1.89,0s.12,0,.12.12v.51c0,.11,0,.12-.12.12s-.54,0-1.89,0h-1.18v1.47h1.89c1.42,0,1.92,0,2,0s.12,0,.12.12Zm-1.49-10.63a4.54,4.54,0,0,0-.09-1.11,6.26,6.26,0,0,1,1,.09c.1,0,.16.06.16.13a.33.33,0,0,1-.06.2,1.49,1.49,0,0,0-.09.67v.53c0,.64,0,.92,0,1s0,.12-.12.12-.6,0-2,0h-3.93c-1.47,0-2,0-2.07,0s-.12,0-.12-.12,0-.35,0-1v-.54a6.29,6.29,0,0,0-.06-1,8.31,8.31,0,0,1,.9.09c.1,0,.16.07.16.12a.51.51,0,0,1-.09.27,2,2,0,0,0-.06.63v.79h2.76v-1.08a6.67,6.67,0,0,0-.09-1.53c.36,0,.71.05.93.08s.17.06.17.12-.05.16-.09.27a3.92,3.92,0,0,0-.06,1.06v1.08h2.89Zm-3.33,4.39h-2.82v1.38h2.82Zm0,2.07h-2.82v1.38h2.82Zm0,2.07h-2.82v1.47h2.82Z"/><path class="unknown_text-3" d="M306,301.07a.69.69,0,0,0,.37-.06.43.43,0,0,1,.18-.06c.08,0,.18,0,.48.29s.3.28.3.4,0,.15-.18.23-.25.16-.54.49a11.11,11.11,0,0,1-1.93,1.86c-.11.09-.17.13-.21.13s-.12-.06-.26-.16a3.09,3.09,0,0,0-.64-.36,10.21,10.21,0,0,0,2.13-1.86h-4.17v3.28c0,.84,0,1.5,0,2.06s-.12.88-.39,1.09-.76.3-2.14.29c-.32,0-.32,0-.39-.32a3.12,3.12,0,0,0-.3-.73,15.32,15.32,0,0,0,1.56.09c.51,0,.67-.12.67-.59V302h-3.79c-1.43,0-1.92,0-2,0s-.12,0-.12-.12v-.72c0-.11,0-.12.12-.12s.57,0,2,0h4.71a16.56,16.56,0,0,0-3.17-2.28c-.12-.06-.1-.06,0-.22l.3-.35c.11-.12.14-.1.21-.06a17.36,17.36,0,0,1,1.91,1.18,19.74,19.74,0,0,0,3.31-2.22h-5.89c-1.52,0-2,0-2.12,0s-.1,0-.1-.13v-.69c0-.1,0-.12.1-.12s.6,0,2.12,0h6.28a1,1,0,0,0,.36,0,.8.8,0,0,1,.21-.08c.09,0,.23.09.47.33s.33.38.33.5-.06.15-.21.21a1.6,1.6,0,0,0-.53.32,21.19,21.19,0,0,1-3.6,2.39c.32.26.62.53.9.78.09.08.06.08-.07.21l-.21.2Z"/><path class="unknown_text-3" d="M316.34,307.29a22,22,0,0,0,3.39.2c.75,0,1.61,0,2.49-.08a3.11,3.11,0,0,0-.21.63c-.06.3-.06.32-.36.33l-1.41,0c-5.92,0-6.88-1-7.87-2.89a7.54,7.54,0,0,1-2.21,3c-.1.09-.16.15-.21.15s-.1-.06-.21-.18a1.4,1.4,0,0,0-.51-.4,7.09,7.09,0,0,0,2.9-5.22,4.16,4.16,0,0,0,0-.84,6.71,6.71,0,0,1,.87.17c.18,0,.23.08.23.16a.48.48,0,0,1-.11.24.86.86,0,0,0-.15.37,11.67,11.67,0,0,1-.33,1.53,3.77,3.77,0,0,0,2.76,2.58v-6.36h-1.62c-1.5,0-2,0-2.05,0s-.14,0-.14-.12V300c0-.1,0-.12.14-.12s.55,0,2.05,0H318c1.49,0,2,0,2.06,0s.12,0,.12.12v.63c0,.11,0,.12-.12.12s-.57,0-2.06,0h-1.65v2.52h2.24c1.06,0,1.38,0,1.47,0s.12,0,.12.12V304c0,.11,0,.12-.12.12s-.41,0-1.47,0h-2.24Zm5.58-8.8c0,1.27,0,1.46,0,1.54s0,.13-.12.13h-.69c-.1,0-.12,0-.12-.13V298H310.79V300c0,.11,0,.13-.12.13H310c-.1,0-.12,0-.12-.13s0-.27,0-1.54V298c0-.5,0-.71,0-.8s0-.11.12-.11.59,0,2.07,0h3.24V297a6.63,6.63,0,0,0-.1-1.54c.4,0,.69,0,1,.08.12,0,.18.06.18.12a.58.58,0,0,1-.09.27,3.63,3.63,0,0,0-.06,1.07v.21h3.56c1.48,0,2,0,2.08,0s.12,0,.12.11,0,.3,0,.69Z"/><path class="unknown_text-3" d="M331.66,308.1H330v-1.6h1.64Zm-.36-3.31h-1l-.29-8.55h1.59Z"/><rect class="unknown_text-4" x="81.99" y="342.8" width="234" height="5.97" transform="translate(-54.38 37.62) rotate(-9.51)"/><rect class="unknown_text-4" x="42.15" y="387.71" width="314.34" height="6.16" transform="translate(-61.81 38.29) rotate(-9.51)"/><path class="unknown_text-5" d="M91.44,340.09h1.63v3.1H89.83v-3.1l1.68-3.59H93Zm4.53,0H97.6v3.1H94.36v-3.1L96,336.5h1.45Z"/><path class="unknown_text-5" d="M104,346.59c-2.07,0-2.81.05-2.94.05s-.26,0-.26-.25v-1.77c0-.23,0-.26.26-.26s.87.05,2.94.05h5.31v-3.27H106c-2.23,0-3,.05-3.17.05s-.23,0-.23-.25v-1.82c0-.23,0-.25.23-.25s.94,0,3.17,0h3.29v-.8a13.5,13.5,0,0,0-.16-2.74c.85,0,1.75.07,2.53.16.23,0,.37.14.37.26s-.14.41-.16.59a7.84,7.84,0,0,0-.12,1.68v.85h3.68c2.23,0,3,0,3.17,0s.23,0,.23.25v1.82c0,.23,0,.25-.23.25s-.94-.05-3.17-.05h-3.68v3.27h5.66c2.09,0,2.8-.05,2.94-.05s.28,0,.28.26v1.77c0,.23,0,.25-.28.25s-.85-.05-2.94-.05h-4.6a21.24,21.24,0,0,0,8.67,6.35,6.79,6.79,0,0,0-1.2,1.68c-.16.39-.25.53-.39.53a1.75,1.75,0,0,1-.55-.23,20.86,20.86,0,0,1-7.66-6.81c0,3.4.12,6.95.12,8.07,0,.23,0,.26-.25.26h-2.07c-.23,0-.26,0-.26-.26,0-1.06.12-4.64.14-8a21.73,21.73,0,0,1-7.29,6.71,1.23,1.23,0,0,1-.53.25c-.14,0-.23-.16-.41-.55A5.48,5.48,0,0,0,100,353a19.45,19.45,0,0,0,8-6.4Z"/><path class="unknown_text-5" d="M129.85,346.57a1.25,1.25,0,0,1,0,.3,12.7,12.7,0,0,0,4.26,5,6.18,6.18,0,0,0-1.09,1.68c-.13.32-.23.46-.34.46s-.25-.12-.48-.35a15.25,15.25,0,0,1-3-4,14.36,14.36,0,0,1-4,5.86c-.21.18-.35.27-.46.27s-.3-.16-.49-.43A4.22,4.22,0,0,0,123,354a10.66,10.66,0,0,0,4.39-6.56,7.47,7.47,0,0,0,.16-.87h-1.21c-2,0-2.63.05-2.76.05s-.28,0-.28-.28v-1.68c0-.21,0-.23.28-.23s.8.05,2.76.05h1.47c.09-1.08.11-2.28.14-3.52h-1.36c-.35.62-.71,1.24-1.1,1.82-.19.3-.3.43-.44.43s-.28-.11-.53-.34a4.4,4.4,0,0,0-1.31-.83,13.63,13.63,0,0,0,2.71-5.1,6.45,6.45,0,0,0,.26-1.48,15.76,15.76,0,0,1,2.13.49c.26.07.39.16.39.32s-.06.23-.2.39a1.92,1.92,0,0,0-.49.85,13.89,13.89,0,0,1-.48,1.36h2.72c2,0,2.66-.05,2.8-.05s.28,0,.28.25v1.68c0,.23,0,.26-.28.26s-.8-.05-2.8-.05c0,1.2-.05,2.37-.14,3.52h.55c2,0,2.64-.05,2.78-.05s.25,0,.25.23v1.68c0,.25,0,.28-.25.28s-.8-.05-2.78-.05Zm4.8,9.06c-.23,0-.25,0-.25-.25s0-1.41,0-6.92V343.1c0-3.84,0-5.13,0-5.29s0-.23.25-.23.76,0,2.51,0h3.22c1.77,0,2.37,0,2.51,0s.27,0,.27.23,0,1.43,0,4.6v5.93c0,5.4,0,6.65,0,6.78s0,.26-.27.26H141c-.23,0-.25,0-.25-.26v-1.38h-4v1.64c0,.23,0,.25-.25.25Zm2.14-4.12h4V339.83h-4Z"/><path class="unknown_text-5" d="M150,340l-1.68,3.58h-1.44l1.51-3.58h-1.63v-3.11H150Zm4.53,0-1.68,3.58h-1.44l1.51-3.58h-1.63v-3.11h3.24Z"/><path class="unknown_text-5" d="M174.63,347.58c.21.12.23.23.11.42a3.79,3.79,0,0,0-.59,1.74c0,1.45,1.49,2.17,5.45,2.17a29.52,29.52,0,0,0,6.23-.67c.32-.07.43,0,.48.21a20.72,20.72,0,0,1,.37,2.25c0,.21-.12.3-.39.34a34.78,34.78,0,0,1-6.86.56c-5.15,0-7.79-1.66-7.79-4.65a6,6,0,0,1,1.22-3.29C173.46,347,174,347.26,174.63,347.58Zm5.2-9c1.67,0,3.4-.12,4.87-.21.23,0,.32.07.34.25a15,15,0,0,1,.12,2c0,.32-.12.46-.39.48a13.27,13.27,0,0,0-5.63,2.28,1,1,0,0,1-.58.2,1,1,0,0,1-.48-.13,5.45,5.45,0,0,0-1.61-.74c1.19-.78,2.21-1.42,3-1.91a15.67,15.67,0,0,1-1.89.07,28.71,28.71,0,0,1-4-.39c-.21-.05-.3-.14-.3-.41,0-.56,0-1.22.09-2A29.3,29.3,0,0,0,179.83,338.57Z"/><path class="unknown_text-5" d="M202.25,346.06c-3.43.9-5.61,1.73-7.56,2.42a2.75,2.75,0,0,1-.67.25.65.65,0,0,1-.46-.46,18.39,18.39,0,0,1-.76-1.88c.51-.14.71-.21,1.2-.37a11.78,11.78,0,0,0,2.2-1.36,76.54,76.54,0,0,0,6.56-6c-1.41.39-2.65.62-4.1.89-.34.07-.53.1-.87.19a2.48,2.48,0,0,1-.64.23c-.21,0-.4-.21-.56-.51a13.23,13.23,0,0,1-.82-2.28,14.32,14.32,0,0,0,2.27,0c1.54-.11,3.22-.39,5.25-.69a3,3,0,0,0,1.21-.39.79.79,0,0,1,.44-.16c.21,0,.35.11.62.34a8.24,8.24,0,0,1,1.13,1.15,1.06,1.06,0,0,1,.27.65c0,.23-.13.39-.41.53a5.16,5.16,0,0,0-.94.69c-2.39,2.11-4.35,3.81-7,5.79l.05.07a90.21,90.21,0,0,1,11.08-2.53c.3,0,.39.12.44.37a10.5,10.5,0,0,1,.25,1.86c0,.23-.12.3-.37.32a16.41,16.41,0,0,0-4.28.74c-2.66.92-3.93,2.55-3.93,4.21,0,2.21,2.42,2.87,5.75,2.87.23,0,.37.12.35.42,0,.57-.23,1.51-.3,1.93s-.19.5-.51.5a13.19,13.19,0,0,1-1.52-.14c-4.32-.43-6.21-2.41-6.21-5.19a5.37,5.37,0,0,1,2.81-4.44Z"/><path class="unknown_text-5" d="M221.64,338.89a16.26,16.26,0,0,0,.23-2.55,16,16,0,0,1,2.76.76.48.48,0,0,1,.37.46.49.49,0,0,1-.16.34,2.75,2.75,0,0,0-.46.88c-.3.94-.53,1.79-.83,2.75.62-.06,1.31-.09,1.84-.09,2.14,0,3.29,1.5,3.29,4.44a19.46,19.46,0,0,1-1.25,7.2,3.28,3.28,0,0,1-3.1,2.16,6.06,6.06,0,0,1-2.39-.35.6.6,0,0,1-.42-.64,6.37,6.37,0,0,0-.43-2.14,6.15,6.15,0,0,0,2.64.6c.76,0,1.11-.28,1.47-1.22a17.55,17.55,0,0,0,.9-5.72c0-1.61-.3-2.12-1.31-2.12a15.65,15.65,0,0,0-1.93.16,63.87,63.87,0,0,1-4.62,10.81c-.14.3-.32.34-.6.21a10.6,10.6,0,0,1-1.59-1,.46.46,0,0,1-.18-.34.4.4,0,0,1,.09-.25,48.46,48.46,0,0,0,4.21-9c-.9.14-1.63.28-2.25.39a7.65,7.65,0,0,0-1.27.37.49.49,0,0,1-.73-.3,19.81,19.81,0,0,1-.72-2.37c1,0,2-.07,3-.16s1.81-.2,2.71-.34C221.32,340.48,221.48,339.67,221.64,338.89Zm9.11,1.54c.16-.09.27-.05.43.12a15.33,15.33,0,0,1,3.82,5.58.33.33,0,0,1-.09.46,9.29,9.29,0,0,1-1.73,1.15c-.23.12-.46.09-.52-.18a15.56,15.56,0,0,0-3.78-6A20.15,20.15,0,0,1,230.75,340.43Zm.62-3.22c.11-.09.2-.07.34.05a10.73,10.73,0,0,1,2.19,2.46.24.24,0,0,1-.07.37l-1,.71a.24.24,0,0,1-.39-.07,11.62,11.62,0,0,0-2.32-2.67Zm2-1.49c.14-.1.21-.07.35,0a9.68,9.68,0,0,1,2.18,2.37.25.25,0,0,1-.07.41l-.92.72c-.18.14-.29.07-.39-.07a10.86,10.86,0,0,0-2.3-2.65Z"/><path class="unknown_text-5" d="M241,338.89c-2,0-2.74.05-2.88.05s-.25,0-.25-.26V336.8c0-.23,0-.26.25-.26s.85,0,2.88,0h14.16c2,0,2.74,0,2.88,0s.25,0,.25.26v1.88c0,.23,0,.26-.25.26s-.79,0-2.39-.05V349c0,2.44.06,3.54.06,4.49a2.33,2.33,0,0,1-.8,2.13c-.6.46-2,.6-4.14.6-.74,0-.74,0-.87-.73a5.37,5.37,0,0,0-.67-1.77c.85.09,1.93.13,2.78.13s1.13-.16,1.13-.85V338.89Zm-.19,13c-.23,0-.25,0-.25-.26s.05-.8.05-4.32v-2.41c0-2.21-.05-2.9-.05-3.06s0-.25.25-.25.78,0,2.58,0H247c1.81,0,2.41,0,2.57,0s.25,0,.25.25,0,.83,0,2.53V347c0,3.36,0,4,0,4.14s0,.26-.25.26h-1.81c-.26,0-.28,0-.28-.26v-1h-4.58v1.54c0,.24,0,.26-.25.26Zm2.07-3.93h4.58v-4.21h-4.58Z"/><path class="unknown_text-5" d="M268.65,337.16c.26-.13.35-.06.48.12a29.08,29.08,0,0,1,2.42,4.12c.11.23.09.32-.16.46l-1.31.71c-.25.16-.32.14-.44-.12l-.41-1c-2.16.32-4.56.58-6.88.78a3.13,3.13,0,0,0-.92.21.78.78,0,0,1-.34.09c-.14,0-.23-.09-.3-.36-.12-.63-.23-1.34-.3-2,.6,0,1.29,0,1.88,0a26.88,26.88,0,0,0,1.36-3.19,8.93,8.93,0,0,0,.42-1.57,14.33,14.33,0,0,1,2.18.42c.25.09.37.18.37.34a.57.57,0,0,1-.26.41,2,2,0,0,0-.41.67c-.37.81-.87,1.89-1.33,2.76,1.24-.09,2.46-.18,3.61-.32-.3-.51-.6-1-.92-1.47-.14-.21-.1-.28.16-.39Zm1.54,13.53c0,1.17.05,2.41.05,3.12a2.27,2.27,0,0,1-.51,1.82c-.37.32-.8.48-2.53.51-.71,0-.71,0-.85-.69a4.42,4.42,0,0,0-.46-1.36,9,9,0,0,0,1.38.09c.55,0,.76-.18.76-.69v-1.72h-3.82v1.49c0,1.82.05,2.69.05,2.83s0,.23-.25.23h-1.75c-.23,0-.25,0-.25-.23s0-1,0-2.83v-6.9c0-1.86,0-2.71,0-2.87s0-.25.25-.25.74,0,2.44,0h2.87c1.7,0,2.28,0,2.42,0s.25,0,.25.25-.05,1.15-.05,3.08Zm-6-5.55v1.55H268v-1.55ZM268,350v-1.54h-3.82V350Zm6.3-11.27a27,27,0,0,0,3.38-1.47,5.07,5.07,0,0,0,1.27-.95,11.81,11.81,0,0,1,1.4,1.48.54.54,0,0,1,.21.39c0,.14-.14.23-.33.27a4.66,4.66,0,0,0-1.05.42,35.91,35.91,0,0,1-4.88,2v1.36c0,.42.07.58.39.69a6.69,6.69,0,0,0,1.75.14,3.82,3.82,0,0,0,2.3-.41c.28-.28.28-.74.32-2a7,7,0,0,0,1.61.67c.55.16.55.16.53.78-.16,1.38-.41,2-1.06,2.46s-1.95.6-3.84.6a10,10,0,0,1-3.52-.39c-.52-.21-.78-.64-.78-1.49v-5.45a12,12,0,0,0-.14-2.26c.74,0,1.54.07,2.3.16.26,0,.39.12.39.26a.79.79,0,0,1-.13.39c-.1.2-.12.39-.12,1.26Zm0,14.26c0,.43.07.62.42.78a6.1,6.1,0,0,0,1.84.16,4.2,4.2,0,0,0,2.23-.42c.34-.36.34-.89.39-2.13a6.91,6.91,0,0,0,1.66.64c.57.14.57.16.5.76-.16,1.42-.44,2.09-1.08,2.55a7.65,7.65,0,0,1-3.82.71,9.36,9.36,0,0,1-3.63-.41c-.51-.25-.8-.76-.8-1.68v-5.79a12.49,12.49,0,0,0-.14-2.23,22.81,22.81,0,0,1,2.3.16c.25,0,.39.11.39.27a.91.91,0,0,1-.14.42c-.09.18-.12.32-.12,1.22v1.1a21.3,21.3,0,0,0,3.52-1.68,5.4,5.4,0,0,0,1.24-1,12.32,12.32,0,0,1,1.43,1.5c.16.21.23.32.23.44s-.16.25-.37.27a3.79,3.79,0,0,0-1,.42,47.63,47.63,0,0,1-5,2.18Z"/><path class="unknown_text-5" d="M285.56,340.43c.3.07.34.12.32.37a19.91,19.91,0,0,1-.74,5c-.06.23-.11.19-.36.1l-1.15-.46c-.3-.12-.33-.23-.26-.46a19.11,19.11,0,0,0,.74-4.67c0-.23.05-.21.37-.14Zm.92-1.59a20.11,20.11,0,0,0-.19-3.47c.88,0,1.66.07,2.42.16.23,0,.37.14.37.26a1,1,0,0,1-.12.43,9.45,9.45,0,0,0-.16,2.56v13.35c0,2.6.05,3.91.05,4s0,.28-.26.28h-1.91c-.22,0-.25,0-.25-.28s.05-1.43.05-4Zm3.59.42c.25-.09.32-.07.41.14a23.19,23.19,0,0,1,.9,2.82,20.89,20.89,0,0,0,1.08-3.72,13.92,13.92,0,0,0,.16-1.66,18.08,18.08,0,0,1,2.21.58c.29.11.39.2.39.32a.42.42,0,0,1-.14.32,1.73,1.73,0,0,0-.28.72c-.11.55-.25,1.12-.41,1.72h2.11v-1.66a24,24,0,0,0-.18-3.47c.87,0,1.72.07,2.51.16.23,0,.36.12.36.23a1.54,1.54,0,0,1-.11.46,9.26,9.26,0,0,0-.16,2.56v1.72h1.93c2,0,2.74-.05,2.87-.05s.26,0,.26.26v1.77c0,.23,0,.25-.26.25s-.82-.05-2.87-.05h-1.93v4h1.24c2.07,0,2.78-.05,2.92-.05s.25,0,.25.25v1.8c0,.23,0,.25-.25.25s-.85-.05-2.92-.05h-1.24v4.53h2.32c2.25,0,3,0,3.15,0s.25,0,.25.25v1.77c0,.25,0,.28-.25.28s-.9-.05-3.15-.05h-7.63c-2.26,0-3,.05-3.15.05s-.26,0-.26-.28v-1.77c0-.23,0-.25.26-.25s.89,0,3.15,0h2.89v-4.53h-1.38c-2.07,0-2.76.05-2.92.05s-.25,0-.25-.25v-1.8c0-.23,0-.25.25-.25s.85.05,2.92.05h1.38v-4h-2.83a25.7,25.7,0,0,1-1.1,2.65c-.18.34-.27.48-.41.48a1.13,1.13,0,0,1-.44-.23,6.85,6.85,0,0,0-1.65-.76,15.7,15.7,0,0,0,1.08-2.09l-1,.35c-.3.11-.37.11-.41-.14a16.45,16.45,0,0,0-.83-3c-.09-.25-.07-.3.23-.39Z"/><path class="unknown_text-5" d="M307.87,350.64a.41.41,0,0,1,.64-.05,17.26,17.26,0,0,1,4.58,4.21c.14.19.16.26.16.35s-.05.2-.23.37l-1.4,1.19c-.16.14-.26.21-.33.21s-.2-.05-.32-.23a17.1,17.1,0,0,0-4.34-4.39c-.14-.1-.21-.17-.21-.23s.05-.14.16-.28Z"/><path class="unknown_text-5" d="M63,382.05c-2,0-2.69.05-2.83.05s-.23,0-.23-.25v-1.66c0-.23,0-.25.23-.25s.81,0,2.83,0h3a14.14,14.14,0,0,0,.87-2.18,3.34,3.34,0,0,0,.16-1c.76.13,1.34.32,2,.48.23.07.28.16.28.32a.43.43,0,0,1-.18.35,1.21,1.21,0,0,0-.35.53c-.25.57-.44,1-.71,1.51,1.59,0,2.25,0,2.48,0s.26,0,.26.25v1.66c0,.23,0,.25-.26.25s-.83-.05-2.83-.05h-1a6.11,6.11,0,0,0,0,1.27v.41h.78c2,0,2.62,0,2.76,0s.25,0,.25.25v1.63c0,.23,0,.25-.25.25s-.8,0-2.76,0h-.16a10.93,10.93,0,0,0,2.94,2.41,7,7,0,0,0-.8,1.47c-.09.23-.16.37-.28.37s-.25-.09-.48-.32a11.55,11.55,0,0,1-2.05-2.39c0,3.19.12,5,.12,5.82,0,.23,0,.25-.28.25H64.6c-.23,0-.26,0-.26-.25,0-.76.07-2.44.1-5.32a18.08,18.08,0,0,1-3,3.73c-.23.21-.37.32-.49.32s-.25-.16-.36-.46a6.73,6.73,0,0,0-.9-1.54,14.16,14.16,0,0,0,4.07-4.09h-.58c-2,0-2.64,0-2.78,0s-.25,0-.25-.25v-1.63c0-.23,0-.25.25-.25s.81,0,2.78,0h1.2v-.41c0-.53,0-.92,0-1.27Zm.39-5.52c-1.9,0-2.57.05-2.71.05s-.25,0-.25-.25v-1.59c0-.23,0-.25.25-.25s.81,0,2.71,0h.9v-.62a6.33,6.33,0,0,0-.14-1.52c.83,0,1.57.05,2.39.12.23,0,.37.09.37.21a.92.92,0,0,1-.14.39,1.62,1.62,0,0,0-.11.83v.59h.78c1.91,0,2.55,0,2.69,0s.28,0,.28.25v1.59c0,.23,0,.25-.28.25s-.78-.05-2.69-.05Zm-.34,3.27c-.3.09-.39.07-.46-.18a9.43,9.43,0,0,0-.64-2c-.14-.25-.12-.32.2-.39l1.17-.34c.28-.07.33,0,.42.16a10,10,0,0,1,.85,2.07c.07.23,0,.3-.23.36Zm10.71,2.14a30.16,30.16,0,0,1-.59,6.64,12.46,12.46,0,0,1-2,4.37c-.21.28-.32.44-.48.44s-.26-.12-.51-.32a5,5,0,0,0-1.49-.92,10.63,10.63,0,0,0,2.36-4.67,29.49,29.49,0,0,0,.46-6.62v-2.51c0-1.36,0-2.57-.13-3.93a11.83,11.83,0,0,1,2.11.55,16.41,16.41,0,0,0,4-1.59,6.1,6.1,0,0,0,1.22-.85,9.32,9.32,0,0,1,1.49,1.63.72.72,0,0,1,.16.44c0,.14-.13.26-.34.28a2.57,2.57,0,0,0-.9.27A24.85,24.85,0,0,1,73.79,377v2.8h3.94c2.23,0,3,0,3.12,0s.26,0,.26.25v1.68c0,.23,0,.25-.26.25l-2.32,0V390c0,2.16,0,3.06,0,3.17s0,.28-.23.28H76.46c-.23,0-.25,0-.25-.28s.05-1,.05-3.17v-8.09Z"/><path class="unknown_text-5" d="M90.93,373.91c.39.09.55.21.55.44a2.3,2.3,0,0,1-.23.76,14.63,14.63,0,0,0-.32,2.8c-.23,3.54-.34,5.89-.34,8.9,0,2.32.27,2.85,2.11,2.85,2,0,5.24-1.24,8-4.23a7.89,7.89,0,0,0,.53,2.19,1.55,1.55,0,0,1,.18.55c0,.21-.09.39-.46.71a13.1,13.1,0,0,1-8.71,3.45c-3,0-4.33-1.17-4.33-4.69,0-3.86.21-7.17.33-9.93a15.73,15.73,0,0,0-.23-4.21A23.72,23.72,0,0,1,90.93,373.91Z"/><path class="unknown_text-5" d="M110.53,376.42c.2.09.37.25.37.41a2,2,0,0,1-.19.65,10.31,10.31,0,0,0-.21,2.25,28.79,28.79,0,0,0,.42,5.24c.32,1.82.92,3.38,1.88,3.38.74,0,1.32-.8,2.21-3.19a9.16,9.16,0,0,0,1.47,1.77.69.69,0,0,1,.16.85c-.87,2.34-2.3,3.59-3.9,3.59-1.8,0-3.68-2.12-4.3-6a41.37,41.37,0,0,1-.56-6.69,12.35,12.35,0,0,0-.27-3A9.89,9.89,0,0,1,110.53,376.42Zm10.67,1.45a.59.59,0,0,1,.25-.09.34.34,0,0,1,.25.13,15.13,15.13,0,0,1,4.51,7.87c.07.3-.07.39-.25.5a7.67,7.67,0,0,1-1.8.92c-.27.1-.43,0-.48-.25a15.41,15.41,0,0,0-4.3-8A18.34,18.34,0,0,1,121.2,377.87Z"/><path class="unknown_text-5" d="M132,380.37c-2,0-2.69.05-2.83.05s-.23,0-.23-.25v-1.8c0-.23,0-.25.23-.25s.83.05,2.83.05h.09v-1.75a30.91,30.91,0,0,0-.16-3.34,21.2,21.2,0,0,1,2.5.19c.23,0,.35.14.35.25a2.86,2.86,0,0,1-.14.58,13.25,13.25,0,0,0-.09,2.3v1.77h3.56v-2.05a26.32,26.32,0,0,0-.16-3.13c.83,0,1.61.07,2.42.16.2,0,.32.14.32.26a4,4,0,0,1-.14.59,12.2,12.2,0,0,0-.09,2.12v2.05h3.68v-2A28.73,28.73,0,0,0,144,373c.85,0,1.63.07,2.43.16.23,0,.35.14.35.26a2.41,2.41,0,0,1-.16.59,12.55,12.55,0,0,0-.09,2.17v2h.34c2,0,2.67-.05,2.83-.05s.23,0,.23.25v1.8c0,.23,0,.25-.23.25s-.83-.05-2.83-.05h-.34v3c0,2.55,0,3.82,0,3.95s0,.26-.25.26h-1.91c-.23,0-.25,0-.25-.26v-1.05h-3.68v1.1c0,.23,0,.25-.25.25h-1.91c-.21,0-.23,0-.23-.25s0-1.38,0-3.89v-3.15h-3.56v9.46h10.88c2.25,0,3-.05,3.17-.05s.25,0,.25.25v1.84c0,.23,0,.25-.25.25s-.92,0-3.17,0H134.54v1c0,.23,0,.25-.28.25h-2c-.23,0-.26,0-.26-.25s.05-1.13.05-3.17v-9.55Zm12.14,0h-3.68v3.87h3.68Z"/><path class="unknown_text-5" d="M164.05,388.22a23.77,23.77,0,0,0-.16-3.13c.73,0,1.44.07,2.11.14a13.9,13.9,0,0,1-2.55-2.9H161a14.63,14.63,0,0,1-2.27,2.76c.62,0,1.33.09,1.91.16.27,0,.43.11.43.32a1.36,1.36,0,0,1-.13.44,2.93,2.93,0,0,0-.19,1c-.21,3-1.7,5-4.87,6.35a1.65,1.65,0,0,1-.56.18c-.18,0-.27-.16-.52-.55a5.18,5.18,0,0,0-1.25-1.31c3.41-1,4.7-2.39,4.86-4.85a7.55,7.55,0,0,0-.05-1.43,16,16,0,0,1-4.76,2.85,1.52,1.52,0,0,1-.55.16c-.21,0-.28-.16-.48-.57a5.93,5.93,0,0,0-1-1.45,13.08,13.08,0,0,0,6.7-4.07h-.51c-2.23,0-3,0-3.2,0s-.23,0-.23-.23,0-.78,0-2.27v-4.05c0-1.49,0-2.14,0-2.28s0-.25.23-.25,1,0,3.2,0H167c2.25,0,3.05,0,3.19,0s.26,0,.26.25-.05.79-.05,2.28v4.05c0,1.49.05,2.14.05,2.27s0,.23-.26.23-.94,0-3.19,0h-.92a14.05,14.05,0,0,0,7,3.88,5.89,5.89,0,0,0-1,1.59c-.19.44-.26.6-.44.6a2,2,0,0,1-.53-.16,17.44,17.44,0,0,1-4.46-2.51,1.61,1.61,0,0,1-.12.35,10.24,10.24,0,0,0-.09,2.11v2.35c0,1.72,0,2.53,0,2.66s0,.28-.28.28h-2c-.23,0-.25,0-.25-.28s.05-.94.05-2.66ZM161.2,377v-1.72h-4.47V377Zm0,3.47v-1.72h-4.47v1.72Zm2.3-5.19V377h4.57v-1.72Zm4.57,3.47H163.5v1.72h4.57Z"/><path class="unknown_text-5" d="M186.89,377.55a28.9,28.9,0,0,1-2.88,9.91c-1,1.72-2.18,2.64-3.91,2.64-2,0-4.07-2.16-4.07-5.91a8.5,8.5,0,0,1,2.6-6,10.06,10.06,0,0,1,7.47-2.94c5.52,0,8.77,3.4,8.77,8,0,4.28-2.42,7-7.09,8.37-.48.14-.69,0-1-.42a4.7,4.7,0,0,0-1.61-1.44c3.89-.92,6.95-2.53,6.95-6.88a5.22,5.22,0,0,0-5.15-5.33Zm-6.6,2.23a6.59,6.59,0,0,0-1.8,4.25c0,2.12.85,3.29,1.57,3.29s1.1-.3,1.72-1.4a26.39,26.39,0,0,0,2.44-8.24A6.94,6.94,0,0,0,180.29,379.78Z"/><path class="unknown_text-5" d="M202.55,380.24a38.94,38.94,0,0,1-.64,7.38,15.66,15.66,0,0,1-1.84,5.08c-.16.3-.26.44-.37.44s-.23-.12-.46-.37a7.9,7.9,0,0,0-1.54-1.29,12.78,12.78,0,0,0,1.88-4.81,34.35,34.35,0,0,0,.53-6.87c0-2.88,0-4.19,0-4.32s0-.26.25-.26.94,0,3.13,0H208v-1a9.57,9.57,0,0,0-.13-1.86c.87,0,1.63.07,2.43.14.23,0,.37.09.37.23a.73.73,0,0,1-.14.43,2.21,2.21,0,0,0-.16,1v1.06h4.67c2.19,0,2.94,0,3.08,0s.23,0,.23.26v1.74c0,.26,0,.28-.23.28s-.89-.05-3.08-.05H202.55ZM213.22,384c.3-.14.35-.16.48.05a54.12,54.12,0,0,1,4.42,7.68c.09.23.07.32-.21.46l-1.7.89c-.28.14-.39.07-.48-.16-.3-.69-.6-1.38-.92-2.07-3,.53-6.95,1.13-10.72,1.54a2.13,2.13,0,0,0-.85.26.75.75,0,0,1-.37.13c-.16,0-.25-.09-.34-.34-.19-.64-.37-1.47-.55-2.39.82,0,1.58,0,2.62-.05a65,65,0,0,0,2.87-9.1,11.61,11.61,0,0,0,.3-2.14,22.51,22.51,0,0,1,2.55.69c.33.09.39.21.39.39a.67.67,0,0,1-.2.46,3,3,0,0,0-.58,1.29,73.7,73.7,0,0,1-2.73,8.16c2.25-.25,4.55-.55,6.6-.92a39.84,39.84,0,0,0-2.26-3.7c-.11-.19-.09-.28.19-.42Z"/><path class="unknown_text-5" d="M228,375.89a16.26,16.26,0,0,0,.23-2.55,16.22,16.22,0,0,1,2.76.76.48.48,0,0,1,.37.46.46.46,0,0,1-.17.34,3,3,0,0,0-.46.88c-.29.94-.52,1.79-.82,2.75.62-.06,1.31-.09,1.84-.09,2.14,0,3.28,1.5,3.28,4.44a19.47,19.47,0,0,1-1.24,7.2,3.28,3.28,0,0,1-3.1,2.16,6.06,6.06,0,0,1-2.39-.35.6.6,0,0,1-.42-.64,6.63,6.63,0,0,0-.43-2.14,6.15,6.15,0,0,0,2.64.6c.76,0,1.1-.28,1.47-1.22a17.55,17.55,0,0,0,.9-5.72c0-1.61-.3-2.12-1.31-2.12a15.49,15.49,0,0,0-1.93.16,63,63,0,0,1-4.63,10.81c-.13.3-.32.34-.59.21a10.12,10.12,0,0,1-1.59-1,.46.46,0,0,1-.18-.34.4.4,0,0,1,.09-.25,49.11,49.11,0,0,0,4.21-9c-.9.14-1.64.28-2.26.39A7.78,7.78,0,0,0,223,382a.51.51,0,0,1-.74-.3,22.26,22.26,0,0,1-.71-2.37c1,0,2-.07,3-.16s1.82-.2,2.72-.34C227.67,377.48,227.83,376.67,228,375.89Zm9.1,1.54c.16-.09.28-.05.44.12a15.45,15.45,0,0,1,3.82,5.58.33.33,0,0,1-.09.46,9.29,9.29,0,0,1-1.73,1.15c-.23.12-.46.09-.53-.18a15.54,15.54,0,0,0-3.77-6A20,20,0,0,1,237.09,377.43Zm.63-3.22c.11-.09.2-.07.34.05a10.73,10.73,0,0,1,2.19,2.46.24.24,0,0,1-.07.37l-1,.71a.24.24,0,0,1-.39-.07,11.62,11.62,0,0,0-2.32-2.67Zm2-1.49c.14-.1.21-.07.35,0a9.68,9.68,0,0,1,2.18,2.37.26.26,0,0,1-.07.41l-.92.72a.23.23,0,0,1-.39-.07,11.08,11.08,0,0,0-2.3-2.65Z"/><path class="unknown_text-5" d="M251.77,374c.3.11.44.25.44.46a.55.55,0,0,1-.16.37,2.62,2.62,0,0,0-.42,1.08c-.32,1.56-.5,3.19-.64,4.39a21.38,21.38,0,0,0-.07,2.53c.5-.9,1-1.77,1.61-3a5,5,0,0,0,.71,1.5.51.51,0,0,1,.14.37,1,1,0,0,1-.23.57,19.11,19.11,0,0,0-1.36,3,2.62,2.62,0,0,0-.11.69.31.31,0,0,1-.3.36c-.28.07-1.27.21-1.84.28-.16,0-.28-.14-.32-.3a14.66,14.66,0,0,1-.69-4.67,48.26,48.26,0,0,1,.55-5.72,21.89,21.89,0,0,0,.18-2.63A11.92,11.92,0,0,1,251.77,374Zm7.47-.39c.46.11.51.23.46.62a9.3,9.3,0,0,0,0,1.06c.16,2.18.32,4.27.32,5.93,0,3.26-.53,6.09-1.75,8a12.74,12.74,0,0,1-3.79,3.7.75.75,0,0,1-.46.16.67.67,0,0,1-.48-.25,5.36,5.36,0,0,0-2-1.06,11.34,11.34,0,0,0,3.91-3.08c1.33-1.82,1.93-3.7,1.93-7.34,0-1.63-.11-4-.28-5.49a10.46,10.46,0,0,0-.48-2.51A13,13,0,0,1,259.24,373.57Z"/><path class="unknown_text-5" d="M279.9,388.33c0,.25-.14.37-.44.41a11.63,11.63,0,0,1-1.63.12c-.21,0-.3-.14-.3-.37,0-.83,0-2,0-2.8-2,1.05-2.78,1.95-2.78,3.05s.78,1.59,3.2,1.59a39.69,39.69,0,0,0,5.72-.46c.21,0,.3.05.32.25a10,10,0,0,1,.21,1.89c0,.27-.07.44-.25.44a41.46,41.46,0,0,1-5.71.29c-3.77,0-5.77-1.12-5.77-3.79,0-2.21,1.38-3.82,4.86-5.61-.07-1.17-.35-1.63-1.38-1.59a5.61,5.61,0,0,0-3.18,1.66,29.61,29.61,0,0,0-2.3,2.51c-.11.13-.18.2-.27.2A.51.51,0,0,1,270,386a10.64,10.64,0,0,1-1.31-1.52.36.36,0,0,1-.09-.2c0-.09.05-.16.16-.26a23.51,23.51,0,0,0,4.81-5.7c-1.08.05-2.32.07-3.68.07-.21,0-.28-.11-.32-.37s-.16-1.22-.23-1.91a49.14,49.14,0,0,0,5.29,0,18,18,0,0,0,.69-2,5.67,5.67,0,0,0,.16-1.4,14.54,14.54,0,0,1,2.62.64.41.41,0,0,1,.27.39.43.43,0,0,1-.16.35,2,2,0,0,0-.39.55c-.14.32-.25.62-.53,1.24a37,37,0,0,0,4.19-.71c.25-.05.32,0,.37.23A8.62,8.62,0,0,1,282,377c0,.23-.07.32-.39.36-1.73.26-3.71.51-5.39.69a21.63,21.63,0,0,1-1.72,2.56l0,0a4.61,4.61,0,0,1,2.3-.71,2.54,2.54,0,0,1,2.81,2.48c.9-.41,2.21-1,3.38-1.61a6.89,6.89,0,0,0,1.75-1.24,15.34,15.34,0,0,1,1.61,2,.92.92,0,0,1,.18.5c0,.19-.12.28-.34.32a7.46,7.46,0,0,0-1.41.35c-1.49.53-3,1-4.94,1.84Z"/><path class="unknown_text-5" d="M293.49,392.33c-2.09,0-2.78.05-2.92.05s-.25,0-.25-.26v-1.93c0-.23,0-.25.25-.25s.83.05,2.92.05h5.77V385.8h-2.52c-2.26,0-3,.05-3.18.05s-.25,0-.25-.26v-1.86c0-.21,0-.23.25-.23s.92.05,3.18.05h2.52v-3.93h-4.82a17.85,17.85,0,0,1-2,3.21c-.2.28-.3.42-.43.42s-.26-.14-.51-.37a5.41,5.41,0,0,0-1.45-1,19.61,19.61,0,0,0,3.7-6.72,7.52,7.52,0,0,0,.32-1.52c.76.14,1.59.37,2.24.55.25.07.41.19.41.35s-.07.23-.23.41a2.3,2.3,0,0,0-.44.88l-.55,1.52h3.79v-1.2a22,22,0,0,0-.18-3.5c.9,0,1.84.07,2.6.17.23,0,.37.13.37.25a1.12,1.12,0,0,1-.12.46,9.35,9.35,0,0,0-.16,2.55v1.27h4c2.25,0,3-.05,3.15-.05s.27,0,.27.25v1.89c0,.23,0,.25-.27.25s-.9,0-3.15,0h-4v3.93h2.88c2.25,0,3-.05,3.17-.05s.25,0,.25.23v1.86c0,.23,0,.26-.25.26s-.92-.05-3.17-.05h-2.88V390h5.45c2.07,0,2.78-.05,2.92-.05s.25,0,.25.25v1.93c0,.23,0,.26-.25.26s-.85-.05-2.92-.05Z"/><path class="unknown_text-5" d="M318.61,374.81a6,6,0,0,0-.28-1.89,16.46,16.46,0,0,1,2.74.39c.3.07.48.21.48.39a1.05,1.05,0,0,1-.18.53,2,2,0,0,0-.19.79c0,.43,0,.8,0,1.54,1.06-.16,2-.35,3.17-.62.39-.1.42,0,.44.27a13.6,13.6,0,0,1,.11,1.66c0,.27-.09.32-.27.37a34.59,34.59,0,0,1-3.57.62c-.07,1.65-.09,2.53-.13,4.13a5.12,5.12,0,0,1,.2,1.55,4,4,0,0,1-1.1,3,2.89,2.89,0,0,0-.32,1.38c0,.89.46,1.49,3,1.49,3.49,0,5.29-.87,5.29-2.71a9.45,9.45,0,0,0-.49-3,7.86,7.86,0,0,0,2.33.67.58.58,0,0,1,.46.41,9.08,9.08,0,0,1,.34,2.53c0,2.9-2.32,4.53-7.61,4.53-4.07,0-5.82-1-5.82-3.26a4.54,4.54,0,0,1,.23-1.52,2,2,0,0,1-.37,0c-1.58,0-2.75-1.49-2.75-3.31,0-2.05,1.35-3.61,3-3.61a3.49,3.49,0,0,1,1.22.18c0-.76.05-1.47.05-2.23-1.45.07-2.71.07-3.84.05-.21,0-.28-.09-.3-.35-.07-.46-.14-1.12-.21-1.93a34.51,34.51,0,0,0,4.35,0Zm-2.35,9.75c0,1,.49,1.54,1.34,1.52s1.19-.67,1.17-1.68a1.24,1.24,0,0,0-1.24-1.41C316.7,383,316.26,383.64,316.26,384.56Zm12.37-7.18a.36.36,0,0,1,.49-.09,14.72,14.72,0,0,1,4.34,3.15.29.29,0,0,1,.12.23.53.53,0,0,1-.12.26,11.58,11.58,0,0,1-1.31,1.58.36.36,0,0,1-.25.14c-.07,0-.16-.07-.25-.18a14,14,0,0,0-4.49-3.48C327.74,378.33,328.31,377.71,328.63,377.38Z"/><path class="unknown_text-5" d="M342.5,390.61a3.33,3.33,0,1,1-3.33-3.31A3.31,3.31,0,0,1,342.5,390.61Zm-5.24,0a1.91,1.91,0,1,0,1.91-1.91A1.88,1.88,0,0,0,337.26,390.61Z"/><path class="unknown_text-2" d="M119.42,231.49a1.3,1.3,0,0,1-1.31-.77,76.71,76.71,0,0,1,0-9.42c-.69,2.17-1.12,3.49-1.28,3.95s-.53,1.5-1.09,3.13l-.69.69-.71.08-.52-.32-.64-.94c-.15-.41-.33-.91-.54-1.51a21.09,21.09,0,0,1-.88-2.55c-.21-.76-.47-1.65-.8-2.65,0,1.08,0,2.34,0,3.76s0,3.22-.13,5.39a1.36,1.36,0,0,1-1.21,1.16L109,231a3.51,3.51,0,0,1-.27-1.33c0-2.6-.06-5.42-.06-8.47a39.42,39.42,0,0,1,.4-6.8,1.2,1.2,0,0,1,1.48-.81,3.12,3.12,0,0,1,1.14,1.35,19.42,19.42,0,0,1,.86,2.43c.26.91.57,1.91.9,3s.71,2.23,1.12,3.43c.4-1.05,1-2.69,1.67-4.9a24,24,0,0,1,1.79-4.5,1.36,1.36,0,0,1,1-.54,1.68,1.68,0,0,1,.89.34,3.5,3.5,0,0,1,.25,1.38q.42,12.81-.17,15.45C119.81,231.36,119.6,231.52,119.42,231.49Z"/><path class="unknown_text-2" d="M132.3,232.23a1.12,1.12,0,0,1-1.26-.57,26.12,26.12,0,0,1-.9-2.75c-.27-1-.59-2-.95-3.09a24.17,24.17,0,0,0-4.61-.13c-.28,1.3-.51,2.4-.67,3.28a7.65,7.65,0,0,1-1,2.57l-.61.15a1.47,1.47,0,0,1-.72-.37l-.37-.87a29.41,29.41,0,0,1,.56-3c.23-1,.44-2,.62-3.06.43-1.61.82-3.12,1.16-4.55s.73-2.85,1.14-4.28c.28-.7.57-1.44.89-2.22a1.61,1.61,0,0,1,1.11-.29,1.32,1.32,0,0,1,.91.86l.76,1.8q1,3.26,2,6.29c.65,2,1.36,4.17,2.13,6.44a13.27,13.27,0,0,1,.6,2.84C133,232,132.74,232.28,132.3,232.23Zm-4-8.78c-.3-.91-.57-1.85-.81-2.83a25.64,25.64,0,0,0-.92-2.9c-.28,1-.54,1.88-.77,2.76s-.47,1.83-.68,2.87a6.41,6.41,0,0,0,1.53.15Z"/><path class="unknown_text-2" d="M143.67,231.44a3,3,0,0,1-1.38-.94,15,15,0,0,1-1.06-1.51q-.4-.66-2-4t-2.3-5q.1,9.69,0,10.43a1.24,1.24,0,0,1-1.08,1.06,1.28,1.28,0,0,1-1.23-.74,20,20,0,0,1-.25-3.59q0-2.59,0-12.32c.1-.82.44-1.23,1-1.23a1.22,1.22,0,0,1,1.5.86l5.8,11.62.15-11.79a1.43,1.43,0,0,1,1.67-1.16,1.37,1.37,0,0,1,.94,1.63q-.15,11.9-.22,12.8v2.59A1.45,1.45,0,0,1,143.67,231.44Z"/><path class="unknown_text-2" d="M157.56,232.23a1.13,1.13,0,0,1-1.26-.57,26.12,26.12,0,0,1-.9-2.75c-.27-1-.59-2-1-3.09a24.15,24.15,0,0,0-4.61-.13c-.28,1.3-.51,2.4-.67,3.28a7.45,7.45,0,0,1-1,2.57l-.61.15a1.47,1.47,0,0,1-.72-.37l-.37-.87a29.41,29.41,0,0,1,.56-3q.35-1.5.63-3.06c.42-1.61.81-3.12,1.15-4.55s.73-2.85,1.14-4.28c.28-.7.57-1.44.89-2.22A1.64,1.64,0,0,1,152,213a1.3,1.3,0,0,1,.91.86l.77,1.8q1,3.26,2,6.29c.65,2,1.36,4.17,2.13,6.44a13.27,13.27,0,0,1,.6,2.84C158.26,232,158,232.28,157.56,232.23Zm-4-8.78c-.29-.91-.57-1.85-.81-2.83a25.64,25.64,0,0,0-.92-2.9c-.28,1-.53,1.88-.77,2.76s-.47,1.83-.68,2.87a6.41,6.41,0,0,0,1.53.15Z"/><path class="unknown_text-2" d="M174.92,232.45a1.69,1.69,0,0,1-1.2-.62,16.82,16.82,0,0,1-.7-3c-.14-1-.45-3.32-.91-6.85a50.62,50.62,0,0,1-.61-6.82c.18-.84.76-1.11,1.75-.81a3.93,3.93,0,0,1,.51,1.46c.55,4.58.89,7.63,1,9.12q.38-2.79,1.26-9.25l.29-.81c.6-.51,1.25-.45,2,.17q.69,2.61,1.15,4.91c.3,1.53.6,3.16.9,4.88.11-1.13.27-2.61.46-4.45s.34-3.07.42-3.7a9.33,9.33,0,0,1,.47-1.89,1.26,1.26,0,0,1,1.83.05c.06.43.13.88.2,1.34q-.15,1-.66,6.62t-.73,7q-.35,2-.81,2.22a1,1,0,0,1-1.18,0,3,3,0,0,1-.82-1.55,19.73,19.73,0,0,1-.6-2.23c-.24-1.06-.48-2-.73-2.93s-.49-1.91-.72-3.08q-.44,3.07-.81,5.22c-.25,1.42-.55,2.9-.91,4.45A1.35,1.35,0,0,1,174.92,232.45Z"/><path class="unknown_text-2" d="M190.05,231.29a3.66,3.66,0,0,1-1.9-.61,6,6,0,0,1-2.77-3,6.79,6.79,0,0,1-.77-2.66c-.08-.94-.11-1.83-.11-2.67a15.86,15.86,0,0,1,.88-5.52,7.3,7.3,0,0,1,2-2.52,4.18,4.18,0,0,1,1.5-.74,3.33,3.33,0,0,1,1.78,0,5.55,5.55,0,0,1,2.37.79,6,6,0,0,1,1.77,2.19,4.4,4.4,0,0,1,.82,1.92,11.44,11.44,0,0,1,.37,2.87,32.16,32.16,0,0,1-.09,3.46,12.46,12.46,0,0,1-1.05,3.76,5.47,5.47,0,0,1-1.26,1.49,7.55,7.55,0,0,1-1.82,1.06A6.6,6.6,0,0,1,190.05,231.29Zm2.36-3.72a9.46,9.46,0,0,0,.89-1.84,10.57,10.57,0,0,0,.38-2.53,11,11,0,0,0-.11-2.85,13.09,13.09,0,0,0-.64-2.23,3.43,3.43,0,0,0-1.77-1.75,3.81,3.81,0,0,0-1.83.07A2.81,2.81,0,0,0,188,217.7q-1.23,1.53-1.08,5.72a11.11,11.11,0,0,0,.27,1.91,5.46,5.46,0,0,0,.81,1.87,3.56,3.56,0,0,0,.88,1,3.33,3.33,0,0,0,1.91.3A3.46,3.46,0,0,0,192.41,227.57Z"/><path class="unknown_text-2" d="M198.7,232.18a1.39,1.39,0,0,1-.93-.91q-.41-1.19-.5-15.47a1.75,1.75,0,0,1-.37-.91l.45-1a1.49,1.49,0,0,1,1.28-.44l.37.12a9,9,0,0,1,3.6-.44,5,5,0,0,1,1.62.35,15.54,15.54,0,0,1,1.49.71l.49.42a6.2,6.2,0,0,1,1.71,2.17,11.12,11.12,0,0,1,.61,2.29,6,6,0,0,1-.34,2.09A5.13,5.13,0,0,1,207,223l-.89.84a6,6,0,0,1-2.54,1.29,24.74,24.74,0,0,0,5,5.08l.05.54-.17.37a5.6,5.6,0,0,1-1.14.67,6.06,6.06,0,0,1-1.89-1.18L203.66,229c-.49-.56-1-1.11-1.58-1.65s-1.11-1.07-1.65-1.56l-.74-.17c0,.79,0,1.65.12,2.59s.22,1.87.4,2.79A1.32,1.32,0,0,1,198.7,232.18Zm2.32-8.83,1.14,0a4.79,4.79,0,0,0,2.39-1.23l.87-1.16a3,3,0,0,0,.56-2.22,3.87,3.87,0,0,0-1.23-2.19,3.91,3.91,0,0,0-2.54-1.11,7.49,7.49,0,0,0-2.62.46l0,6.94A7.86,7.86,0,0,0,201,223.35Z"/><path class="unknown_text-2" d="M211.26,231.86l-.57-.27a2.32,2.32,0,0,1-.69-2.07q.18-15,.55-15.94a1.46,1.46,0,0,1,1.3-.52,1.75,1.75,0,0,1,.87,1l-.15,15.15c.87,0,2.29-.11,4.27-.18a13.63,13.63,0,0,1,4.31.35,1.69,1.69,0,0,1,0,1.55,3.19,3.19,0,0,1-1.28.47,65.79,65.79,0,0,0-6.82.27A9.5,9.5,0,0,1,211.26,231.86Z"/><path class="unknown_text-2" d="M224.11,231.09a1.14,1.14,0,0,1-1.11-.46,7,7,0,0,1-.37-1.9l.05-13.74a2.47,2.47,0,0,1,.2-1.38,2.68,2.68,0,0,1,1.14-.4,11.93,11.93,0,0,1,4.53.73,9.29,9.29,0,0,1,3.21,2.06,8.79,8.79,0,0,1,1,1.26,9.84,9.84,0,0,1,1,2.29,7.11,7.11,0,0,1,.2,2,11.24,11.24,0,0,1-.26,2.8,8,8,0,0,1-.85,2.25,9.33,9.33,0,0,1-1.95,2.2,10.67,10.67,0,0,1-2.15,1.51,15.19,15.19,0,0,1-2.28.57A11.89,11.89,0,0,1,224.11,231.09Zm3.58-2.86.67-.44a7.41,7.41,0,0,0,1.28-1,11,11,0,0,0,1.09-1.31,7.66,7.66,0,0,0,.69-2.58c0-.75,0-1.49,0-2.23a5.59,5.59,0,0,0-3.49-4.58,5.88,5.88,0,0,0-2.77-.33l0,12.78a.81.81,0,0,0,.67.12A4.81,4.81,0,0,0,227.69,228.23Z"/><path class="unknown_text-2" d="M243.65,233.83l-.22-.27-.27-.12-.67-.74a11,11,0,0,1-.19-2.07c0-2.78,0-5.55.07-8.32a5.25,5.25,0,0,1-.22-1.87v-.67c0-.94.08-1.87.11-2.8a21.84,21.84,0,0,1,.23-2.72l-.74-.74v-.67a5.53,5.53,0,0,1,3.05-.86,27.17,27.17,0,0,0,3.29-.2q1,.12,2.1.18a3.47,3.47,0,0,1,1.9.68l.2.72a5.71,5.71,0,0,1-1.36,1.8q-.74.66-1.44,1.23a7.06,7.06,0,0,0-1.25,1.31,12.21,12.21,0,0,1,1.41,1.21,6.8,6.8,0,0,1,.61,3.25,8.47,8.47,0,0,1-.48,1.81,4,4,0,0,1-1.07,1.52l-.35.15a4.05,4.05,0,0,1-2.22.47l-.93-.22a6.25,6.25,0,0,0-.23,1.68l.15,1a2.17,2.17,0,0,0-.15,1,25.86,25.86,0,0,0,0,3.05l-.46.87h-.4Zm1.48-17.12,2.37-2.22-1.23-.32-1.29.27-.12,2.2Zm1.21,7.33a3.37,3.37,0,0,0,.47-4.46,3.32,3.32,0,0,0-1.41-.4l-.34-.22-.2.27.08.54-.08.32c0,1.11.09,2.2.12,3.28l.15.52A1.81,1.81,0,0,0,246.34,224Zm7.23,7.65a5.39,5.39,0,0,1-1.41-.45,1.77,1.77,0,0,1-.34-1.48c.08-1.07.19-2.14.34-3.2q0-4.47,0-8.86c.13-.76.29-1.49.47-2.2l-.07-.74a9.89,9.89,0,0,1,1.28-2.27c.95-.26,1.91-.5,2.87-.72a19.47,19.47,0,0,1,3-.46l1.95.2.4.19a.7.7,0,0,1,.74.33l.27.74a17.19,17.19,0,0,0-.52,3.13l.05.27c-.08.49-.15,1-.2,1.53l.07,1.06-.46,1.6-.35.35a.55.55,0,0,0-.62.25l-.32.34a1.91,1.91,0,0,1-1.16.2c-.6,0-1.21,0-1.82,0-.86.13-1.71.29-2.57.47l-.27.59c0,1-.07,1.95-.07,2.93a6,6,0,0,0,.15,2.08,11.88,11.88,0,0,1,2.29-.67v-.27a16.43,16.43,0,0,1-1.09-1.76,5,5,0,0,1-.54-2l.47-.47,1.16-.08.89.4.32.27a7.06,7.06,0,0,0,.69,1.21l.27.07a5.33,5.33,0,0,0,1.6-1l1-1,.74-.15,1.13.47.15.87-.35.86a11,11,0,0,1-2.49,1.8l-.34.2-.13.42a8.77,8.77,0,0,0,2,2,11.86,11.86,0,0,1,1.95,1l-.13,1.14a2.45,2.45,0,0,1-1.28.19h-.49a15,15,0,0,1-1.78-.72,11,11,0,0,1-1.65-1l-.89-.67a7,7,0,0,1-1.58.88,4.55,4.55,0,0,0-1.53,1l-.27.19a3.41,3.41,0,0,1-.94.79Zm2.71-12.26a13.31,13.31,0,0,0,2-.25l.94,0a1.09,1.09,0,0,0,.22-1l-.15-.27a15.77,15.77,0,0,0-3.57.07l-.4-.07a1.88,1.88,0,0,0-.27,1.46l.47.19.59-.19Zm3.11-3.93q.12-.47.27-.93l-.07-.47.07-.4h-.42l-.61.08a8.36,8.36,0,0,1-2.35.59l-1.08.2-.15.93a1.81,1.81,0,0,0,1,.13l2.05-.13.59.08Z"/><path class="unknown_text-2" d="M286.58,233a34.23,34.23,0,0,1-6.27-.87,29.6,29.6,0,0,1-4.71-1.54,10.22,10.22,0,0,1-3.16-2.05,8.82,8.82,0,0,1-1.16,1.95,5.5,5.5,0,0,1-1.66,1.39,3,3,0,0,1-2,.38l-.6-.19-.19-.55-.13-.27a4.88,4.88,0,0,0,1.31-.84l.49-.66a3,3,0,0,0,1.06-1.24,11.5,11.5,0,0,0,1.56-3.46c.33-1.24.66-2.71,1-4.4l.51-.13.5.15.84.49.29,1.14a13.06,13.06,0,0,1-.94,4.09,12.67,12.67,0,0,0,4.1,2.07c.05-.83.07-1.69.07-2.57s.08-3.39.23-7.54l-5-.05a1.64,1.64,0,0,1-1.35-1.43,1.4,1.4,0,0,1,.59-.59l12.51-.15c.54.17,1,.3,1.43.4l.44.56a3.31,3.31,0,0,1-.2.82,20.6,20.6,0,0,1-6,.32l-.05,3.53q.22.27,6.88.07a1.38,1.38,0,0,1,.57,1.28l-.57.89a60.39,60.39,0,0,1-7,0c-.05.44-.11,2.31-.18,5.6a39.33,39.33,0,0,0,9,1.15l.89.52.07.27-.27.67A4.79,4.79,0,0,1,286.58,233ZM268.17,219.2l-.27-.39-.59-.32a51.74,51.74,0,0,1-.1-5.33l1.16-1.16,9-.05.07-1.06a8.47,8.47,0,0,0,0-1.75,1.8,1.8,0,0,1,1.21-.35l.93.67.18,2.54q9.11,0,10.06,0l.77.49.12.74a9.35,9.35,0,0,1-1.58,4.83c-.79.09-1.31-.06-1.58-.44l-.22-1a7.89,7.89,0,0,0,.74-2.44q-12.21.25-18.5.1a16.17,16.17,0,0,0-.08,4.34A1.25,1.25,0,0,1,268.17,219.2Z"/><path class="unknown_text-1" d="M54.37,211a30.13,30.13,0,0,0,12.07,18,29.38,29.38,0,0,0,9.86,4.61c2.83.72,8,1.92,9.57-1.48,1.71-3.59-2.67-7.18-5.73-8-3.88-1-6.92,2-6.22,5.9A11,11,0,0,0,77,235.28a47.4,47.4,0,0,0,4.53,4.32,50.45,50.45,0,0,0,36.91,11.46c1.43-.14,1.45-2.39,0-2.25a48.18,48.18,0,0,1-37.37-12.62c-2.08-1.95-6-5.19-4.79-8.45,1.36-3.68,7.23-.11,7.68,2.55.55,3.27-6.23,1.43-7.73,1a28.2,28.2,0,0,1-19.67-20.87c-.3-1.41-2.47-.81-2.17.6Z"/><path class="unknown_text-1" d="M278.34,251.89a62.25,62.25,0,0,0,27.74-5.55,56.34,56.34,0,0,0,11.66-6.61c3.05-2.34,5.93-5.5,6.68-9.39a10.79,10.79,0,0,0-2.64-9.28c-2.21-2.34-6.11-3.36-8.84-1.27-3.42,2.62-1,7.24,2.4,8.41a14.79,14.79,0,0,0,6.62.18,44.71,44.71,0,0,0,29.25-16.53c.89-1.12-.69-2.72-1.59-1.59A43.21,43.21,0,0,1,333,223a42.66,42.66,0,0,1-10.37,3,17.9,17.9,0,0,1-5.7.26c-1.62-.29-3.58-1.48-3.39-3.4.16-1.68,2.28-2.15,3.66-1.93a5.45,5.45,0,0,1,3.28,2A8.48,8.48,0,0,1,321.9,231c-1.14,3.31-3.88,5.83-6.69,7.77A61.83,61.83,0,0,1,305,244.4a59.8,59.8,0,0,1-26.61,5.24c-1.45-.06-1.45,2.19,0,2.25Z"/></svg>