<svg id="レイヤー_1" data-name="レイヤー 1" xmlns="http://www.w3.org/2000/svg" viewBox="0 0 256.04 316.16"><defs><style>.unknown_text-sp-1{fill:#dfb1ff;}.unknown_text-sp-2{fill:#c05acd;}.unknown_text-sp-3{fill:#4d4d4d;}.unknown_text-sp-4{fill:#efd8ff;}</style></defs><path class="unknown_text-sp-1" d="M110.06,7.08a76.24,76.24,0,0,0,2.21,11.32,1.13,1.13,0,0,0,2.17-.6,72.61,72.61,0,0,1-2.13-10.72A1.15,1.15,0,0,0,111.19,6a1.13,1.13,0,0,0-1.13,1.12Z"/><path class="unknown_text-sp-1" d="M109.28.33l-.5.5a.77.77,0,0,0-.23.36.91.91,0,0,0-.1.43,1,1,0,0,0,.1.44.82.82,0,0,0,.23.36l.23.17a1.14,1.14,0,0,0,.57.16l.3,0a1.16,1.16,0,0,0,.49-.29l.5-.5a.77.77,0,0,0,.23-.36.84.84,0,0,0,.1-.44.83.83,0,0,0-.1-.43.77.77,0,0,0-.23-.36l-.23-.18a1.09,1.09,0,0,0-.56-.15l-.3,0a1.1,1.1,0,0,0-.5.29Z"/><path class="unknown_text-sp-1" d="M186.25,22.36l1.5-2.49a1.15,1.15,0,0,0,.11-.87,1.12,1.12,0,0,0-.52-.67,1.15,1.15,0,0,0-1.54.41l-1.49,2.48a1.11,1.11,0,0,0,.4,1.54,1.14,1.14,0,0,0,1.54-.4Z"/><path class="unknown_text-sp-1" d="M191.11,15.17l2.49-3a1.2,1.2,0,0,0,.33-.8,1.11,1.11,0,0,0-.33-.79,1.12,1.12,0,0,0-1.59,0l-2.49,3a1.23,1.23,0,0,0-.33.8,1.13,1.13,0,0,0,.33.79,1.15,1.15,0,0,0,.8.33,1.07,1.07,0,0,0,.79-.33Z"/><path class="unknown_text-sp-1" d="M228.94,28.6l9-5.41a1.12,1.12,0,0,0-1.13-1.94l-9,5.41a1.13,1.13,0,0,0,1.14,1.94Z"/><path class="unknown_text-sp-1" d="M242.82,20.83h.5a.8.8,0,0,0,.43-.1.85.85,0,0,0,.37-.23,1,1,0,0,0,.23-.36.82.82,0,0,0,.09-.43l0-.3a1.18,1.18,0,0,0-.28-.5l-.23-.18a1.16,1.16,0,0,0-.57-.15h-.5a.8.8,0,0,0-.43.1.77.77,0,0,0-.36.23.88.88,0,0,0-.24.36.82.82,0,0,0-.09.43l0,.3a1.1,1.1,0,0,0,.29.5l.22.18a1.16,1.16,0,0,0,.57.15Z"/><path class="unknown_text-sp-1" d="M241.48,64.35l2.47.29a1.12,1.12,0,0,0,.79-1.92l-.22-.18a1.16,1.16,0,0,0-.57-.15l-2.47-.29a1.14,1.14,0,0,0-.8.33,1.2,1.2,0,0,0-.33.8,1.16,1.16,0,0,0,.33.79l.23.18a1.1,1.1,0,0,0,.57.15Z"/><path class="unknown_text-sp-1" d="M250,65.12l4.94.57A1.13,1.13,0,0,0,256,64.57a1.16,1.16,0,0,0-1.13-1.13L250,62.87A1.12,1.12,0,0,0,248.85,64,1.15,1.15,0,0,0,250,65.12Z"/><path class="unknown_text-sp-1" d="M212.28,88l6,6.45a1.12,1.12,0,0,0,1.59-1.59l-6-6.45a1.13,1.13,0,0,0-1.59,0,1.15,1.15,0,0,0,0,1.59Z"/><path class="unknown_text-sp-1" d="M208.84,83.47l.49.5a.89.89,0,0,0,.37.23.88.88,0,0,0,.43.1.91.91,0,0,0,.43-.1.86.86,0,0,0,.36-.23l.18-.23a1.13,1.13,0,0,0,.15-.57l0-.3a1.07,1.07,0,0,0-.29-.49l-.49-.5a.82.82,0,0,0-.36-.23.84.84,0,0,0-.44-.1.8.8,0,0,0-.43.1.77.77,0,0,0-.36.23l-.18.23a1.09,1.09,0,0,0-.15.56l0,.3a1.1,1.1,0,0,0,.29.5Z"/><path class="unknown_text-sp-1" d="M178.17,92.8l2.25,6.25a1.15,1.15,0,0,0,1.39.78,1.13,1.13,0,0,0,.78-1.38l-2.25-6.25a1.13,1.13,0,0,0-2.17.6Z"/><path class="unknown_text-sp-1" d="M140.43,93.88a71.75,71.75,0,0,1,.16,10.47,1.12,1.12,0,0,0,1.12,1.12,1.15,1.15,0,0,0,1.13-1.12,71.75,71.75,0,0,0-.16-10.47,1.15,1.15,0,0,0-1.12-1.13,1.14,1.14,0,0,0-1.13,1.13Z"/><path class="unknown_text-sp-1" d="M141.28,90.05a1.13,1.13,0,0,0,0-2.25,1.13,1.13,0,0,0,0,2.25Z"/><path class="unknown_text-sp-1" d="M106.38,89.5l-2.42,8a1.13,1.13,0,1,0,2.17.6l2.42-8a1.13,1.13,0,0,0-2.17-.6Z"/><path class="unknown_text-sp-1" d="M103.05,105.38a1.13,1.13,0,0,0,0-2.25,1.13,1.13,0,0,0,0,2.25Z"/><path class="unknown_text-sp-1" d="M80.38,85.85a87.83,87.83,0,0,1-7.5,9.07c-1,1,.6,2.64,1.59,1.59A92.7,92.7,0,0,0,82.32,87a1.13,1.13,0,0,0-.4-1.54,1.16,1.16,0,0,0-1.54.4Z"/><path class="unknown_text-sp-1" d="M39,88.7l5-3.52a1.13,1.13,0,1,0-1.14-1.94l-5,3.52A1.13,1.13,0,0,0,39,88.7Z"/><path class="unknown_text-sp-1" d="M46.87,82.4a1.13,1.13,0,0,0,0-2.25,1.13,1.13,0,0,0,0,2.25Z"/><path class="unknown_text-sp-1" d="M14.24,62.89l9.75-2a1.13,1.13,0,1,0-.6-2.17l-9.75,1.95a1.13,1.13,0,0,0-.79,1.38,1.16,1.16,0,0,0,1.39.79Z"/><path class="unknown_text-sp-1" d="M28.64,24.46c.46.27.91.55,1.35.86l.66.46.14.11s.22.17.1.07,0,0,.06.05l.17.14a23.08,23.08,0,0,1,2.36,2.17,1.12,1.12,0,0,0,1.59-1.59,24.73,24.73,0,0,0-5.29-4.22,1.13,1.13,0,0,0-1.14,1.95Z"/><path class="unknown_text-sp-1" d="M64.79,14l3.72,6a1.12,1.12,0,1,0,1.94-1.13l-3.72-6A1.13,1.13,0,0,0,64.79,14Z"/><path class="unknown_text-sp-1" d="M61.93,9.07a1.13,1.13,0,0,0,0-2.25,1.13,1.13,0,0,0,0,2.25Z"/><path class="unknown_text-sp-1" d="M151.5,10.83l-1.06,4.46a1.14,1.14,0,0,0,.79,1.38,1.13,1.13,0,0,0,1.38-.78l1.06-4.46a1.15,1.15,0,0,0-.79-1.39,1.14,1.14,0,0,0-1.38.79Z"/><path class="unknown_text-sp-1" d="M221.68,98.27l.5.5a.77.77,0,0,0,.36.23.91.91,0,0,0,.43.1,1,1,0,0,0,.44-.1.77.77,0,0,0,.36-.23l.17-.23a1,1,0,0,0,.16-.57l0-.3a1.16,1.16,0,0,0-.29-.49l-.5-.5a.77.77,0,0,0-.36-.23.8.8,0,0,0-.43-.1.84.84,0,0,0-.44.1.77.77,0,0,0-.36.23l-.18.23a1.09,1.09,0,0,0-.15.56l0,.3a1.1,1.1,0,0,0,.29.5Z"/><path class="unknown_text-sp-2" d="M65.31,57.14a.54.54,0,0,1,.4-.17.57.57,0,0,1,.41.17.54.54,0,0,1,.16.4,8.52,8.52,0,0,1-2.43,6.11,8.06,8.06,0,0,1-11.73,0,8.52,8.52,0,0,1-2.43-6.11.58.58,0,0,1,.57-.57.57.57,0,0,1,.41.17.54.54,0,0,1,.16.4,7.53,7.53,0,0,0,1,3.75A7.33,7.33,0,0,0,54.4,64,6.93,6.93,0,0,0,63,62.82a7.35,7.35,0,0,0,2.1-5.28A.54.54,0,0,1,65.31,57.14Zm-14.6-.39a.6.6,0,0,1-.42.16.54.54,0,0,1-.4-.16.57.57,0,0,1-.17-.41V41.13a.58.58,0,0,1,.57-.57h1.77a.57.57,0,0,1,.41.17.54.54,0,0,1,.16.4V51.45a.55.55,0,0,1-.57.57.6.6,0,0,1-.42-.16.54.54,0,0,1-.18-.41V41.7h-.57V56.34A.54.54,0,0,1,50.71,56.75Zm14.6-16a.54.54,0,0,1,.4-.17.61.61,0,0,1,.42.17.52.52,0,0,1,.18.4V56.34a.54.54,0,0,1-.18.41.6.6,0,0,1-.42.16.54.54,0,0,1-.4-.16.57.57,0,0,1-.17-.41V41.13A.54.54,0,0,1,65.31,40.73Z"/><path class="unknown_text-sp-2" d="M89.5,40.56a.52.52,0,0,1,.29.09.66.66,0,0,1,.21.23.55.55,0,0,1,.07.28V65.4a.55.55,0,0,1-.57.57.54.54,0,0,1-.4-.16.57.57,0,0,1-.17-.41V41.73h-1.8V65.46a.57.57,0,0,1-.24.48.63.63,0,0,1-.33.09.51.51,0,0,1-.48-.27l-15-22.71V65.52a.6.6,0,0,1-.16.42.54.54,0,0,1-.41.18.52.52,0,0,1-.4-.18.61.61,0,0,1-.17-.42V41.25a.61.61,0,0,1,.17-.42.52.52,0,0,1,.4-.18.09.09,0,0,0,.06,0,.52.52,0,0,1,.51.24L86,63.51V41.16a.61.61,0,0,1,.17-.42.52.52,0,0,1,.4-.18.32.32,0,0,1,.18.06.48.48,0,0,1,.21-.06Z"/><path class="unknown_text-sp-2" d="M110.14,65a.63.63,0,0,1,.08.44.53.53,0,0,1-.56.46.57.57,0,0,1-.48-.24l-9.72-13.8-2.1,2V65.43a.57.57,0,0,1-.21.45,1.9,1.9,0,0,1-.31.45,1.43,1.43,0,0,1-.47.33,1.81,1.81,0,0,1-.87.21,1.85,1.85,0,0,1-1.14-.36,1.48,1.48,0,0,1-.57-.81.6.6,0,0,1-.06-.27V41.16a.61.61,0,0,1,.17-.42.52.52,0,0,1,.4-.18.54.54,0,0,1,.41.18.6.6,0,0,1,.16.42V65a.88.88,0,0,1,0,.21.37.37,0,0,0,.15.42.7.7,0,0,0,.81,0,.57.57,0,0,0,.33-.57V53.61h0a.64.64,0,0,1,.15-.42L109,41a.64.64,0,0,1,.42-.15.54.54,0,0,1,.41.18.6.6,0,0,1,.16.42.48.48,0,0,1-.18.39L100.3,51s.06,0,.06.06Z"/><path class="unknown_text-sp-2" d="M133.45,40.56a.52.52,0,0,1,.29.09.66.66,0,0,1,.21.23.55.55,0,0,1,.07.28V65.4a.55.55,0,0,1-.57.57.54.54,0,0,1-.4-.16.57.57,0,0,1-.17-.41V41.73h-1.8V65.46a.57.57,0,0,1-.24.48.63.63,0,0,1-.33.09.51.51,0,0,1-.48-.27L115,43.05V65.52a.6.6,0,0,1-.16.42.54.54,0,0,1-.41.18.52.52,0,0,1-.4-.18.61.61,0,0,1-.17-.42V41.25a.61.61,0,0,1,.17-.42.52.52,0,0,1,.4-.18l.06,0a.52.52,0,0,1,.51.24l14.91,22.59V41.16a.61.61,0,0,1,.17-.42.52.52,0,0,1,.4-.18.32.32,0,0,1,.18.06.48.48,0,0,1,.21-.06Z"/><path class="unknown_text-sp-2" d="M149,44.19a6.56,6.56,0,0,0-5.26,2.69,10.63,10.63,0,0,0,0,12.91A6.59,6.59,0,0,0,149,62.46a.54.54,0,0,1,.41.18.6.6,0,0,1,.16.42.55.55,0,0,1-.57.57,7.4,7.4,0,0,1-4.32-1.38,9.56,9.56,0,0,1-3.13-3.75,11.62,11.62,0,0,1-1.16-5.16,11,11,0,0,1,2.4-7.12,7.83,7.83,0,0,1,5.85-3.17l.09,0a.17.17,0,0,0,.12-.06.64.64,0,0,0,.12-.21,1,1,0,0,0,.06-.36.82.82,0,0,0-.09-.4.4.4,0,0,0-.18-.2,9.05,9.05,0,0,0-5,1.67,11.13,11.13,0,0,0-3.6,4.23,13.18,13.18,0,0,0,0,11.64,10.92,10.92,0,0,0,3.7,4.24A9,9,0,0,0,149,65.13a.54.54,0,0,1,.41.18.6.6,0,0,1,.16.42.55.55,0,0,1-.57.57,9.91,9.91,0,0,1-4.38-1A11.34,11.34,0,0,1,141,62.54a13.08,13.08,0,0,1-2.4-4.1,14.12,14.12,0,0,1-.89-5,14,14,0,0,1,1.46-6.33,12,12,0,0,1,4-4.63,10.29,10.29,0,0,1,5.49-1.85l.11,0,0,0h.11l.1,0a.5.5,0,0,1,.48.3,1.71,1.71,0,0,1,.72,1.49,1.7,1.7,0,0,1-.72,1.48A.5.5,0,0,1,149,44.19Zm2.16-3.57a9.6,9.6,0,0,1,5.52,1.7A11.67,11.67,0,0,1,160.57,47,14.6,14.6,0,0,1,162,53.46a14,14,0,0,1-1.5,6.44,12,12,0,0,1-4.11,4.68,10.08,10.08,0,0,1-5.67,1.72.54.54,0,0,1-.4-.16.57.57,0,0,1-.17-.41.61.61,0,0,1,.17-.42.52.52,0,0,1,.4-.18,8.9,8.9,0,0,0,4-.91,9.93,9.93,0,0,0,3.22-2.49A12.35,12.35,0,0,0,160.06,58a12.79,12.79,0,0,0,.81-4.53,13.41,13.41,0,0,0-1.29-5.89,10.58,10.58,0,0,0-3.52-4.23,8.51,8.51,0,0,0-4.94-1.55.54.54,0,0,1-.4-.16.57.57,0,0,1-.17-.41.61.61,0,0,1,.17-.42A.52.52,0,0,1,151.12,40.62Z"/><path class="unknown_text-sp-2" d="M193.87,40.71a.59.59,0,0,1,.45-.06.57.57,0,0,1,.36.26.53.53,0,0,1,.06.43l-6.09,24.18,0,0a.75.75,0,0,1-.18.3h0a.25.25,0,0,1-.15.09l-.18,0a.33.33,0,0,1-.15,0,.32.32,0,0,1-.18-.06,0,0,0,0,0,0,0,.55.55,0,0,1-.18-.24,0,0,0,0,0,0,0l-7.26-22.53L172.93,65.4v0a.52.52,0,0,1-.45.51.33.33,0,0,1-.15,0,.5.5,0,0,1-.54-.45l-6.12-24.18a.5.5,0,0,1,.08-.43.62.62,0,0,1,.34-.26l.24,0h2l0,0a.55.55,0,0,1,.69.42l2.16,8.61a.55.55,0,0,1-.42.69.33.33,0,0,1-.15,0,.54.54,0,0,1-.57-.45l-2-8.16H167l5.43,21.48L179.71,41V41l.06-.09a.2.2,0,0,1,.09-.09l.18-.12,0,0h.36l0,0,.12.06s.07.06.09.06a.35.35,0,0,1,.06.09l.06.12a0,0,0,0,0,0,0L188,63.3l5.61-22.23A.46.46,0,0,1,193.87,40.71Z"/><path class="unknown_text-sp-2" d="M218,40.56a.52.52,0,0,1,.29.09.66.66,0,0,1,.21.23.55.55,0,0,1,.07.28V65.4A.55.55,0,0,1,218,66a.54.54,0,0,1-.4-.16.57.57,0,0,1-.17-.41V41.73h-1.8V65.46a.57.57,0,0,1-.24.48A.63.63,0,0,1,215,66a.51.51,0,0,1-.48-.27l-15-22.71V65.52a.6.6,0,0,1-.16.42.54.54,0,0,1-.41.18.52.52,0,0,1-.4-.18.61.61,0,0,1-.17-.42V41.25a.61.61,0,0,1,.17-.42.52.52,0,0,1,.4-.18.09.09,0,0,0,.06,0,.52.52,0,0,1,.51.24l14.91,22.59V41.16a.61.61,0,0,1,.17-.42.52.52,0,0,1,.4-.18.32.32,0,0,1,.18.06.48.48,0,0,1,.21-.06Z"/><path class="unknown_text-sp-3" d="M80.3,184.49c0,.1,0,.11-.11.11l-1.54,0v3.95c0,1.58,0,2.32,0,2.39s0,.11-.11.11h-.66c-.1,0-.11,0-.11-.11s0-.81,0-2.39v-3.95H75.74a17.67,17.67,0,0,1-.24,2.48,7.39,7.39,0,0,1-1.82,3.69c-.09.09-.13.14-.17.14s-.1,0-.2-.15a1.78,1.78,0,0,0-.5-.42,6.08,6.08,0,0,0,1.88-3.52,16,16,0,0,0,.21-2.22c-1.29,0-1.73,0-1.81,0s-.1,0-.1-.11v-.61c0-.1,0-.12.1-.12s.53,0,1.83,0c0-.55,0-1.15,0-1.79v-1.7c-.93,0-1.32,0-1.38,0s-.11,0-.11-.1v-.62c0-.1,0-.11.11-.11s.5,0,1.78,0h2.88c1.28,0,1.7,0,1.77,0s.12,0,.12.11v.62c0,.1,0,.1-.12.1s-.44,0-1.34,0v3.49c1.08,0,1.47,0,1.54,0s.11,0,.11.12Zm-2.48-4.19H75.76v1.81c0,.56,0,1.13,0,1.68h2.07Zm7.74,6.45a2.57,2.57,0,0,0-.56.56,12.77,12.77,0,0,1-4.67,3.54.75.75,0,0,1-.22.07c-.09,0-.13,0-.21-.21a1.52,1.52,0,0,0-.45-.46,11.67,11.67,0,0,0,4.9-3.52,3.3,3.3,0,0,0,.52-.81,4.88,4.88,0,0,1,.73.5c.07.06.1.1.1.17S85.64,186.7,85.56,186.75Zm-1.15-7.06a1.81,1.81,0,0,0-.49.42,13.52,13.52,0,0,1-3.32,2.35.46.46,0,0,1-.21.08c-.09,0-.13-.07-.2-.22a1.37,1.37,0,0,0-.36-.46,10.66,10.66,0,0,0,3.4-2.27,2.84,2.84,0,0,0,.5-.7,3.36,3.36,0,0,1,.7.48c.09.07.12.11.12.16S84.51,179.65,84.41,179.69ZM85,183c-.12.06-.19.16-.46.46a12.9,12.9,0,0,1-3.75,2.94.44.44,0,0,1-.19.07c-.09,0-.13-.07-.21-.21a1.55,1.55,0,0,0-.41-.44,11,11,0,0,0,3.92-2.92,2,2,0,0,0,.42-.67,3.58,3.58,0,0,1,.69.45c.1.08.13.12.13.18S85.06,182.91,85,183Z"/><path class="unknown_text-sp-3" d="M95.28,182.29a21,21,0,0,0,.94,5.41c.45,1.32,1,2.34,1.65,2.34s.72-.95.82-2.3a2.5,2.5,0,0,0,.53.39c.27.16.29.17.27.44-.23,1.67-.72,2.46-1.5,2.46-1,0-1.81-.84-2.52-2.83a22.53,22.53,0,0,1-1.06-5.91h-5c-1.36,0-1.81,0-1.88,0s-.11,0-.11-.11v-.66c0-.1,0-.11.11-.11s.52,0,1.88,0h5c0-.35,0-.69,0-1a11.73,11.73,0,0,0-.14-1.72,7.73,7.73,0,0,1,1,.08.18.18,0,0,1,.18.16.92.92,0,0,1-.07.26,3.45,3.45,0,0,0-.07,1.18c0,.36,0,.73.05,1.08h1.82c1.34,0,1.8,0,1.87,0s.11,0,.11.11v.66c0,.1,0,.11-.11.11s-.53,0-1.87,0Zm-4,6.4a24,24,0,0,0,2.89-.92,3.15,3.15,0,0,0,0,.53c0,.28,0,.3-.28.39a50.07,50.07,0,0,1-5.16,1.5,1.6,1.6,0,0,0-.54.21.41.41,0,0,1-.21.1c-.06,0-.12-.05-.16-.15s-.18-.55-.26-.84a10,10,0,0,0,1.29-.21l1.61-.37v-3.56h-.75c-1.23,0-1.62,0-1.69,0s-.11,0-.11-.11v-.59c0-.11,0-.12.11-.12s.46,0,1.69,0h2.44c1.22,0,1.61,0,1.68,0s.11,0,.11.12v.59c0,.1,0,.11-.11.11s-.46,0-1.68,0h-.83Zm5.31-9.56c.13-.12.17-.12.27,0a8.45,8.45,0,0,1,1.41,1.22c.06.07.07.12-.08.24l-.29.23c-.17.12-.2.12-.28,0a6.11,6.11,0,0,0-1.33-1.26c-.09-.05-.09-.09.05-.21Z"/><path class="unknown_text-sp-3" d="M103.9,180.19c.14.09.2.14.2.23a.36.36,0,0,1-.1.23,2.22,2.22,0,0,0-.28.75,23.08,23.08,0,0,0-.66,4.83,10.94,10.94,0,0,0,.21,2.41c.34-.79.63-1.39,1-2.37a3.33,3.33,0,0,0,.34.56.23.23,0,0,1,.07.14.51.51,0,0,1-.07.23c-.31.71-.61,1.4-.9,2.22a.88.88,0,0,0-.06.35c0,.13,0,.21,0,.31a.13.13,0,0,1-.1.13,3.38,3.38,0,0,1-.63.14c-.07,0-.12-.06-.15-.14a12.52,12.52,0,0,1-.63-4.07,25.68,25.68,0,0,1,.57-4.77,7.81,7.81,0,0,0,.2-1.56A5.86,5.86,0,0,1,103.9,180.19Zm2.9,6.67c.07,0,.1,0,.1.14,0,1.06.9,1.54,2.55,1.54a19.55,19.55,0,0,0,2.76-.2c.11,0,.14,0,.15.14s0,.47,0,.66,0,.14-.19.17a20.47,20.47,0,0,1-2.5.15c-1.57,0-2.47-.22-3.08-.88a2.26,2.26,0,0,1-.59-1.67Zm-.25-5.21c0-.13,0-.17.17-.2a23.17,23.17,0,0,1,3-.25c.81,0,1.61,0,2,.07.18,0,.21,0,.21.14s0,.45,0,.66,0,.14-.15.12c-.55-.05-1.46-.07-2.25-.07a17.38,17.38,0,0,0-2.93.3C106.54,182,106.54,181.82,106.55,181.65Z"/><path class="unknown_text-sp-3" d="M126.64,185.92c0,4.33,0,5.13,0,5.21s0,.11-.11.11h-.67c-.1,0-.11,0-.11-.11v-.8h-9.29v.8c0,.1,0,.11-.11.11h-.67c-.1,0-.12,0-.12-.11s0-.88,0-5.21v-2.8c0-2.82,0-3.64,0-3.73s0-.11.12-.11.55,0,1.94,0h7c1.39,0,1.87,0,2,0s.11,0,.11.11,0,.91,0,3.32Zm-.86-5.83h-9.29v9.47h9.29Zm-1.08,8.52c-.1.14-.14.2-.2.2s-.1-.05-.19-.12a7.84,7.84,0,0,1-3.14-5,7.39,7.39,0,0,1-3.38,5c-.1.07-.15.1-.19.1s-.12-.05-.2-.18a1.64,1.64,0,0,0-.46-.45,6.94,6.94,0,0,0,3.63-5.94,4.86,4.86,0,0,0,0-1.47,7.51,7.51,0,0,1,.87.09c.13,0,.21.07.21.15a1.29,1.29,0,0,1-.08.28,5.43,5.43,0,0,0-.12.67c.41,2.61,1.43,4.79,3.77,6.14A1.56,1.56,0,0,0,124.7,188.61Z"/><path class="unknown_text-sp-3" d="M133.5,179.2c.15.05.17.18.1.35a2.14,2.14,0,0,0-.13.54c0,.63-.07,1.12-.09,1.8.09,0,.18-.07.22-.12a.21.21,0,0,1,.1,0c.05,0,.14.06.26.18a.51.51,0,0,1,.18.31c0,.09,0,.16-.18.3a7.61,7.61,0,0,0-.68,1c0,.3,0,.53,0,.78a6.57,6.57,0,0,1,4.26-1.79,3.13,3.13,0,0,1,3.33,3.3c0,1.73-1.16,3.48-3.71,4.23a.3.3,0,0,1-.4-.1,2.18,2.18,0,0,0-.68-.5A5.88,5.88,0,0,0,139,187.9a3,3,0,0,0,.86-2.13,2.24,2.24,0,0,0-2.34-2.45,6.24,6.24,0,0,0-4.25,1.94c0,1.78,0,3.52.05,5.35,0,.09-.05.12-.12.13s-.49,0-.74,0c-.08,0-.11,0-.11-.13,0-1.72,0-3.21,0-5.07-.84,1.18-1.59,2.28-2.38,3.39-.08.1-.15.11-.24.06s-.37-.34-.51-.51-.06-.14,0-.22c1-1.26,2.06-2.61,3.12-4.11,0-.46.05-.89.05-1.23-.55.16-1.19.37-1.67.53-.31.12-.48.28-.59.3s-.14-.06-.24-.18a7.73,7.73,0,0,1-.39-.77,5.18,5.18,0,0,0,.92-.15c.61-.16,1.17-.3,2-.54,0-.55,0-1.07.06-1.89a4.7,4.7,0,0,0-.12-1.24A5,5,0,0,1,133.5,179.2Z"/><path class="unknown_text-sp-3" d="M147.25,179.27c.15,0,.22.12.22.22a.4.4,0,0,1-.07.18,1.27,1.27,0,0,0-.11.55c-.06.64-.08,1.16-.11,1.88a2.08,2.08,0,0,1,.49.32c.08.07.1.15,0,.28-.19.32-.37.66-.58,1.08,0,.18,0,.33,0,.53a19.41,19.41,0,0,1,1.58-1.64,3.91,3.91,0,0,1,2.48-1.39c1,0,1.5.63,1.5,1.75,0,.62,0,1.55-.13,2.61s-.14,1.85-.14,2.31c0,.88.24,1.09.7,1.09a1.63,1.63,0,0,0,1.16-.53,4,4,0,0,0,.86-1.33,1.74,1.74,0,0,0,.32.72c.1.14.13.23,0,.44a2.84,2.84,0,0,1-2.41,1.6c-1,0-1.54-.53-1.54-1.83,0-.63,0-1.43.11-2.4s.12-1.72.12-2.41-.2-1.2-.65-1.2a3.1,3.1,0,0,0-1.86,1c-.63.59-1.22,1.21-2.12,2.22,0,1.45,0,3.32.06,5.28,0,.08,0,.12-.14.14l-.67,0c-.07,0-.12,0-.12-.15,0-2.06,0-3.52,0-4.71-.67,1-1.33,1.95-2.06,3-.08.13-.12.14-.23.07a2.31,2.31,0,0,1-.52-.47c-.09-.07-.05-.16,0-.25,1.13-1.47,2-2.62,2.78-3.9,0-.49,0-.87,0-1.22a19.2,19.2,0,0,0-1.91.66c-.16.06-.28.18-.37.18a.26.26,0,0,1-.21-.14,3.78,3.78,0,0,1-.41-.81,4.82,4.82,0,0,0,1-.14c.5-.14,1.1-.31,2-.59,0-.64,0-1.26,0-1.89a6.6,6.6,0,0,0-.1-1.39A4,4,0,0,1,147.25,179.27Z"/><path class="unknown_text-sp-3" d="M163.64,181.27c.13,0,.17,0,.19.08s0,.42.07.61,0,.15-.13.16c-.76.16-1.51.29-2.34.41a33.61,33.61,0,0,1-2.81,5.91.14.14,0,0,1-.23,0,2.92,2.92,0,0,1-.56-.42c-.08-.07-.08-.12,0-.23a24.76,24.76,0,0,0,2.63-5.21c-.6,0-1.16.09-1.76.09a7.16,7.16,0,0,1-.75,0c-.12,0-.14,0-.17-.16a5.92,5.92,0,0,1-.08-.7c.45,0,.81.05,1.11.05a17.88,17.88,0,0,0,1.9-.11,15.09,15.09,0,0,0,.42-1.64,3.64,3.64,0,0,0,.11-1.09,6,6,0,0,1,1.1.28.16.16,0,0,1,.12.15.26.26,0,0,1-.11.21,1.54,1.54,0,0,0-.2.44c-.15.5-.3,1-.44,1.51A17.41,17.41,0,0,0,163.64,181.27Zm.86,3.39a4.48,4.48,0,0,0-.09-.9,4.94,4.94,0,0,1,1,.19.16.16,0,0,1,.15.16.87.87,0,0,1-.08.26,2,2,0,0,0-.06.65,23.26,23.26,0,0,0,.17,2.58,12.35,12.35,0,0,1,2.65,1.4c.11.07.09.11.05.23a4.56,4.56,0,0,1-.33.61c-.07.1-.14.09-.23,0a8.17,8.17,0,0,0-2.13-1.33c0,1.41-.7,2.18-2.5,2.18-1.07,0-2.17-.55-2.17-1.71s1-1.76,2.38-1.76a6.86,6.86,0,0,1,1.4.17C164.58,186.54,164.51,185.42,164.5,184.66ZM163.31,188c-1.12,0-1.63.43-1.63,1s.52.94,1.45.94c1.14,0,1.56-.6,1.56-1.32a2.56,2.56,0,0,0,0-.33A4.59,4.59,0,0,0,163.31,188Zm2.38-6.28c.07-.11.11-.12.24-.08a9.88,9.88,0,0,1,2.74,1.31c.1.09.1.15,0,.26a3.86,3.86,0,0,1-.32.56c-.07.1-.11.08-.2,0a9.14,9.14,0,0,0-2.86-1.43C165.47,182.14,165.58,181.9,165.69,181.73Z"/><path class="unknown_text-sp-3" d="M173.22,180.93c.08,0,.12.1.12.16a.92.92,0,0,1-.05.25,4.7,4.7,0,0,0-.11,1.29,22.51,22.51,0,0,0,.19,3.18c.21,1.65.81,2.86,1.49,2.86s1.09-.9,1.5-2.2a1.8,1.8,0,0,0,.46.7.32.32,0,0,1,.11.35c-.39,1.13-1.15,2.2-2.09,2.2-1.17,0-2.06-1.63-2.37-3.83a31.81,31.81,0,0,1-.25-3.91,5.82,5.82,0,0,0-.11-1.34A4.08,4.08,0,0,1,173.22,180.93ZM179.9,182a.18.18,0,0,1,.21,0,8.49,8.49,0,0,1,2.73,4.85.16.16,0,0,1-.1.18,2.56,2.56,0,0,1-.64.32c-.1,0-.17,0-.18-.11a8.2,8.2,0,0,0-2.64-4.86A6.62,6.62,0,0,1,179.9,182Z"/><path class="unknown_text-sp-3" d="M9.07,206.33c0,.09,0,.11-.11.11s-.46,0-1.7,0H6.83A5.59,5.59,0,0,0,8.9,208.2a1.61,1.61,0,0,0-.33.49c-.06.12-.09.17-.13.17s-.1,0-.2-.12a6.35,6.35,0,0,1-1.71-1.88c0,2.25.1,3.59.1,4.17,0,.1,0,.12-.12.12H5.88c-.1,0-.12,0-.12-.12,0-.57,0-1.83.09-4a8.62,8.62,0,0,1-2.38,2.88c-.1.07-.16.12-.21.12s-.09-.06-.14-.17a1.84,1.84,0,0,0-.38-.52,8.42,8.42,0,0,0,2.8-2.93H4.83c-1.24,0-1.64,0-1.71,0s-.12,0-.12-.11v-.56c0-.1,0-.12.12-.12s.47,0,1.71,0h1v0a6,6,0,0,0-.09-1.31c.3,0,.62,0,.86.07.08,0,.14.05.14.11a.43.43,0,0,1-.06.2,2.76,2.76,0,0,0-.07.93v0h.67c1.24,0,1.63,0,1.7,0s.11,0,.11.12ZM9.31,204c0,.1,0,.12-.11.12s-.49,0-1.74,0H4.76c-1.27,0-1.67,0-1.74,0s-.11,0-.11-.12v-.57c0-.1,0-.11.11-.11s.47,0,1.74,0H6.6a10.77,10.77,0,0,0,.65-1.6,2.47,2.47,0,0,0,.13-.6c.3.07.53.12.75.19s.17.1.17.17,0,.11-.1.17A.88.88,0,0,0,8,202a14.22,14.22,0,0,1-.61,1.35h.08c1.22,0,1.62,0,1.74,0s.11,0,.11.11Zm-.23-3.3c0,.1,0,.11-.11.11s-.46,0-1.66,0H5c-1.21,0-1.6,0-1.67,0s-.11,0-.11-.11v-.55c0-.1,0-.11.11-.11s.46,0,1.67,0h.81v-.44a3.69,3.69,0,0,0-.1-1c.37,0,.63,0,.91.07.12,0,.19.06.19.12a.58.58,0,0,1-.09.25,1.12,1.12,0,0,0-.07.57V200h.68c1.2,0,1.59,0,1.66,0s.11,0,.11.11Zm-4.38.5c.11,0,.14,0,.2.06a6.49,6.49,0,0,1,.6,1.39c0,.09,0,.13-.13.19L5,203c-.18.06-.22.06-.25-.07a7.35,7.35,0,0,0-.53-1.4c-.06-.1,0-.13.14-.2ZM15.58,204c0,.1,0,.11-.11.11s-.46,0-1.69,0h-.07v5c0,1.51,0,2,0,2.08s0,.12-.11.12h-.68c-.1,0-.12,0-.12-.12s0-.57,0-2.08v-5H10.76a17,17,0,0,1-.35,4.11A6.42,6.42,0,0,1,9,211c-.09.11-.14.15-.2.15s-.1,0-.18-.11a1.47,1.47,0,0,0-.53-.32,6.25,6.25,0,0,0,1.59-2.94,17.67,17.67,0,0,0,.28-3.94v-1.72a16.76,16.76,0,0,0-.1-2,4.34,4.34,0,0,1,.91.28,12.48,12.48,0,0,0,2.79-1.09,3.22,3.22,0,0,0,.7-.5,4.09,4.09,0,0,1,.62.63.26.26,0,0,1,.08.19c0,.06-.07.12-.18.13a1.48,1.48,0,0,0-.52.17,18.86,18.86,0,0,1-3.49,1.26v2.16h3c1.23,0,1.62,0,1.69,0s.11,0,.11.11Z"/><path class="unknown_text-sp-3" d="M21.18,199.55c.15,0,.22.11.22.21a1,1,0,0,1-.11.36,7.88,7.88,0,0,0-.17,1.44c-.12,2.12-.21,4-.21,6,0,1.57.44,2.05,1.66,2.05a7.2,7.2,0,0,0,5-2.68,3,3,0,0,0,.24.81,1.15,1.15,0,0,1,0,.2c0,.08,0,.15-.17.27a7.8,7.8,0,0,1-5.33,2.35c-1.59,0-2.44-.76-2.44-2.82s.13-4.27.2-6.24a7.79,7.79,0,0,0-.12-2.12A5.34,5.34,0,0,1,21.18,199.55Z"/><path class="unknown_text-sp-3" d="M33.22,200.93c.08,0,.12.1.12.16a.92.92,0,0,1-.05.25,4.7,4.7,0,0,0-.11,1.29,22.51,22.51,0,0,0,.19,3.18c.21,1.65.81,2.86,1.49,2.86s1.09-.9,1.5-2.2a1.8,1.8,0,0,0,.46.7.32.32,0,0,1,.11.35c-.39,1.13-1.15,2.2-2.09,2.2-1.17,0-2.06-1.63-2.37-3.83a31.81,31.81,0,0,1-.25-3.91,5.82,5.82,0,0,0-.11-1.34A4.08,4.08,0,0,1,33.22,200.93ZM39.9,202a.18.18,0,0,1,.21,0,8.49,8.49,0,0,1,2.73,4.85.16.16,0,0,1-.1.18,2.56,2.56,0,0,1-.64.32c-.1,0-.17,0-.18-.11a8.2,8.2,0,0,0-2.64-4.86A6.62,6.62,0,0,1,39.9,202Z"/><path class="unknown_text-sp-3" d="M51.56,199a13.21,13.21,0,0,0,6.29,4.75,2.71,2.71,0,0,0-.42.57c-.08.16-.11.23-.18.23a.79.79,0,0,1-.2-.07,13.89,13.89,0,0,1-5.94-4.82,14.88,14.88,0,0,1-5.7,4.89.72.72,0,0,1-.21.08c-.07,0-.1-.06-.18-.2a2,2,0,0,0-.44-.51,13.27,13.27,0,0,0,5.76-4.71,2.47,2.47,0,0,0,.37-.83c.36.06.63.11.89.18s.2.1.2.17a.2.2,0,0,1-.11.17Zm5.76,11.51c0,.1,0,.12-.11.12s-.52,0-1.84,0H47c-1.3,0-1.75,0-1.82,0s-.11,0-.11-.12v-.61c0-.1,0-.12.11-.12s.52,0,1.82,0h.59v-3.15a7.65,7.65,0,0,0-.1-1.68,8.69,8.69,0,0,1,.94.08c.11,0,.17.06.17.12a.7.7,0,0,1-.08.26,4.8,4.8,0,0,0-.07,1.23v3.14H51v-5.59a7.86,7.86,0,0,0-.1-1.68c.34,0,.66.05,1,.09.1,0,.17.07.17.12a.61.61,0,0,1-.08.27,4.25,4.25,0,0,0-.07,1.22v1.43h1.69c1.22,0,1.63,0,1.71,0s.11,0,.11.11v.6c0,.1,0,.11-.11.11s-.49,0-1.71,0H51.87v3.37h3.5c1.32,0,1.75,0,1.84,0s.11,0,.11.12Z"/><path class="unknown_text-sp-3" d="M71.16,200c0,.09,0,.1-.11.1s-.52,0-1.86,0h-3.7v1.83h1.08c1.29,0,1.72,0,1.81,0s.11,0,.11.11,0,.47,0,1.55v3c0,1.06,0,1.47,0,1.54s0,.11-.11.11-.52,0-1.81,0H63.68c-1.27,0-1.71,0-1.79,0s-.11,0-.11-.11,0-.48,0-1.54v-3c0-1.08,0-1.48,0-1.55s0-.11.11-.11.52,0,1.79,0h1v-1.83H61.13c-1.33,0-1.78,0-1.85,0s-.11,0-.11-.1v-.61c0-.11,0-.13.11-.13s.52,0,1.85,0h8.06c1.34,0,1.78,0,1.86,0s.11,0,.11.13ZM70,203.53a9.28,9.28,0,0,0-.1-1.71c.44,0,.7.05.93.08s.18.07.18.15a.31.31,0,0,1-.07.21,3.47,3.47,0,0,0-.1,1.28v4.79c0,1.81,0,2.62,0,2.69s0,.11-.11.11h-.65c-.1,0-.11,0-.11-.11v-.7H60.32v.7c0,.1,0,.11-.11.11h-.63c-.1,0-.11,0-.11-.11s0-.88,0-2.66v-4.85a10.64,10.64,0,0,0-.08-1.69c.35,0,.56,0,.88.08.13,0,.2.08.2.15a.74.74,0,0,1-.1.27,5.07,5.07,0,0,0-.07,1.23v6H70Zm-5.31-.93h-2.1v2h2.1Zm0,2.66h-2.1v2.2h2.1Zm3-2.66H65.49v2h2.17Zm0,2.66H65.49v2.2h2.17Z"/><path class="unknown_text-sp-3" d="M80.3,204.88a1.16,1.16,0,1,1-1.16-1.16A1.16,1.16,0,0,1,80.3,204.88Z"/><path class="unknown_text-sp-3" d="M94.36,207.81c0,.84,0,1.64,0,2.54,0,.12,0,.17-.14.17h-.81c-.11,0-.14-.05-.14-.17,0-.84,0-1.68,0-2.5v-4.14A26.9,26.9,0,0,1,89,206.87a.26.26,0,0,1-.33-.05,2.16,2.16,0,0,0-.7-.45,25.18,25.18,0,0,0,4.36-3,24,24,0,0,0,2.72-2.7,4.39,4.39,0,0,0,1-1.58,4.07,4.07,0,0,1,1,.63.22.22,0,0,1-.06.39,3.59,3.59,0,0,0-.78.74,24.71,24.71,0,0,1-1.75,1.94Z"/><path class="unknown_text-sp-3" d="M102.9,204.62l2-2c.33-.34.53-.45.82-.45a1.26,1.26,0,0,1,.86.38,51.31,51.31,0,0,0,6.43,4.59c.12.08.14.16.08.27a4.27,4.27,0,0,1-.44.7c-.07.1-.13.13-.25,0-2.22-1.52-4.37-3.12-6.34-4.76a.49.49,0,0,0-.28-.15.34.34,0,0,0-.27.12c-.63.63-1.4,1.45-2.35,2.47a4.72,4.72,0,0,0-.6.76.2.2,0,0,1-.33.05,8.29,8.29,0,0,1-.81-.74A10.34,10.34,0,0,0,102.9,204.62Zm6.41-3.6c.07-.06.11,0,.17,0a6.73,6.73,0,0,1,1.58,1.69.11.11,0,0,1,0,.16l-.4.33a.11.11,0,0,1-.18,0,6.21,6.21,0,0,0-1.63-1.79Zm1.19-.93a.12.12,0,0,1,.16,0,7.73,7.73,0,0,1,1.59,1.64c0,.07,0,.11,0,.17l-.38.33c0,.06-.11.06-.17,0a6.71,6.71,0,0,0-1.61-1.75Z"/><path class="unknown_text-sp-3" d="M117,200.74a.16.16,0,0,1,.25,0,12.8,12.8,0,0,1,2.52,1.86c.1.1.11.16,0,.27a5.23,5.23,0,0,1-.47.6c-.09.1-.13.11-.23,0a14.93,14.93,0,0,0-2.66-2.07C116.67,201.16,116.88,200.91,117,200.74Zm1.26,7.42a23.82,23.82,0,0,0,4-2.6,22.14,22.14,0,0,0,3.79-3.77,4.24,4.24,0,0,0,.23.92.38.38,0,0,1-.09.49,25,25,0,0,1-3.41,3.22,29.09,29.09,0,0,1-4.2,2.74,5.27,5.27,0,0,0-.77.54.23.23,0,0,1-.38,0,5.33,5.33,0,0,1-.68-.95A8.81,8.81,0,0,0,118.3,208.16Z"/><path class="unknown_text-sp-3" d="M134.45,203.3a19.54,19.54,0,0,1,4.57,1.95c.11.05.14.12.1.22a4.93,4.93,0,0,1-.34.69c-.08.11-.14.14-.26.05a15.71,15.71,0,0,0-4.08-1.87v3.25c0,.85,0,1.94,0,2.86,0,.13,0,.18-.18.18h-.71c-.16,0-.2,0-.2-.2,0-.9.05-2,.05-2.84v-6.24a11.78,11.78,0,0,0-.15-2.24,6.77,6.77,0,0,1,1.16.18c.23.06.17.21.1.43a5.9,5.9,0,0,0-.1,1.55Z"/><path class="unknown_text-sp-3" d="M150.37,208.18c0,.11,0,.15-.15.16a3.58,3.58,0,0,1-.6.06c-.09,0-.13-.07-.13-.17,0-.61,0-1.3,0-2-1.54.78-2.29,1.49-2.29,2.33s.77,1.16,2.39,1.16a24.91,24.91,0,0,0,3.34-.28c.07,0,.12,0,.15.1a4.17,4.17,0,0,1,.08.69c0,.12,0,.18-.11.19a26.8,26.8,0,0,1-3.46.2c-2,0-3.23-.51-3.23-2,0-1.18.77-2.13,3.09-3.27,0-1-.35-1.33-1.17-1.31a3.94,3.94,0,0,0-2.3,1.13c-.51.48-.84.84-1.33,1.36-.09.1-.14.1-.21,0A5.07,5.07,0,0,1,144,206c0-.08-.06-.11,0-.2a15.07,15.07,0,0,0,3.25-3.89,25,25,0,0,1-2.6,0c-.11,0-.14,0-.16-.14s-.06-.48-.08-.7a29.51,29.51,0,0,0,3.25,0,10.33,10.33,0,0,0,.5-1.4,1.94,1.94,0,0,0,.12-.75,4.79,4.79,0,0,1,1.05.3.18.18,0,0,1,0,.31,1.47,1.47,0,0,0-.26.4c-.16.35-.29.64-.47,1.06a26.61,26.61,0,0,0,2.95-.46c.12,0,.14,0,.17.05s.07.4.09.62,0,.14-.19.17c-1.1.19-2.29.35-3.41.46a12.63,12.63,0,0,1-1.43,2.09v0a3.07,3.07,0,0,1,1.75-.61,1.63,1.63,0,0,1,1.77,1.64c.68-.31,1.48-.67,2.18-1a3.84,3.84,0,0,0,1.07-.71,3.22,3.22,0,0,1,.68.81c.11.21,0,.3-.14.32a4,4,0,0,0-.77.23c-1.06.45-2,.77-3,1.2Z"/><path class="unknown_text-sp-3" d="M160.7,203.34c.13-.05.17-.05.21,0a12.62,12.62,0,0,1,.91,2.4c0,.09,0,.12-.12.18l-.34.13c-.18.06-.2.06-.22-.06l-.21-.79c-.37.06-.72.1-1.05.13v3.75c0,1.53,0,2,0,2s0,.1-.11.1h-.63c-.1,0-.11,0-.11-.1s0-.52,0-2v-3.67c-.45.05-.88.07-1.33.1a1.74,1.74,0,0,0-.54.11.27.27,0,0,1-.15,0c-.07,0-.11-.06-.14-.17l-.13-.76c.33,0,.56,0,.83,0h.11c.38-.49.74-1,1.1-1.49a17.87,17.87,0,0,0-2-2.15c-.08-.08-.07-.11,0-.25l.23-.28c.11-.13.14-.14.22-.07l.55.53a19.05,19.05,0,0,0,1.08-1.85,3,3,0,0,0,.24-.67,6.27,6.27,0,0,1,.74.35c.1.06.14.1.14.17s0,.1-.11.15a1.36,1.36,0,0,0-.3.38c-.45.76-.8,1.33-1.27,2l.89,1c.4-.6.77-1.25,1.17-1.91a4,4,0,0,0,.29-.7,5.66,5.66,0,0,1,.74.35c.1.06.13.1.13.17s0,.11-.13.17a2.07,2.07,0,0,0-.46.62c-.78,1.24-1.58,2.41-2.38,3.46.69,0,1.37-.09,2.09-.17-.13-.34-.27-.65-.42-1-.06-.09,0-.11.14-.19ZM158.36,207a1.26,1.26,0,0,0-.11.42,12.5,12.5,0,0,1-.63,2.63c0,.13-.07.2-.13.2s-.11,0-.21-.11a1.84,1.84,0,0,0-.47-.2,9.27,9.27,0,0,0,.7-2.67,3.56,3.56,0,0,0,0-.73,4.74,4.74,0,0,1,.7.14c.14,0,.2.08.2.14A.35.35,0,0,1,158.36,207Zm2.54-.56c.15,0,.17,0,.21.07a14.41,14.41,0,0,1,.61,2.34c0,.12,0,.14-.16.19l-.31.1c-.18.06-.23.06-.24,0a12.34,12.34,0,0,0-.55-2.4c0-.1,0-.11.16-.17Zm3.89-.28a3.05,3.05,0,0,0-.08.71c-.1,1.87-.53,3.2-2.84,4.16a.49.49,0,0,1-.22.07c-.06,0-.11,0-.19-.19a1.42,1.42,0,0,0-.44-.44c2.27-.71,2.85-1.93,2.89-3.61a7.93,7.93,0,0,0,0-1.21l.77.1c.14,0,.22.06.22.14A.83.83,0,0,1,164.79,206.16Zm4.43-5.23c0,.1,0,.12-.11.12s-.52,0-1.85,0h-1.51v1.29h1.12c1.26,0,1.66,0,1.73,0s.12,0,.12.11v.53c0,.1,0,.11-.12.11s-.47,0-1.73,0h-2.68c-1.27,0-1.68,0-1.75,0s-.1,0-.1-.11v-.53c0-.1,0-.11.1-.11s.48,0,1.75,0H165V201h-1c-1.35,0-1.78,0-1.85,0s-.12,0-.12-.12v-.54c0-.09,0-.1.12-.1s.5,0,1.85,0h1v-.38a5.62,5.62,0,0,0-.1-1.39l.88.07c.11,0,.18.07.18.11a.51.51,0,0,1-.09.26,2.25,2.25,0,0,0-.07.89v.44h1.51c1.33,0,1.78,0,1.85,0s.11,0,.11.1Zm-.16,4.15c0,1,0,1.08,0,1.15s0,.11-.11.11h-.6c-.11,0-.11,0-.11-.11v-1.4h-5.42v1.4c0,.1,0,.11-.1.11h-.61c-.09,0-.11,0-.11-.11s0-.18,0-1.15v-.29c0-.34,0-.48,0-.55s0-.14.11-.14.54,0,1.84,0h3.15c1.32,0,1.78,0,1.85,0s.11,0,.11.11,0,.21,0,.49Zm-2.39,4.58c0,.28,0,.41.13.46a1.63,1.63,0,0,0,.75.12c.6,0,.87-.12,1-.29a2.93,2.93,0,0,0,.23-1.47,1.64,1.64,0,0,0,.46.27c.24.1.24.1.24.35,0,.88-.19,1.23-.42,1.47a2.1,2.1,0,0,1-1.56.41,2.79,2.79,0,0,1-1.2-.16c-.24-.12-.41-.3-.41-.95V207.2a10.31,10.31,0,0,0-.07-1.55c.32,0,.58,0,.84.09s.18.07.18.12a.69.69,0,0,1-.08.28c-.06.14-.07.26-.07,1.14Z"/><path class="unknown_text-sp-3" d="M175.89,203.44a15.55,15.55,0,0,1-3.46,3.76c-.11.09-.17.12-.26.07a2.06,2.06,0,0,0-.73-.33,15.9,15.9,0,0,0,4.57-5.36,5.32,5.32,0,0,0,.7-1.85,4.27,4.27,0,0,1,1,.41c.13.09.13.23,0,.35a1.86,1.86,0,0,0-.39.51c-.3.56-.65,1.17-.94,1.64l3.07,0a1.33,1.33,0,0,0,.63-.1.27.27,0,0,1,.32,0,2.13,2.13,0,0,1,.5.43c.14.14.13.27.05.35a1.85,1.85,0,0,0-.35.52,14.77,14.77,0,0,1-2.69,3.75,13.14,13.14,0,0,1,1.42,1.6c.1.11.1.15,0,.27a2.86,2.86,0,0,1-.47.39c-.11.07-.16.08-.24,0a12.72,12.72,0,0,0-3.8-3.47c.19-.19.33-.34.5-.49s.12-.09.25,0a14.62,14.62,0,0,1,1.72,1.26,12.67,12.67,0,0,0,2.54-3.72Z"/><path class="unknown_text-sp-3" d="M190.38,201.87c0,.87,0,1.22,0,1.29s0,.11-.11.11-.42,0-1.4,0h-2.54v4.89c0,2,0,2.83,0,2.92s0,.11-.11.11h-.66c-.1,0-.11,0-.11-.11s0-.91,0-2.92v-6.06c0-2,0-2.86,0-2.94s0-.12.11-.12.55,0,1.58,0h1.7c1,0,1.33,0,1.4,0s.11,0,.11.12,0,.43,0,1.29Zm-.79-2.14h-3.23v1.06h3.23Zm0,1.74h-3.23v1.1h3.23Zm5.44,6c0,.1,0,.11-.11.11s-.53,0-1.9,0h-.2V209c0,1,0,1.46,0,1.54s0,.11-.11.11h-.62c-.1,0-.11,0-.11-.11s0-.5,0-1.54v-1.5h-2a5.3,5.3,0,0,1-.42,1.6,4.36,4.36,0,0,1-1.25,1.58c-.08.07-.14.11-.18.11s-.11,0-.23-.16a1.4,1.4,0,0,0-.49-.34,3.42,3.42,0,0,0,1.41-1.46,3.47,3.47,0,0,0,.36-1.33h-.09c-1.37,0-1.82,0-1.9,0s-.11,0-.11-.11v-.52c0-.1,0-.11.11-.11s.53,0,1.9,0h.15c0-.44,0-1,0-1.67-1.12,0-1.53,0-1.57,0s-.13,0-.13-.12v-.51c0-.1,0-.12.13-.12s.49,0,1.81,0h3.1c1.32,0,1.76,0,1.83,0s.09,0,.09.12v.51c0,.1,0,.12-.09.12s-.49,0-1.7,0v1.67h.2c1.37,0,1.83,0,1.9,0s.11,0,.11.11Zm-3-2.27h-1.9c0,.66,0,1.2,0,1.67H192Zm4.72,2.42c0,.77,0,1.5,0,2s-.1.86-.37,1.07-.57.28-1.69.28c-.27,0-.25,0-.32-.27a2.36,2.36,0,0,0-.25-.62,7.15,7.15,0,0,0,1,.06c.61,0,.74-.11.74-.67v-6.24h-2.56c-1.1,0-1.45,0-1.52,0s-.12,0-.12-.11,0-.33,0-1.2v-1.63c0-.85,0-1.12,0-1.2s0-.12.12-.12.42,0,1.52,0h1.79c1.08,0,1.44,0,1.51,0s.11,0,.11.12,0,.64,0,2Zm-.83-7.87h-3.37v1.06h3.37Zm0,1.74h-3.37v1.1h3.37Z"/><path class="unknown_text-sp-3" d="M200.35,205.23c0-.53,0-1.33,0-2a16.13,16.13,0,0,1-1.31,1.77c-.08.09-.12.15-.16.15s-.07-.06-.12-.14a1.71,1.71,0,0,0-.33-.56,14,14,0,0,0,2.79-5,4.6,4.6,0,0,0,.21-.94,6,6,0,0,1,.84.3c.09,0,.14.1.14.16s-.06.13-.13.2a1.67,1.67,0,0,0-.27.52c-.26.73-.56,1.41-.88,2.09v7.06c0,1.48,0,2.13,0,2.2s0,.11-.1.11h-.66c-.09,0-.11,0-.11-.11s0-.72,0-2.2Zm10.87,5.1c0,.1,0,.12-.11.12s-.52,0-1.85,0h-5.17v.67c0,.1,0,.11-.11.11h-.59c-.1,0-.11,0-.11-.11s0-.48,0-1.56v-3.26c0-.36,0-.73,0-1.11a10.52,10.52,0,0,1-1.08,1.22c-.1.09-.15.13-.21.13s-.08,0-.14-.13a1.29,1.29,0,0,0-.38-.39,10,10,0,0,0,2.19-2.79,3.77,3.77,0,0,0,.38-1,5.87,5.87,0,0,1,.75.26c.1.05.14.1.14.16s-.07.12-.14.18a2.93,2.93,0,0,0-.45.66l-.21.38h2.54a6.34,6.34,0,0,0,.43-.87,3.06,3.06,0,0,0,.21-.73c.31.07.61.16.76.21s.15.1.15.14a.19.19,0,0,1-.09.18.72.72,0,0,0-.23.28,8.25,8.25,0,0,1-.4.79H209c1.29,0,1.73,0,1.8,0s.11,0,.11.11v.49c0,.1,0,.11-.11.11s-.51,0-1.8,0h-1.54v1.28h2.86c.1,0,.11,0,.11.1v.47c0,.1,0,.12-.11.12s-.49,0-1.75,0h-1.11v1.29h1.11c1.26,0,1.69,0,1.76,0s.12,0,.12.11v.48c0,.1,0,.11-.12.11s-.5,0-1.76,0h-1.11v1.37h1.77c1.33,0,1.79,0,1.85,0s.11,0,.11.11Zm-1.39-9.93a4.35,4.35,0,0,0-.08-1,7,7,0,0,1,.88.08c.1,0,.15.05.15.13a.35.35,0,0,1-.05.18,1.33,1.33,0,0,0-.09.63v.49c0,.6,0,.85,0,.92s0,.11-.11.11-.56,0-1.92,0H205c-1.37,0-1.85,0-1.93,0s-.11,0-.11-.11,0-.32,0-.92v-.51a6.65,6.65,0,0,0,0-1c.28,0,.59,0,.84.08.1,0,.15.08.15.12a.57.57,0,0,1-.08.25,1.8,1.8,0,0,0-.06.59v.74h2.58v-1a6.52,6.52,0,0,0-.08-1.43c.33,0,.65,0,.86.07s.16.06.16.12a.54.54,0,0,1-.09.25,4.09,4.09,0,0,0-.05,1v1h2.7Zm-3.11,4.11h-2.63v1.28h2.63Zm0,1.93h-2.63v1.29h2.63Zm0,1.93h-2.63v1.37h2.63Z"/><path class="unknown_text-sp-3" d="M224,203.88a.63.63,0,0,0,.35-.06.35.35,0,0,1,.17-.06c.07,0,.16.05.45.27s.28.27.28.38-.05.14-.17.21a1.61,1.61,0,0,0-.51.46,11.12,11.12,0,0,1-1.8,1.74c-.1.08-.16.12-.2.12s-.11-.05-.24-.15a3.21,3.21,0,0,0-.6-.34,9.37,9.37,0,0,0,2-1.73h-3.9v3.06c0,.79,0,1.4,0,1.92s-.11.83-.37,1-.71.28-2,.26c-.29,0-.29,0-.36-.29a3.22,3.22,0,0,0-.28-.69,13.15,13.15,0,0,0,1.45.08c.48,0,.63-.11.63-.54v-4.83h-3.54c-1.33,0-1.79,0-1.86,0s-.12,0-.12-.11V204c0-.1,0-.11.12-.11s.53,0,1.86,0h4.4a14.72,14.72,0,0,0-3-2.13c-.11-.06-.1-.06,0-.21l.28-.33c.1-.11.13-.09.2-.05a17.57,17.57,0,0,1,1.78,1.1,18.77,18.77,0,0,0,3.09-2.07h-5.5c-1.42,0-1.89,0-2,0s-.1,0-.1-.11v-.65c0-.09,0-.11.1-.11s.56,0,2,0h5.87a.88.88,0,0,0,.33,0,.6.6,0,0,1,.2-.07c.08,0,.21.08.43.31s.31.35.31.46-.06.14-.2.19a1.66,1.66,0,0,0-.49.3,19.57,19.57,0,0,1-3.36,2.24c.3.24.58.49.84.73.09.07.06.07-.07.19l-.19.19Z"/><path class="unknown_text-sp-3" d="M233.6,209.69a22.21,22.21,0,0,0,3.17.18c.7,0,1.5,0,2.32-.07a2.7,2.7,0,0,0-.19.59c-.06.28-.06.29-.34.31l-1.32,0c-5.53,0-6.43-.9-7.35-2.71a7,7,0,0,1-2.06,2.82c-.1.08-.15.14-.19.14s-.1-.06-.2-.17a1.44,1.44,0,0,0-.48-.38,6.62,6.62,0,0,0,2.71-4.87,4.44,4.44,0,0,0,0-.79,6.45,6.45,0,0,1,.81.16c.17,0,.21.08.21.15a.49.49,0,0,1-.1.22,1,1,0,0,0-.14.35,10.5,10.5,0,0,1-.31,1.43,3.51,3.51,0,0,0,2.58,2.41v-5.94h-1.51c-1.4,0-1.85,0-1.92,0s-.13,0-.13-.11v-.59c0-.1,0-.11.13-.11s.52,0,1.92,0h3.89c1.39,0,1.85,0,1.92,0s.11,0,.11.11v.59c0,.1,0,.11-.11.11s-.53,0-1.92,0H233.6v2.36h2.09c1,0,1.29,0,1.37,0s.11,0,.11.11v.59c0,.1,0,.11-.11.11s-.38,0-1.37,0H233.6Zm5.21-8.22c0,1.19,0,1.36,0,1.44s0,.11-.11.11h-.65c-.09,0-.11,0-.11-.11V201h-9.55v1.93c0,.1,0,.11-.11.11h-.65c-.1,0-.11,0-.11-.11s0-.25,0-1.44V201c0-.46,0-.66,0-.74s0-.1.11-.1.55,0,1.94,0h3V200a5.74,5.74,0,0,0-.1-1.43c.38,0,.65,0,.91.07s.17.06.17.12a.66.66,0,0,1-.08.25,3.15,3.15,0,0,0-.06,1v.2h3.32c1.39,0,1.86,0,1.95,0s.11,0,.11.1,0,.28,0,.64Z"/><path class="unknown_text-sp-3" d="M247.9,210.45h-1.53V209h1.53Zm-.34-3.1h-.9l-.26-8h1.48Z"/><rect class="unknown_text-sp-4" x="30.55" y="253.57" width="187.2" height="4.78" transform="translate(-40.57 24.02) rotate(-9.51)"/><rect class="unknown_text-sp-4" x="-1.32" y="290.49" width="251.47" height="4.93" transform="translate(-46.68 24.57) rotate(-9.51)"/><path class="unknown_text-sp-3" d="M30.37,250.38h1.42v2.7H29v-2.7l1.46-3.12h1.26Zm3.94,0h1.42v2.7H32.91v-2.7l1.46-3.12h1.26Z"/><path class="unknown_text-sp-3" d="M41.25,256c-1.8,0-2.44,0-2.56,0s-.22,0-.22-.22v-1.54c0-.2,0-.22.22-.22s.76,0,2.56,0h4.62V251.3H43c-1.94,0-2.64,0-2.76,0s-.2,0-.2-.22v-1.58c0-.2,0-.22.2-.22s.82,0,2.76,0h2.86v-.7a11.66,11.66,0,0,0-.14-2.38c.74,0,1.52.06,2.2.13.2,0,.32.12.32.23a3.25,3.25,0,0,1-.14.52,7,7,0,0,0-.1,1.46v.74h3.21c1.94,0,2.64,0,2.76,0s.2,0,.2.22v1.58c0,.2,0,.22-.2.22s-.82,0-2.76,0H48v2.84h4.93c1.82,0,2.44,0,2.56,0s.24,0,.24.22v1.54c0,.2,0,.22-.24.22s-.74,0-2.56,0h-4a18.56,18.56,0,0,0,7.55,5.52,5.65,5.65,0,0,0-1,1.46c-.14.34-.22.46-.34.46a1.49,1.49,0,0,1-.48-.2A18.1,18.1,0,0,1,48,257.36c0,3,.1,6,.1,7,0,.2,0,.22-.22.22H46c-.2,0-.22,0-.22-.22,0-.92.1-4,.12-7a19,19,0,0,1-6.34,5.84,1.11,1.11,0,0,1-.46.22c-.12,0-.2-.14-.36-.48a4.87,4.87,0,0,0-1-1.38,16.92,16.92,0,0,0,7-5.56Z"/><path class="unknown_text-sp-3" d="M63.77,256a1,1,0,0,1,0,.26,11,11,0,0,0,3.7,4.34,5.41,5.41,0,0,0-.94,1.46c-.12.28-.2.4-.3.4s-.22-.1-.42-.3a13.24,13.24,0,0,1-2.62-3.52,12.41,12.41,0,0,1-3.46,5.1c-.18.16-.3.24-.4.24s-.26-.14-.42-.38a3.7,3.7,0,0,0-1.08-1.14,9.32,9.32,0,0,0,3.82-5.7c.06-.24.1-.5.14-.76H60.69c-1.7,0-2.28,0-2.4,0s-.24,0-.24-.24v-1.46c0-.18,0-.2.24-.2s.7,0,2.4,0H62c.08-.94.1-2,.12-3.06H60.91c-.3.54-.62,1.08-1,1.58-.16.26-.26.38-.38.38s-.24-.1-.46-.3a3.93,3.93,0,0,0-1.14-.72,11.88,11.88,0,0,0,2.36-4.44,5.36,5.36,0,0,0,.22-1.28,12,12,0,0,1,1.86.42c.22.06.34.14.34.28s-.06.2-.18.34a1.64,1.64,0,0,0-.42.74c-.12.38-.26.78-.42,1.18h2.36c1.74,0,2.32,0,2.44,0s.24,0,.24.22V251c0,.2,0,.22-.24.22s-.7,0-2.44,0c0,1,0,2.06-.12,3.06h.48c1.72,0,2.3,0,2.42,0s.22,0,.22.2v1.46c0,.22,0,.24-.22.24s-.7,0-2.42,0ZM68,263.9c-.2,0-.22,0-.22-.22s0-1.22,0-6V253c0-3.34,0-4.46,0-4.6s0-.2.22-.2.66,0,2.19,0h2.8c1.54,0,2.06,0,2.18,0s.24,0,.24.2,0,1.24,0,4v5.16c0,4.7,0,5.78,0,5.9s0,.22-.24.22H73.48c-.2,0-.22,0-.22-.22v-1.2H69.81v1.42c0,.2,0,.22-.21.22Zm1.86-3.58h3.45V250.16H69.81Z"/><path class="unknown_text-sp-3" d="M81.27,250.26l-1.46,3.12H78.55l1.32-3.12H78.45v-2.7h2.82Zm3.94,0-1.46,3.12H82.49l1.32-3.12H82.39v-2.7h2.82Z"/><path class="unknown_text-sp-3" d="M102.71,256.9c.18.1.2.2.1.36a3.29,3.29,0,0,0-.52,1.52c0,1.26,1.3,1.88,4.74,1.88a25.54,25.54,0,0,0,5.43-.58c.28-.06.38,0,.42.18a16.72,16.72,0,0,1,.32,2c0,.18-.1.26-.34.3a30.27,30.27,0,0,1-6,.48c-4.48,0-6.78-1.44-6.78-4a5.28,5.28,0,0,1,1.06-2.86C101.69,256.36,102.19,256.62,102.71,256.9Zm4.52-7.84c1.47,0,3-.1,4.25-.18.2,0,.28.06.3.22a13.17,13.17,0,0,1,.1,1.7c0,.28-.1.4-.34.42a11.65,11.65,0,0,0-4.9,2,.9.9,0,0,1-.5.18.85.85,0,0,1-.43-.12,4.78,4.78,0,0,0-1.4-.64c1-.68,1.92-1.24,2.62-1.66a13.75,13.75,0,0,1-1.64.06,25,25,0,0,1-3.5-.34c-.18,0-.26-.12-.26-.36,0-.48,0-1.06.08-1.78A25.23,25.23,0,0,0,107.23,249.06Z"/><path class="unknown_text-sp-3" d="M126.73,255.58c-3,.78-4.88,1.5-6.58,2.1a2.3,2.3,0,0,1-.58.22.58.58,0,0,1-.4-.4,15.25,15.25,0,0,1-.66-1.64c.44-.12.62-.18,1-.32a9.81,9.81,0,0,0,1.92-1.18,67.23,67.23,0,0,0,5.71-5.24c-1.23.34-2.31.54-3.57.78-.3.06-.46.08-.76.16a2.1,2.1,0,0,1-.56.2c-.18,0-.34-.18-.48-.44a11.55,11.55,0,0,1-.72-2,13.09,13.09,0,0,0,2,0c1.34-.1,2.8-.34,4.57-.6a2.63,2.63,0,0,0,1.06-.34.64.64,0,0,1,.38-.14c.18,0,.3.1.54.3a6.67,6.67,0,0,1,1,1,.91.91,0,0,1,.24.56c0,.2-.12.34-.36.46a4.79,4.79,0,0,0-.82.6c-2.09,1.84-3.79,3.32-6.07,5l0,.06a78.24,78.24,0,0,1,9.65-2.2c.26,0,.34.1.38.32a8.68,8.68,0,0,1,.22,1.62c0,.2-.1.26-.32.28a14,14,0,0,0-3.72.64c-2.33.8-3.43,2.22-3.43,3.66,0,1.92,2.1,2.5,5,2.5.2,0,.32.1.3.36,0,.5-.2,1.32-.26,1.68s-.16.44-.44.44a11.52,11.52,0,0,1-1.32-.12c-3.77-.38-5.41-2.1-5.41-4.52a4.67,4.67,0,0,1,2.44-3.86Z"/><path class="unknown_text-sp-3" d="M143.59,249.34a13.61,13.61,0,0,0,.2-2.22,14.64,14.64,0,0,1,2.4.66.42.42,0,0,1,.32.4.42.42,0,0,1-.14.3,2.53,2.53,0,0,0-.4.76c-.26.82-.46,1.56-.72,2.4a15.28,15.28,0,0,1,1.6-.08c1.87,0,2.87,1.3,2.87,3.86a17,17,0,0,1-1.08,6.26,2.87,2.87,0,0,1-2.71,1.88,5.3,5.3,0,0,1-2.08-.3.53.53,0,0,1-.36-.56,5.71,5.71,0,0,0-.38-1.86,5.32,5.32,0,0,0,2.3.52c.66,0,1-.24,1.28-1.06a15.45,15.45,0,0,0,.78-5c0-1.4-.25-1.84-1.14-1.84a13.25,13.25,0,0,0-1.68.14,55.23,55.23,0,0,1-4,9.4.33.33,0,0,1-.52.18,9.1,9.1,0,0,1-1.38-.88.41.41,0,0,1-.16-.3.37.37,0,0,1,.08-.22,42.17,42.17,0,0,0,3.66-7.84c-.78.12-1.42.24-2,.34a5.88,5.88,0,0,0-1.1.32.44.44,0,0,1-.64-.26,18.27,18.27,0,0,1-.62-2.06c.88,0,1.76-.06,2.64-.14s1.58-.18,2.36-.3C143.31,250.72,143.45,250,143.59,249.34Zm7.93,1.34c.14-.08.24,0,.38.1a13.38,13.38,0,0,1,3.32,4.86.29.29,0,0,1-.08.4,8.16,8.16,0,0,1-1.5,1c-.2.1-.4.08-.46-.16a13.54,13.54,0,0,0-3.28-5.18A17,17,0,0,1,151.52,250.68Zm.54-2.8c.1-.08.18-.06.3,0a9.2,9.2,0,0,1,1.9,2.14.2.2,0,0,1-.06.32l-.84.62a.21.21,0,0,1-.34-.06,9.92,9.92,0,0,0-2-2.32Zm1.78-1.3c.12-.09.18-.06.3,0a8.35,8.35,0,0,1,1.9,2.06.23.23,0,0,1-.06.36l-.8.62a.21.21,0,0,1-.34-.06,9.46,9.46,0,0,0-2-2.3Z"/><path class="unknown_text-sp-3" d="M160.43,249.34c-1.76,0-2.38,0-2.5,0s-.22,0-.22-.22v-1.64c0-.2,0-.22.22-.22s.74,0,2.5,0h12.33c1.76,0,2.38,0,2.5,0s.22,0,.22.22v1.64c0,.2,0,.22-.22.22l-2.08,0v8.76c0,2.12.06,3.08.06,3.9a2,2,0,0,1-.7,1.86c-.52.4-1.7.52-3.61.52-.63,0-.63,0-.75-.64a5,5,0,0,0-.58-1.54c.74.08,1.68.12,2.42.12s1-.14,1-.74V249.34Zm-.16,11.34c-.2,0-.22,0-.22-.22s0-.7,0-3.76v-2.1c0-1.92,0-2.52,0-2.66s0-.22.22-.22.68,0,2.24,0h3.12c1.59,0,2.1,0,2.25,0s.22,0,.22.22,0,.72,0,2.2v2.24c0,2.92,0,3.48,0,3.6s0,.22-.22.22h-1.59c-.22,0-.23,0-.23-.22v-.86h-4v1.34c0,.2,0,.22-.22.22Zm1.8-3.42h4V253.6h-4Z"/><path class="unknown_text-sp-3" d="M184.47,247.84c.22-.12.3-.06.42.1a25.44,25.44,0,0,1,2.1,3.58c.11.2.08.28-.14.4l-1.14.62c-.22.14-.28.12-.38-.1l-.36-.88c-1.88.28-4,.5-6,.68a2.49,2.49,0,0,0-.8.18.74.74,0,0,1-.3.08c-.12,0-.2-.08-.26-.32-.1-.54-.2-1.16-.26-1.74.52,0,1.12,0,1.64,0a24.7,24.7,0,0,0,1.18-2.78,7.89,7.89,0,0,0,.36-1.36,12.42,12.42,0,0,1,1.9.36c.22.08.32.16.32.3a.5.5,0,0,1-.22.36,1.59,1.59,0,0,0-.36.58c-.32.7-.76,1.64-1.16,2.4,1.08-.08,2.14-.16,3.14-.28-.26-.44-.52-.86-.8-1.28-.12-.18-.08-.24.14-.34Zm1.34,11.76c0,1,0,2.1,0,2.72a2,2,0,0,1-.44,1.58c-.32.28-.7.42-2.2.44-.62,0-.62,0-.74-.6a4.07,4.07,0,0,0-.4-1.18,7.89,7.89,0,0,0,1.2.08c.48,0,.66-.16.66-.6v-1.5h-3.32v1.3c0,1.58,0,2.34,0,2.46s0,.2-.22.2h-1.52c-.2,0-.22,0-.22-.2s0-.84,0-2.46v-6c0-1.62,0-2.36,0-2.5s0-.22.22-.22.64,0,2.12,0h2.5c1.48,0,2,0,2.1,0s.22,0,.22.22,0,1,0,2.68Zm-5.2-4.82v1.34h3.32v-1.34Zm3.32,4.22v-1.34h-3.32V259Zm5.49-9.8a24,24,0,0,0,2.94-1.28,4.5,4.5,0,0,0,1.1-.82,10.21,10.21,0,0,1,1.22,1.28.47.47,0,0,1,.18.34c0,.12-.12.2-.28.24a3.8,3.8,0,0,0-.92.36,31.16,31.16,0,0,1-4.24,1.72v1.18c0,.36.05.5.34.6a5.72,5.72,0,0,0,1.52.12c1.06,0,1.76-.1,2-.36s.24-.64.28-1.74a6.24,6.24,0,0,0,1.4.58c.48.14.48.14.46.68-.14,1.2-.36,1.76-.92,2.14a6.56,6.56,0,0,1-3.34.52,8.65,8.65,0,0,1-3.06-.34c-.46-.18-.68-.56-.68-1.3v-4.74a12,12,0,0,0-.12-2c.63,0,1.34.07,2,.15.21,0,.34.1.34.22a.62.62,0,0,1-.13.34,2.75,2.75,0,0,0-.09,1.1Zm0,12.4c0,.38.07.54.37.68a5.18,5.18,0,0,0,1.6.14,3.66,3.66,0,0,0,1.94-.36c.3-.32.3-.78.34-1.86a5.84,5.84,0,0,0,1.44.56c.5.12.5.14.44.66-.14,1.24-.38,1.82-.94,2.22a6.61,6.61,0,0,1-3.32.62,8.2,8.2,0,0,1-3.16-.36,1.43,1.43,0,0,1-.71-1.46v-5a9.71,9.71,0,0,0-.12-1.94c.65,0,1.35.06,2,.14.22,0,.34.1.34.24a.77.77,0,0,1-.12.36c-.08.16-.11.28-.11,1.06v1a18.61,18.61,0,0,0,3.07-1.46,4.94,4.94,0,0,0,1.08-.84,10.62,10.62,0,0,1,1.24,1.3c.14.18.2.28.2.38s-.14.22-.32.24a3,3,0,0,0-.9.36,41.27,41.27,0,0,1-4.37,1.9Z"/><path class="unknown_text-sp-3" d="M199.17,250.68c.26.06.3.1.28.32a17.45,17.45,0,0,1-.64,4.38c-.06.2-.1.16-.32.08l-1-.4c-.26-.1-.28-.2-.22-.4a16.61,16.61,0,0,0,.64-4.06c0-.2,0-.18.32-.12Zm.8-1.38a18.37,18.37,0,0,0-.16-3c.76,0,1.44.06,2.1.13.2,0,.32.12.32.23a.9.9,0,0,1-.1.38,7.93,7.93,0,0,0-.14,2.22v11.62c0,2.26,0,3.4,0,3.5s0,.24-.22.24h-1.66c-.2,0-.22,0-.22-.24s0-1.24,0-3.48Zm3.12.36c.22-.08.28-.06.36.12a19.59,19.59,0,0,1,.78,2.46,17.77,17.77,0,0,0,.94-3.24,10.92,10.92,0,0,0,.14-1.44,15.34,15.34,0,0,1,1.92.5c.26.1.34.18.34.28a.39.39,0,0,1-.11.28,1.44,1.44,0,0,0-.24.62c-.11.48-.23,1-.37,1.5h1.85V249.3a21.08,21.08,0,0,0-.16-3c.76,0,1.5.06,2.18.13.2,0,.32.11.32.21a1.47,1.47,0,0,1-.1.4,8.15,8.15,0,0,0-.14,2.22v1.5h1.68c1.78,0,2.38,0,2.5,0s.22,0,.22.22v1.54c0,.2,0,.22-.22.22s-.72,0-2.5,0H210.8v3.48h1.08c1.8,0,2.42,0,2.54,0s.22,0,.22.22v1.56c0,.2,0,.22-.22.22s-.74,0-2.54,0H210.8V262h2c2,0,2.62,0,2.74,0s.22,0,.22.22v1.54c0,.22,0,.24-.22.24s-.78,0-2.74,0h-6.65c-2,0-2.64,0-2.74,0s-.22,0-.22-.24v-1.54c0-.2,0-.22.22-.22s.78,0,2.74,0h2.53V258h-1.21c-1.8,0-2.4,0-2.54,0s-.22,0-.22-.22V256.3c0-.2,0-.22.22-.22s.74,0,2.54,0h1.21v-3.48h-2.47a22.06,22.06,0,0,1-1,2.3c-.16.3-.24.42-.36.42a1,1,0,0,1-.38-.2,5.7,5.7,0,0,0-1.44-.66,12.92,12.92,0,0,0,.94-1.82l-.84.3c-.26.1-.32.1-.36-.12a13.68,13.68,0,0,0-.72-2.6c-.08-.22-.06-.26.2-.34Z"/><path class="unknown_text-sp-3" d="M218.57,259.56a.43.43,0,0,1,.3-.16.4.4,0,0,1,.26.12,14.89,14.89,0,0,1,4,3.66c.12.16.14.22.14.3s0,.18-.2.32l-1.22,1c-.14.12-.22.18-.28.18s-.18,0-.28-.2a14.93,14.93,0,0,0-3.78-3.82c-.12-.08-.18-.14-.18-.2s0-.12.14-.24Z"/><path class="unknown_text-sp-3" d="M5.67,288.7c-1.76,0-2.34,0-2.46,0s-.2,0-.2-.22v-1.44c0-.2,0-.22.2-.22s.7,0,2.46,0H8.25A12.55,12.55,0,0,0,9,285a3.12,3.12,0,0,0,.14-.88c.66.12,1.16.28,1.74.42.2.06.24.14.24.28a.35.35,0,0,1-.16.3,1.07,1.07,0,0,0-.3.46c-.22.5-.38.86-.62,1.32,1.38,0,2,0,2.16,0s.22,0,.22.22v1.44c0,.2,0,.22-.22.22s-.72,0-2.46,0H8.83a5.74,5.74,0,0,0,0,1.1v.36h.68c1.7,0,2.28,0,2.4,0s.22,0,.22.22v1.42c0,.2,0,.22-.22.22s-.7,0-2.4,0H9.33a9.38,9.38,0,0,0,2.56,2.1,5.75,5.75,0,0,0-.7,1.28c-.08.2-.14.32-.24.32s-.22-.08-.42-.28a9.87,9.87,0,0,1-1.78-2.08c0,2.78.1,4.36.1,5.06,0,.2,0,.22-.24.22H7c-.2,0-.22,0-.22-.22,0-.66.06-2.12.08-4.62A15.81,15.81,0,0,1,4.29,297c-.2.18-.32.28-.42.28s-.22-.14-.32-.4a5.63,5.63,0,0,0-.78-1.34,12.25,12.25,0,0,0,3.54-3.56h-.5c-1.72,0-2.3,0-2.42,0s-.22,0-.22-.22v-1.42c0-.2,0-.22.22-.22s.7,0,2.42,0h1v-.36c0-.46,0-.8,0-1.1ZM6,283.9c-1.66,0-2.24,0-2.36,0s-.22,0-.22-.22v-1.38c0-.2,0-.22.22-.22s.7,0,2.36,0h.78v-.54a5.69,5.69,0,0,0-.12-1.32c.72,0,1.36,0,2.08.1.2,0,.32.08.32.18a.78.78,0,0,1-.12.34,1.37,1.37,0,0,0-.1.72v.52h.68c1.66,0,2.22,0,2.34,0s.24,0,.24.22v1.38c0,.2,0,.22-.24.22s-.68,0-2.34,0Zm-.3,2.84c-.26.08-.34.06-.4-.16a8.23,8.23,0,0,0-.56-1.76c-.12-.22-.1-.28.18-.34l1-.3c.24-.06.28,0,.36.14a8.75,8.75,0,0,1,.74,1.8c.06.2,0,.26-.2.32ZM15,288.6a26,26,0,0,1-.52,5.78,10.87,10.87,0,0,1-1.72,3.8c-.18.24-.28.38-.42.38s-.22-.1-.44-.28a4.58,4.58,0,0,0-1.3-.8,9.23,9.23,0,0,0,2.06-4.06,25.93,25.93,0,0,0,.4-5.76v-2.18c0-1.18,0-2.24-.12-3.42a9.69,9.69,0,0,1,1.84.48,14.25,14.25,0,0,0,3.47-1.38,5.12,5.12,0,0,0,1.06-.75,8.52,8.52,0,0,1,1.3,1.43.64.64,0,0,1,.14.38c0,.12-.12.22-.3.24a2.23,2.23,0,0,0-.78.24A21.76,21.76,0,0,1,15,284.34v2.44h3.43c1.94,0,2.6,0,2.72,0s.22,0,.22.22v1.46c0,.2,0,.22-.22.22l-2,0v7c0,1.88,0,2.66,0,2.76s0,.24-.2.24H17.36c-.2,0-.22,0-.22-.24s0-.88,0-2.76v-7Z"/><path class="unknown_text-sp-3" d="M29.93,281.62c.34.08.48.18.48.38a1.94,1.94,0,0,1-.2.66,12,12,0,0,0-.28,2.44c-.2,3.08-.3,5.12-.3,7.74,0,2,.24,2.48,1.84,2.48,1.78,0,4.57-1.08,7-3.68a7,7,0,0,0,.46,1.9,1.31,1.31,0,0,1,.16.48c0,.18-.08.34-.4.62a11.45,11.45,0,0,1-7.59,3c-2.56,0-3.76-1-3.76-4.08,0-3.36.18-6.24.28-8.64a13.3,13.3,0,0,0-.2-3.66A20.69,20.69,0,0,1,29.93,281.62Z"/><path class="unknown_text-sp-3" d="M47,283.8c.18.08.32.22.32.36a1.74,1.74,0,0,1-.16.56,9,9,0,0,0-.18,2,25.19,25.19,0,0,0,.36,4.56c.28,1.58.8,2.94,1.64,2.94.64,0,1.14-.7,1.92-2.78a7.65,7.65,0,0,0,1.28,1.54.61.61,0,0,1,.14.74c-.76,2-2,3.12-3.4,3.12-1.56,0-3.2-1.84-3.74-5.22a36.26,36.26,0,0,1-.48-5.82,10.72,10.72,0,0,0-.24-2.62A8.66,8.66,0,0,1,47,283.8Zm9.29,1.26a.62.62,0,0,1,.21-.08.31.31,0,0,1,.23.12,13.22,13.22,0,0,1,3.92,6.84c.06.26-.06.34-.22.44a6.79,6.79,0,0,1-1.56.8c-.24.08-.38,0-.42-.22a13.48,13.48,0,0,0-3.74-7A16.31,16.31,0,0,1,56.26,285.06Z"/><path class="unknown_text-sp-3" d="M65.63,287.24c-1.74,0-2.34,0-2.46,0s-.2,0-.2-.22V285.5c0-.2,0-.22.2-.22s.72,0,2.46,0h.08V283.8a25.61,25.61,0,0,0-.14-2.9,18.28,18.28,0,0,1,2.18.16c.2,0,.3.12.3.22a2.58,2.58,0,0,1-.12.5,11.53,11.53,0,0,0-.08,2v1.54H71v-1.78a23.79,23.79,0,0,0-.14-2.72c.72,0,1.4.06,2.1.14.18,0,.28.12.28.22a3.33,3.33,0,0,1-.12.52,10.55,10.55,0,0,0-.08,1.84v1.78h3.2v-1.76a24,24,0,0,0-.13-2.74c.74,0,1.41.06,2.12.14.2,0,.3.12.3.22a2,2,0,0,1-.14.52,10.83,10.83,0,0,0-.08,1.88v1.74h.3c1.74,0,2.32,0,2.46,0s.2,0,.2.22v1.56c0,.2,0,.22-.2.22s-.72,0-2.46,0h-.3v2.64c0,2.22,0,3.32,0,3.44s0,.22-.22.22H76.42c-.2,0-.23,0-.23-.22v-.92H73v1c0,.2,0,.22-.22.22H71.11c-.18,0-.2,0-.2-.22s0-1.2,0-3.38v-2.74h-3.1v8.22h9.47c2,0,2.64,0,2.76,0s.22,0,.22.22v1.6c0,.2,0,.22-.22.22s-.8,0-2.76,0H67.85v.88c0,.2,0,.22-.24.22H65.89c-.2,0-.22,0-.22-.22s0-1,0-2.76v-8.3Zm10.56,0H73v3.36h3.2Z"/><path class="unknown_text-sp-3" d="M93.51,294.06a19.92,19.92,0,0,0-.14-2.72c.64,0,1.27.06,1.85.12A12,12,0,0,1,93,288.94h-2.1a12.65,12.65,0,0,1-2,2.4c.54,0,1.16.08,1.66.14.24,0,.38.1.38.28a1,1,0,0,1-.12.38,2.77,2.77,0,0,0-.16.88c-.18,2.62-1.48,4.38-4.24,5.52a1.31,1.31,0,0,1-.48.16c-.16,0-.24-.14-.46-.48a4.5,4.5,0,0,0-1.08-1.14c3-.84,4.08-2.08,4.22-4.22a6.38,6.38,0,0,0,0-1.24,14,14,0,0,1-4.14,2.48,1.39,1.39,0,0,1-.48.14c-.18,0-.24-.14-.42-.5a5.09,5.09,0,0,0-.88-1.26,11.33,11.33,0,0,0,5.82-3.54h-.44c-1.94,0-2.64,0-2.78,0s-.2,0-.2-.2,0-.68,0-2v-3.52c0-1.3,0-1.86,0-2s0-.22.2-.22.84,0,2.78,0h8.07c2,0,2.66,0,2.78,0s.22,0,.22.22,0,.68,0,2v3.52c0,1.3,0,1.86,0,2s0,.2-.22.2-.82,0-2.78,0h-.81a12.34,12.34,0,0,0,6.11,3.38,5.14,5.14,0,0,0-.9,1.38c-.16.38-.22.52-.38.52a1.78,1.78,0,0,1-.46-.14,15.38,15.38,0,0,1-3.88-2.18c0,.1-.07.2-.11.3a10,10,0,0,0-.08,1.84v2c0,1.5,0,2.2,0,2.32s0,.24-.23.24H93.69c-.2,0-.22,0-.22-.24s0-.82,0-2.32ZM91,284.28v-1.5H87.15v1.5Zm0,3v-1.5H87.15v1.5Zm2-4.52v1.5h4v-1.5Zm4,3H93v1.5h4Z"/><path class="unknown_text-sp-3" d="M113.37,284.78a25,25,0,0,1-2.5,8.62,3.8,3.8,0,0,1-3.4,2.3c-1.76,0-3.54-1.88-3.54-5.14a7.37,7.37,0,0,1,2.26-5.2,8.75,8.75,0,0,1,6.5-2.56c4.81,0,7.63,3,7.63,6.94,0,3.72-2.1,6.06-6.17,7.28-.42.12-.59,0-.86-.36a4.24,4.24,0,0,0-1.4-1.26c3.38-.8,6-2.2,6-6a4.54,4.54,0,0,0-4.49-4.64Zm-5.74,1.94a5.76,5.76,0,0,0-1.56,3.7c0,1.84.74,2.86,1.36,2.86s1-.26,1.5-1.22a22.85,22.85,0,0,0,2.12-7.16A6,6,0,0,0,107.63,286.72Z"/><path class="unknown_text-sp-3" d="M127,287.12a33.36,33.36,0,0,1-.56,6.42,13.57,13.57,0,0,1-1.6,4.42c-.14.26-.22.38-.32.38s-.2-.1-.4-.32a7,7,0,0,0-1.34-1.12,11.09,11.09,0,0,0,1.64-4.18,30.53,30.53,0,0,0,.46-6c0-2.5,0-3.64,0-3.76s0-.22.22-.22.82,0,2.72,0h4v-.86a8,8,0,0,0-.12-1.62c.76,0,1.42.06,2.12.12.2,0,.32.08.32.2a.71.71,0,0,1-.12.38,1.9,1.9,0,0,0-.14.86v.92h4.07c1.9,0,2.56,0,2.68,0s.2,0,.2.22v1.52c0,.22,0,.24-.2.24s-.78,0-2.68,0H127Zm9.28,3.24c.27-.12.31-.14.43,0a47.32,47.32,0,0,1,3.84,6.68c.08.2.06.28-.18.4l-1.48.78c-.24.12-.34.06-.42-.14-.26-.6-.52-1.2-.8-1.8-2.59.46-6,1-9.33,1.34a1.91,1.91,0,0,0-.74.22.64.64,0,0,1-.32.12c-.14,0-.22-.08-.3-.3-.16-.56-.32-1.28-.48-2.08a22.49,22.49,0,0,0,2.28,0,56.17,56.17,0,0,0,2.5-7.92,9.69,9.69,0,0,0,.26-1.86,20.56,20.56,0,0,1,2.22.6c.28.08.35.18.35.34a.62.62,0,0,1-.19.4,2.67,2.67,0,0,0-.5,1.12,63,63,0,0,1-2.38,7.1c2-.22,4-.48,5.75-.8a33.88,33.88,0,0,0-2-3.22c-.09-.16-.08-.24.16-.36Z"/><path class="unknown_text-sp-3" d="M149.11,283.34a13.61,13.61,0,0,0,.2-2.22,14.64,14.64,0,0,1,2.4.66.42.42,0,0,1,.32.4.42.42,0,0,1-.14.3,2.53,2.53,0,0,0-.4.76c-.26.82-.46,1.56-.72,2.4a15.28,15.28,0,0,1,1.6-.08c1.86,0,2.86,1.3,2.86,3.86a16.83,16.83,0,0,1-1.08,6.26,2.86,2.86,0,0,1-2.7,1.88,5.3,5.3,0,0,1-2.08-.3.53.53,0,0,1-.36-.56,5.71,5.71,0,0,0-.38-1.86,5.32,5.32,0,0,0,2.3.52c.66,0,1-.24,1.28-1.06a15.45,15.45,0,0,0,.78-5c0-1.4-.26-1.84-1.14-1.84a13.25,13.25,0,0,0-1.68.14,55.23,55.23,0,0,1-4,9.4.33.33,0,0,1-.52.18,9.1,9.1,0,0,1-1.38-.88.41.41,0,0,1-.16-.3.37.37,0,0,1,.08-.22,42.17,42.17,0,0,0,3.66-7.84c-.78.12-1.42.24-2,.34a5.88,5.88,0,0,0-1.1.32.44.44,0,0,1-.64-.26,18.27,18.27,0,0,1-.62-2.06c.88,0,1.76-.06,2.64-.14s1.58-.18,2.36-.3C148.83,284.72,149,284,149.11,283.34Zm7.93,1.34c.14-.08.24,0,.38.1a13.38,13.38,0,0,1,3.32,4.86.29.29,0,0,1-.08.4,8.16,8.16,0,0,1-1.5,1c-.2.1-.4.08-.46-.16a13.66,13.66,0,0,0-3.28-5.18A17,17,0,0,1,157,284.68Zm.54-2.8c.1-.08.18-.06.3,0a9.2,9.2,0,0,1,1.9,2.14.2.2,0,0,1-.06.32l-.84.62a.21.21,0,0,1-.34-.06,9.73,9.73,0,0,0-2-2.32Zm1.78-1.3c.12-.09.18-.06.3,0a8.35,8.35,0,0,1,1.9,2.06.23.23,0,0,1-.06.36l-.8.62a.21.21,0,0,1-.34-.06,9.46,9.46,0,0,0-2-2.3Z"/><path class="unknown_text-sp-3" d="M169.79,281.66c.26.1.38.22.38.4a.46.46,0,0,1-.14.32,2.31,2.31,0,0,0-.36.94c-.28,1.36-.44,2.78-.56,3.82a20.2,20.2,0,0,0-.06,2.2c.44-.78.86-1.54,1.4-2.56a4.15,4.15,0,0,0,.62,1.3.46.46,0,0,1,.12.32.94.94,0,0,1-.2.5,16.37,16.37,0,0,0-1.18,2.56,2.5,2.5,0,0,0-.1.6.28.28,0,0,1-.26.32c-.24.06-1.1.18-1.6.24-.14,0-.24-.12-.28-.26a12.8,12.8,0,0,1-.6-4.06,42.27,42.27,0,0,1,.48-5,18.53,18.53,0,0,0,.16-2.29A11.06,11.06,0,0,1,169.79,281.66Zm6.51-.34c.4.1.44.2.4.54a7.08,7.08,0,0,0,0,.92c.14,1.9.27,3.72.27,5.16a13.24,13.24,0,0,1-1.51,6.94,11.06,11.06,0,0,1-3.31,3.22.69.69,0,0,1-.4.14.58.58,0,0,1-.42-.22,4.64,4.64,0,0,0-1.7-.92,9.9,9.9,0,0,0,3.4-2.68c1.16-1.58,1.69-3.22,1.69-6.38,0-1.42-.11-3.5-.25-4.78a9.58,9.58,0,0,0-.42-2.18A11.66,11.66,0,0,1,176.3,281.32Z"/><path class="unknown_text-sp-3" d="M194.25,294.16c0,.22-.11.32-.38.36a10.82,10.82,0,0,1-1.42.1c-.18,0-.26-.12-.26-.32,0-.72,0-1.72,0-2.44-1.78.92-2.42,1.7-2.42,2.66s.68,1.38,2.78,1.38a34.44,34.44,0,0,0,5-.4c.18,0,.26,0,.28.22a9,9,0,0,1,.18,1.64c0,.24-.06.38-.22.38a35.72,35.72,0,0,1-5,.26c-3.28,0-5-1-5-3.3,0-1.92,1.2-3.32,4.22-4.88-.06-1-.3-1.42-1.2-1.38a4.83,4.83,0,0,0-2.76,1.44,27,27,0,0,0-2,2.18c-.1.12-.16.18-.24.18a.4.4,0,0,1-.22-.14,9.51,9.51,0,0,1-1.14-1.32.33.33,0,0,1-.08-.18c0-.08,0-.14.14-.22a20.44,20.44,0,0,0,4.18-5c-.94,0-2,.06-3.2.06-.18,0-.24-.1-.28-.32s-.14-1.06-.2-1.66a44.11,44.11,0,0,0,4.6,0,15.41,15.41,0,0,0,.6-1.72,4.9,4.9,0,0,0,.14-1.23,13.42,13.42,0,0,1,2.28.57.36.36,0,0,1,.24.34.39.39,0,0,1-.14.3,1.56,1.56,0,0,0-.34.48c-.12.28-.22.54-.46,1.08a32.73,32.73,0,0,0,3.65-.62c.21,0,.28,0,.32.2a7.45,7.45,0,0,1,.2,1.44c0,.2-.06.28-.35.32-1.5.22-3.22.44-4.68.6a20.64,20.64,0,0,1-1.5,2.22l0,0a4,4,0,0,1,2-.62,2.22,2.22,0,0,1,2.45,2.16c.78-.36,1.91-.88,2.94-1.4a6,6,0,0,0,1.52-1.08,12.32,12.32,0,0,1,1.4,1.76.79.79,0,0,1,.16.44c0,.16-.1.24-.3.28a6.4,6.4,0,0,0-1.22.3c-1.3.46-2.6.9-4.31,1.6Z"/><path class="unknown_text-sp-3" d="M206.07,297.64c-1.82,0-2.42,0-2.54,0s-.22,0-.22-.22v-1.68c0-.2,0-.22.22-.22s.72,0,2.54,0h5V292h-2.2c-2,0-2.64,0-2.76,0s-.22,0-.22-.22v-1.62c0-.18,0-.2.22-.2s.8,0,2.76,0h2.2v-3.42h-4.2a15.27,15.27,0,0,1-1.76,2.8c-.18.24-.26.36-.38.36s-.22-.12-.44-.32a4.93,4.93,0,0,0-1.26-.9,17,17,0,0,0,3.22-5.84,6.79,6.79,0,0,0,.28-1.32c.66.12,1.38.32,1.94.48.22.06.36.16.36.3s-.06.2-.2.36a2,2,0,0,0-.38.76l-.48,1.32h3.3v-1a19.12,19.12,0,0,0-.16-3.05c.78,0,1.6.07,2.26.15.2,0,.32.12.32.22a1,1,0,0,1-.1.4,7.93,7.93,0,0,0-.14,2.22v1.1h3.45c2,0,2.62,0,2.74,0s.24,0,.24.22v1.64c0,.2,0,.22-.24.22s-.78,0-2.74,0h-3.45V290h2.5c2,0,2.65,0,2.77,0s.22,0,.22.2v1.62c0,.2,0,.22-.22.22s-.8,0-2.77,0h-2.5v3.64H218c1.8,0,2.42,0,2.54,0s.22,0,.22.22v1.68c0,.2,0,.22-.22.22s-.74,0-2.54,0Z"/><path class="unknown_text-sp-3" d="M227.91,282.4a5.26,5.26,0,0,0-.24-1.64,13.13,13.13,0,0,1,2.38.34c.26.06.42.18.42.34a1,1,0,0,1-.16.46,1.7,1.7,0,0,0-.16.68c0,.38,0,.7,0,1.34.92-.14,1.78-.3,2.76-.54.34-.08.36,0,.38.24a11.89,11.89,0,0,1,.1,1.44c0,.24-.08.28-.24.32a28,28,0,0,1-3.1.54c-.06,1.44-.08,2.2-.12,3.6a4.17,4.17,0,0,1,.18,1.34,3.44,3.44,0,0,1-1,2.6,2.5,2.5,0,0,0-.28,1.2c0,.78.4,1.3,2.62,1.3,3,0,4.61-.76,4.61-2.36a8.69,8.69,0,0,0-.42-2.64,6.7,6.7,0,0,0,2,.58.49.49,0,0,1,.4.36,7.76,7.76,0,0,1,.3,2.2c0,2.52-2,3.94-6.63,3.94-3.54,0-5.06-.9-5.06-2.84a4,4,0,0,1,.2-1.32,1.52,1.52,0,0,1-.32,0,2.64,2.64,0,0,1-2.4-2.88,2.89,2.89,0,0,1,2.66-3.14,3,3,0,0,1,1.06.16c0-.66,0-1.28,0-1.94-1.26.06-2.36.06-3.34,0-.18,0-.24-.08-.26-.3-.06-.4-.12-1-.18-1.68a29.4,29.4,0,0,0,3.78,0Zm-2,8.48c0,.84.42,1.34,1.16,1.32s1-.58,1-1.46a1.07,1.07,0,0,0-1.08-1.22C226.25,289.52,225.87,290.08,225.87,290.88Zm10.77-6.24a.3.3,0,0,1,.42-.08,12.7,12.7,0,0,1,3.78,2.74.27.27,0,0,1,.1.2.42.42,0,0,1-.1.22,10,10,0,0,1-1.14,1.38.31.31,0,0,1-.22.12c-.06,0-.14-.06-.22-.16a12.32,12.32,0,0,0-3.91-3C235.85,285.46,236.35,284.92,236.64,284.64Z"/><path class="unknown_text-sp-3" d="M248.69,296.14a2.9,2.9,0,1,1-2.9-2.88A2.89,2.89,0,0,1,248.69,296.14Zm-4.56,0a1.66,1.66,0,1,0,1.66-1.66A1.63,1.63,0,0,0,244.13,296.14Z"/><path class="unknown_text-sp-2" d="M61.66,155.51a1,1,0,0,1-1-.61,62,62,0,0,1,0-7.46c-.54,1.72-.88,2.76-1,3.13s-.42,1.19-.86,2.48l-.55.54-.57.06-.41-.25-.5-.74-.43-1.2a18.93,18.93,0,0,1-.7-2q-.24-.9-.63-2.1c0,.86,0,1.86,0,3s0,2.55-.11,4.27a1.07,1.07,0,0,1-1,.92l-.54-.41A2.69,2.69,0,0,1,53.2,154q0-3.07-.05-6.71a32.12,32.12,0,0,1,.32-5.38,1,1,0,0,1,1.18-.64,2.53,2.53,0,0,1,.9,1.07,16.43,16.43,0,0,1,.68,1.93c.21.72.45,1.51.71,2.37s.57,1.76.89,2.71q.47-1.24,1.32-3.87A20.8,20.8,0,0,1,60.56,142a1.17,1.17,0,0,1,.83-.43,1.31,1.31,0,0,1,.7.28,2.8,2.8,0,0,1,.19,1.09q.34,10.14-.13,12.23C62,155.4,61.8,155.53,61.66,155.51Z"/><path class="unknown_text-sp-2" d="M71.85,156.09a.86.86,0,0,1-1-.45c-.26-.66-.5-1.39-.72-2.17s-.46-1.61-.75-2.45a19.09,19.09,0,0,0-3.65-.1c-.22,1-.4,1.89-.53,2.6a6.1,6.1,0,0,1-.78,2l-.49.11a1.12,1.12,0,0,1-.56-.29l-.3-.68c.11-.8.26-1.59.44-2.39s.36-1.6.5-2.42c.34-1.27.65-2.47.92-3.6s.57-2.26.9-3.39c.22-.56.45-1.15.7-1.76a1.29,1.29,0,0,1,.88-.23,1,1,0,0,1,.72.68l.61,1.43c.53,1.72,1.06,3.38,1.57,5s1.08,3.3,1.69,5.1a10.86,10.86,0,0,1,.47,2.24C72.41,155.88,72.21,156.13,71.85,156.09Zm-3.16-7c-.23-.72-.45-1.46-.64-2.24a21,21,0,0,0-.73-2.29c-.22.75-.42,1.48-.61,2.18s-.37,1.45-.54,2.27a4.83,4.83,0,0,0,1.21.12Z"/><path class="unknown_text-sp-2" d="M80.86,155.47a2.51,2.51,0,0,1-1.1-.74q-.53-.69-.84-1.2c-.2-.35-.74-1.39-1.62-3.14s-1.47-3-1.81-3.93q.08,7.68,0,8.27a1,1,0,0,1-.86.84,1,1,0,0,1-1-.59,15.46,15.46,0,0,1-.19-2.84q0-2.07,0-9.76c.07-.65.35-1,.82-1a1,1,0,0,1,1.19.68l4.59,9.2.12-9.34a1.13,1.13,0,0,1,1.32-.92,1.09,1.09,0,0,1,.75,1.29q-.12,9.42-.18,10.14v2A1.14,1.14,0,0,1,80.86,155.47Z"/><path class="unknown_text-sp-2" d="M91.85,156.09a.86.86,0,0,1-1-.45c-.26-.66-.5-1.39-.72-2.17s-.46-1.61-.75-2.45a19.09,19.09,0,0,0-3.65-.1c-.22,1-.4,1.89-.53,2.6a6.1,6.1,0,0,1-.78,2l-.49.11a1.12,1.12,0,0,1-.56-.29l-.3-.68c.11-.8.26-1.59.44-2.39s.36-1.6.5-2.42c.34-1.27.65-2.47.92-3.6s.57-2.26.9-3.39c.22-.56.45-1.15.7-1.76a1.29,1.29,0,0,1,.88-.23,1,1,0,0,1,.72.68l.61,1.43c.53,1.72,1.06,3.38,1.57,5s1.08,3.3,1.69,5.1a10.86,10.86,0,0,1,.47,2.24C92.41,155.88,92.21,156.13,91.85,156.09Zm-3.16-7c-.23-.72-.45-1.46-.64-2.24a21,21,0,0,0-.73-2.29c-.22.75-.42,1.48-.61,2.18s-.37,1.45-.54,2.27a4.83,4.83,0,0,0,1.21.12Z"/><path class="unknown_text-sp-2" d="M105.6,156.27a1.37,1.37,0,0,1-.95-.49,13.76,13.76,0,0,1-.55-2.36q-.18-1.23-.72-5.42a39.6,39.6,0,0,1-.49-5.4c.14-.67.6-.88,1.39-.65a3.37,3.37,0,0,1,.41,1.16q.65,5.44.82,7.22.28-2.21,1-7.32l.24-.65a1.08,1.08,0,0,1,1.56.14c.36,1.38.67,2.68.91,3.89s.48,2.5.71,3.86c.09-.89.22-2.07.37-3.52s.27-2.43.33-2.93a7.47,7.47,0,0,1,.37-1.5,1,1,0,0,1,1.45,0c0,.34.1.69.16,1.06s-.25,2.27-.52,5.24-.46,4.82-.58,5.54c-.18,1.07-.4,1.65-.64,1.76a.77.77,0,0,1-.94,0,2.44,2.44,0,0,1-.64-1.23,14.74,14.74,0,0,1-.48-1.77c-.19-.84-.38-1.61-.58-2.32s-.38-1.51-.57-2.44c-.23,1.63-.44,3-.64,4.13s-.44,2.31-.72,3.53A1.1,1.1,0,0,1,105.6,156.27Z"/><path class="unknown_text-sp-2" d="M117.58,155.35a2.83,2.83,0,0,1-1.51-.49,4.69,4.69,0,0,1-2.18-2.4,5.25,5.25,0,0,1-.62-2.11c-.06-.74-.09-1.44-.09-2.11a12.63,12.63,0,0,1,.71-4.37,5.59,5.59,0,0,1,1.6-2,3.35,3.35,0,0,1,1.19-.58,2.57,2.57,0,0,1,1.4,0,4.49,4.49,0,0,1,1.88.62,4.83,4.83,0,0,1,1.41,1.74,3.41,3.41,0,0,1,.64,1.53,8.33,8.33,0,0,1,.29,2.26,22.32,22.32,0,0,1-.07,2.75,9.61,9.61,0,0,1-.83,3,4.23,4.23,0,0,1-1,1.18,6.12,6.12,0,0,1-1.45.84A5.28,5.28,0,0,1,117.58,155.35Zm1.87-2.95a7.23,7.23,0,0,0,.7-1.45,8.19,8.19,0,0,0,.31-2,8.77,8.77,0,0,0-.09-2.26,11.79,11.79,0,0,0-.51-1.77,2.79,2.79,0,0,0-1.4-1.39,3,3,0,0,0-1.45.06,2.2,2.2,0,0,0-1.07,1c-.66.81-.94,2.32-.86,4.53a8.29,8.29,0,0,0,.21,1.51,4.16,4.16,0,0,0,.65,1.48,2.92,2.92,0,0,0,.69.82,2.61,2.61,0,0,0,1.51.23A2.72,2.72,0,0,0,119.45,152.4Z"/><path class="unknown_text-sp-2" d="M124.43,156.05a1.09,1.09,0,0,1-.74-.72c-.21-.62-.34-4.71-.39-12.24a1.28,1.28,0,0,1-.29-.73l.35-.78a1.18,1.18,0,0,1,1-.35l.3.1a6.91,6.91,0,0,1,2.85-.35,3.91,3.91,0,0,1,1.28.28,12.6,12.6,0,0,1,1.18.56l.39.33a4.9,4.9,0,0,1,1.35,1.72,9.56,9.56,0,0,1,.49,1.81,4.67,4.67,0,0,1-.28,1.65,4,4,0,0,1-1,1.42l-.7.66a4.69,4.69,0,0,1-2,1,19.72,19.72,0,0,0,4,4l0,.43-.13.3a5,5,0,0,1-.9.52,4.83,4.83,0,0,1-1.51-.92l-1.38-1.25c-.39-.44-.81-.87-1.25-1.3s-.88-.84-1.31-1.23l-.59-.14c0,.62,0,1.31.1,2s.17,1.48.31,2.21A1,1,0,0,1,124.43,156.05Zm1.84-7,.9,0a3.82,3.82,0,0,0,1.89-1l.68-.92a2.29,2.29,0,0,0,.45-1.76,3.1,3.1,0,0,0-1-1.74,3.19,3.19,0,0,0-2-.88,6,6,0,0,0-2.07.37v5.49A5.44,5.44,0,0,0,126.27,149.06Z"/><path class="unknown_text-sp-2" d="M134.37,155.8l-.45-.21a1.84,1.84,0,0,1-.54-1.64q.13-11.88.43-12.62a1.13,1.13,0,0,1,1-.41,1.39,1.39,0,0,1,.69.78l-.12,12c.69,0,1.81-.08,3.38-.14a10.7,10.7,0,0,1,3.42.28,1.39,1.39,0,0,1,0,1.23,2.7,2.7,0,0,1-1,.37,53.8,53.8,0,0,0-5.4.21A7,7,0,0,1,134.37,155.8Z"/><path class="unknown_text-sp-2" d="M144.55,155.2a.92.92,0,0,1-.88-.38,5.12,5.12,0,0,1-.29-1.5l0-10.88a1.87,1.87,0,0,1,.15-1.09,2.26,2.26,0,0,1,.9-.32,9.49,9.49,0,0,1,3.59.58,7.36,7.36,0,0,1,2.54,1.63,7.74,7.74,0,0,1,.77,1,7.93,7.93,0,0,1,.82,1.81,5.35,5.35,0,0,1,.15,1.63,8.51,8.51,0,0,1-.2,2.21,6.31,6.31,0,0,1-.68,1.79,7.27,7.27,0,0,1-1.54,1.74,8.91,8.91,0,0,1-1.7,1.19,12,12,0,0,1-1.81.46A10,10,0,0,1,144.55,155.2Zm2.83-2.27.53-.35a6,6,0,0,0,1-.8,7.21,7.21,0,0,0,.86-1,5.89,5.89,0,0,0,.55-2c0-.59,0-1.18,0-1.77a4.47,4.47,0,0,0-2.76-3.62,4.54,4.54,0,0,0-2.2-.26l0,10.11a.62.62,0,0,0,.53.1A3.89,3.89,0,0,0,147.38,152.93Z"/><path class="unknown_text-sp-2" d="M160,157.36l-.18-.21-.21-.1-.53-.59a8.85,8.85,0,0,1-.16-1.64q0-3.3.06-6.58a4.27,4.27,0,0,1-.17-1.48v-.53c0-.74.06-1.48.08-2.22a18.88,18.88,0,0,1,.19-2.15l-.59-.59v-.53a4.46,4.46,0,0,1,2.42-.68,20.06,20.06,0,0,0,2.6-.16c.54.07,1.09.12,1.66.15a2.64,2.64,0,0,1,1.51.54l.15.56a4.2,4.2,0,0,1-1.07,1.43c-.39.35-.77.67-1.14,1a5.75,5.75,0,0,0-1,1,10,10,0,0,1,1.11,1,5.31,5.31,0,0,1,.49,2.57,6.85,6.85,0,0,1-.38,1.43,3,3,0,0,1-.85,1.21l-.27.12a3.32,3.32,0,0,1-1.76.37l-.74-.18a5,5,0,0,0-.18,1.33l.12.78a1.79,1.79,0,0,0-.12.8,19.7,19.7,0,0,0,0,2.43l-.37.68h-.31Zm1.17-13.55,1.87-1.76-1-.25-1,.21-.1,1.74Zm1,5.8a3.26,3.26,0,0,0,.86-1.74,3.37,3.37,0,0,0-.49-1.8,2.88,2.88,0,0,0-1.12-.31l-.27-.17-.16.21.06.43-.06.25c0,.88.08,1.74.1,2.6l.12.41A1.41,1.41,0,0,0,162.15,149.61Zm5.72,6a3.88,3.88,0,0,1-1.11-.35,1.39,1.39,0,0,1-.28-1.17c.07-.85.16-1.69.28-2.54,0-2.36,0-4.69,0-7,.1-.6.22-1.18.37-1.74l-.06-.58a7.65,7.65,0,0,1,1-1.8c.76-.21,1.52-.4,2.28-.58a17.94,17.94,0,0,1,2.33-.36l1.55.16.31.15a.55.55,0,0,1,.59.26l.21.58a14.75,14.75,0,0,0-.41,2.48l0,.22c-.07.39-.12.79-.16,1.21l.06.84-.37,1.27-.27.27a.43.43,0,0,0-.49.2l-.26.27a1.51,1.51,0,0,1-.91.16c-.48,0-1,0-1.45,0-.68.1-1.35.23-2,.37l-.21.47c0,.77-.06,1.54-.06,2.32a4.74,4.74,0,0,0,.11,1.64,11.38,11.38,0,0,1,1.82-.53v-.21a11.46,11.46,0,0,1-.86-1.4,3.85,3.85,0,0,1-.43-1.55l.37-.37.92-.06.7.31.26.22a5.81,5.81,0,0,0,.54,1l.22,0a4.3,4.3,0,0,0,1.27-.8l.76-.78.59-.12.89.38.12.68-.27.68a8.76,8.76,0,0,1-2,1.43l-.28.16-.1.33a6.92,6.92,0,0,0,1.61,1.58,9.68,9.68,0,0,1,1.54.78l-.1.9a2.05,2.05,0,0,1-1,.16h-.39a13,13,0,0,1-1.41-.58,9.5,9.5,0,0,1-1.31-.79l-.7-.53a5.28,5.28,0,0,1-1.25.69,3.67,3.67,0,0,0-1.21.79l-.22.16a2.81,2.81,0,0,1-.74.63ZM170,146a9.53,9.53,0,0,0,1.54-.2l.74,0a.85.85,0,0,0,.18-.78l-.12-.22a12.17,12.17,0,0,0-2.83.06l-.31-.06A1.5,1.5,0,0,0,169,146l.37.15.47-.15Zm2.46-3.11c.06-.25.14-.49.21-.74l-.05-.37.05-.31h-.33l-.49,0A6.3,6.3,0,0,1,170,142l-.86.16-.12.74a1.45,1.45,0,0,0,.8.1l1.62-.1.47.06Z"/><path class="unknown_text-sp-2" d="M194,156.7a28.38,28.38,0,0,1-5-.69,23.29,23.29,0,0,1-3.73-1.23,8,8,0,0,1-2.5-1.62,7.3,7.3,0,0,1-.92,1.55,4.31,4.31,0,0,1-1.32,1.1,2.38,2.38,0,0,1-1.59.3l-.47-.15-.15-.43-.1-.22a4.36,4.36,0,0,0,1-.66l.39-.53a2.55,2.55,0,0,0,.84-1,9.15,9.15,0,0,0,1.23-2.74c.26-1,.52-2.15.78-3.49l.41-.09.39.11.66.39.24.9a10.49,10.49,0,0,1-.75,3.24,10.09,10.09,0,0,0,3.25,1.65c0-.67.06-1.35.06-2.05s0-2.68.17-6l-4,0a1.32,1.32,0,0,1-1.08-1.13,1.18,1.18,0,0,1,.47-.47l9.9-.12c.43.13.81.23,1.14.31l.35.45a2.63,2.63,0,0,1-.16.65,16.31,16.31,0,0,1-4.78.25l0,2.79c.11.15,1.93.17,5.45.06a1.09,1.09,0,0,1,.45,1l-.45.7a48.31,48.31,0,0,1-5.55,0c0,.35-.09,1.83-.14,4.43a31.17,31.17,0,0,0,7.11.92l.71.41,0,.22-.21.52A3.81,3.81,0,0,1,194,156.7Zm-14.57-10.92-.21-.31-.47-.26a38.27,38.27,0,0,1-.08-4.21l.92-.92,7.11,0,.06-.84a8,8,0,0,0,0-1.39,1.35,1.35,0,0,1,.95-.27l.74.53.14,2c4.81,0,7.46,0,8,0l.61.39.09.58A7.32,7.32,0,0,1,196,144.9c-.62.07-1-.05-1.25-.35l-.17-.78a6.32,6.32,0,0,0,.58-1.93q-9.66.19-14.64.07a12.57,12.57,0,0,0-.06,3.44A1,1,0,0,1,179.43,145.78Z"/><path class="unknown_text-sp-1" d="M23.15,136.72a17.91,17.91,0,0,0,4.05,12.93A16.92,16.92,0,0,0,32.47,154c1.76.92,4.83,1.84,5.63-.82.63-2.07-1-4.44-2.81-5.34a3.27,3.27,0,0,0-4.75,2.46c-.45,2.36,1.19,5,2.38,6.9a30,30,0,0,0,4.47,5.56,29.56,29.56,0,0,0,14.19,7.68c1.41.31,2-1.86.6-2.17a27.33,27.33,0,0,1-16.91-11.58,16.66,16.66,0,0,1-2.45-4.85c-.18-.76-.11-2.32,1.07-2.14a3,3,0,0,1,2,2c.77,2.26-3.06-.06-3.77-.54a15.1,15.1,0,0,1-3.66-3.56,15.75,15.75,0,0,1-3-10.86c.14-1.44-2.11-1.43-2.25,0Z"/><path class="unknown_text-sp-1" d="M199.41,170.2a33.2,33.2,0,0,0,13.46-6.2c3.42-2.6,8.23-6.51,7.8-11.33a6.16,6.16,0,0,0-3.17-4.82c-1.71-.87-4.17-.6-5.19,1.19-1.12,2,.54,4.11,2.55,4.45,2.2.36,4.66-.88,6.56-1.88A24.37,24.37,0,0,0,232,140.47c.61-1.3-1.33-2.44-1.94-1.13a22.49,22.49,0,0,1-6.12,7.89,22,22,0,0,1-4.2,2.69c-1.22.61-4.1,2.19-5.28,1-.8-.82.43-1.38,1.19-1.3a2.92,2.92,0,0,1,1.9,1.19,4.49,4.49,0,0,1,.14,5c-1.6,3.08-4.83,5.56-7.65,7.47A31,31,0,0,1,198.81,168c-1.42.28-.82,2.45.6,2.17Z"/></svg>